<svg width="100" height="100" viewBox="0 0 100 100" fill="none" xmlns="http://www.w3.org/2000/svg">
<path d="M57 16H55V17.9706H57V16Z" fill="#191919"/>
<path d="M59 16H57V17.9706H59V16Z" fill="#191919"/>
<path d="M61 16H59V17.9706H61V16Z" fill="#191919"/>
<path d="M51 17.9706H49V19.9412H51V17.9706Z" fill="#191919"/>
<path d="M53 17.9706H51V19.9412H53V17.9706Z" fill="#191919"/>
<path d="M55 17.9706H53V19.9412H55V17.9706Z" fill="#191919"/>
<path d="M57 17.9706H55V19.9412H57V17.9706Z" fill="#191919"/>
<path d="M59 17.9706H57V19.9412H59V17.9706Z" fill="#191919"/>
<path d="M61 17.9706H59V19.9412H61V17.9706Z" fill="#191919"/>
<path d="M63 17.9706H61V19.9412H63V17.9706Z" fill="#191919"/>
<path d="M65 17.9706H63V19.9412H65V17.9706Z" fill="#191919"/>
<path d="M45 19.9412H43V21.9118H45V19.9412Z" fill="#191919"/>
<path d="M47 19.9412H45V21.9118H47V19.9412Z" fill="#191919"/>
<path d="M49 19.9412H47V21.9118H49V19.9412Z" fill="#191919"/>
<path d="M51 19.9412H49V21.9118H51V19.9412Z" fill="#272727"/>
<path d="M53 19.9412H51V21.9118H53V19.9412Z" fill="#272727"/>
<path d="M55 19.9412H53V21.9118H55V19.9412Z" fill="#272727"/>
<path d="M57 19.9412H55V21.9118H57V19.9412Z" fill="#272727"/>
<path d="M59 19.9412H57V21.9118H59V19.9412Z" fill="#272727"/>
<path d="M61 19.9412H59V21.9118H61V19.9412Z" fill="#272727"/>
<path d="M63 19.9412H61V21.9118H63V19.9412Z" fill="#191919"/>
<path d="M65 19.9412H63V21.9118H65V19.9412Z" fill="#191919"/>
<path d="M67 19.9412H65V21.9118H67V19.9412Z" fill="#191919"/>
<path d="M69 19.9412H67V21.9118H69V19.9412Z" fill="#191919"/>
<path d="M71 19.9412H69V21.9118H71V19.9412Z" fill="#191919"/>
<path d="M73 19.9412H71V21.9118H73V19.9412Z" fill="#191919"/>
<path d="M41 21.9118H39V23.8824H41V21.9118Z" fill="#191919"/>
<path d="M43 21.9118H41V23.8824H43V21.9118Z" fill="#191919"/>
<path d="M45 21.9118H43V23.8824H45V21.9118Z" fill="#646464"/>
<path d="M47 21.9118H45V23.8824H47V21.9118Z" fill="#646464"/>
<path d="M49 21.9118H47V23.8824H49V21.9118Z" fill="#272727"/>
<path d="M51 21.9118H49V23.8824H51V21.9118Z" fill="#272727"/>
<path d="M53 21.9118H51V23.8824H53V21.9118Z" fill="#272727"/>
<path d="M55 21.9118H53V23.8824H55V21.9118Z" fill="#272727"/>
<path d="M57 21.9118H55V23.8824H57V21.9118Z" fill="#272727"/>
<path d="M59 21.9118H57V23.8824H59V21.9118Z" fill="#272727"/>
<path d="M61 21.9118H59V23.8824H61V21.9118Z" fill="#272727"/>
<path d="M63 21.9118H61V23.8824H63V21.9118Z" fill="#272727"/>
<path d="M65 21.9118H63V23.8824H65V21.9118Z" fill="#272727"/>
<path d="M67 21.9118H65V23.8824H67V21.9118Z" fill="#191919"/>
<path d="M69 21.9118H67V23.8824H69V21.9118Z" fill="#272727"/>
<path d="M71 21.9118H69V23.8824H71V21.9118Z" fill="#191919"/>
<path d="M73 21.9118H71V23.8824H73V21.9118Z" fill="#191919"/>
<path d="M75 21.9118H73V23.8824H75V21.9118Z" fill="#191919"/>
<path d="M77 21.9118H75V23.8824H77V21.9118Z" fill="#191919"/>
<path d="M37 23.8824H35V25.8529H37V23.8824Z" fill="#191919"/>
<path d="M39 23.8824H37V25.8529H39V23.8824Z" fill="#191919"/>
<path d="M41 23.8824H39V25.8529H41V23.8824Z" fill="#646464"/>
<path d="M43 23.8824H41V25.8529H43V23.8824Z" fill="#646464"/>
<path d="M45 23.8824H43V25.8529H45V23.8824Z" fill="#272727"/>
<path d="M47 23.8824H45V25.8529H47V23.8824Z" fill="#272727"/>
<path d="M49 23.8824H47V25.8529H49V23.8824Z" fill="#272727"/>
<path d="M51 23.8824H49V25.8529H51V23.8824Z" fill="#272727"/>
<path d="M53 23.8824H51V25.8529H53V23.8824Z" fill="#272727"/>
<path d="M55 23.8824H53V25.8529H55V23.8824Z" fill="#272727"/>
<path d="M57 23.8824H55V25.8529H57V23.8824Z" fill="#272727"/>
<path d="M59 23.8824H57V25.8529H59V23.8824Z" fill="#272727"/>
<path d="M61 23.8824H59V25.8529H61V23.8824Z" fill="#272727"/>
<path d="M63 23.8824H61V25.8529H63V23.8824Z" fill="#272727"/>
<path d="M65 23.8824H63V25.8529H65V23.8824Z" fill="#272727"/>
<path d="M67 23.8824H65V25.8529H67V23.8824Z" fill="#272727"/>
<path d="M69 23.8824H67V25.8529H69V23.8824Z" fill="#191919"/>
<path d="M71 23.8824H69V25.8529H71V23.8824Z" fill="#272727"/>
<path d="M73 23.8824H71V25.8529H73V23.8824Z" fill="#191919"/>
<path d="M75 23.8824H73V25.8529H75V23.8824Z" fill="#191919"/>
<path d="M77 23.8824H75V25.8529H77V23.8824Z" fill="#191919"/>
<path d="M79 23.8824H77V25.8529H79V23.8824Z" fill="#0E0E0E"/>
<path d="M35 25.8529H33V27.8235H35V25.8529Z" fill="#191919"/>
<path d="M37 25.8529H35V27.8235H37V25.8529Z" fill="#646464"/>
<path d="M39 25.8529H37V27.8235H39V25.8529Z" fill="#646464"/>
<path d="M41 25.8529H39V27.8235H41V25.8529Z" fill="#272727"/>
<path d="M43 25.8529H41V27.8235H43V25.8529Z" fill="#272727"/>
<path d="M45 25.8529H43V27.8235H45V25.8529Z" fill="#191919"/>
<path d="M47 25.8529H45V27.8235H47V25.8529Z" fill="#272727"/>
<path d="M49 25.8529H47V27.8235H49V25.8529Z" fill="#272727"/>
<path d="M51 25.8529H49V27.8235H51V25.8529Z" fill="#272727"/>
<path d="M53 25.8529H51V27.8235H53V25.8529Z" fill="#272727"/>
<path d="M55 25.8529H53V27.8235H55V25.8529Z" fill="#272727"/>
<path d="M57 25.8529H55V27.8235H57V25.8529Z" fill="#272727"/>
<path d="M59 25.8529H57V27.8235H59V25.8529Z" fill="#272727"/>
<path d="M61 25.8529H59V27.8235H61V25.8529Z" fill="#272727"/>
<path d="M63 25.8529H61V27.8235H63V25.8529Z" fill="#272727"/>
<path d="M65 25.8529H63V27.8235H65V25.8529Z" fill="#272727"/>
<path d="M67 25.8529H65V27.8235H67V25.8529Z" fill="#272727"/>
<path d="M69 25.8529H67V27.8235H69V25.8529Z" fill="#191919"/>
<path d="M71 25.8529H69V27.8235H71V25.8529Z" fill="#272727"/>
<path d="M73 25.8529H71V27.8235H73V25.8529Z" fill="#191919"/>
<path d="M75 25.8529H73V27.8235H75V25.8529Z" fill="#191919"/>
<path d="M77 25.8529H75V27.8235H77V25.8529Z" fill="#191919"/>
<path d="M79 25.8529H77V27.8235H79V25.8529Z" fill="#0E0E0E"/>
<path d="M81 25.8529H79V27.8235H81V25.8529Z" fill="#0E0E0E"/>
<path d="M33 27.8235H31V29.7941H33V27.8235Z" fill="#191919"/>
<path d="M35 27.8235H33V29.7941H35V27.8235Z" fill="#646464"/>
<path d="M37 27.8235H35V29.7941H37V27.8235Z" fill="#272727"/>
<path d="M39 27.8235H37V29.7941H39V27.8235Z" fill="#272727"/>
<path d="M41 27.8235H39V29.7941H41V27.8235Z" fill="#272727"/>
<path d="M43 27.8235H41V29.7941H43V27.8235Z" fill="#191919"/>
<path d="M45 27.8235H43V29.7941H45V27.8235Z" fill="#272727"/>
<path d="M47 27.8235H45V29.7941H47V27.8235Z" fill="#272727"/>
<path d="M49 27.8235H47V29.7941H49V27.8235Z" fill="#272727"/>
<path d="M51 27.8235H49V29.7941H51V27.8235Z" fill="#272727"/>
<path d="M53 27.8235H51V29.7941H53V27.8235Z" fill="#272727"/>
<path d="M55 27.8235H53V29.7941H55V27.8235Z" fill="#272727"/>
<path d="M57 27.8235H55V29.7941H57V27.8235Z" fill="#272727"/>
<path d="M59 27.8235H57V29.7941H59V27.8235Z" fill="#272727"/>
<path d="M61 27.8235H59V29.7941H61V27.8235Z" fill="#272727"/>
<path d="M63 27.8235H61V29.7941H63V27.8235Z" fill="#272727"/>
<path d="M65 27.8235H63V29.7941H65V27.8235Z" fill="#272727"/>
<path d="M67 27.8235H65V29.7941H67V27.8235Z" fill="#272727"/>
<path d="M69 27.8235H67V29.7941H69V27.8235Z" fill="#272727"/>
<path d="M71 27.8235H69V29.7941H71V27.8235Z" fill="#191919"/>
<path d="M73 27.8235H71V29.7941H73V27.8235Z" fill="#272727"/>
<path d="M75 27.8235H73V29.7941H75V27.8235Z" fill="#191919"/>
<path d="M77 27.8235H75V29.7941H77V27.8235Z" fill="#191919"/>
<path d="M79 27.8235H77V29.7941H79V27.8235Z" fill="#0E0E0E"/>
<path d="M81 27.8235H79V29.7941H81V27.8235Z" fill="#0E0E0E"/>
<path d="M83 27.8235H81V29.7941H83V27.8235Z" fill="#0E0E0E"/>
<path d="M31 29.7941H29V31.7647H31V29.7941Z" fill="#191919"/>
<path d="M33 29.7941H31V31.7647H33V29.7941Z" fill="#646464"/>
<path d="M35 29.7941H33V31.7647H35V29.7941Z" fill="#272727"/>
<path d="M37 29.7941H35V31.7647H37V29.7941Z" fill="#272727"/>
<path d="M39 29.7941H37V31.7647H39V29.7941Z" fill="#272727"/>
<path d="M41 29.7941H39V31.7647H41V29.7941Z" fill="#272727"/>
<path d="M43 29.7941H41V31.7647H43V29.7941Z" fill="#191919"/>
<path d="M45 29.7941H43V31.7647H45V29.7941Z" fill="#272727"/>
<path d="M47 29.7941H45V31.7647H47V29.7941Z" fill="#272727"/>
<path d="M49 29.7941H47V31.7647H49V29.7941Z" fill="#272727"/>
<path d="M51 29.7941H49V31.7647H51V29.7941Z" fill="#272727"/>
<path d="M53 29.7941H51V31.7647H53V29.7941Z" fill="#272727"/>
<path d="M55 29.7941H53V31.7647H55V29.7941Z" fill="#272727"/>
<path d="M57 29.7941H55V31.7647H57V29.7941Z" fill="#272727"/>
<path d="M59 29.7941H57V31.7647H59V29.7941Z" fill="#272727"/>
<path d="M61 29.7941H59V31.7647H61V29.7941Z" fill="#272727"/>
<path d="M63 29.7941H61V31.7647H63V29.7941Z" fill="#272727"/>
<path d="M65 29.7941H63V31.7647H65V29.7941Z" fill="#272727"/>
<path d="M67 29.7941H65V31.7647H67V29.7941Z" fill="#272727"/>
<path d="M69 29.7941H67V31.7647H69V29.7941Z" fill="#272727"/>
<path d="M71 29.7941H69V31.7647H71V29.7941Z" fill="#191919"/>
<path d="M73 29.7941H71V31.7647H73V29.7941Z" fill="#272727"/>
<path d="M75 29.7941H73V31.7647H75V29.7941Z" fill="#191919"/>
<path d="M77 29.7941H75V31.7647H77V29.7941Z" fill="#191919"/>
<path d="M79 29.7941H77V31.7647H79V29.7941Z" fill="#0E0E0E"/>
<path d="M81 29.7941H79V31.7647H81V29.7941Z" fill="#0E0E0E"/>
<path d="M83 29.7941H81V31.7647H83V29.7941Z" fill="#0E0E0E"/>
<path d="M85 29.7941H83V31.7647H85V29.7941Z" fill="#191919"/>
<path d="M31 31.7647H29V33.7353H31V31.7647Z" fill="#191919"/>
<path d="M33 31.7647H31V33.7353H33V31.7647Z" fill="#646464"/>
<path d="M35 31.7647H33V33.7353H35V31.7647Z" fill="#272727"/>
<path d="M37 31.7647H35V33.7353H37V31.7647Z" fill="#272727"/>
<path d="M39 31.7647H37V33.7353H39V31.7647Z" fill="#272727"/>
<path d="M41 31.7647H39V33.7353H41V31.7647Z" fill="#191919"/>
<path d="M43 31.7647H41V33.7353H43V31.7647Z" fill="#272727"/>
<path d="M45 31.7647H43V33.7353H45V31.7647Z" fill="#272727"/>
<path d="M47 31.7647H45V33.7353H47V31.7647Z" fill="#272727"/>
<path d="M49 31.7647H47V33.7353H49V31.7647Z" fill="#272727"/>
<path d="M51 31.7647H49V33.7353H51V31.7647Z" fill="#272727"/>
<path d="M53 31.7647H51V33.7353H53V31.7647Z" fill="#272727"/>
<path d="M55 31.7647H53V33.7353H55V31.7647Z" fill="#272727"/>
<path d="M57 31.7647H55V33.7353H57V31.7647Z" fill="#272727"/>
<path d="M59 31.7647H57V33.7353H59V31.7647Z" fill="#272727"/>
<path d="M61 31.7647H59V33.7353H61V31.7647Z" fill="#272727"/>
<path d="M63 31.7647H61V33.7353H63V31.7647Z" fill="#272727"/>
<path d="M65 31.7647H63V33.7353H65V31.7647Z" fill="#272727"/>
<path d="M67 31.7647H65V33.7353H67V31.7647Z" fill="#272727"/>
<path d="M69 31.7647H67V33.7353H69V31.7647Z" fill="#272727"/>
<path d="M71 31.7647H69V33.7353H71V31.7647Z" fill="#191919"/>
<path d="M73 31.7647H71V33.7353H73V31.7647Z" fill="#272727"/>
<path d="M75 31.7647H73V33.7353H75V31.7647Z" fill="#191919"/>
<path d="M77 31.7647H75V33.7353H77V31.7647Z" fill="#191919"/>
<path d="M79 31.7647H77V33.7353H79V31.7647Z" fill="#191919"/>
<path d="M81 31.7647H79V33.7353H81V31.7647Z" fill="#0E0E0E"/>
<path d="M83 31.7647H81V33.7353H83V31.7647Z" fill="#0E0E0E"/>
<path d="M85 31.7647H83V33.7353H85V31.7647Z" fill="#191919"/>
<path d="M29 33.7353H27V35.7059H29V33.7353Z" fill="#191919"/>
<path d="M31 33.7353H29V35.7059H31V33.7353Z" fill="#646464"/>
<path d="M33 33.7353H31V35.7059H33V33.7353Z" fill="#272727"/>
<path d="M35 33.7353H33V35.7059H35V33.7353Z" fill="#272727"/>
<path d="M37 33.7353H35V35.7059H37V33.7353Z" fill="#272727"/>
<path d="M39 33.7353H37V35.7059H39V33.7353Z" fill="#272727"/>
<path d="M41 33.7353H39V35.7059H41V33.7353Z" fill="#191919"/>
<path d="M43 33.7353H41V35.7059H43V33.7353Z" fill="#272727"/>
<path d="M45 33.7353H43V35.7059H45V33.7353Z" fill="#272727"/>
<path d="M47 33.7353H45V35.7059H47V33.7353Z" fill="#272727"/>
<path d="M49 33.7353H47V35.7059H49V33.7353Z" fill="#272727"/>
<path d="M51 33.7353H49V35.7059H51V33.7353Z" fill="#272727"/>
<path d="M53 33.7353H51V35.7059H53V33.7353Z" fill="#272727"/>
<path d="M55 33.7353H53V35.7059H55V33.7353Z" fill="#272727"/>
<path d="M57 33.7353H55V35.7059H57V33.7353Z" fill="#272727"/>
<path d="M59 33.7353H57V35.7059H59V33.7353Z" fill="#272727"/>
<path d="M61 33.7353H59V35.7059H61V33.7353Z" fill="#272727"/>
<path d="M63 33.7353H61V35.7059H63V33.7353Z" fill="#272727"/>
<path d="M65 33.7353H63V35.7059H65V33.7353Z" fill="#272727"/>
<path d="M67 33.7353H65V35.7059H67V33.7353Z" fill="#272727"/>
<path d="M69 33.7353H67V35.7059H69V33.7353Z" fill="#272727"/>
<path d="M71 33.7353H69V35.7059H71V33.7353Z" fill="#191919"/>
<path d="M73 33.7353H71V35.7059H73V33.7353Z" fill="#272727"/>
<path d="M75 33.7353H73V35.7059H75V33.7353Z" fill="#191919"/>
<path d="M77 33.7353H75V35.7059H77V33.7353Z" fill="#191919"/>
<path d="M79 33.7353H77V35.7059H79V33.7353Z" fill="#191919"/>
<path d="M81 33.7353H79V35.7059H81V33.7353Z" fill="#0E0E0E"/>
<path d="M83 33.7353H81V35.7059H83V33.7353Z" fill="#0E0E0E"/>
<path d="M85 33.7353H83V35.7059H85V33.7353Z" fill="#0E0E0E"/>
<path d="M87 33.7353H85V35.7059H87V33.7353Z" fill="#191919"/>
<path d="M29 35.7059H27V37.6765H29V35.7059Z" fill="#191919"/>
<path d="M31 35.7059H29V37.6765H31V35.7059Z" fill="#646464"/>
<path d="M33 35.7059H31V37.6765H33V35.7059Z" fill="#272727"/>
<path d="M35 35.7059H33V37.6765H35V35.7059Z" fill="#272727"/>
<path d="M37 35.7059H35V37.6765H37V35.7059Z" fill="#272727"/>
<path d="M39 35.7059H37V37.6765H39V35.7059Z" fill="#272727"/>
<path d="M41 35.7059H39V37.6765H41V35.7059Z" fill="#191919"/>
<path d="M43 35.7059H41V37.6765H43V35.7059Z" fill="#272727"/>
<path d="M45 35.7059H43V37.6765H45V35.7059Z" fill="#272727"/>
<path d="M47 35.7059H45V37.6765H47V35.7059Z" fill="#272727"/>
<path d="M49 35.7059H47V37.6765H49V35.7059Z" fill="#272727"/>
<path d="M51 35.7059H49V37.6765H51V35.7059Z" fill="#272727"/>
<path d="M53 35.7059H51V37.6765H53V35.7059Z" fill="#272727"/>
<path d="M55 35.7059H53V37.6765H55V35.7059Z" fill="#272727"/>
<path d="M57 35.7059H55V37.6765H57V35.7059Z" fill="#272727"/>
<path d="M59 35.7059H57V37.6765H59V35.7059Z" fill="#272727"/>
<path d="M61 35.7059H59V37.6765H61V35.7059Z" fill="#272727"/>
<path d="M63 35.7059H61V37.6765H63V35.7059Z" fill="#272727"/>
<path d="M65 35.7059H63V37.6765H65V35.7059Z" fill="#272727"/>
<path d="M67 35.7059H65V37.6765H67V35.7059Z" fill="#272727"/>
<path d="M69 35.7059H67V37.6765H69V35.7059Z" fill="#272727"/>
<path d="M71 35.7059H69V37.6765H71V35.7059Z" fill="#191919"/>
<path d="M73 35.7059H71V37.6765H73V35.7059Z" fill="#272727"/>
<path d="M75 35.7059H73V37.6765H75V35.7059Z" fill="#191919"/>
<path d="M77 35.7059H75V37.6765H77V35.7059Z" fill="#191919"/>
<path d="M79 35.7059H77V37.6765H79V35.7059Z" fill="#191919"/>
<path d="M81 35.7059H79V37.6765H81V35.7059Z" fill="#0E0E0E"/>
<path d="M83 35.7059H81V37.6765H83V35.7059Z" fill="#0E0E0E"/>
<path d="M85 35.7059H83V37.6765H85V35.7059Z" fill="#0E0E0E"/>
<path d="M87 35.7059H85V37.6765H87V35.7059Z" fill="#0E0E0E"/>
<path d="M27 37.6765H25V39.6471H27V37.6765Z" fill="#191919"/>
<path d="M29 37.6765H27V39.6471H29V37.6765Z" fill="#191919"/>
<path d="M31 37.6765H29V39.6471H31V37.6765Z" fill="#272727"/>
<path d="M33 37.6765H31V39.6471H33V37.6765Z" fill="#272727"/>
<path d="M35 37.6765H33V39.6471H35V37.6765Z" fill="#272727"/>
<path d="M37 37.6765H35V39.6471H37V37.6765Z" fill="#272727"/>
<path d="M39 37.6765H37V39.6471H39V37.6765Z" fill="#272727"/>
<path d="M41 37.6765H39V39.6471H41V37.6765Z" fill="#272727"/>
<path d="M43 37.6765H41V39.6471H43V37.6765Z" fill="#272727"/>
<path d="M45 37.6765H43V39.6471H45V37.6765Z" fill="#272727"/>
<path d="M47 37.6765H45V39.6471H47V37.6765Z" fill="#272727"/>
<path d="M49 37.6765H47V39.6471H49V37.6765Z" fill="#272727"/>
<path d="M51 37.6765H49V39.6471H51V37.6765Z" fill="#272727"/>
<path d="M53 37.6765H51V39.6471H53V37.6765Z" fill="#272727"/>
<path d="M55 37.6765H53V39.6471H55V37.6765Z" fill="#272727"/>
<path d="M57 37.6765H55V39.6471H57V37.6765Z" fill="#272727"/>
<path d="M59 37.6765H57V39.6471H59V37.6765Z" fill="#272727"/>
<path d="M61 37.6765H59V39.6471H61V37.6765Z" fill="#272727"/>
<path d="M63 37.6765H61V39.6471H63V37.6765Z" fill="#272727"/>
<path d="M65 37.6765H63V39.6471H65V37.6765Z" fill="#272727"/>
<path d="M67 37.6765H65V39.6471H67V37.6765Z" fill="#272727"/>
<path d="M69 37.6765H67V39.6471H69V37.6765Z" fill="#272727"/>
<path d="M71 37.6765H69V39.6471H71V37.6765Z" fill="#191919"/>
<path d="M73 37.6765H71V39.6471H73V37.6765Z" fill="#191919"/>
<path d="M75 37.6765H73V39.6471H75V37.6765Z" fill="#191919"/>
<path d="M77 37.6765H75V39.6471H77V37.6765Z" fill="#191919"/>
<path d="M79 37.6765H77V39.6471H79V37.6765Z" fill="#191919"/>
<path d="M81 37.6765H79V39.6471H81V37.6765Z" fill="#191919"/>
<path d="M83 37.6765H81V39.6471H83V37.6765Z" fill="#0E0E0E"/>
<path d="M85 37.6765H83V39.6471H85V37.6765Z" fill="#0E0E0E"/>
<path d="M87 37.6765H85V39.6471H87V37.6765Z" fill="#0E0E0E"/>
<path d="M89 37.6765H87V39.6471H89V37.6765Z" fill="#191919"/>
<path d="M27 39.6471H25V41.6176H27V39.6471Z" fill="#191919"/>
<path d="M29 39.6471H27V41.6176H29V39.6471Z" fill="#272727"/>
<path d="M31 39.6471H29V41.6176H31V39.6471Z" fill="#272727"/>
<path d="M33 39.6471H31V41.6176H33V39.6471Z" fill="#272727"/>
<path d="M35 39.6471H33V41.6176H35V39.6471Z" fill="#272727"/>
<path d="M37 39.6471H35V41.6176H37V39.6471Z" fill="#272727"/>
<path d="M39 39.6471H37V41.6176H39V39.6471Z" fill="#272727"/>
<path d="M41 39.6471H39V41.6176H41V39.6471Z" fill="#272727"/>
<path d="M43 39.6471H41V41.6176H43V39.6471Z" fill="#272727"/>
<path d="M45 39.6471H43V41.6176H45V39.6471Z" fill="#272727"/>
<path d="M47 39.6471H45V41.6176H47V39.6471Z" fill="#272727"/>
<path d="M49 39.6471H47V41.6176H49V39.6471Z" fill="#272727"/>
<path d="M51 39.6471H49V41.6176H51V39.6471Z" fill="#272727"/>
<path d="M53 39.6471H51V41.6176H53V39.6471Z" fill="#272727"/>
<path d="M55 39.6471H53V41.6176H55V39.6471Z" fill="#272727"/>
<path d="M57 39.6471H55V41.6176H57V39.6471Z" fill="#272727"/>
<path d="M59 39.6471H57V41.6176H59V39.6471Z" fill="#272727"/>
<path d="M61 39.6471H59V41.6176H61V39.6471Z" fill="#272727"/>
<path d="M63 39.6471H61V41.6176H63V39.6471Z" fill="#272727"/>
<path d="M65 39.6471H63V41.6176H65V39.6471Z" fill="#272727"/>
<path d="M67 39.6471H65V41.6176H67V39.6471Z" fill="#272727"/>
<path d="M69 39.6471H67V41.6176H69V39.6471Z" fill="#272727"/>
<path d="M71 39.6471H69V41.6176H71V39.6471Z" fill="#191919"/>
<path d="M73 39.6471H71V41.6176H73V39.6471Z" fill="#191919"/>
<path d="M75 39.6471H73V41.6176H75V39.6471Z" fill="#191919"/>
<path d="M77 39.6471H75V41.6176H77V39.6471Z" fill="#191919"/>
<path d="M79 39.6471H77V41.6176H79V39.6471Z" fill="#191919"/>
<path d="M81 39.6471H79V41.6176H81V39.6471Z" fill="#191919"/>
<path d="M83 39.6471H81V41.6176H83V39.6471Z" fill="#0E0E0E"/>
<path d="M85 39.6471H83V41.6176H85V39.6471Z" fill="#0E0E0E"/>
<path d="M87 39.6471H85V41.6176H87V39.6471Z" fill="#0E0E0E"/>
<path d="M89 39.6471H87V41.6176H89V39.6471Z" fill="#191919"/>
<path d="M27 41.6176H25V43.5882H27V41.6176Z" fill="#191919"/>
<path d="M29 41.6176H27V43.5882H29V41.6176Z" fill="#272727"/>
<path d="M31 41.6176H29V43.5882H31V41.6176Z" fill="#272727"/>
<path d="M33 41.6176H31V43.5882H33V41.6176Z" fill="#272727"/>
<path d="M35 41.6176H33V43.5882H35V41.6176Z" fill="#272727"/>
<path d="M37 41.6176H35V43.5882H37V41.6176Z" fill="#272727"/>
<path d="M39 41.6176H37V43.5882H39V41.6176Z" fill="#191919"/>
<path d="M41 41.6176H39V43.5882H41V41.6176Z" fill="#272727"/>
<path d="M43 41.6176H41V43.5882H43V41.6176Z" fill="#272727"/>
<path d="M45 41.6176H43V43.5882H45V41.6176Z" fill="#272727"/>
<path d="M47 41.6176H45V43.5882H47V41.6176Z" fill="#272727"/>
<path d="M49 41.6176H47V43.5882H49V41.6176Z" fill="#272727"/>
<path d="M51 41.6176H49V43.5882H51V41.6176Z" fill="#272727"/>
<path d="M53 41.6176H51V43.5882H53V41.6176Z" fill="#272727"/>
<path d="M55 41.6176H53V43.5882H55V41.6176Z" fill="#272727"/>
<path d="M57 41.6176H55V43.5882H57V41.6176Z" fill="#272727"/>
<path d="M59 41.6176H57V43.5882H59V41.6176Z" fill="#272727"/>
<path d="M61 41.6176H59V43.5882H61V41.6176Z" fill="#272727"/>
<path d="M63 41.6176H61V43.5882H63V41.6176Z" fill="#272727"/>
<path d="M65 41.6176H63V43.5882H65V41.6176Z" fill="#272727"/>
<path d="M67 41.6176H65V43.5882H67V41.6176Z" fill="#272727"/>
<path d="M69 41.6176H67V43.5882H69V41.6176Z" fill="#191919"/>
<path d="M71 41.6176H69V43.5882H71V41.6176Z" fill="#191919"/>
<path d="M73 41.6176H71V43.5882H73V41.6176Z" fill="#191919"/>
<path d="M75 41.6176H73V43.5882H75V41.6176Z" fill="#191919"/>
<path d="M77 41.6176H75V43.5882H77V41.6176Z" fill="#191919"/>
<path d="M79 41.6176H77V43.5882H79V41.6176Z" fill="#191919"/>
<path d="M81 41.6176H79V43.5882H81V41.6176Z" fill="#191919"/>
<path d="M83 41.6176H81V43.5882H83V41.6176Z" fill="#0E0E0E"/>
<path d="M85 41.6176H83V43.5882H85V41.6176Z" fill="#0E0E0E"/>
<path d="M87 41.6176H85V43.5882H87V41.6176Z" fill="#0E0E0E"/>
<path d="M89 41.6176H87V43.5882H89V41.6176Z" fill="#191919"/>
<path d="M27 43.5882H25V45.5588H27V43.5882Z" fill="#191919"/>
<path d="M29 43.5882H27V45.5588H29V43.5882Z" fill="#272727"/>
<path d="M31 43.5882H29V45.5588H31V43.5882Z" fill="#272727"/>
<path d="M33 43.5882H31V45.5588H33V43.5882Z" fill="#272727"/>
<path d="M35 43.5882H33V45.5588H35V43.5882Z" fill="#272727"/>
<path d="M37 43.5882H35V45.5588H37V43.5882Z" fill="#272727"/>
<path d="M39 43.5882H37V45.5588H39V43.5882Z" fill="#191919"/>
<path d="M41 43.5882H39V45.5588H41V43.5882Z" fill="#272727"/>
<path d="M43 43.5882H41V45.5588H43V43.5882Z" fill="#272727"/>
<path d="M45 43.5882H43V45.5588H45V43.5882Z" fill="#272727"/>
<path d="M47 43.5882H45V45.5588H47V43.5882Z" fill="#272727"/>
<path d="M49 43.5882H47V45.5588H49V43.5882Z" fill="#272727"/>
<path d="M51 43.5882H49V45.5588H51V43.5882Z" fill="#272727"/>
<path d="M53 43.5882H51V45.5588H53V43.5882Z" fill="#272727"/>
<path d="M55 43.5882H53V45.5588H55V43.5882Z" fill="#272727"/>
<path d="M57 43.5882H55V45.5588H57V43.5882Z" fill="#272727"/>
<path d="M59 43.5882H57V45.5588H59V43.5882Z" fill="#272727"/>
<path d="M61 43.5882H59V45.5588H61V43.5882Z" fill="#272727"/>
<path d="M63 43.5882H61V45.5588H63V43.5882Z" fill="#272727"/>
<path d="M65 43.5882H63V45.5588H65V43.5882Z" fill="#272727"/>
<path d="M67 43.5882H65V45.5588H67V43.5882Z" fill="#272727"/>
<path d="M69 43.5882H67V45.5588H69V43.5882Z" fill="#191919"/>
<path d="M71 43.5882H69V45.5588H71V43.5882Z" fill="#191919"/>
<path d="M73 43.5882H71V45.5588H73V43.5882Z" fill="#191919"/>
<path d="M75 43.5882H73V45.5588H75V43.5882Z" fill="#191919"/>
<path d="M77 43.5882H75V45.5588H77V43.5882Z" fill="#191919"/>
<path d="M79 43.5882H77V45.5588H79V43.5882Z" fill="#191919"/>
<path d="M81 43.5882H79V45.5588H81V43.5882Z" fill="#191919"/>
<path d="M83 43.5882H81V45.5588H83V43.5882Z" fill="#0E0E0E"/>
<path d="M85 43.5882H83V45.5588H85V43.5882Z" fill="#0E0E0E"/>
<path d="M87 43.5882H85V45.5588H87V43.5882Z" fill="#0E0E0E"/>
<path d="M89 43.5882H87V45.5588H89V43.5882Z" fill="#191919"/>
<path d="M27 45.5588H25V47.5294H27V45.5588Z" fill="#191919"/>
<path d="M29 45.5588H27V47.5294H29V45.5588Z" fill="#272727"/>
<path d="M31 45.5588H29V47.5294H31V45.5588Z" fill="#272727"/>
<path d="M33 45.5588H31V47.5294H33V45.5588Z" fill="#272727"/>
<path d="M35 45.5588H33V47.5294H35V45.5588Z" fill="#272727"/>
<path d="M37 45.5588H35V47.5294H37V45.5588Z" fill="#272727"/>
<path d="M39 45.5588H37V47.5294H39V45.5588Z" fill="#191919"/>
<path d="M41 45.5588H39V47.5294H41V45.5588Z" fill="#272727"/>
<path d="M43 45.5588H41V47.5294H43V45.5588Z" fill="#272727"/>
<path d="M45 45.5588H43V47.5294H45V45.5588Z" fill="#272727"/>
<path d="M47 45.5588H45V47.5294H47V45.5588Z" fill="#272727"/>
<path d="M49 45.5588H47V47.5294H49V45.5588Z" fill="#272727"/>
<path d="M51 45.5588H49V47.5294H51V45.5588Z" fill="#272727"/>
<path d="M53 45.5588H51V47.5294H53V45.5588Z" fill="#272727"/>
<path d="M55 45.5588H53V47.5294H55V45.5588Z" fill="#272727"/>
<path d="M57 45.5588H55V47.5294H57V45.5588Z" fill="#272727"/>
<path d="M59 45.5588H57V47.5294H59V45.5588Z" fill="#272727"/>
<path d="M61 45.5588H59V47.5294H61V45.5588Z" fill="#272727"/>
<path d="M63 45.5588H61V47.5294H63V45.5588Z" fill="#272727"/>
<path d="M65 45.5588H63V47.5294H65V45.5588Z" fill="#272727"/>
<path d="M67 45.5588H65V47.5294H67V45.5588Z" fill="#191919"/>
<path d="M69 45.5588H67V47.5294H69V45.5588Z" fill="#272727"/>
<path d="M71 45.5588H69V47.5294H71V45.5588Z" fill="#191919"/>
<path d="M73 45.5588H71V47.5294H73V45.5588Z" fill="#191919"/>
<path d="M75 45.5588H73V47.5294H75V45.5588Z" fill="#191919"/>
<path d="M77 45.5588H75V47.5294H77V45.5588Z" fill="#191919"/>
<path d="M79 45.5588H77V47.5294H79V45.5588Z" fill="#0E0E0E"/>
<path d="M81 45.5588H79V47.5294H81V45.5588Z" fill="#191919"/>
<path d="M83 45.5588H81V47.5294H83V45.5588Z" fill="#0E0E0E"/>
<path d="M85 45.5588H83V47.5294H85V45.5588Z" fill="#0E0E0E"/>
<path d="M87 45.5588H85V47.5294H87V45.5588Z" fill="#0E0E0E"/>
<path d="M89 45.5588H87V47.5294H89V45.5588Z" fill="#191919"/>
<path d="M27 47.5294H25V49.5H27V47.5294Z" fill="#191919"/>
<path d="M29 47.5294H27V49.5H29V47.5294Z" fill="#272727"/>
<path d="M31 47.5294H29V49.5H31V47.5294Z" fill="#272727"/>
<path d="M33 47.5294H31V49.5H33V47.5294Z" fill="#272727"/>
<path d="M35 47.5294H33V49.5H35V47.5294Z" fill="#191919"/>
<path d="M37 47.5294H35V49.5H37V47.5294Z" fill="#191919"/>
<path d="M39 47.5294H37V49.5H39V47.5294Z" fill="#191919"/>
<path d="M41 47.5294H39V49.5H41V47.5294Z" fill="#191919"/>
<path d="M43 47.5294H41V49.5H43V47.5294Z" fill="#191919"/>
<path d="M45 47.5294H43V49.5H45V47.5294Z" fill="#272727"/>
<path d="M47 47.5294H45V49.5H47V47.5294Z" fill="#272727"/>
<path d="M49 47.5294H47V49.5H49V47.5294Z" fill="#272727"/>
<path d="M51 47.5294H49V49.5H51V47.5294Z" fill="#272727"/>
<path d="M53 47.5294H51V49.5H53V47.5294Z" fill="#272727"/>
<path d="M55 47.5294H53V49.5H55V47.5294Z" fill="#272727"/>
<path d="M57 47.5294H55V49.5H57V47.5294Z" fill="#272727"/>
<path d="M59 47.5294H57V49.5H59V47.5294Z" fill="#272727"/>
<path d="M61 47.5294H59V49.5H61V47.5294Z" fill="#272727"/>
<path d="M63 47.5294H61V49.5H63V47.5294Z" fill="#272727"/>
<path d="M65 47.5294H63V49.5H65V47.5294Z" fill="#191919"/>
<path d="M67 47.5294H65V49.5H67V47.5294Z" fill="#272727"/>
<path d="M69 47.5294H67V49.5H69V47.5294Z" fill="#191919"/>
<path d="M71 47.5294H69V49.5H71V47.5294Z" fill="#191919"/>
<path d="M73 47.5294H71V49.5H73V47.5294Z" fill="#191919"/>
<path d="M75 47.5294H73V49.5H75V47.5294Z" fill="#191919"/>
<path d="M77 47.5294H75V49.5H77V47.5294Z" fill="#191919"/>
<path d="M79 47.5294H77V49.5H79V47.5294Z" fill="#0E0E0E"/>
<path d="M81 47.5294H79V49.5H81V47.5294Z" fill="#191919"/>
<path d="M83 47.5294H81V49.5H83V47.5294Z" fill="#0E0E0E"/>
<path d="M85 47.5294H83V49.5H85V47.5294Z" fill="#0E0E0E"/>
<path d="M87 47.5294H85V49.5H87V47.5294Z" fill="#0E0E0E"/>
<path d="M89 47.5294H87V49.5H89V47.5294Z" fill="#191919"/>
<path d="M27 49.5H25V51.4706H27V49.5Z" fill="#191919"/>
<path d="M29 49.5H27V51.4706H29V49.5Z" fill="#191919"/>
<path d="M31 49.5H29V51.4706H31V49.5Z" fill="#191919"/>
<path d="M33 49.5H31V51.4706H33V49.5Z" fill="#191919"/>
<path d="M35 49.5H33V51.4706H35V49.5Z" fill="#191919"/>
<path d="M37 49.5H35V51.4706H37V49.5Z" fill="#191919"/>
<path d="M39 49.5H37V51.4706H39V49.5Z" fill="#191919"/>
<path d="M41 49.5H39V51.4706H41V49.5Z" fill="#191919"/>
<path d="M43 49.5H41V51.4706H43V49.5Z" fill="#191919"/>
<path d="M45 49.5H43V51.4706H45V49.5Z" fill="#191919"/>
<path d="M47 49.5H45V51.4706H47V49.5Z" fill="#191919"/>
<path d="M49 49.5H47V51.4706H49V49.5Z" fill="#191919"/>
<path d="M51 49.5H49V51.4706H51V49.5Z" fill="#191919"/>
<path d="M53 49.5H51V51.4706H53V49.5Z" fill="#272727"/>
<path d="M55 49.5H53V51.4706H55V49.5Z" fill="#272727"/>
<path d="M57 49.5H55V51.4706H57V49.5Z" fill="#272727"/>
<path d="M59 49.5H57V51.4706H59V49.5Z" fill="#272727"/>
<path d="M61 49.5H59V51.4706H61V49.5Z" fill="#272727"/>
<path d="M63 49.5H61V51.4706H63V49.5Z" fill="#191919"/>
<path d="M65 49.5H63V51.4706H65V49.5Z" fill="#272727"/>
<path d="M67 49.5H65V51.4706H67V49.5Z" fill="#191919"/>
<path d="M69 49.5H67V51.4706H69V49.5Z" fill="#191919"/>
<path d="M71 49.5H69V51.4706H71V49.5Z" fill="#191919"/>
<path d="M73 49.5H71V51.4706H73V49.5Z" fill="#191919"/>
<path d="M75 49.5H73V51.4706H75V49.5Z" fill="#191919"/>
<path d="M77 49.5H75V51.4706H77V49.5Z" fill="#0E0E0E"/>
<path d="M79 49.5H77V51.4706H79V49.5Z" fill="#191919"/>
<path d="M81 49.5H79V51.4706H81V49.5Z" fill="#0E0E0E"/>
<path d="M83 49.5H81V51.4706H83V49.5Z" fill="#0E0E0E"/>
<path d="M85 49.5H83V51.4706H85V49.5Z" fill="#0E0E0E"/>
<path d="M87 49.5H85V51.4706H87V49.5Z" fill="#0E0E0E"/>
<path d="M89 49.5H87V51.4706H89V49.5Z" fill="#191919"/>
<path d="M25 51.4706H23V53.4412H25V51.4706Z" fill="#191919"/>
<path d="M27 51.4706H25V53.4412H27V51.4706Z" fill="#646464"/>
<path d="M29 51.4706H27V53.4412H29V51.4706Z" fill="#646464"/>
<path d="M31 51.4706H29V53.4412H31V51.4706Z" fill="#272727"/>
<path d="M33 51.4706H31V53.4412H33V51.4706Z" fill="#272727"/>
<path d="M35 51.4706H33V53.4412H35V51.4706Z" fill="#272727"/>
<path d="M37 51.4706H35V53.4412H37V51.4706Z" fill="#272727"/>
<path d="M39 51.4706H37V53.4412H39V51.4706Z" fill="#272727"/>
<path d="M41 51.4706H39V53.4412H41V51.4706Z" fill="#272727"/>
<path d="M43 51.4706H41V53.4412H43V51.4706Z" fill="#272727"/>
<path d="M45 51.4706H43V53.4412H45V51.4706Z" fill="#272727"/>
<path d="M47 51.4706H45V53.4412H47V51.4706Z" fill="#191919"/>
<path d="M49 51.4706H47V53.4412H49V51.4706Z" fill="#191919"/>
<path d="M51 51.4706H49V53.4412H51V51.4706Z" fill="#191919"/>
<path d="M53 51.4706H51V53.4412H53V51.4706Z" fill="#191919"/>
<path d="M55 51.4706H53V53.4412H55V51.4706Z" fill="#191919"/>
<path d="M57 51.4706H55V53.4412H57V51.4706Z" fill="#272727"/>
<path d="M59 51.4706H57V53.4412H59V51.4706Z" fill="#272727"/>
<path d="M61 51.4706H59V53.4412H61V51.4706Z" fill="#191919"/>
<path d="M63 51.4706H61V53.4412H63V51.4706Z" fill="#191919"/>
<path d="M65 51.4706H63V53.4412H65V51.4706Z" fill="#191919"/>
<path d="M67 51.4706H65V53.4412H67V51.4706Z" fill="#191919"/>
<path d="M69 51.4706H67V53.4412H69V51.4706Z" fill="#191919"/>
<path d="M71 51.4706H69V53.4412H71V51.4706Z" fill="#191919"/>
<path d="M73 51.4706H71V53.4412H73V51.4706Z" fill="#191919"/>
<path d="M75 51.4706H73V53.4412H75V51.4706Z" fill="#191919"/>
<path d="M77 51.4706H75V53.4412H77V51.4706Z" fill="#0E0E0E"/>
<path d="M79 51.4706H77V53.4412H79V51.4706Z" fill="#191919"/>
<path d="M81 51.4706H79V53.4412H81V51.4706Z" fill="#0E0E0E"/>
<path d="M83 51.4706H81V53.4412H83V51.4706Z" fill="#0E0E0E"/>
<path d="M85 51.4706H83V53.4412H85V51.4706Z" fill="#0E0E0E"/>
<path d="M87 51.4706H85V53.4412H87V51.4706Z" fill="#191919"/>
<path d="M89 51.4706H87V53.4412H89V51.4706Z" fill="#191919"/>
<path d="M23 53.4412H21V55.4118H23V53.4412Z" fill="#191919"/>
<path d="M25 53.4412H23V55.4118H25V53.4412Z" fill="#646464"/>
<path d="M27 53.4412H25V55.4118H27V53.4412Z" fill="#646464"/>
<path d="M29 53.4412H27V55.4118H29V53.4412Z" fill="#272727"/>
<path d="M31 53.4412H29V55.4118H31V53.4412Z" fill="#272727"/>
<path d="M33 53.4412H31V55.4118H33V53.4412Z" fill="#272727"/>
<path d="M35 53.4412H33V55.4118H35V53.4412Z" fill="#272727"/>
<path d="M37 53.4412H35V55.4118H37V53.4412Z" fill="#272727"/>
<path d="M39 53.4412H37V55.4118H39V53.4412Z" fill="#272727"/>
<path d="M41 53.4412H39V55.4118H41V53.4412Z" fill="#272727"/>
<path d="M43 53.4412H41V55.4118H43V53.4412Z" fill="#272727"/>
<path d="M45 53.4412H43V55.4118H45V53.4412Z" fill="#272727"/>
<path d="M47 53.4412H45V55.4118H47V53.4412Z" fill="#272727"/>
<path d="M49 53.4412H47V55.4118H49V53.4412Z" fill="#272727"/>
<path d="M51 53.4412H49V55.4118H51V53.4412Z" fill="#272727"/>
<path d="M53 53.4412H51V55.4118H53V53.4412Z" fill="#272727"/>
<path d="M55 53.4412H53V55.4118H55V53.4412Z" fill="#191919"/>
<path d="M57 53.4412H55V55.4118H57V53.4412Z" fill="#191919"/>
<path d="M59 53.4412H57V55.4118H59V53.4412Z" fill="#191919"/>
<path d="M61 53.4412H59V55.4118H61V53.4412Z" fill="#0E0E0E"/>
<path d="M63 53.4412H61V55.4118H63V53.4412Z" fill="#0E0E0E"/>
<path d="M65 53.4412H63V55.4118H65V53.4412Z" fill="#0E0E0E"/>
<path d="M67 53.4412H65V55.4118H67V53.4412Z" fill="#191919"/>
<path d="M69 53.4412H67V55.4118H69V53.4412Z" fill="#191919"/>
<path d="M71 53.4412H69V55.4118H71V53.4412Z" fill="#191919"/>
<path d="M73 53.4412H71V55.4118H73V53.4412Z" fill="#191919"/>
<path d="M75 53.4412H73V55.4118H75V53.4412Z" fill="#191919"/>
<path d="M77 53.4412H75V55.4118H77V53.4412Z" fill="#191919"/>
<path d="M79 53.4412H77V55.4118H79V53.4412Z" fill="#0E0E0E"/>
<path d="M81 53.4412H79V55.4118H81V53.4412Z" fill="#0E0E0E"/>
<path d="M83 53.4412H81V55.4118H83V53.4412Z" fill="#0E0E0E"/>
<path d="M85 53.4412H83V55.4118H85V53.4412Z" fill="#0E0E0E"/>
<path d="M87 53.4412H85V55.4118H87V53.4412Z" fill="#191919"/>
<path d="M89 53.4412H87V55.4118H89V53.4412Z" fill="#191919"/>
<path d="M19 55.4118H17V57.3824H19V55.4118Z" fill="#191919"/>
<path d="M21 55.4118H19V57.3824H21V55.4118Z" fill="#191919"/>
<path d="M23 55.4118H21V57.3824H23V55.4118Z" fill="#646464"/>
<path d="M25 55.4118H23V57.3824H25V55.4118Z" fill="#272727"/>
<path d="M27 55.4118H25V57.3824H27V55.4118Z" fill="#272727"/>
<path d="M29 55.4118H27V57.3824H29V55.4118Z" fill="#272727"/>
<path d="M31 55.4118H29V57.3824H31V55.4118Z" fill="#272727"/>
<path d="M33 55.4118H31V57.3824H33V55.4118Z" fill="#272727"/>
<path d="M35 55.4118H33V57.3824H35V55.4118Z" fill="#272727"/>
<path d="M37 55.4118H35V57.3824H37V55.4118Z" fill="#272727"/>
<path d="M39 55.4118H37V57.3824H39V55.4118Z" fill="#272727"/>
<path d="M41 55.4118H39V57.3824H41V55.4118Z" fill="#272727"/>
<path d="M43 55.4118H41V57.3824H43V55.4118Z" fill="#272727"/>
<path d="M45 55.4118H43V57.3824H45V55.4118Z" fill="#272727"/>
<path d="M47 55.4118H45V57.3824H47V55.4118Z" fill="#272727"/>
<path d="M49 55.4118H47V57.3824H49V55.4118Z" fill="#272727"/>
<path d="M51 55.4118H49V57.3824H51V55.4118Z" fill="#272727"/>
<path d="M53 55.4118H51V57.3824H53V55.4118Z" fill="#272727"/>
<path d="M55 55.4118H53V57.3824H55V55.4118Z" fill="#272727"/>
<path d="M57 55.4118H55V57.3824H57V55.4118Z" fill="#272727"/>
<path d="M59 55.4118H57V57.3824H59V55.4118Z" fill="#191919"/>
<path d="M61 55.4118H59V57.3824H61V55.4118Z" fill="#191919"/>
<path d="M63 55.4118H61V57.3824H63V55.4118Z" fill="#191919"/>
<path d="M65 55.4118H63V57.3824H65V55.4118Z" fill="#0E0E0E"/>
<path d="M67 55.4118H65V57.3824H67V55.4118Z" fill="#0E0E0E"/>
<path d="M69 55.4118H67V57.3824H69V55.4118Z" fill="#0E0E0E"/>
<path d="M71 55.4118H69V57.3824H71V55.4118Z" fill="#0E0E0E"/>
<path d="M73 55.4118H71V57.3824H73V55.4118Z" fill="#191919"/>
<path d="M75 55.4118H73V57.3824H75V55.4118Z" fill="#0E0E0E"/>
<path d="M77 55.4118H75V57.3824H77V55.4118Z" fill="#0E0E0E"/>
<path d="M79 55.4118H77V57.3824H79V55.4118Z" fill="#0E0E0E"/>
<path d="M81 55.4118H79V57.3824H81V55.4118Z" fill="#0E0E0E"/>
<path d="M83 55.4118H81V57.3824H83V55.4118Z" fill="#0E0E0E"/>
<path d="M85 55.4118H83V57.3824H85V55.4118Z" fill="#0E0E0E"/>
<path d="M87 55.4118H85V57.3824H87V55.4118Z" fill="#191919"/>
<path d="M89 55.4118H87V57.3824H89V55.4118Z" fill="#191919"/>
<path d="M17 57.3824H15V59.3529H17V57.3824Z" fill="#191919"/>
<path d="M19 57.3824H17V59.3529H19V57.3824Z" fill="#646464"/>
<path d="M21 57.3824H19V59.3529H21V57.3824Z" fill="#646464"/>
<path d="M23 57.3824H21V59.3529H23V57.3824Z" fill="#272727"/>
<path d="M25 57.3824H23V59.3529H25V57.3824Z" fill="#272727"/>
<path d="M27 57.3824H25V59.3529H27V57.3824Z" fill="#272727"/>
<path d="M29 57.3824H27V59.3529H29V57.3824Z" fill="#272727"/>
<path d="M31 57.3824H29V59.3529H31V57.3824Z" fill="#272727"/>
<path d="M33 57.3824H31V59.3529H33V57.3824Z" fill="#272727"/>
<path d="M35 57.3824H33V59.3529H35V57.3824Z" fill="#272727"/>
<path d="M37 57.3824H35V59.3529H37V57.3824Z" fill="#272727"/>
<path d="M39 57.3824H37V59.3529H39V57.3824Z" fill="#272727"/>
<path d="M41 57.3824H39V59.3529H41V57.3824Z" fill="#272727"/>
<path d="M43 57.3824H41V59.3529H43V57.3824Z" fill="#272727"/>
<path d="M45 57.3824H43V59.3529H45V57.3824Z" fill="#272727"/>
<path d="M47 57.3824H45V59.3529H47V57.3824Z" fill="#272727"/>
<path d="M49 57.3824H47V59.3529H49V57.3824Z" fill="#272727"/>
<path d="M51 57.3824H49V59.3529H51V57.3824Z" fill="#272727"/>
<path d="M53 57.3824H51V59.3529H53V57.3824Z" fill="#272727"/>
<path d="M55 57.3824H53V59.3529H55V57.3824Z" fill="#272727"/>
<path d="M57 57.3824H55V59.3529H57V57.3824Z" fill="#272727"/>
<path d="M59 57.3824H57V59.3529H59V57.3824Z" fill="#272727"/>
<path d="M61 57.3824H59V59.3529H61V57.3824Z" fill="#191919"/>
<path d="M63 57.3824H61V59.3529H63V57.3824Z" fill="#191919"/>
<path d="M65 57.3824H63V59.3529H65V57.3824Z" fill="#191919"/>
<path d="M67 57.3824H65V59.3529H67V57.3824Z" fill="#191919"/>
<path d="M69 57.3824H67V59.3529H69V57.3824Z" fill="#191919"/>
<path d="M71 57.3824H69V59.3529H71V57.3824Z" fill="#0E0E0E"/>
<path d="M73 57.3824H71V59.3529H73V57.3824Z" fill="#0E0E0E"/>
<path d="M75 57.3824H73V59.3529H75V57.3824Z" fill="#0E0E0E"/>
<path d="M77 57.3824H75V59.3529H77V57.3824Z" fill="#0E0E0E"/>
<path d="M79 57.3824H77V59.3529H79V57.3824Z" fill="#0E0E0E"/>
<path d="M81 57.3824H79V59.3529H81V57.3824Z" fill="#0E0E0E"/>
<path d="M83 57.3824H81V59.3529H83V57.3824Z" fill="#0E0E0E"/>
<path d="M85 57.3824H83V59.3529H85V57.3824Z" fill="#191919"/>
<path d="M87 57.3824H85V59.3529H87V57.3824Z" fill="#191919"/>
<path d="M89 57.3824H87V59.3529H89V57.3824Z" fill="#191919"/>
<path d="M91 57.3824H89V59.3529H91V57.3824Z" fill="#515050"/>
<path d="M15 59.3529H13V61.3235H15V59.3529Z" fill="#191919"/>
<path d="M17 59.3529H15V61.3235H17V59.3529Z" fill="#646464"/>
<path d="M19 59.3529H17V61.3235H19V59.3529Z" fill="#646464"/>
<path d="M21 59.3529H19V61.3235H21V59.3529Z" fill="#272727"/>
<path d="M23 59.3529H21V61.3235H23V59.3529Z" fill="#272727"/>
<path d="M25 59.3529H23V61.3235H25V59.3529Z" fill="#272727"/>
<path d="M27 59.3529H25V61.3235H27V59.3529Z" fill="#272727"/>
<path d="M29 59.3529H27V61.3235H29V59.3529Z" fill="#272727"/>
<path d="M31 59.3529H29V61.3235H31V59.3529Z" fill="#272727"/>
<path d="M33 59.3529H31V61.3235H33V59.3529Z" fill="#272727"/>
<path d="M35 59.3529H33V61.3235H35V59.3529Z" fill="#272727"/>
<path d="M37 59.3529H35V61.3235H37V59.3529Z" fill="#272727"/>
<path d="M39 59.3529H37V61.3235H39V59.3529Z" fill="#272727"/>
<path d="M41 59.3529H39V61.3235H41V59.3529Z" fill="#272727"/>
<path d="M43 59.3529H41V61.3235H43V59.3529Z" fill="#272727"/>
<path d="M45 59.3529H43V61.3235H45V59.3529Z" fill="#272727"/>
<path d="M47 59.3529H45V61.3235H47V59.3529Z" fill="#272727"/>
<path d="M49 59.3529H47V61.3235H49V59.3529Z" fill="#272727"/>
<path d="M51 59.3529H49V61.3235H51V59.3529Z" fill="#272727"/>
<path d="M53 59.3529H51V61.3235H53V59.3529Z" fill="#272727"/>
<path d="M55 59.3529H53V61.3235H55V59.3529Z" fill="#272727"/>
<path d="M57 59.3529H55V61.3235H57V59.3529Z" fill="#272727"/>
<path d="M59 59.3529H57V61.3235H59V59.3529Z" fill="#272727"/>
<path d="M61 59.3529H59V61.3235H61V59.3529Z" fill="#191919"/>
<path d="M63 59.3529H61V61.3235H63V59.3529Z" fill="#191919"/>
<path d="M65 59.3529H63V61.3235H65V59.3529Z" fill="#191919"/>
<path d="M67 59.3529H65V61.3235H67V59.3529Z" fill="#191919"/>
<path d="M69 59.3529H67V61.3235H69V59.3529Z" fill="#191919"/>
<path d="M71 59.3529H69V61.3235H71V59.3529Z" fill="#0E0E0E"/>
<path d="M73 59.3529H71V61.3235H73V59.3529Z" fill="#0E0E0E"/>
<path d="M75 59.3529H73V61.3235H75V59.3529Z" fill="#0E0E0E"/>
<path d="M77 59.3529H75V61.3235H77V59.3529Z" fill="#0E0E0E"/>
<path d="M79 59.3529H77V61.3235H79V59.3529Z" fill="#0E0E0E"/>
<path d="M81 59.3529H79V61.3235H81V59.3529Z" fill="#0E0E0E"/>
<path d="M83 59.3529H81V61.3235H83V59.3529Z" fill="#191919"/>
<path d="M85 59.3529H83V61.3235H85V59.3529Z" fill="#191919"/>
<path d="M87 59.3529H85V61.3235H87V59.3529Z" fill="#191919"/>
<path d="M89 59.3529H87V61.3235H89V59.3529Z" fill="#515050"/>
<path d="M91 59.3529H89V61.3235H91V59.3529Z" fill="#515050"/>
<path d="M93 59.3529H91V61.3235H93V59.3529Z" fill="#515050"/>
<path d="M13 61.3235H11V63.2941H13V61.3235Z" fill="#191919"/>
<path d="M15 61.3235H13V63.2941H15V61.3235Z" fill="#646464"/>
<path d="M17 61.3235H15V63.2941H17V61.3235Z" fill="#646464"/>
<path d="M19 61.3235H17V63.2941H19V61.3235Z" fill="#646464"/>
<path d="M21 61.3235H19V63.2941H21V61.3235Z" fill="#646464"/>
<path d="M23 61.3235H21V63.2941H23V61.3235Z" fill="#646464"/>
<path d="M25 61.3235H23V63.2941H25V61.3235Z" fill="#646464"/>
<path d="M27 61.3235H25V63.2941H27V61.3235Z" fill="#646464"/>
<path d="M29 61.3235H27V63.2941H29V61.3235Z" fill="#272727"/>
<path d="M31 61.3235H29V63.2941H31V61.3235Z" fill="#272727"/>
<path d="M33 61.3235H31V63.2941H33V61.3235Z" fill="#272727"/>
<path d="M35 61.3235H33V63.2941H35V61.3235Z" fill="#272727"/>
<path d="M37 61.3235H35V63.2941H37V61.3235Z" fill="#272727"/>
<path d="M39 61.3235H37V63.2941H39V61.3235Z" fill="#272727"/>
<path d="M41 61.3235H39V63.2941H41V61.3235Z" fill="#272727"/>
<path d="M43 61.3235H41V63.2941H43V61.3235Z" fill="#272727"/>
<path d="M45 61.3235H43V63.2941H45V61.3235Z" fill="#272727"/>
<path d="M47 61.3235H45V63.2941H47V61.3235Z" fill="#272727"/>
<path d="M49 61.3235H47V63.2941H49V61.3235Z" fill="#272727"/>
<path d="M51 61.3235H49V63.2941H51V61.3235Z" fill="#272727"/>
<path d="M53 61.3235H51V63.2941H53V61.3235Z" fill="#272727"/>
<path d="M55 61.3235H53V63.2941H55V61.3235Z" fill="#272727"/>
<path d="M57 61.3235H55V63.2941H57V61.3235Z" fill="#272727"/>
<path d="M59 61.3235H57V63.2941H59V61.3235Z" fill="#191919"/>
<path d="M61 61.3235H59V63.2941H61V61.3235Z" fill="#191919"/>
<path d="M63 61.3235H61V63.2941H63V61.3235Z" fill="#191919"/>
<path d="M65 61.3235H63V63.2941H65V61.3235Z" fill="#191919"/>
<path d="M67 61.3235H65V63.2941H67V61.3235Z" fill="#191919"/>
<path d="M69 61.3235H67V63.2941H69V61.3235Z" fill="#0E0E0E"/>
<path d="M71 61.3235H69V63.2941H71V61.3235Z" fill="#0E0E0E"/>
<path d="M73 61.3235H71V63.2941H73V61.3235Z" fill="#0E0E0E"/>
<path d="M75 61.3235H73V63.2941H75V61.3235Z" fill="#0E0E0E"/>
<path d="M77 61.3235H75V63.2941H77V61.3235Z" fill="#515050"/>
<path d="M79 61.3235H77V63.2941H79V61.3235Z" fill="#515050"/>
<path d="M81 61.3235H79V63.2941H81V61.3235Z" fill="#515050"/>
<path d="M83 61.3235H81V63.2941H83V61.3235Z" fill="#515050"/>
<path d="M85 61.3235H83V63.2941H85V61.3235Z" fill="#515050"/>
<path d="M87 61.3235H85V63.2941H87V61.3235Z" fill="#515050"/>
<path d="M89 61.3235H87V63.2941H89V61.3235Z" fill="#515050"/>
<path d="M91 61.3235H89V63.2941H91V61.3235Z" fill="#515050"/>
<path d="M93 61.3235H91V63.2941H93V61.3235Z" fill="#515050"/>
<path d="M95 61.3235H93V63.2941H95V61.3235Z" fill="#515050"/>
<path d="M11 63.2941H9V65.2647H11V63.2941Z" fill="#191919"/>
<path d="M13 63.2941H11V65.2647H13V63.2941Z" fill="#646464"/>
<path d="M15 63.2941H13V65.2647H15V63.2941Z" fill="#646464"/>
<path d="M17 63.2941H15V65.2647H17V63.2941Z" fill="#191919"/>
<path d="M19 63.2941H17V65.2647H19V63.2941Z" fill="#191919"/>
<path d="M21 63.2941H19V65.2647H21V63.2941Z" fill="#191919"/>
<path d="M23 63.2941H21V65.2647H23V63.2941Z" fill="#191919"/>
<path d="M25 63.2941H23V65.2647H25V63.2941Z" fill="#191919"/>
<path d="M27 63.2941H25V65.2647H27V63.2941Z" fill="#646464"/>
<path d="M29 63.2941H27V65.2647H29V63.2941Z" fill="#646464"/>
<path d="M31 63.2941H29V65.2647H31V63.2941Z" fill="#646464"/>
<path d="M33 63.2941H31V65.2647H33V63.2941Z" fill="#272727"/>
<path d="M35 63.2941H33V65.2647H35V63.2941Z" fill="#272727"/>
<path d="M37 63.2941H35V65.2647H37V63.2941Z" fill="#272727"/>
<path d="M39 63.2941H37V65.2647H39V63.2941Z" fill="#272727"/>
<path d="M41 63.2941H39V65.2647H41V63.2941Z" fill="#272727"/>
<path d="M43 63.2941H41V65.2647H43V63.2941Z" fill="#272727"/>
<path d="M45 63.2941H43V65.2647H45V63.2941Z" fill="#272727"/>
<path d="M47 63.2941H45V65.2647H47V63.2941Z" fill="#272727"/>
<path d="M49 63.2941H47V65.2647H49V63.2941Z" fill="#272727"/>
<path d="M51 63.2941H49V65.2647H51V63.2941Z" fill="#272727"/>
<path d="M53 63.2941H51V65.2647H53V63.2941Z" fill="#272727"/>
<path d="M55 63.2941H53V65.2647H55V63.2941Z" fill="#272727"/>
<path d="M57 63.2941H55V65.2647H57V63.2941Z" fill="#191919"/>
<path d="M59 63.2941H57V65.2647H59V63.2941Z" fill="#191919"/>
<path d="M61 63.2941H59V65.2647H61V63.2941Z" fill="#191919"/>
<path d="M63 63.2941H61V65.2647H63V63.2941Z" fill="#191919"/>
<path d="M65 63.2941H63V65.2647H65V63.2941Z" fill="#191919"/>
<path d="M67 63.2941H65V65.2647H67V63.2941Z" fill="#0E0E0E"/>
<path d="M69 63.2941H67V65.2647H69V63.2941Z" fill="#0E0E0E"/>
<path d="M71 63.2941H69V65.2647H71V63.2941Z" fill="#0E0E0E"/>
<path d="M73 63.2941H71V65.2647H73V63.2941Z" fill="#0E0E0E"/>
<path d="M75 63.2941H73V65.2647H75V63.2941Z" fill="#515050"/>
<path d="M77 63.2941H75V65.2647H77V63.2941Z" fill="#515050"/>
<path d="M79 63.2941H77V65.2647H79V63.2941Z" fill="#515050"/>
<path d="M81 63.2941H79V65.2647H81V63.2941Z" fill="#515050"/>
<path d="M83 63.2941H81V65.2647H83V63.2941Z" fill="#515050"/>
<path d="M85 63.2941H83V65.2647H85V63.2941Z" fill="#515050"/>
<path d="M87 63.2941H85V65.2647H87V63.2941Z" fill="#515050"/>
<path d="M89 63.2941H87V65.2647H89V63.2941Z" fill="#515050"/>
<path d="M91 63.2941H89V65.2647H91V63.2941Z" fill="#515050"/>
<path d="M93 63.2941H91V65.2647H93V63.2941Z" fill="#515050"/>
<path d="M95 63.2941H93V65.2647H95V63.2941Z" fill="#515050"/>
<path d="M9 65.2647L7 65.2647V67.2353H9V65.2647Z" fill="#191919"/>
<path d="M11 65.2647H9V67.2353H11V65.2647Z" fill="#646464"/>
<path d="M13 65.2647H11V67.2353H13V65.2647Z" fill="#191919"/>
<path d="M15 65.2647H13V67.2353H15V65.2647Z" fill="#191919"/>
<path d="M17 65.2647H15V67.2353H17V65.2647Z" fill="#191919"/>
<path d="M19 65.2647H17V67.2353H19V65.2647Z" fill="#191919"/>
<path d="M21 65.2647H19V67.2353H21V65.2647Z" fill="#191919"/>
<path d="M23 65.2647H21V67.2353H23V65.2647Z" fill="#191919"/>
<path d="M25 65.2647H23V67.2353H25V65.2647Z" fill="#191919"/>
<path d="M27 65.2647H25V67.2353H27V65.2647Z" fill="#191919"/>
<path d="M29 65.2647H27V67.2353H29V65.2647Z" fill="#191919"/>
<path d="M31 65.2647H29V67.2353H31V65.2647Z" fill="#646464"/>
<path d="M33 65.2647H31V67.2353H33V65.2647Z" fill="#646464"/>
<path d="M35 65.2647H33V67.2353H35V65.2647Z" fill="#646464"/>
<path d="M37 65.2647H35V67.2353H37V65.2647Z" fill="#272727"/>
<path d="M39 65.2647H37V67.2353H39V65.2647Z" fill="#272727"/>
<path d="M41 65.2647H39V67.2353H41V65.2647Z" fill="#272727"/>
<path d="M43 65.2647H41V67.2353H43V65.2647Z" fill="#272727"/>
<path d="M45 65.2647H43V67.2353H45V65.2647Z" fill="#272727"/>
<path d="M47 65.2647H45V67.2353H47V65.2647Z" fill="#272727"/>
<path d="M49 65.2647H47V67.2353H49V65.2647Z" fill="#272727"/>
<path d="M51 65.2647H49V67.2353H51V65.2647Z" fill="#272727"/>
<path d="M53 65.2647H51V67.2353H53V65.2647Z" fill="#272727"/>
<path d="M55 65.2647H53V67.2353H55V65.2647Z" fill="#191919"/>
<path d="M57 65.2647H55V67.2353H57V65.2647Z" fill="#272727"/>
<path d="M59 65.2647H57V67.2353H59V65.2647Z" fill="#191919"/>
<path d="M61 65.2647H59V67.2353H61V65.2647Z" fill="#191919"/>
<path d="M63 65.2647H61V67.2353H63V65.2647Z" fill="#0E0E0E"/>
<path d="M65 65.2647H63V67.2353H65V65.2647Z" fill="#0E0E0E"/>
<path d="M67 65.2647H65V67.2353H67V65.2647Z" fill="#0E0E0E"/>
<path d="M69 65.2647H67V67.2353H69V65.2647Z" fill="#0E0E0E"/>
<path d="M71 65.2647H69V67.2353H71V65.2647Z" fill="#515050"/>
<path d="M73 65.2647H71V67.2353H73V65.2647Z" fill="#515050"/>
<path d="M75 65.2647H73V67.2353H75V65.2647Z" fill="#515050"/>
<path d="M77 65.2647H75V67.2353H77V65.2647Z" fill="#515050"/>
<path d="M79 65.2647H77V67.2353H79V65.2647Z" fill="#515050"/>
<path d="M81 65.2647H79V67.2353H81V65.2647Z" fill="#515050"/>
<path d="M83 65.2647H81V67.2353H83V65.2647Z" fill="#515050"/>
<path d="M85 65.2647H83V67.2353H85V65.2647Z" fill="#515050"/>
<path d="M87 65.2647H85V67.2353H87V65.2647Z" fill="#515050"/>
<path d="M89 65.2647H87V67.2353H89V65.2647Z" fill="#515050"/>
<path d="M91 65.2647H89V67.2353H91V65.2647Z" fill="#515050"/>
<path d="M93 65.2647H91V67.2353H93V65.2647Z" fill="#515050"/>
<path d="M95 65.2647H93V67.2353H95V65.2647Z" fill="#515050"/>
<path d="M7 67.2353H5V69.2059H7V67.2353Z" fill="#191919"/>
<path d="M9 67.2353H7V69.2059H9V67.2353Z" fill="#646464"/>
<path d="M11 67.2353H9V69.2059H11V67.2353Z" fill="#191919"/>
<path d="M13 67.2353H11V69.2059H13V67.2353Z" fill="#191919"/>
<path d="M15 67.2353H13V69.2059H15V67.2353Z" fill="#191919"/>
<path d="M17 67.2353H15V69.2059H17V67.2353Z" fill="#191919"/>
<path d="M19 67.2353H17V69.2059H19V67.2353Z" fill="#191919"/>
<path d="M21 67.2353H19V69.2059H21V67.2353Z" fill="#191919"/>
<path d="M23 67.2353H21V69.2059H23V67.2353Z" fill="#191919"/>
<path d="M25 67.2353H23V69.2059H25V67.2353Z" fill="#191919"/>
<path d="M27 67.2353H25V69.2059H27V67.2353Z" fill="#191919"/>
<path d="M29 67.2353H27V69.2059H29V67.2353Z" fill="#191919"/>
<path d="M31 67.2353H29V69.2059H31V67.2353Z" fill="#191919"/>
<path d="M33 67.2353H31V69.2059H33V67.2353Z" fill="#191919"/>
<path d="M35 67.2353H33V69.2059H35V67.2353Z" fill="#646464"/>
<path d="M37 67.2353H35V69.2059H37V67.2353Z" fill="#646464"/>
<path d="M39 67.2353H37V69.2059H39V67.2353Z" fill="#272727"/>
<path d="M41 67.2353H39V69.2059H41V67.2353Z" fill="#272727"/>
<path d="M43 67.2353H41V69.2059H43V67.2353Z" fill="#272727"/>
<path d="M45 67.2353H43V69.2059H45V67.2353Z" fill="#272727"/>
<path d="M47 67.2353H45V69.2059H47V67.2353Z" fill="#272727"/>
<path d="M49 67.2353H47V69.2059H49V67.2353Z" fill="#272727"/>
<path d="M51 67.2353H49V69.2059H51V67.2353Z" fill="#272727"/>
<path d="M53 67.2353H51V69.2059H53V67.2353Z" fill="#191919"/>
<path d="M55 67.2353H53V69.2059H55V67.2353Z" fill="#272727"/>
<path d="M57 67.2353H55V69.2059H57V67.2353Z" fill="#191919"/>
<path d="M59 67.2353H57V69.2059H59V67.2353Z" fill="#191919"/>
<path d="M61 67.2353H59V69.2059H61V67.2353Z" fill="#0E0E0E"/>
<path d="M63 67.2353H61V69.2059H63V67.2353Z" fill="#0E0E0E"/>
<path d="M65 67.2353H63V69.2059H65V67.2353Z" fill="#0E0E0E"/>
<path d="M67 67.2353H65V69.2059H67V67.2353Z" fill="#0E0E0E"/>
<path d="M69 67.2353H67V69.2059H69V67.2353Z" fill="#515050"/>
<path d="M71 67.2353H69V69.2059H71V67.2353Z" fill="#515050"/>
<path d="M73 67.2353H71V69.2059H73V67.2353Z" fill="#515050"/>
<path d="M75 67.2353H73V69.2059H75V67.2353Z" fill="#515050"/>
<path d="M77 67.2353H75V69.2059H77V67.2353Z" fill="#515050"/>
<path d="M79 67.2353H77V69.2059H79V67.2353Z" fill="#515050"/>
<path d="M81 67.2353H79V69.2059H81V67.2353Z" fill="#515050"/>
<path d="M83 67.2353H81V69.2059H83V67.2353Z" fill="#515050"/>
<path d="M85 67.2353H83V69.2059H85V67.2353Z" fill="#515050"/>
<path d="M87 67.2353H85V69.2059H87V67.2353Z" fill="#515050"/>
<path d="M89 67.2353H87V69.2059H89V67.2353Z" fill="#515050"/>
<path d="M91 67.2353H89V69.2059H91V67.2353Z" fill="#515050"/>
<path d="M93 67.2353H91V69.2059H93V67.2353Z" fill="#515050"/>
<path d="M7 69.2059H5V71.1765H7V69.2059Z" fill="#191919"/>
<path d="M9 69.2059H7V71.1765H9V69.2059Z" fill="#191919"/>
<path d="M11 69.2059H9V71.1765H11V69.2059Z" fill="#191919"/>
<path d="M13 69.2059H11V71.1765H13V69.2059Z" fill="#191919"/>
<path d="M15 69.2059H13V71.1765H15V69.2059Z" fill="#191919"/>
<path d="M17 69.2059H15V71.1765H17V69.2059Z" fill="#191919"/>
<path d="M19 69.2059H17V71.1765H19V69.2059Z" fill="#191919"/>
<path d="M21 69.2059H19V71.1765H21V69.2059Z" fill="#191919"/>
<path d="M23 69.2059H21V71.1765H23V69.2059Z" fill="#515050"/>
<path d="M25 69.2059H23V71.1765H25V69.2059Z" fill="#515050"/>
<path d="M27 69.2059H25V71.1765H27V69.2059Z" fill="#515050"/>
<path d="M29 69.2059H27V71.1765H29V69.2059Z" fill="#515050"/>
<path d="M31 69.2059H29V71.1765H31V69.2059Z" fill="#191919"/>
<path d="M33 69.2059H31V71.1765H33V69.2059Z" fill="#191919"/>
<path d="M35 69.2059H33V71.1765H35V69.2059Z" fill="#191919"/>
<path d="M37 69.2059H35V71.1765H37V69.2059Z" fill="#191919"/>
<path d="M39 69.2059H37V71.1765H39V69.2059Z" fill="#646464"/>
<path d="M41 69.2059H39V71.1765H41V69.2059Z" fill="#272727"/>
<path d="M43 69.2059H41V71.1765H43V69.2059Z" fill="#272727"/>
<path d="M45 69.2059H43V71.1765H45V69.2059Z" fill="#272727"/>
<path d="M47 69.2059H45V71.1765H47V69.2059Z" fill="#272727"/>
<path d="M49 69.2059H47V71.1765H49V69.2059Z" fill="#272727"/>
<path d="M51 69.2059H49V71.1765H51V69.2059Z" fill="#191919"/>
<path d="M53 69.2059H51V71.1765H53V69.2059Z" fill="#272727"/>
<path d="M55 69.2059H53V71.1765H55V69.2059Z" fill="#191919"/>
<path d="M57 69.2059H55V71.1765H57V69.2059Z" fill="#191919"/>
<path d="M59 69.2059H57V71.1765H59V69.2059Z" fill="#0E0E0E"/>
<path d="M61 69.2059H59V71.1765H61V69.2059Z" fill="#0E0E0E"/>
<path d="M63 69.2059H61V71.1765H63V69.2059Z" fill="#0E0E0E"/>
<path d="M65 69.2059H63V71.1765H65V69.2059Z" fill="#191919"/>
<path d="M67 69.2059H65V71.1765H67V69.2059Z" fill="#515050"/>
<path d="M69 69.2059H67V71.1765H69V69.2059Z" fill="#515050"/>
<path d="M71 69.2059H69V71.1765H71V69.2059Z" fill="#515050"/>
<path d="M73 69.2059H71V71.1765H73V69.2059Z" fill="#515050"/>
<path d="M75 69.2059H73V71.1765H75V69.2059Z" fill="#515050"/>
<path d="M77 69.2059H75V71.1765H77V69.2059Z" fill="#515050"/>
<path d="M79 69.2059H77V71.1765H79V69.2059Z" fill="#515050"/>
<path d="M81 69.2059H79V71.1765H81V69.2059Z" fill="#515050"/>
<path d="M83 69.2059H81V71.1765H83V69.2059Z" fill="#515050"/>
<path d="M85 69.2059H83V71.1765H85V69.2059Z" fill="#515050"/>
<path d="M87 69.2059H85V71.1765H87V69.2059Z" fill="#515050"/>
<path d="M89 69.2059H87V71.1765H89V69.2059Z" fill="#515050"/>
<path d="M91 69.2059H89V71.1765H91V69.2059Z" fill="#515050"/>
<path d="M9 71.1765H7V73.1471H9V71.1765Z" fill="#191919"/>
<path d="M11 71.1765H9V73.1471H11V71.1765Z" fill="#191919"/>
<path d="M13 71.1765H11V73.1471H13V71.1765Z" fill="#191919"/>
<path d="M15 71.1765H13V73.1471H15V71.1765Z" fill="#191919"/>
<path d="M17 71.1765H15V73.1471H17V71.1765Z" fill="#191919"/>
<path d="M19 71.1765H17V73.1471H19V71.1765Z" fill="#515050"/>
<path d="M21 71.1765H19V73.1471H21V71.1765Z" fill="#515050"/>
<path d="M23 71.1765H21V73.1471H23V71.1765Z" fill="#515050"/>
<path d="M25 71.1765H23V73.1471H25V71.1765Z" fill="#515050"/>
<path d="M27 71.1765H25V73.1471H27V71.1765Z" fill="#515050"/>
<path d="M29 71.1765H27V73.1471H29V71.1765Z" fill="#515050"/>
<path d="M31 71.1765H29V73.1471H31V71.1765Z" fill="#515050"/>
<path d="M33 71.1765H31V73.1471H33V71.1765Z" fill="#515050"/>
<path d="M35 71.1765H33V73.1471H35V71.1765Z" fill="#191919"/>
<path d="M37 71.1765H35V73.1471H37V71.1765Z" fill="#191919"/>
<path d="M39 71.1765H37V73.1471H39V71.1765Z" fill="#191919"/>
<path d="M41 71.1765H39V73.1471H41V71.1765Z" fill="#646464"/>
<path d="M43 71.1765H41V73.1471H43V71.1765Z" fill="#272727"/>
<path d="M45 71.1765H43V73.1471H45V71.1765Z" fill="#272727"/>
<path d="M47 71.1765H45V73.1471H47V71.1765Z" fill="#272727"/>
<path d="M49 71.1765H47V73.1471H49V71.1765Z" fill="#191919"/>
<path d="M51 71.1765H49V73.1471H51V71.1765Z" fill="#272727"/>
<path d="M53 71.1765H51V73.1471H53V71.1765Z" fill="#191919"/>
<path d="M55 71.1765H53V73.1471H55V71.1765Z" fill="#191919"/>
<path d="M57 71.1765H55V73.1471H57V71.1765Z" fill="#0E0E0E"/>
<path d="M59 71.1765H57V73.1471H59V71.1765Z" fill="#0E0E0E"/>
<path d="M61 71.1765H59V73.1471H61V71.1765Z" fill="#0E0E0E"/>
<path d="M63 71.1765H61V73.1471H63V71.1765Z" fill="#191919"/>
<path d="M65 71.1765H63V73.1471H65V71.1765Z" fill="#515050"/>
<path d="M67 71.1765H65V73.1471H67V71.1765Z" fill="#515050"/>
<path d="M69 71.1765H67V73.1471H69V71.1765Z" fill="#515050"/>
<path d="M71 71.1765H69V73.1471H71V71.1765Z" fill="#515050"/>
<path d="M73 71.1765H71V73.1471H73V71.1765Z" fill="#515050"/>
<path d="M75 71.1765H73V73.1471H75V71.1765Z" fill="#515050"/>
<path d="M77 71.1765H75V73.1471H77V71.1765Z" fill="#515050"/>
<path d="M79 71.1765H77V73.1471H79V71.1765Z" fill="#515050"/>
<path d="M81 71.1765H79V73.1471H81V71.1765Z" fill="#515050"/>
<path d="M83 71.1765H81V73.1471H83V71.1765Z" fill="#515050"/>
<path d="M85 71.1765H83V73.1471H85V71.1765Z" fill="#515050"/>
<path d="M87 71.1765H85V73.1471H87V71.1765Z" fill="#515050"/>
<path d="M11 73.1471H9V75.1176H11V73.1471Z" fill="#515050"/>
<path d="M13 73.1471H11V75.1176H13V73.1471Z" fill="#515050"/>
<path d="M15 73.1471H13V75.1176H15V73.1471Z" fill="#515050"/>
<path d="M17 73.1471H15V75.1176H17V73.1471Z" fill="#515050"/>
<path d="M19 73.1471H17V75.1176H19V73.1471Z" fill="#515050"/>
<path d="M21 73.1471H19V75.1176H21V73.1471Z" fill="#515050"/>
<path d="M23 73.1471H21V75.1176H23V73.1471Z" fill="#515050"/>
<path d="M25 73.1471H23V75.1176H25V73.1471Z" fill="#515050"/>
<path d="M27 73.1471H25V75.1176H27V73.1471Z" fill="#515050"/>
<path d="M29 73.1471H27V75.1176H29V73.1471Z" fill="#515050"/>
<path d="M31 73.1471H29V75.1176H31V73.1471Z" fill="#515050"/>
<path d="M33 73.1471H31V75.1176H33V73.1471Z" fill="#515050"/>
<path d="M35 73.1471H33V75.1176H35V73.1471Z" fill="#515050"/>
<path d="M37 73.1471H35V75.1176H37V73.1471Z" fill="#191919"/>
<path d="M39 73.1471H37V75.1176H39V73.1471Z" fill="#191919"/>
<path d="M41 73.1471H39V75.1176H41V73.1471Z" fill="#191919"/>
<path d="M43 73.1471H41V75.1176H43V73.1471Z" fill="#646464"/>
<path d="M45 73.1471H43V75.1176H45V73.1471Z" fill="#191919"/>
<path d="M47 73.1471H45V75.1176H47V73.1471Z" fill="#191919"/>
<path d="M49 73.1471H47V75.1176H49V73.1471Z" fill="#272727"/>
<path d="M51 73.1471H49V75.1176H51V73.1471Z" fill="#191919"/>
<path d="M53 73.1471H51V75.1176H53V73.1471Z" fill="#191919"/>
<path d="M55 73.1471H53V75.1176H55V73.1471Z" fill="#0E0E0E"/>
<path d="M57 73.1471H55V75.1176H57V73.1471Z" fill="#0E0E0E"/>
<path d="M59 73.1471H57V75.1176H59V73.1471Z" fill="#0E0E0E"/>
<path d="M61 73.1471H59V75.1176H61V73.1471Z" fill="#515050"/>
<path d="M63 73.1471H61V75.1176H63V73.1471Z" fill="#515050"/>
<path d="M65 73.1471H63V75.1176H65V73.1471Z" fill="#515050"/>
<path d="M67 73.1471H65V75.1176H67V73.1471Z" fill="#515050"/>
<path d="M69 73.1471H67V75.1176H69V73.1471Z" fill="#515050"/>
<path d="M71 73.1471H69V75.1176H71V73.1471Z" fill="#515050"/>
<path d="M73 73.1471H71V75.1176H73V73.1471Z" fill="#515050"/>
<path d="M75 73.1471H73V75.1176H75V73.1471Z" fill="#515050"/>
<path d="M77 73.1471H75V75.1176H77V73.1471Z" fill="#515050"/>
<path d="M79 73.1471H77V75.1176H79V73.1471Z" fill="#515050"/>
<path d="M9 75.1176H7V77.0882H9V75.1176Z" fill="#515050"/>
<path d="M11 75.1176H9V77.0882H11V75.1176Z" fill="#515050"/>
<path d="M13 75.1176H11V77.0882H13V75.1176Z" fill="#515050"/>
<path d="M15 75.1176H13V77.0882H15V75.1176Z" fill="#515050"/>
<path d="M17 75.1176H15V77.0882H17V75.1176Z" fill="#515050"/>
<path d="M19 75.1176H17V77.0882H19V75.1176Z" fill="#515050"/>
<path d="M21 75.1176H19V77.0882H21V75.1176Z" fill="#515050"/>
<path d="M23 75.1176H21V77.0882H23V75.1176Z" fill="#515050"/>
<path d="M25 75.1176H23V77.0882H25V75.1176Z" fill="#515050"/>
<path d="M27 75.1176H25V77.0882H27V75.1176Z" fill="#515050"/>
<path d="M29 75.1176H27V77.0882H29V75.1176Z" fill="#515050"/>
<path d="M31 75.1176H29V77.0882H31V75.1176Z" fill="#515050"/>
<path d="M33 75.1176H31V77.0882H33V75.1176Z" fill="#515050"/>
<path d="M35 75.1176H33V77.0882H35V75.1176Z" fill="#515050"/>
<path d="M37 75.1176H35V77.0882H37V75.1176Z" fill="#515050"/>
<path d="M39 75.1176H37V77.0882H39V75.1176Z" fill="#515050"/>
<path d="M41 75.1176H39V77.0882H41V75.1176Z" fill="#191919"/>
<path d="M43 75.1176H41V77.0882H43V75.1176Z" fill="#191919"/>
<path d="M45 75.1176H43V77.0882H45V75.1176Z" fill="#191919"/>
<path d="M47 75.1176H45V77.0882H47V75.1176Z" fill="#191919"/>
<path d="M49 75.1176H47V77.0882H49V75.1176Z" fill="#191919"/>
<path d="M51 75.1176H49V77.0882H51V75.1176Z" fill="#191919"/>
<path d="M53 75.1176H51V77.0882H53V75.1176Z" fill="#0E0E0E"/>
<path d="M55 75.1176H53V77.0882H55V75.1176Z" fill="#0E0E0E"/>
<path d="M57 75.1176H55V77.0882H57V75.1176Z" fill="#0E0E0E"/>
<path d="M59 75.1176H57V77.0882H59V75.1176Z" fill="#515050"/>
<path d="M61 75.1176H59V77.0882H61V75.1176Z" fill="#515050"/>
<path d="M63 75.1176H61V77.0882H63V75.1176Z" fill="#515050"/>
<path d="M65 75.1176H63V77.0882H65V75.1176Z" fill="#515050"/>
<path d="M67 75.1176H65V77.0882H67V75.1176Z" fill="#515050"/>
<path d="M69 75.1176H67V77.0882H69V75.1176Z" fill="#515050"/>
<path d="M71 75.1176H69V77.0882H71V75.1176Z" fill="#515050"/>
<path d="M73 75.1176H71V77.0882H73V75.1176Z" fill="#515050"/>
<path d="M15 77.0882H13V79.0588H15V77.0882Z" fill="#515050"/>
<path d="M17 77.0882H15V79.0588H17V77.0882Z" fill="#515050"/>
<path d="M19 77.0882H17V79.0588H19V77.0882Z" fill="#515050"/>
<path d="M21 77.0882H19V79.0588H21V77.0882Z" fill="#515050"/>
<path d="M23 77.0882H21V79.0588H23V77.0882Z" fill="#515050"/>
<path d="M25 77.0882H23V79.0588H25V77.0882Z" fill="#515050"/>
<path d="M27 77.0882H25V79.0588H27V77.0882Z" fill="#515050"/>
<path d="M29 77.0882H27V79.0588H29V77.0882Z" fill="#515050"/>
<path d="M31 77.0882H29V79.0588H31V77.0882Z" fill="#515050"/>
<path d="M33 77.0882H31V79.0588H33V77.0882Z" fill="#515050"/>
<path d="M35 77.0882H33V79.0588H35V77.0882Z" fill="#515050"/>
<path d="M37 77.0882H35V79.0588H37V77.0882Z" fill="#515050"/>
<path d="M39 77.0882H37V79.0588H39V77.0882Z" fill="#515050"/>
<path d="M41 77.0882H39V79.0588H41V77.0882Z" fill="#515050"/>
<path d="M43 77.0882H41V79.0588H43V77.0882Z" fill="#515050"/>
<path d="M45 77.0882H43V79.0588H45V77.0882Z" fill="#191919"/>
<path d="M47 77.0882H45V79.0588H47V77.0882Z" fill="#191919"/>
<path d="M49 77.0882H47V79.0588H49V77.0882Z" fill="#0E0E0E"/>
<path d="M51 77.0882H49V79.0588H51V77.0882Z" fill="#0E0E0E"/>
<path d="M53 77.0882H51V79.0588H53V77.0882Z" fill="#0E0E0E"/>
<path d="M55 77.0882H53V79.0588H55V77.0882Z" fill="#0E0E0E"/>
<path d="M57 77.0882H55V79.0588H57V77.0882Z" fill="#515050"/>
<path d="M59 77.0882H57V79.0588H59V77.0882Z" fill="#515050"/>
<path d="M61 77.0882H59V79.0588H61V77.0882Z" fill="#515050"/>
<path d="M63 77.0882H61V79.0588H63V77.0882Z" fill="#515050"/>
<path d="M65 77.0882H63V79.0588H65V77.0882Z" fill="#515050"/>
<path d="M67 77.0882H65V79.0588H67V77.0882Z" fill="#515050"/>
<path d="M21 79.0588H19V81.0294H21V79.0588Z" fill="#515050"/>
<path d="M23 79.0588H21V81.0294H23V79.0588Z" fill="#515050"/>
<path d="M25 79.0588H23V81.0294H25V79.0588Z" fill="#515050"/>
<path d="M27 79.0588H25V81.0294H27V79.0588Z" fill="#515050"/>
<path d="M29 79.0588H27V81.0294H29V79.0588Z" fill="#515050"/>
<path d="M31 79.0588H29V81.0294H31V79.0588Z" fill="#515050"/>
<path d="M33 79.0588H31V81.0294H33V79.0588Z" fill="#515050"/>
<path d="M35 79.0588H33V81.0294H35V79.0588Z" fill="#515050"/>
<path d="M37 79.0588H35V81.0294H37V79.0588Z" fill="#515050"/>
<path d="M39 79.0588H37V81.0294H39V79.0588Z" fill="#515050"/>
<path d="M41 79.0588H39V81.0294H41V79.0588Z" fill="#515050"/>
<path d="M43 79.0588H41V81.0294H43V79.0588Z" fill="#515050"/>
<path d="M45 79.0588H43V81.0294H45V79.0588Z" fill="#515050"/>
<path d="M47 79.0588H45V81.0294H47V79.0588Z" fill="#515050"/>
<path d="M49 79.0588H47V81.0294H49V79.0588Z" fill="#515050"/>
<path d="M51 79.0588H49V81.0294H51V79.0588Z" fill="#515050"/>
<path d="M53 79.0588H51V81.0294H53V79.0588Z" fill="#515050"/>
<path d="M55 79.0588H53V81.0294H55V79.0588Z" fill="#515050"/>
<path d="M57 79.0588H55V81.0294H57V79.0588Z" fill="#515050"/>
<path d="M59 79.0588H57V81.0294H59V79.0588Z" fill="#515050"/>
<path d="M61 79.0588H59V81.0294H61V79.0588Z" fill="#515050"/>
<path d="M31 81.0294H29V83H31V81.0294Z" fill="#515050"/>
<path d="M33 81.0294H31V83H33V81.0294Z" fill="#515050"/>
<path d="M35 81.0294H33V83H35V81.0294Z" fill="#515050"/>
<path d="M37 81.0294H35V83H37V81.0294Z" fill="#515050"/>
<path d="M39 81.0294H37V83H39V81.0294Z" fill="#515050"/>
<path d="M41 81.0294H39V83H41V81.0294Z" fill="#515050"/>
<path d="M43 81.0294H41V83H43V81.0294Z" fill="#515050"/>
<path d="M45 81.0294H43V83H45V81.0294Z" fill="#515050"/>
<path d="M47 81.0294H45V83H47V81.0294Z" fill="#515050"/>
<path d="M49 81.0294H47V83H49V81.0294Z" fill="#515050"/>
<path d="M51 81.0294H49V83H51V81.0294Z" fill="#515050"/>
</svg>
