<svg width="100" height="100" viewBox="0 0 100 100" fill="none" xmlns="http://www.w3.org/2000/svg">
<path d="M57 17H55V18.9706H57V17Z" fill="#ACACAC"/>
<path d="M59 17H57V18.9706H59V17Z" fill="#ACACAC"/>
<path d="M61 17H59V18.9706H61V17Z" fill="#ACACAC"/>
<path d="M51 18.9706H49V20.9412H51V18.9706Z" fill="#ACACAC"/>
<path d="M53 18.9706H51V20.9412H53V18.9706Z" fill="#ACACAC"/>
<path d="M55 18.9706H53V20.9412H55V18.9706Z" fill="#ACACAC"/>
<path d="M57 18.9706H55V20.9412H57V18.9706Z" fill="#ACACAC"/>
<path d="M59 18.9706H57V20.9412H59V18.9706Z" fill="#ACACAC"/>
<path d="M61 18.9706H59V20.9412H61V18.9706Z" fill="#ACACAC"/>
<path d="M63 18.9706H61V20.9412H63V18.9706Z" fill="#ACACAC"/>
<path d="M65 18.9706H63V20.9412H65V18.9706Z" fill="#ACACAC"/>
<path d="M45 20.9412H43V22.9118H45V20.9412Z" fill="#ACACAC"/>
<path d="M47 20.9412H45V22.9118H47V20.9412Z" fill="#ACACAC"/>
<path d="M49 20.9412H47V22.9118H49V20.9412Z" fill="#ACACAC"/>
<path d="M51 20.9412H49V22.9118H51V20.9412Z" fill="#E6E6E6"/>
<path d="M53 20.9412H51V22.9118H53V20.9412Z" fill="#E6E6E6"/>
<path d="M55 20.9412H53V22.9118H55V20.9412Z" fill="#E6E6E6"/>
<path d="M57 20.9412H55V22.9118H57V20.9412Z" fill="#E6E6E6"/>
<path d="M59 20.9412H57V22.9118H59V20.9412Z" fill="#E6E6E6"/>
<path d="M61 20.9412H59V22.9118H61V20.9412Z" fill="#E6E6E6"/>
<path d="M63 20.9412H61V22.9118H63V20.9412Z" fill="#ACACAC"/>
<path d="M65 20.9412H63V22.9118H65V20.9412Z" fill="#ACACAC"/>
<path d="M67 20.9412H65V22.9118H67V20.9412Z" fill="#ACACAC"/>
<path d="M69 20.9412H67V22.9118H69V20.9412Z" fill="#ACACAC"/>
<path d="M71 20.9412H69V22.9118H71V20.9412Z" fill="#ACACAC"/>
<path d="M73 20.9412H71V22.9118H73V20.9412Z" fill="#ACACAC"/>
<path d="M41 22.9118H39V24.8824H41V22.9118Z" fill="#ACACAC"/>
<path d="M43 22.9118H41V24.8824H43V22.9118Z" fill="#ACACAC"/>
<path d="M45 22.9118H43V24.8824H45V22.9118Z" fill="white"/>
<path d="M47 22.9118H45V24.8824H47V22.9118Z" fill="white"/>
<path d="M49 22.9118H47V24.8824H49V22.9118Z" fill="#E6E6E6"/>
<path d="M51 22.9118H49V24.8824H51V22.9118Z" fill="#E6E6E6"/>
<path d="M53 22.9118H51V24.8824H53V22.9118Z" fill="#E6E6E6"/>
<path d="M55 22.9118H53V24.8824H55V22.9118Z" fill="#E6E6E6"/>
<path d="M57 22.9118H55V24.8824H57V22.9118Z" fill="#E6E6E6"/>
<path d="M59 22.9118H57V24.8824H59V22.9118Z" fill="#E6E6E6"/>
<path d="M61 22.9118H59V24.8824H61V22.9118Z" fill="#E6E6E6"/>
<path d="M63 22.9118H61V24.8824H63V22.9118Z" fill="#E6E6E6"/>
<path d="M65 22.9118H63V24.8824H65V22.9118Z" fill="#E6E6E6"/>
<path d="M67 22.9118H65V24.8824H67V22.9118Z" fill="#ACACAC"/>
<path d="M69 22.9118H67V24.8824H69V22.9118Z" fill="#E6E6E6"/>
<path d="M71 22.9118H69V24.8824H71V22.9118Z" fill="#ACACAC"/>
<path d="M73 22.9118H71V24.8824H73V22.9118Z" fill="#ACACAC"/>
<path d="M75 22.9118H73V24.8824H75V22.9118Z" fill="#ACACAC"/>
<path d="M77 22.9118H75V24.8824H77V22.9118Z" fill="#ACACAC"/>
<path d="M37 24.8824H35V26.8529H37V24.8824Z" fill="#ACACAC"/>
<path d="M39 24.8824H37V26.8529H39V24.8824Z" fill="#ACACAC"/>
<path d="M41 24.8824H39V26.8529H41V24.8824Z" fill="white"/>
<path d="M43 24.8824H41V26.8529H43V24.8824Z" fill="white"/>
<path d="M45 24.8824H43V26.8529H45V24.8824Z" fill="#E6E6E6"/>
<path d="M47 24.8824H45V26.8529H47V24.8824Z" fill="#E6E6E6"/>
<path d="M49 24.8824H47V26.8529H49V24.8824Z" fill="#E6E6E6"/>
<path d="M51 24.8824H49V26.8529H51V24.8824Z" fill="#E6E6E6"/>
<path d="M53 24.8824H51V26.8529H53V24.8824Z" fill="#E6E6E6"/>
<path d="M55 24.8824H53V26.8529H55V24.8824Z" fill="#E6E6E6"/>
<path d="M57 24.8824H55V26.8529H57V24.8824Z" fill="#E6E6E6"/>
<path d="M59 24.8824H57V26.8529H59V24.8824Z" fill="#E6E6E6"/>
<path d="M61 24.8824H59V26.8529H61V24.8824Z" fill="#E6E6E6"/>
<path d="M63 24.8824H61V26.8529H63V24.8824Z" fill="#E6E6E6"/>
<path d="M65 24.8824H63V26.8529H65V24.8824Z" fill="#E6E6E6"/>
<path d="M67 24.8824H65V26.8529H67V24.8824Z" fill="#E6E6E6"/>
<path d="M69 24.8824H67V26.8529H69V24.8824Z" fill="#ACACAC"/>
<path d="M71 24.8824H69V26.8529H71V24.8824Z" fill="#E6E6E6"/>
<path d="M73 24.8824H71V26.8529H73V24.8824Z" fill="#ACACAC"/>
<path d="M75 24.8824H73V26.8529H75V24.8824Z" fill="#ACACAC"/>
<path d="M77 24.8824H75V26.8529H77V24.8824Z" fill="#ACACAC"/>
<path d="M79 24.8824H77V26.8529H79V24.8824Z" fill="#747474"/>
<path d="M35 26.8529H33V28.8235H35V26.8529Z" fill="#ACACAC"/>
<path d="M37 26.8529H35V28.8235H37V26.8529Z" fill="white"/>
<path d="M39 26.8529H37V28.8235H39V26.8529Z" fill="white"/>
<path d="M41 26.8529H39V28.8235H41V26.8529Z" fill="#E6E6E6"/>
<path d="M43 26.8529H41V28.8235H43V26.8529Z" fill="#E6E6E6"/>
<path d="M45 26.8529H43V28.8235H45V26.8529Z" fill="#ACACAC"/>
<path d="M47 26.8529H45V28.8235H47V26.8529Z" fill="#E6E6E6"/>
<path d="M49 26.8529H47V28.8235H49V26.8529Z" fill="#E6E6E6"/>
<path d="M51 26.8529H49V28.8235H51V26.8529Z" fill="#E6E6E6"/>
<path d="M53 26.8529H51V28.8235H53V26.8529Z" fill="#E6E6E6"/>
<path d="M55 26.8529H53V28.8235H55V26.8529Z" fill="#E6E6E6"/>
<path d="M57 26.8529H55V28.8235H57V26.8529Z" fill="#E6E6E6"/>
<path d="M59 26.8529H57V28.8235H59V26.8529Z" fill="#E6E6E6"/>
<path d="M61 26.8529H59V28.8235H61V26.8529Z" fill="#E6E6E6"/>
<path d="M63 26.8529H61V28.8235H63V26.8529Z" fill="#E6E6E6"/>
<path d="M65 26.8529H63V28.8235H65V26.8529Z" fill="#E6E6E6"/>
<path d="M67 26.8529H65V28.8235H67V26.8529Z" fill="#E6E6E6"/>
<path d="M69 26.8529H67V28.8235H69V26.8529Z" fill="#ACACAC"/>
<path d="M71 26.8529H69V28.8235H71V26.8529Z" fill="#E6E6E6"/>
<path d="M73 26.8529H71V28.8235H73V26.8529Z" fill="#ACACAC"/>
<path d="M75 26.8529H73V28.8235H75V26.8529Z" fill="#ACACAC"/>
<path d="M77 26.8529H75V28.8235H77V26.8529Z" fill="#ACACAC"/>
<path d="M79 26.8529H77V28.8235H79V26.8529Z" fill="#747474"/>
<path d="M81 26.8529H79V28.8235H81V26.8529Z" fill="#747474"/>
<path d="M33 28.8235H31V30.7941H33V28.8235Z" fill="#ACACAC"/>
<path d="M35 28.8235H33V30.7941H35V28.8235Z" fill="white"/>
<path d="M37 28.8235H35V30.7941H37V28.8235Z" fill="#E6E6E6"/>
<path d="M39 28.8235H37V30.7941H39V28.8235Z" fill="#E6E6E6"/>
<path d="M41 28.8235H39V30.7941H41V28.8235Z" fill="#E6E6E6"/>
<path d="M43 28.8235H41V30.7941H43V28.8235Z" fill="#ACACAC"/>
<path d="M45 28.8235H43V30.7941H45V28.8235Z" fill="#E6E6E6"/>
<path d="M47 28.8235H45V30.7941H47V28.8235Z" fill="#E6E6E6"/>
<path d="M49 28.8235H47V30.7941H49V28.8235Z" fill="#E6E6E6"/>
<path d="M51 28.8235H49V30.7941H51V28.8235Z" fill="#E6E6E6"/>
<path d="M53 28.8235H51V30.7941H53V28.8235Z" fill="#E6E6E6"/>
<path d="M55 28.8235H53V30.7941H55V28.8235Z" fill="#E6E6E6"/>
<path d="M57 28.8235H55V30.7941H57V28.8235Z" fill="#E6E6E6"/>
<path d="M59 28.8235H57V30.7941H59V28.8235Z" fill="#E6E6E6"/>
<path d="M61 28.8235H59V30.7941H61V28.8235Z" fill="#E6E6E6"/>
<path d="M63 28.8235H61V30.7941H63V28.8235Z" fill="#E6E6E6"/>
<path d="M65 28.8235H63V30.7941H65V28.8235Z" fill="#E6E6E6"/>
<path d="M67 28.8235H65V30.7941H67V28.8235Z" fill="#E6E6E6"/>
<path d="M69 28.8235H67V30.7941H69V28.8235Z" fill="#E6E6E6"/>
<path d="M71 28.8235H69V30.7941H71V28.8235Z" fill="#ACACAC"/>
<path d="M73 28.8235H71V30.7941H73V28.8235Z" fill="#E6E6E6"/>
<path d="M75 28.8235H73V30.7941H75V28.8235Z" fill="#ACACAC"/>
<path d="M77 28.8235H75V30.7941H77V28.8235Z" fill="#ACACAC"/>
<path d="M79 28.8235H77V30.7941H79V28.8235Z" fill="#747474"/>
<path d="M81 28.8235H79V30.7941H81V28.8235Z" fill="#747474"/>
<path d="M83 28.8235H81V30.7941H83V28.8235Z" fill="#747474"/>
<path d="M31 30.7941H29V32.7647H31V30.7941Z" fill="#ACACAC"/>
<path d="M33 30.7941H31V32.7647H33V30.7941Z" fill="white"/>
<path d="M35 30.7941H33V32.7647H35V30.7941Z" fill="#E6E6E6"/>
<path d="M37 30.7941H35V32.7647H37V30.7941Z" fill="#E6E6E6"/>
<path d="M39 30.7941H37V32.7647H39V30.7941Z" fill="#E6E6E6"/>
<path d="M41 30.7941H39V32.7647H41V30.7941Z" fill="#E6E6E6"/>
<path d="M43 30.7941H41V32.7647H43V30.7941Z" fill="#ACACAC"/>
<path d="M45 30.7941H43V32.7647H45V30.7941Z" fill="#E6E6E6"/>
<path d="M47 30.7941H45V32.7647H47V30.7941Z" fill="#E6E6E6"/>
<path d="M49 30.7941H47V32.7647H49V30.7941Z" fill="#E6E6E6"/>
<path d="M51 30.7941H49V32.7647H51V30.7941Z" fill="#E6E6E6"/>
<path d="M53 30.7941H51V32.7647H53V30.7941Z" fill="#E6E6E6"/>
<path d="M55 30.7941H53V32.7647H55V30.7941Z" fill="#E6E6E6"/>
<path d="M57 30.7941H55V32.7647H57V30.7941Z" fill="#E6E6E6"/>
<path d="M59 30.7941H57V32.7647H59V30.7941Z" fill="#E6E6E6"/>
<path d="M61 30.7941H59V32.7647H61V30.7941Z" fill="#E6E6E6"/>
<path d="M63 30.7941H61V32.7647H63V30.7941Z" fill="#E6E6E6"/>
<path d="M65 30.7941H63V32.7647H65V30.7941Z" fill="#E6E6E6"/>
<path d="M67 30.7941H65V32.7647H67V30.7941Z" fill="#E6E6E6"/>
<path d="M69 30.7941H67V32.7647H69V30.7941Z" fill="#E6E6E6"/>
<path d="M71 30.7941H69V32.7647H71V30.7941Z" fill="#ACACAC"/>
<path d="M73 30.7941H71V32.7647H73V30.7941Z" fill="#E6E6E6"/>
<path d="M75 30.7941H73V32.7647H75V30.7941Z" fill="#ACACAC"/>
<path d="M77 30.7941H75V32.7647H77V30.7941Z" fill="#ACACAC"/>
<path d="M79 30.7941H77V32.7647H79V30.7941Z" fill="#747474"/>
<path d="M81 30.7941H79V32.7647H81V30.7941Z" fill="#747474"/>
<path d="M83 30.7941H81V32.7647H83V30.7941Z" fill="#747474"/>
<path d="M85 30.7941H83V32.7647H85V30.7941Z" fill="#747474"/>
<path d="M31 32.7647H29V34.7353H31V32.7647Z" fill="#ACACAC"/>
<path d="M33 32.7647H31V34.7353H33V32.7647Z" fill="white"/>
<path d="M35 32.7647H33V34.7353H35V32.7647Z" fill="#E6E6E6"/>
<path d="M37 32.7647H35V34.7353H37V32.7647Z" fill="#E6E6E6"/>
<path d="M39 32.7647H37V34.7353H39V32.7647Z" fill="#E6E6E6"/>
<path d="M41 32.7647H39V34.7353H41V32.7647Z" fill="#ACACAC"/>
<path d="M43 32.7647H41V34.7353H43V32.7647Z" fill="#E6E6E6"/>
<path d="M45 32.7647H43V34.7353H45V32.7647Z" fill="#E6E6E6"/>
<path d="M47 32.7647H45V34.7353H47V32.7647Z" fill="#E6E6E6"/>
<path d="M49 32.7647H47V34.7353H49V32.7647Z" fill="#E6E6E6"/>
<path d="M51 32.7647H49V34.7353H51V32.7647Z" fill="#E6E6E6"/>
<path d="M53 32.7647H51V34.7353H53V32.7647Z" fill="#E6E6E6"/>
<path d="M55 32.7647H53V34.7353H55V32.7647Z" fill="#E6E6E6"/>
<path d="M57 32.7647H55V34.7353H57V32.7647Z" fill="#E6E6E6"/>
<path d="M59 32.7647H57V34.7353H59V32.7647Z" fill="#E6E6E6"/>
<path d="M61 32.7647H59V34.7353H61V32.7647Z" fill="#E6E6E6"/>
<path d="M63 32.7647H61V34.7353H63V32.7647Z" fill="#E6E6E6"/>
<path d="M65 32.7647H63V34.7353H65V32.7647Z" fill="#E6E6E6"/>
<path d="M67 32.7647H65V34.7353H67V32.7647Z" fill="#E6E6E6"/>
<path d="M69 32.7647H67V34.7353H69V32.7647Z" fill="#E6E6E6"/>
<path d="M71 32.7647H69V34.7353H71V32.7647Z" fill="#ACACAC"/>
<path d="M73 32.7647H71V34.7353H73V32.7647Z" fill="#E6E6E6"/>
<path d="M75 32.7647H73V34.7353H75V32.7647Z" fill="#ACACAC"/>
<path d="M77 32.7647H75V34.7353H77V32.7647Z" fill="#ACACAC"/>
<path d="M79 32.7647H77V34.7353H79V32.7647Z" fill="#ACACAC"/>
<path d="M81 32.7647H79V34.7353H81V32.7647Z" fill="#747474"/>
<path d="M83 32.7647H81V34.7353H83V32.7647Z" fill="#747474"/>
<path d="M85 32.7647H83V34.7353H85V32.7647Z" fill="#747474"/>
<path d="M29 34.7353H27V36.7059H29V34.7353Z" fill="#ACACAC"/>
<path d="M31 34.7353H29V36.7059H31V34.7353Z" fill="white"/>
<path d="M33 34.7353H31V36.7059H33V34.7353Z" fill="#E6E6E6"/>
<path d="M35 34.7353H33V36.7059H35V34.7353Z" fill="#E6E6E6"/>
<path d="M37 34.7353H35V36.7059H37V34.7353Z" fill="#E6E6E6"/>
<path d="M39 34.7353H37V36.7059H39V34.7353Z" fill="#E6E6E6"/>
<path d="M41 34.7353H39V36.7059H41V34.7353Z" fill="#ACACAC"/>
<path d="M43 34.7353H41V36.7059H43V34.7353Z" fill="#E6E6E6"/>
<path d="M45 34.7353H43V36.7059H45V34.7353Z" fill="#E6E6E6"/>
<path d="M47 34.7353H45V36.7059H47V34.7353Z" fill="#E6E6E6"/>
<path d="M49 34.7353H47V36.7059H49V34.7353Z" fill="#E6E6E6"/>
<path d="M51 34.7353H49V36.7059H51V34.7353Z" fill="#E6E6E6"/>
<path d="M53 34.7353H51V36.7059H53V34.7353Z" fill="#E6E6E6"/>
<path d="M55 34.7353H53V36.7059H55V34.7353Z" fill="#E6E6E6"/>
<path d="M57 34.7353H55V36.7059H57V34.7353Z" fill="#E6E6E6"/>
<path d="M59 34.7353H57V36.7059H59V34.7353Z" fill="#E6E6E6"/>
<path d="M61 34.7353H59V36.7059H61V34.7353Z" fill="#E6E6E6"/>
<path d="M63 34.7353H61V36.7059H63V34.7353Z" fill="#E6E6E6"/>
<path d="M65 34.7353H63V36.7059H65V34.7353Z" fill="#E6E6E6"/>
<path d="M67 34.7353H65V36.7059H67V34.7353Z" fill="#E6E6E6"/>
<path d="M69 34.7353H67V36.7059H69V34.7353Z" fill="#E6E6E6"/>
<path d="M71 34.7353H69V36.7059H71V34.7353Z" fill="#ACACAC"/>
<path d="M73 34.7353H71V36.7059H73V34.7353Z" fill="#E6E6E6"/>
<path d="M75 34.7353H73V36.7059H75V34.7353Z" fill="#ACACAC"/>
<path d="M77 34.7353H75V36.7059H77V34.7353Z" fill="#ACACAC"/>
<path d="M79 34.7353H77V36.7059H79V34.7353Z" fill="#ACACAC"/>
<path d="M81 34.7353H79V36.7059H81V34.7353Z" fill="#747474"/>
<path d="M83 34.7353H81V36.7059H83V34.7353Z" fill="#747474"/>
<path d="M85 34.7353H83V36.7059H85V34.7353Z" fill="#747474"/>
<path d="M87 34.7353H85V36.7059H87V34.7353Z" fill="#747474"/>
<path d="M29 36.7059H27V38.6765H29V36.7059Z" fill="#ACACAC"/>
<path d="M31 36.7059H29V38.6765H31V36.7059Z" fill="white"/>
<path d="M33 36.7059H31V38.6765H33V36.7059Z" fill="#E6E6E6"/>
<path d="M35 36.7059H33V38.6765H35V36.7059Z" fill="#E6E6E6"/>
<path d="M37 36.7059H35V38.6765H37V36.7059Z" fill="#E6E6E6"/>
<path d="M39 36.7059H37V38.6765H39V36.7059Z" fill="#E6E6E6"/>
<path d="M41 36.7059H39V38.6765H41V36.7059Z" fill="#ACACAC"/>
<path d="M43 36.7059H41V38.6765H43V36.7059Z" fill="#E6E6E6"/>
<path d="M45 36.7059H43V38.6765H45V36.7059Z" fill="#E6E6E6"/>
<path d="M47 36.7059H45V38.6765H47V36.7059Z" fill="#E6E6E6"/>
<path d="M49 36.7059H47V38.6765H49V36.7059Z" fill="#E6E6E6"/>
<path d="M51 36.7059H49V38.6765H51V36.7059Z" fill="#E6E6E6"/>
<path d="M53 36.7059H51V38.6765H53V36.7059Z" fill="#E6E6E6"/>
<path d="M55 36.7059H53V38.6765H55V36.7059Z" fill="#E6E6E6"/>
<path d="M57 36.7059H55V38.6765H57V36.7059Z" fill="#E6E6E6"/>
<path d="M59 36.7059H57V38.6765H59V36.7059Z" fill="#E6E6E6"/>
<path d="M61 36.7059H59V38.6765H61V36.7059Z" fill="#E6E6E6"/>
<path d="M63 36.7059H61V38.6765H63V36.7059Z" fill="#E6E6E6"/>
<path d="M65 36.7059H63V38.6765H65V36.7059Z" fill="#E6E6E6"/>
<path d="M67 36.7059H65V38.6765H67V36.7059Z" fill="#E6E6E6"/>
<path d="M69 36.7059H67V38.6765H69V36.7059Z" fill="#E6E6E6"/>
<path d="M71 36.7059H69V38.6765H71V36.7059Z" fill="#ACACAC"/>
<path d="M73 36.7059H71V38.6765H73V36.7059Z" fill="#E6E6E6"/>
<path d="M75 36.7059H73V38.6765H75V36.7059Z" fill="#ACACAC"/>
<path d="M77 36.7059H75V38.6765H77V36.7059Z" fill="#ACACAC"/>
<path d="M79 36.7059H77V38.6765H79V36.7059Z" fill="#ACACAC"/>
<path d="M81 36.7059H79V38.6765H81V36.7059Z" fill="#747474"/>
<path d="M83 36.7059H81V38.6765H83V36.7059Z" fill="#747474"/>
<path d="M85 36.7059H83V38.6765H85V36.7059Z" fill="#747474"/>
<path d="M87 36.7059H85V38.6765H87V36.7059Z" fill="#747474"/>
<path d="M27 38.6765H25V40.6471H27V38.6765Z" fill="#ACACAC"/>
<path d="M29 38.6765H27V40.6471H29V38.6765Z" fill="#ACACAC"/>
<path d="M31 38.6765H29V40.6471H31V38.6765Z" fill="#E6E6E6"/>
<path d="M33 38.6765H31V40.6471H33V38.6765Z" fill="#E6E6E6"/>
<path d="M35 38.6765H33V40.6471H35V38.6765Z" fill="#E6E6E6"/>
<path d="M37 38.6765H35V40.6471H37V38.6765Z" fill="#E6E6E6"/>
<path d="M39 38.6765H37V40.6471H39V38.6765Z" fill="#E6E6E6"/>
<path d="M41 38.6765H39V40.6471H41V38.6765Z" fill="#E6E6E6"/>
<path d="M43 38.6765H41V40.6471H43V38.6765Z" fill="#E6E6E6"/>
<path d="M45 38.6765H43V40.6471H45V38.6765Z" fill="#E6E6E6"/>
<path d="M47 38.6765H45V40.6471H47V38.6765Z" fill="#E6E6E6"/>
<path d="M49 38.6765H47V40.6471H49V38.6765Z" fill="#E6E6E6"/>
<path d="M51 38.6765H49V40.6471H51V38.6765Z" fill="#E6E6E6"/>
<path d="M53 38.6765H51V40.6471H53V38.6765Z" fill="#E6E6E6"/>
<path d="M55 38.6765H53V40.6471H55V38.6765Z" fill="#E6E6E6"/>
<path d="M57 38.6765H55V40.6471H57V38.6765Z" fill="#E6E6E6"/>
<path d="M59 38.6765H57V40.6471H59V38.6765Z" fill="#E6E6E6"/>
<path d="M61 38.6765H59V40.6471H61V38.6765Z" fill="#E6E6E6"/>
<path d="M63 38.6765H61V40.6471H63V38.6765Z" fill="#E6E6E6"/>
<path d="M65 38.6765H63V40.6471H65V38.6765Z" fill="#E6E6E6"/>
<path d="M67 38.6765H65V40.6471H67V38.6765Z" fill="#E6E6E6"/>
<path d="M69 38.6765H67V40.6471H69V38.6765Z" fill="#E6E6E6"/>
<path d="M71 38.6765H69V40.6471H71V38.6765Z" fill="#ACACAC"/>
<path d="M73 38.6765H71V40.6471H73V38.6765Z" fill="#ACACAC"/>
<path d="M75 38.6765H73V40.6471H75V38.6765Z" fill="#ACACAC"/>
<path d="M77 38.6765H75V40.6471H77V38.6765Z" fill="#ACACAC"/>
<path d="M79 38.6765H77V40.6471H79V38.6765Z" fill="#ACACAC"/>
<path d="M81 38.6765H79V40.6471H81V38.6765Z" fill="#ACACAC"/>
<path d="M83 38.6765H81V40.6471H83V38.6765Z" fill="#747474"/>
<path d="M85 38.6765H83V40.6471H85V38.6765Z" fill="#747474"/>
<path d="M87 38.6765H85V40.6471H87V38.6765Z" fill="#747474"/>
<path d="M89 38.6765H87V40.6471H89V38.6765Z" fill="#747474"/>
<path d="M27 40.6471H25V42.6176H27V40.6471Z" fill="#ACACAC"/>
<path d="M29 40.6471H27V42.6176H29V40.6471Z" fill="#E6E6E6"/>
<path d="M31 40.6471H29V42.6176H31V40.6471Z" fill="#E6E6E6"/>
<path d="M33 40.6471H31V42.6176H33V40.6471Z" fill="#E6E6E6"/>
<path d="M35 40.6471H33V42.6176H35V40.6471Z" fill="#E6E6E6"/>
<path d="M37 40.6471H35V42.6176H37V40.6471Z" fill="#E6E6E6"/>
<path d="M39 40.6471H37V42.6176H39V40.6471Z" fill="#E6E6E6"/>
<path d="M41 40.6471H39V42.6176H41V40.6471Z" fill="#E6E6E6"/>
<path d="M43 40.6471H41V42.6176H43V40.6471Z" fill="#E6E6E6"/>
<path d="M45 40.6471H43V42.6176H45V40.6471Z" fill="#E6E6E6"/>
<path d="M47 40.6471H45V42.6176H47V40.6471Z" fill="#E6E6E6"/>
<path d="M49 40.6471H47V42.6176H49V40.6471Z" fill="#E6E6E6"/>
<path d="M51 40.6471H49V42.6176H51V40.6471Z" fill="#E6E6E6"/>
<path d="M53 40.6471H51V42.6176H53V40.6471Z" fill="#E6E6E6"/>
<path d="M55 40.6471H53V42.6176H55V40.6471Z" fill="#E6E6E6"/>
<path d="M57 40.6471H55V42.6176H57V40.6471Z" fill="#E6E6E6"/>
<path d="M59 40.6471H57V42.6176H59V40.6471Z" fill="#E6E6E6"/>
<path d="M61 40.6471H59V42.6176H61V40.6471Z" fill="#E6E6E6"/>
<path d="M63 40.6471H61V42.6176H63V40.6471Z" fill="#E6E6E6"/>
<path d="M65 40.6471H63V42.6176H65V40.6471Z" fill="#E6E6E6"/>
<path d="M67 40.6471H65V42.6176H67V40.6471Z" fill="#E6E6E6"/>
<path d="M69 40.6471H67V42.6176H69V40.6471Z" fill="#E6E6E6"/>
<path d="M71 40.6471H69V42.6176H71V40.6471Z" fill="#ACACAC"/>
<path d="M73 40.6471H71V42.6176H73V40.6471Z" fill="#ACACAC"/>
<path d="M75 40.6471H73V42.6176H75V40.6471Z" fill="#ACACAC"/>
<path d="M77 40.6471H75V42.6176H77V40.6471Z" fill="#ACACAC"/>
<path d="M79 40.6471H77V42.6176H79V40.6471Z" fill="#ACACAC"/>
<path d="M81 40.6471H79V42.6176H81V40.6471Z" fill="#ACACAC"/>
<path d="M83 40.6471H81V42.6176H83V40.6471Z" fill="#747474"/>
<path d="M85 40.6471H83V42.6176H85V40.6471Z" fill="#747474"/>
<path d="M87 40.6471H85V42.6176H87V40.6471Z" fill="#747474"/>
<path d="M89 40.6471H87V42.6176H89V40.6471Z" fill="#747474"/>
<path d="M27 42.6176H25V44.5882H27V42.6176Z" fill="#ACACAC"/>
<path d="M29 42.6176H27V44.5882H29V42.6176Z" fill="#E6E6E6"/>
<path d="M31 42.6176H29V44.5882H31V42.6176Z" fill="#E6E6E6"/>
<path d="M33 42.6176H31V44.5882H33V42.6176Z" fill="#E6E6E6"/>
<path d="M35 42.6176H33V44.5882H35V42.6176Z" fill="#E6E6E6"/>
<path d="M37 42.6176H35V44.5882H37V42.6176Z" fill="#E6E6E6"/>
<path d="M39 42.6176H37V44.5882H39V42.6176Z" fill="#ACACAC"/>
<path d="M41 42.6176H39V44.5882H41V42.6176Z" fill="#E6E6E6"/>
<path d="M43 42.6176H41V44.5882H43V42.6176Z" fill="#E6E6E6"/>
<path d="M45 42.6176H43V44.5882H45V42.6176Z" fill="#E6E6E6"/>
<path d="M47 42.6176H45V44.5882H47V42.6176Z" fill="#E6E6E6"/>
<path d="M49 42.6176H47V44.5882H49V42.6176Z" fill="#E6E6E6"/>
<path d="M51 42.6176H49V44.5882H51V42.6176Z" fill="#E6E6E6"/>
<path d="M53 42.6176H51V44.5882H53V42.6176Z" fill="#E6E6E6"/>
<path d="M55 42.6176H53V44.5882H55V42.6176Z" fill="#E6E6E6"/>
<path d="M57 42.6176H55V44.5882H57V42.6176Z" fill="#E6E6E6"/>
<path d="M59 42.6176H57V44.5882H59V42.6176Z" fill="#E6E6E6"/>
<path d="M61 42.6176H59V44.5882H61V42.6176Z" fill="#E6E6E6"/>
<path d="M63 42.6176H61V44.5882H63V42.6176Z" fill="#E6E6E6"/>
<path d="M65 42.6176H63V44.5882H65V42.6176Z" fill="#E6E6E6"/>
<path d="M67 42.6176H65V44.5882H67V42.6176Z" fill="#E6E6E6"/>
<path d="M69 42.6176H67V44.5882H69V42.6176Z" fill="#ACACAC"/>
<path d="M71 42.6176H69V44.5882H71V42.6176Z" fill="#ACACAC"/>
<path d="M73 42.6176H71V44.5882H73V42.6176Z" fill="#ACACAC"/>
<path d="M75 42.6176H73V44.5882H75V42.6176Z" fill="#ACACAC"/>
<path d="M77 42.6176H75V44.5882H77V42.6176Z" fill="#ACACAC"/>
<path d="M79 42.6176H77V44.5882H79V42.6176Z" fill="#ACACAC"/>
<path d="M81 42.6176H79V44.5882H81V42.6176Z" fill="#ACACAC"/>
<path d="M83 42.6176H81V44.5882H83V42.6176Z" fill="#747474"/>
<path d="M85 42.6176H83V44.5882H85V42.6176Z" fill="#747474"/>
<path d="M87 42.6176H85V44.5882H87V42.6176Z" fill="#747474"/>
<path d="M89 42.6176H87V44.5882H89V42.6176Z" fill="#747474"/>
<path d="M27 44.5882H25V46.5588H27V44.5882Z" fill="#ACACAC"/>
<path d="M29 44.5882H27V46.5588H29V44.5882Z" fill="#E6E6E6"/>
<path d="M31 44.5882H29V46.5588H31V44.5882Z" fill="#E6E6E6"/>
<path d="M33 44.5882H31V46.5588H33V44.5882Z" fill="#E6E6E6"/>
<path d="M35 44.5882H33V46.5588H35V44.5882Z" fill="#E6E6E6"/>
<path d="M37 44.5882H35V46.5588H37V44.5882Z" fill="#E6E6E6"/>
<path d="M39 44.5882H37V46.5588H39V44.5882Z" fill="#ACACAC"/>
<path d="M41 44.5882H39V46.5588H41V44.5882Z" fill="#E6E6E6"/>
<path d="M43 44.5882H41V46.5588H43V44.5882Z" fill="#E6E6E6"/>
<path d="M45 44.5882H43V46.5588H45V44.5882Z" fill="#E6E6E6"/>
<path d="M47 44.5882H45V46.5588H47V44.5882Z" fill="#E6E6E6"/>
<path d="M49 44.5882H47V46.5588H49V44.5882Z" fill="#E6E6E6"/>
<path d="M51 44.5882H49V46.5588H51V44.5882Z" fill="#E6E6E6"/>
<path d="M53 44.5882H51V46.5588H53V44.5882Z" fill="#E6E6E6"/>
<path d="M55 44.5882H53V46.5588H55V44.5882Z" fill="#E6E6E6"/>
<path d="M57 44.5882H55V46.5588H57V44.5882Z" fill="#E6E6E6"/>
<path d="M59 44.5882H57V46.5588H59V44.5882Z" fill="#E6E6E6"/>
<path d="M61 44.5882H59V46.5588H61V44.5882Z" fill="#E6E6E6"/>
<path d="M63 44.5882H61V46.5588H63V44.5882Z" fill="#E6E6E6"/>
<path d="M65 44.5882H63V46.5588H65V44.5882Z" fill="#E6E6E6"/>
<path d="M67 44.5882H65V46.5588H67V44.5882Z" fill="#E6E6E6"/>
<path d="M69 44.5882H67V46.5588H69V44.5882Z" fill="#ACACAC"/>
<path d="M71 44.5882H69V46.5588H71V44.5882Z" fill="#ACACAC"/>
<path d="M73 44.5882H71V46.5588H73V44.5882Z" fill="#ACACAC"/>
<path d="M75 44.5882H73V46.5588H75V44.5882Z" fill="#ACACAC"/>
<path d="M77 44.5882H75V46.5588H77V44.5882Z" fill="#ACACAC"/>
<path d="M79 44.5882H77V46.5588H79V44.5882Z" fill="#ACACAC"/>
<path d="M81 44.5882H79V46.5588H81V44.5882Z" fill="#ACACAC"/>
<path d="M83 44.5882H81V46.5588H83V44.5882Z" fill="#747474"/>
<path d="M85 44.5882H83V46.5588H85V44.5882Z" fill="#747474"/>
<path d="M87 44.5882H85V46.5588H87V44.5882Z" fill="#747474"/>
<path d="M89 44.5882H87V46.5588H89V44.5882Z" fill="#747474"/>
<path d="M27 46.5588H25V48.5294H27V46.5588Z" fill="#ACACAC"/>
<path d="M29 46.5588H27V48.5294H29V46.5588Z" fill="#E6E6E6"/>
<path d="M31 46.5588H29V48.5294H31V46.5588Z" fill="#E6E6E6"/>
<path d="M33 46.5588H31V48.5294H33V46.5588Z" fill="#E6E6E6"/>
<path d="M35 46.5588H33V48.5294H35V46.5588Z" fill="#E6E6E6"/>
<path d="M37 46.5588H35V48.5294H37V46.5588Z" fill="#E6E6E6"/>
<path d="M39 46.5588H37V48.5294H39V46.5588Z" fill="#ACACAC"/>
<path d="M41 46.5588H39V48.5294H41V46.5588Z" fill="#E6E6E6"/>
<path d="M43 46.5588H41V48.5294H43V46.5588Z" fill="#E6E6E6"/>
<path d="M45 46.5588H43V48.5294H45V46.5588Z" fill="#E6E6E6"/>
<path d="M47 46.5588H45V48.5294H47V46.5588Z" fill="#E6E6E6"/>
<path d="M49 46.5588H47V48.5294H49V46.5588Z" fill="#E6E6E6"/>
<path d="M51 46.5588H49V48.5294H51V46.5588Z" fill="#E6E6E6"/>
<path d="M53 46.5588H51V48.5294H53V46.5588Z" fill="#E6E6E6"/>
<path d="M55 46.5588H53V48.5294H55V46.5588Z" fill="#E6E6E6"/>
<path d="M57 46.5588H55V48.5294H57V46.5588Z" fill="#E6E6E6"/>
<path d="M59 46.5588H57V48.5294H59V46.5588Z" fill="#E6E6E6"/>
<path d="M61 46.5588H59V48.5294H61V46.5588Z" fill="#E6E6E6"/>
<path d="M63 46.5588H61V48.5294H63V46.5588Z" fill="#E6E6E6"/>
<path d="M65 46.5588H63V48.5294H65V46.5588Z" fill="#E6E6E6"/>
<path d="M67 46.5588H65V48.5294H67V46.5588Z" fill="#ACACAC"/>
<path d="M69 46.5588H67V48.5294H69V46.5588Z" fill="#E6E6E6"/>
<path d="M71 46.5588H69V48.5294H71V46.5588Z" fill="#ACACAC"/>
<path d="M73 46.5588H71V48.5294H73V46.5588Z" fill="#ACACAC"/>
<path d="M75 46.5588H73V48.5294H75V46.5588Z" fill="#ACACAC"/>
<path d="M77 46.5588H75V48.5294H77V46.5588Z" fill="#ACACAC"/>
<path d="M79 46.5588H77V48.5294H79V46.5588Z" fill="#747474"/>
<path d="M81 46.5588H79V48.5294H81V46.5588Z" fill="#ACACAC"/>
<path d="M83 46.5588H81V48.5294H83V46.5588Z" fill="#747474"/>
<path d="M85 46.5588H83V48.5294H85V46.5588Z" fill="#747474"/>
<path d="M87 46.5588H85V48.5294H87V46.5588Z" fill="#747474"/>
<path d="M89 46.5588H87V48.5294H89V46.5588Z" fill="#747474"/>
<path d="M27 48.5294H25V50.5H27V48.5294Z" fill="#ACACAC"/>
<path d="M29 48.5294H27V50.5H29V48.5294Z" fill="#E6E6E6"/>
<path d="M31 48.5294H29V50.5H31V48.5294Z" fill="#E6E6E6"/>
<path d="M33 48.5294H31V50.5H33V48.5294Z" fill="#E6E6E6"/>
<path d="M35 48.5294H33V50.5H35V48.5294Z" fill="#ACACAC"/>
<path d="M37 48.5294H35V50.5H37V48.5294Z" fill="#ACACAC"/>
<path d="M39 48.5294H37V50.5H39V48.5294Z" fill="#ACACAC"/>
<path d="M41 48.5294H39V50.5H41V48.5294Z" fill="#ACACAC"/>
<path d="M43 48.5294H41V50.5H43V48.5294Z" fill="#ACACAC"/>
<path d="M45 48.5294H43V50.5H45V48.5294Z" fill="#E6E6E6"/>
<path d="M47 48.5294H45V50.5H47V48.5294Z" fill="#E6E6E6"/>
<path d="M49 48.5294H47V50.5H49V48.5294Z" fill="#E6E6E6"/>
<path d="M51 48.5294H49V50.5H51V48.5294Z" fill="#E6E6E6"/>
<path d="M53 48.5294H51V50.5H53V48.5294Z" fill="#E6E6E6"/>
<path d="M55 48.5294H53V50.5H55V48.5294Z" fill="#E6E6E6"/>
<path d="M57 48.5294H55V50.5H57V48.5294Z" fill="#E6E6E6"/>
<path d="M59 48.5294H57V50.5H59V48.5294Z" fill="#E6E6E6"/>
<path d="M61 48.5294H59V50.5H61V48.5294Z" fill="#E6E6E6"/>
<path d="M63 48.5294H61V50.5H63V48.5294Z" fill="#E6E6E6"/>
<path d="M65 48.5294H63V50.5H65V48.5294Z" fill="#ACACAC"/>
<path d="M67 48.5294H65V50.5H67V48.5294Z" fill="#E6E6E6"/>
<path d="M69 48.5294H67V50.5H69V48.5294Z" fill="#ACACAC"/>
<path d="M71 48.5294H69V50.5H71V48.5294Z" fill="#ACACAC"/>
<path d="M73 48.5294H71V50.5H73V48.5294Z" fill="#ACACAC"/>
<path d="M75 48.5294H73V50.5H75V48.5294Z" fill="#ACACAC"/>
<path d="M77 48.5294H75V50.5H77V48.5294Z" fill="#ACACAC"/>
<path d="M79 48.5294H77V50.5H79V48.5294Z" fill="#747474"/>
<path d="M81 48.5294H79V50.5H81V48.5294Z" fill="#ACACAC"/>
<path d="M83 48.5294H81V50.5H83V48.5294Z" fill="#747474"/>
<path d="M85 48.5294H83V50.5H85V48.5294Z" fill="#747474"/>
<path d="M87 48.5294H85V50.5H87V48.5294Z" fill="#747474"/>
<path d="M89 48.5294H87V50.5H89V48.5294Z" fill="#747474"/>
<path d="M27 50.5H25V52.4706H27V50.5Z" fill="#ACACAC"/>
<path d="M29 50.5H27V52.4706H29V50.5Z" fill="#ACACAC"/>
<path d="M31 50.5H29V52.4706H31V50.5Z" fill="#ACACAC"/>
<path d="M33 50.5H31V52.4706H33V50.5Z" fill="#ACACAC"/>
<path d="M35 50.5H33V52.4706H35V50.5Z" fill="#ACACAC"/>
<path d="M37 50.5H35V52.4706H37V50.5Z" fill="#ACACAC"/>
<path d="M39 50.5H37V52.4706H39V50.5Z" fill="#ACACAC"/>
<path d="M41 50.5H39V52.4706H41V50.5Z" fill="#ACACAC"/>
<path d="M43 50.5H41V52.4706H43V50.5Z" fill="#ACACAC"/>
<path d="M45 50.5H43V52.4706H45V50.5Z" fill="#ACACAC"/>
<path d="M47 50.5H45V52.4706H47V50.5Z" fill="#ACACAC"/>
<path d="M49 50.5H47V52.4706H49V50.5Z" fill="#ACACAC"/>
<path d="M51 50.5H49V52.4706H51V50.5Z" fill="#ACACAC"/>
<path d="M53 50.5H51V52.4706H53V50.5Z" fill="#E6E6E6"/>
<path d="M55 50.5H53V52.4706H55V50.5Z" fill="#E6E6E6"/>
<path d="M57 50.5H55V52.4706H57V50.5Z" fill="#E6E6E6"/>
<path d="M59 50.5H57V52.4706H59V50.5Z" fill="#E6E6E6"/>
<path d="M61 50.5H59V52.4706H61V50.5Z" fill="#E6E6E6"/>
<path d="M63 50.5H61V52.4706H63V50.5Z" fill="#ACACAC"/>
<path d="M65 50.5H63V52.4706H65V50.5Z" fill="#E6E6E6"/>
<path d="M67 50.5H65V52.4706H67V50.5Z" fill="#ACACAC"/>
<path d="M69 50.5H67V52.4706H69V50.5Z" fill="#ACACAC"/>
<path d="M71 50.5H69V52.4706H71V50.5Z" fill="#ACACAC"/>
<path d="M73 50.5H71V52.4706H73V50.5Z" fill="#ACACAC"/>
<path d="M75 50.5H73V52.4706H75V50.5Z" fill="#ACACAC"/>
<path d="M77 50.5H75V52.4706H77V50.5Z" fill="#747474"/>
<path d="M79 50.5H77V52.4706H79V50.5Z" fill="#ACACAC"/>
<path d="M81 50.5H79V52.4706H81V50.5Z" fill="#747474"/>
<path d="M83 50.5H81V52.4706H83V50.5Z" fill="#747474"/>
<path d="M85 50.5H83V52.4706H85V50.5Z" fill="#747474"/>
<path d="M87 50.5H85V52.4706H87V50.5Z" fill="#747474"/>
<path d="M89 50.5H87V52.4706H89V50.5Z" fill="#747474"/>
<path d="M25 52.4706H23V54.4412H25V52.4706Z" fill="#ACACAC"/>
<path d="M27 52.4706H25V54.4412H27V52.4706Z" fill="white"/>
<path d="M29 52.4706H27V54.4412H29V52.4706Z" fill="white"/>
<path d="M31 52.4706H29V54.4412H31V52.4706Z" fill="#E6E6E6"/>
<path d="M33 52.4706H31V54.4412H33V52.4706Z" fill="#E6E6E6"/>
<path d="M35 52.4706H33V54.4412H35V52.4706Z" fill="#E6E6E6"/>
<path d="M37 52.4706H35V54.4412H37V52.4706Z" fill="#E6E6E6"/>
<path d="M39 52.4706H37V54.4412H39V52.4706Z" fill="#E6E6E6"/>
<path d="M41 52.4706H39V54.4412H41V52.4706Z" fill="#E6E6E6"/>
<path d="M43 52.4706H41V54.4412H43V52.4706Z" fill="#E6E6E6"/>
<path d="M45 52.4706H43V54.4412H45V52.4706Z" fill="#E6E6E6"/>
<path d="M47 52.4706H45V54.4412H47V52.4706Z" fill="#ACACAC"/>
<path d="M49 52.4706H47V54.4412H49V52.4706Z" fill="#ACACAC"/>
<path d="M51 52.4706H49V54.4412H51V52.4706Z" fill="#ACACAC"/>
<path d="M53 52.4706H51V54.4412H53V52.4706Z" fill="#ACACAC"/>
<path d="M55 52.4706H53V54.4412H55V52.4706Z" fill="#ACACAC"/>
<path d="M57 52.4706H55V54.4412H57V52.4706Z" fill="#E6E6E6"/>
<path d="M59 52.4706H57V54.4412H59V52.4706Z" fill="#E6E6E6"/>
<path d="M61 52.4706H59V54.4412H61V52.4706Z" fill="#ACACAC"/>
<path d="M63 52.4706H61V54.4412H63V52.4706Z" fill="#ACACAC"/>
<path d="M65 52.4706H63V54.4412H65V52.4706Z" fill="#ACACAC"/>
<path d="M67 52.4706H65V54.4412H67V52.4706Z" fill="#ACACAC"/>
<path d="M69 52.4706H67V54.4412H69V52.4706Z" fill="#ACACAC"/>
<path d="M71 52.4706H69V54.4412H71V52.4706Z" fill="#ACACAC"/>
<path d="M73 52.4706H71V54.4412H73V52.4706Z" fill="#ACACAC"/>
<path d="M75 52.4706H73V54.4412H75V52.4706Z" fill="#ACACAC"/>
<path d="M77 52.4706H75V54.4412H77V52.4706Z" fill="#747474"/>
<path d="M79 52.4706H77V54.4412H79V52.4706Z" fill="#ACACAC"/>
<path d="M81 52.4706H79V54.4412H81V52.4706Z" fill="#747474"/>
<path d="M83 52.4706H81V54.4412H83V52.4706Z" fill="#747474"/>
<path d="M85 52.4706H83V54.4412H85V52.4706Z" fill="#747474"/>
<path d="M87 52.4706H85V54.4412H87V52.4706Z" fill="#747474"/>
<path d="M89 52.4706H87V54.4412H89V52.4706Z" fill="#747474"/>
<path d="M23 54.4412H21V56.4118H23V54.4412Z" fill="#ACACAC"/>
<path d="M25 54.4412H23V56.4118H25V54.4412Z" fill="white"/>
<path d="M27 54.4412H25V56.4118H27V54.4412Z" fill="white"/>
<path d="M29 54.4412H27V56.4118H29V54.4412Z" fill="#E6E6E6"/>
<path d="M31 54.4412H29V56.4118H31V54.4412Z" fill="#E6E6E6"/>
<path d="M33 54.4412H31V56.4118H33V54.4412Z" fill="#E6E6E6"/>
<path d="M35 54.4412H33V56.4118H35V54.4412Z" fill="#E6E6E6"/>
<path d="M37 54.4412H35V56.4118H37V54.4412Z" fill="#E6E6E6"/>
<path d="M39 54.4412H37V56.4118H39V54.4412Z" fill="#E6E6E6"/>
<path d="M41 54.4412H39V56.4118H41V54.4412Z" fill="#E6E6E6"/>
<path d="M43 54.4412H41V56.4118H43V54.4412Z" fill="#E6E6E6"/>
<path d="M45 54.4412H43V56.4118H45V54.4412Z" fill="#E6E6E6"/>
<path d="M47 54.4412H45V56.4118H47V54.4412Z" fill="#E6E6E6"/>
<path d="M49 54.4412H47V56.4118H49V54.4412Z" fill="#E6E6E6"/>
<path d="M51 54.4412H49V56.4118H51V54.4412Z" fill="#E6E6E6"/>
<path d="M53 54.4412H51V56.4118H53V54.4412Z" fill="#E6E6E6"/>
<path d="M55 54.4412H53V56.4118H55V54.4412Z" fill="#ACACAC"/>
<path d="M57 54.4412H55V56.4118H57V54.4412Z" fill="#ACACAC"/>
<path d="M59 54.4412H57V56.4118H59V54.4412Z" fill="#ACACAC"/>
<path d="M61 54.4412H59V56.4118H61V54.4412Z" fill="#747474"/>
<path d="M63 54.4412H61V56.4118H63V54.4412Z" fill="#747474"/>
<path d="M65 54.4412H63V56.4118H65V54.4412Z" fill="#747474"/>
<path d="M67 54.4412H65V56.4118H67V54.4412Z" fill="#ACACAC"/>
<path d="M69 54.4412H67V56.4118H69V54.4412Z" fill="#ACACAC"/>
<path d="M71 54.4412H69V56.4118H71V54.4412Z" fill="#ACACAC"/>
<path d="M73 54.4412H71V56.4118H73V54.4412Z" fill="#ACACAC"/>
<path d="M75 54.4412H73V56.4118H75V54.4412Z" fill="#ACACAC"/>
<path d="M77 54.4412H75V56.4118H77V54.4412Z" fill="#ACACAC"/>
<path d="M79 54.4412H77V56.4118H79V54.4412Z" fill="#747474"/>
<path d="M81 54.4412H79V56.4118H81V54.4412Z" fill="#747474"/>
<path d="M83 54.4412H81V56.4118H83V54.4412Z" fill="#747474"/>
<path d="M85 54.4412H83V56.4118H85V54.4412Z" fill="#747474"/>
<path d="M87 54.4412H85V56.4118H87V54.4412Z" fill="#747474"/>
<path d="M89 54.4412H87V56.4118H89V54.4412Z" fill="#747474"/>
<path d="M19 56.4118H17V58.3824H19V56.4118Z" fill="#ACACAC"/>
<path d="M21 56.4118H19V58.3824H21V56.4118Z" fill="#ACACAC"/>
<path d="M23 56.4118H21V58.3824H23V56.4118Z" fill="white"/>
<path d="M25 56.4118H23V58.3824H25V56.4118Z" fill="#E6E6E6"/>
<path d="M27 56.4118H25V58.3824H27V56.4118Z" fill="#E6E6E6"/>
<path d="M29 56.4118H27V58.3824H29V56.4118Z" fill="#E6E6E6"/>
<path d="M31 56.4118H29V58.3824H31V56.4118Z" fill="#E6E6E6"/>
<path d="M33 56.4118H31V58.3824H33V56.4118Z" fill="#E6E6E6"/>
<path d="M35 56.4118H33V58.3824H35V56.4118Z" fill="#E6E6E6"/>
<path d="M37 56.4118H35V58.3824H37V56.4118Z" fill="#E6E6E6"/>
<path d="M39 56.4118H37V58.3824H39V56.4118Z" fill="#E6E6E6"/>
<path d="M41 56.4118H39V58.3824H41V56.4118Z" fill="#E6E6E6"/>
<path d="M43 56.4118H41V58.3824H43V56.4118Z" fill="#E6E6E6"/>
<path d="M45 56.4118H43V58.3824H45V56.4118Z" fill="#E6E6E6"/>
<path d="M47 56.4118H45V58.3824H47V56.4118Z" fill="#E6E6E6"/>
<path d="M49 56.4118H47V58.3824H49V56.4118Z" fill="#E6E6E6"/>
<path d="M51 56.4118H49V58.3824H51V56.4118Z" fill="#E6E6E6"/>
<path d="M53 56.4118H51V58.3824H53V56.4118Z" fill="#E6E6E6"/>
<path d="M55 56.4118H53V58.3824H55V56.4118Z" fill="#E6E6E6"/>
<path d="M57 56.4118H55V58.3824H57V56.4118Z" fill="#E6E6E6"/>
<path d="M59 56.4118H57V58.3824H59V56.4118Z" fill="#ACACAC"/>
<path d="M61 56.4118H59V58.3824H61V56.4118Z" fill="#ACACAC"/>
<path d="M63 56.4118H61V58.3824H63V56.4118Z" fill="#ACACAC"/>
<path d="M65 56.4118H63V58.3824H65V56.4118Z" fill="#747474"/>
<path d="M67 56.4118H65V58.3824H67V56.4118Z" fill="#747474"/>
<path d="M69 56.4118H67V58.3824H69V56.4118Z" fill="#747474"/>
<path d="M71 56.4118H69V58.3824H71V56.4118Z" fill="#747474"/>
<path d="M73 56.4118H71V58.3824H73V56.4118Z" fill="#ACACAC"/>
<path d="M75 56.4118H73V58.3824H75V56.4118Z" fill="#747474"/>
<path d="M77 56.4118H75V58.3824H77V56.4118Z" fill="#747474"/>
<path d="M79 56.4118H77V58.3824H79V56.4118Z" fill="#747474"/>
<path d="M81 56.4118H79V58.3824H81V56.4118Z" fill="#747474"/>
<path d="M83 56.4118H81V58.3824H83V56.4118Z" fill="#747474"/>
<path d="M85 56.4118H83V58.3824H85V56.4118Z" fill="#747474"/>
<path d="M87 56.4118H85V58.3824H87V56.4118Z" fill="#747474"/>
<path d="M89 56.4118H87V58.3824H89V56.4118Z" fill="#747474"/>
<path d="M17 58.3824H15V60.3529H17V58.3824Z" fill="#ACACAC"/>
<path d="M19 58.3824H17V60.3529H19V58.3824Z" fill="white"/>
<path d="M21 58.3824H19V60.3529H21V58.3824Z" fill="white"/>
<path d="M23 58.3824H21V60.3529H23V58.3824Z" fill="#E6E6E6"/>
<path d="M25 58.3824H23V60.3529H25V58.3824Z" fill="#E6E6E6"/>
<path d="M27 58.3824H25V60.3529H27V58.3824Z" fill="#E6E6E6"/>
<path d="M29 58.3824H27V60.3529H29V58.3824Z" fill="#E6E6E6"/>
<path d="M31 58.3824H29V60.3529H31V58.3824Z" fill="#E6E6E6"/>
<path d="M33 58.3824H31V60.3529H33V58.3824Z" fill="#E6E6E6"/>
<path d="M35 58.3824H33V60.3529H35V58.3824Z" fill="#E6E6E6"/>
<path d="M37 58.3824H35V60.3529H37V58.3824Z" fill="#E6E6E6"/>
<path d="M39 58.3824H37V60.3529H39V58.3824Z" fill="#E6E6E6"/>
<path d="M41 58.3824H39V60.3529H41V58.3824Z" fill="#E6E6E6"/>
<path d="M43 58.3824H41V60.3529H43V58.3824Z" fill="#E6E6E6"/>
<path d="M45 58.3824H43V60.3529H45V58.3824Z" fill="#E6E6E6"/>
<path d="M47 58.3824H45V60.3529H47V58.3824Z" fill="#E6E6E6"/>
<path d="M49 58.3824H47V60.3529H49V58.3824Z" fill="#E6E6E6"/>
<path d="M51 58.3824H49V60.3529H51V58.3824Z" fill="#E6E6E6"/>
<path d="M53 58.3824H51V60.3529H53V58.3824Z" fill="#E6E6E6"/>
<path d="M55 58.3824H53V60.3529H55V58.3824Z" fill="#E6E6E6"/>
<path d="M57 58.3824H55V60.3529H57V58.3824Z" fill="#E6E6E6"/>
<path d="M59 58.3824H57V60.3529H59V58.3824Z" fill="#E6E6E6"/>
<path d="M61 58.3824H59V60.3529H61V58.3824Z" fill="#ACACAC"/>
<path d="M63 58.3824H61V60.3529H63V58.3824Z" fill="#ACACAC"/>
<path d="M65 58.3824H63V60.3529H65V58.3824Z" fill="#ACACAC"/>
<path d="M67 58.3824H65V60.3529H67V58.3824Z" fill="#ACACAC"/>
<path d="M69 58.3824H67V60.3529H69V58.3824Z" fill="#ACACAC"/>
<path d="M71 58.3824H69V60.3529H71V58.3824Z" fill="#747474"/>
<path d="M73 58.3824H71V60.3529H73V58.3824Z" fill="#747474"/>
<path d="M75 58.3824H73V60.3529H75V58.3824Z" fill="#747474"/>
<path d="M77 58.3824H75V60.3529H77V58.3824Z" fill="#747474"/>
<path d="M79 58.3824H77V60.3529H79V58.3824Z" fill="#747474"/>
<path d="M81 58.3824H79V60.3529H81V58.3824Z" fill="#747474"/>
<path d="M83 58.3824H81V60.3529H83V58.3824Z" fill="#747474"/>
<path d="M85 58.3824H83V60.3529H85V58.3824Z" fill="#747474"/>
<path d="M87 58.3824H85V60.3529H87V58.3824Z" fill="#747474"/>
<path d="M89 58.3824H87V60.3529H89V58.3824Z" fill="#747474"/>
<path d="M91 58.3824H89V60.3529H91V58.3824Z" fill="#282828"/>
<path d="M15 60.3529H13V62.3235H15V60.3529Z" fill="#ACACAC"/>
<path d="M17 60.3529H15V62.3235H17V60.3529Z" fill="white"/>
<path d="M19 60.3529H17V62.3235H19V60.3529Z" fill="white"/>
<path d="M21 60.3529H19V62.3235H21V60.3529Z" fill="#E6E6E6"/>
<path d="M23 60.3529H21V62.3235H23V60.3529Z" fill="#E6E6E6"/>
<path d="M25 60.3529H23V62.3235H25V60.3529Z" fill="#E6E6E6"/>
<path d="M27 60.3529H25V62.3235H27V60.3529Z" fill="#E6E6E6"/>
<path d="M29 60.3529H27V62.3235H29V60.3529Z" fill="#E6E6E6"/>
<path d="M31 60.3529H29V62.3235H31V60.3529Z" fill="#E6E6E6"/>
<path d="M33 60.3529H31V62.3235H33V60.3529Z" fill="#E6E6E6"/>
<path d="M35 60.3529H33V62.3235H35V60.3529Z" fill="#E6E6E6"/>
<path d="M37 60.3529H35V62.3235H37V60.3529Z" fill="#E6E6E6"/>
<path d="M39 60.3529H37V62.3235H39V60.3529Z" fill="#E6E6E6"/>
<path d="M41 60.3529H39V62.3235H41V60.3529Z" fill="#E6E6E6"/>
<path d="M43 60.3529H41V62.3235H43V60.3529Z" fill="#E6E6E6"/>
<path d="M45 60.3529H43V62.3235H45V60.3529Z" fill="#E6E6E6"/>
<path d="M47 60.3529H45V62.3235H47V60.3529Z" fill="#E6E6E6"/>
<path d="M49 60.3529H47V62.3235H49V60.3529Z" fill="#E6E6E6"/>
<path d="M51 60.3529H49V62.3235H51V60.3529Z" fill="#E6E6E6"/>
<path d="M53 60.3529H51V62.3235H53V60.3529Z" fill="#E6E6E6"/>
<path d="M55 60.3529H53V62.3235H55V60.3529Z" fill="#E6E6E6"/>
<path d="M57 60.3529H55V62.3235H57V60.3529Z" fill="#E6E6E6"/>
<path d="M59 60.3529H57V62.3235H59V60.3529Z" fill="#E6E6E6"/>
<path d="M61 60.3529H59V62.3235H61V60.3529Z" fill="#ACACAC"/>
<path d="M63 60.3529H61V62.3235H63V60.3529Z" fill="#ACACAC"/>
<path d="M65 60.3529H63V62.3235H65V60.3529Z" fill="#ACACAC"/>
<path d="M67 60.3529H65V62.3235H67V60.3529Z" fill="#ACACAC"/>
<path d="M69 60.3529H67V62.3235H69V60.3529Z" fill="#ACACAC"/>
<path d="M71 60.3529H69V62.3235H71V60.3529Z" fill="#747474"/>
<path d="M73 60.3529H71V62.3235H73V60.3529Z" fill="#747474"/>
<path d="M75 60.3529H73V62.3235H75V60.3529Z" fill="#747474"/>
<path d="M77 60.3529H75V62.3235H77V60.3529Z" fill="#747474"/>
<path d="M79 60.3529H77V62.3235H79V60.3529Z" fill="#747474"/>
<path d="M81 60.3529H79V62.3235H81V60.3529Z" fill="#747474"/>
<path d="M83 60.3529H81V62.3235H83V60.3529Z" fill="#747474"/>
<path d="M85 60.3529H83V62.3235H85V60.3529Z" fill="#747474"/>
<path d="M87 60.3529H85V62.3235H87V60.3529Z" fill="#747474"/>
<path d="M89 60.3529H87V62.3235H89V60.3529Z" fill="#282828"/>
<path d="M91 60.3529H89V62.3235H91V60.3529Z" fill="#282828"/>
<path d="M93 60.3529H91V62.3235H93V60.3529Z" fill="#282828"/>
<path d="M13 62.3235H11V64.2941H13V62.3235Z" fill="#ACACAC"/>
<path d="M15 62.3235H13V64.2941H15V62.3235Z" fill="white"/>
<path d="M17 62.3235H15V64.2941H17V62.3235Z" fill="white"/>
<path d="M19 62.3235H17V64.2941H19V62.3235Z" fill="white"/>
<path d="M21 62.3235H19V64.2941H21V62.3235Z" fill="white"/>
<path d="M23 62.3235H21V64.2941H23V62.3235Z" fill="white"/>
<path d="M25 62.3235H23V64.2941H25V62.3235Z" fill="white"/>
<path d="M27 62.3235H25V64.2941H27V62.3235Z" fill="white"/>
<path d="M29 62.3235H27V64.2941H29V62.3235Z" fill="#E6E6E6"/>
<path d="M31 62.3235H29V64.2941H31V62.3235Z" fill="#E6E6E6"/>
<path d="M33 62.3235H31V64.2941H33V62.3235Z" fill="#E6E6E6"/>
<path d="M35 62.3235H33V64.2941H35V62.3235Z" fill="#E6E6E6"/>
<path d="M37 62.3235H35V64.2941H37V62.3235Z" fill="#E6E6E6"/>
<path d="M39 62.3235H37V64.2941H39V62.3235Z" fill="#E6E6E6"/>
<path d="M41 62.3235H39V64.2941H41V62.3235Z" fill="#E6E6E6"/>
<path d="M43 62.3235H41V64.2941H43V62.3235Z" fill="#E6E6E6"/>
<path d="M45 62.3235H43V64.2941H45V62.3235Z" fill="#E6E6E6"/>
<path d="M47 62.3235H45V64.2941H47V62.3235Z" fill="#E6E6E6"/>
<path d="M49 62.3235H47V64.2941H49V62.3235Z" fill="#E6E6E6"/>
<path d="M51 62.3235H49V64.2941H51V62.3235Z" fill="#E6E6E6"/>
<path d="M53 62.3235H51V64.2941H53V62.3235Z" fill="#E6E6E6"/>
<path d="M55 62.3235H53V64.2941H55V62.3235Z" fill="#E6E6E6"/>
<path d="M57 62.3235H55V64.2941H57V62.3235Z" fill="#E6E6E6"/>
<path d="M59 62.3235H57V64.2941H59V62.3235Z" fill="#ACACAC"/>
<path d="M61 62.3235H59V64.2941H61V62.3235Z" fill="#ACACAC"/>
<path d="M63 62.3235H61V64.2941H63V62.3235Z" fill="#ACACAC"/>
<path d="M65 62.3235H63V64.2941H65V62.3235Z" fill="#ACACAC"/>
<path d="M67 62.3235H65V64.2941H67V62.3235Z" fill="#ACACAC"/>
<path d="M69 62.3235H67V64.2941H69V62.3235Z" fill="#747474"/>
<path d="M71 62.3235H69V64.2941H71V62.3235Z" fill="#747474"/>
<path d="M73 62.3235H71V64.2941H73V62.3235Z" fill="#747474"/>
<path d="M75 62.3235H73V64.2941H75V62.3235Z" fill="#747474"/>
<path d="M77 62.3235H75V64.2941H77V62.3235Z" fill="#282828"/>
<path d="M79 62.3235H77V64.2941H79V62.3235Z" fill="#282828"/>
<path d="M81 62.3235H79V64.2941H81V62.3235Z" fill="#282828"/>
<path d="M83 62.3235H81V64.2941H83V62.3235Z" fill="#282828"/>
<path d="M85 62.3235H83V64.2941H85V62.3235Z" fill="#282828"/>
<path d="M87 62.3235H85V64.2941H87V62.3235Z" fill="#282828"/>
<path d="M89 62.3235H87V64.2941H89V62.3235Z" fill="#282828"/>
<path d="M91 62.3235H89V64.2941H91V62.3235Z" fill="#282828"/>
<path d="M93 62.3235H91V64.2941H93V62.3235Z" fill="#282828"/>
<path d="M95 62.3235H93V64.2941H95V62.3235Z" fill="#282828"/>
<path d="M11 64.2941H9V66.2647H11V64.2941Z" fill="#ACACAC"/>
<path d="M13 64.2941H11V66.2647H13V64.2941Z" fill="white"/>
<path d="M15 64.2941H13V66.2647H15V64.2941Z" fill="white"/>
<path d="M17 64.2941H15V66.2647H17V64.2941Z" fill="#ACACAC"/>
<path d="M19 64.2941H17V66.2647H19V64.2941Z" fill="#ACACAC"/>
<path d="M21 64.2941H19V66.2647H21V64.2941Z" fill="#ACACAC"/>
<path d="M23 64.2941H21V66.2647H23V64.2941Z" fill="#ACACAC"/>
<path d="M25 64.2941H23V66.2647H25V64.2941Z" fill="#ACACAC"/>
<path d="M27 64.2941H25V66.2647H27V64.2941Z" fill="white"/>
<path d="M29 64.2941H27V66.2647H29V64.2941Z" fill="white"/>
<path d="M31 64.2941H29V66.2647H31V64.2941Z" fill="white"/>
<path d="M33 64.2941H31V66.2647H33V64.2941Z" fill="#E6E6E6"/>
<path d="M35 64.2941H33V66.2647H35V64.2941Z" fill="#E6E6E6"/>
<path d="M37 64.2941H35V66.2647H37V64.2941Z" fill="#E6E6E6"/>
<path d="M39 64.2941H37V66.2647H39V64.2941Z" fill="#E6E6E6"/>
<path d="M41 64.2941H39V66.2647H41V64.2941Z" fill="#E6E6E6"/>
<path d="M43 64.2941H41V66.2647H43V64.2941Z" fill="#E6E6E6"/>
<path d="M45 64.2941H43V66.2647H45V64.2941Z" fill="#E6E6E6"/>
<path d="M47 64.2941H45V66.2647H47V64.2941Z" fill="#E6E6E6"/>
<path d="M49 64.2941H47V66.2647H49V64.2941Z" fill="#E6E6E6"/>
<path d="M51 64.2941H49V66.2647H51V64.2941Z" fill="#E6E6E6"/>
<path d="M53 64.2941H51V66.2647H53V64.2941Z" fill="#E6E6E6"/>
<path d="M55 64.2941H53V66.2647H55V64.2941Z" fill="#E6E6E6"/>
<path d="M57 64.2941H55V66.2647H57V64.2941Z" fill="#ACACAC"/>
<path d="M59 64.2941H57V66.2647H59V64.2941Z" fill="#ACACAC"/>
<path d="M61 64.2941H59V66.2647H61V64.2941Z" fill="#ACACAC"/>
<path d="M63 64.2941H61V66.2647H63V64.2941Z" fill="#ACACAC"/>
<path d="M65 64.2941H63V66.2647H65V64.2941Z" fill="#ACACAC"/>
<path d="M67 64.2941H65V66.2647H67V64.2941Z" fill="#747474"/>
<path d="M69 64.2941H67V66.2647H69V64.2941Z" fill="#747474"/>
<path d="M71 64.2941H69V66.2647H71V64.2941Z" fill="#747474"/>
<path d="M73 64.2941H71V66.2647H73V64.2941Z" fill="#747474"/>
<path d="M75 64.2941H73V66.2647H75V64.2941Z" fill="#282828"/>
<path d="M77 64.2941H75V66.2647H77V64.2941Z" fill="#282828"/>
<path d="M79 64.2941H77V66.2647H79V64.2941Z" fill="#282828"/>
<path d="M81 64.2941H79V66.2647H81V64.2941Z" fill="#282828"/>
<path d="M83 64.2941H81V66.2647H83V64.2941Z" fill="#282828"/>
<path d="M85 64.2941H83V66.2647H85V64.2941Z" fill="#282828"/>
<path d="M87 64.2941H85V66.2647H87V64.2941Z" fill="#282828"/>
<path d="M89 64.2941H87V66.2647H89V64.2941Z" fill="#282828"/>
<path d="M91 64.2941H89V66.2647H91V64.2941Z" fill="#282828"/>
<path d="M93 64.2941H91V66.2647H93V64.2941Z" fill="#282828"/>
<path d="M95 64.2941H93V66.2647H95V64.2941Z" fill="#282828"/>
<path d="M9 66.2647L7 66.2647V68.2353H9V66.2647Z" fill="#ACACAC"/>
<path d="M11 66.2647H9V68.2353H11V66.2647Z" fill="white"/>
<path d="M13 66.2647H11V68.2353H13V66.2647Z" fill="#ACACAC"/>
<path d="M15 66.2647H13V68.2353H15V66.2647Z" fill="#ACACAC"/>
<path d="M17 66.2647H15V68.2353H17V66.2647Z" fill="#ACACAC"/>
<path d="M19 66.2647H17V68.2353H19V66.2647Z" fill="#ACACAC"/>
<path d="M21 66.2647H19V68.2353H21V66.2647Z" fill="#ACACAC"/>
<path d="M23 66.2647H21V68.2353H23V66.2647Z" fill="#ACACAC"/>
<path d="M25 66.2647H23V68.2353H25V66.2647Z" fill="#ACACAC"/>
<path d="M27 66.2647H25V68.2353H27V66.2647Z" fill="#ACACAC"/>
<path d="M29 66.2647H27V68.2353H29V66.2647Z" fill="#ACACAC"/>
<path d="M31 66.2647H29V68.2353H31V66.2647Z" fill="white"/>
<path d="M33 66.2647H31V68.2353H33V66.2647Z" fill="white"/>
<path d="M35 66.2647H33V68.2353H35V66.2647Z" fill="white"/>
<path d="M37 66.2647H35V68.2353H37V66.2647Z" fill="#E6E6E6"/>
<path d="M39 66.2647H37V68.2353H39V66.2647Z" fill="#E6E6E6"/>
<path d="M41 66.2647H39V68.2353H41V66.2647Z" fill="#E6E6E6"/>
<path d="M43 66.2647H41V68.2353H43V66.2647Z" fill="#E6E6E6"/>
<path d="M45 66.2647H43V68.2353H45V66.2647Z" fill="#E6E6E6"/>
<path d="M47 66.2647H45V68.2353H47V66.2647Z" fill="#E6E6E6"/>
<path d="M49 66.2647H47V68.2353H49V66.2647Z" fill="#E6E6E6"/>
<path d="M51 66.2647H49V68.2353H51V66.2647Z" fill="#E6E6E6"/>
<path d="M53 66.2647H51V68.2353H53V66.2647Z" fill="#E6E6E6"/>
<path d="M55 66.2647H53V68.2353H55V66.2647Z" fill="#ACACAC"/>
<path d="M57 66.2647H55V68.2353H57V66.2647Z" fill="#E6E6E6"/>
<path d="M59 66.2647H57V68.2353H59V66.2647Z" fill="#ACACAC"/>
<path d="M61 66.2647H59V68.2353H61V66.2647Z" fill="#ACACAC"/>
<path d="M63 66.2647H61V68.2353H63V66.2647Z" fill="#747474"/>
<path d="M65 66.2647H63V68.2353H65V66.2647Z" fill="#747474"/>
<path d="M67 66.2647H65V68.2353H67V66.2647Z" fill="#747474"/>
<path d="M69 66.2647H67V68.2353H69V66.2647Z" fill="#747474"/>
<path d="M71 66.2647H69V68.2353H71V66.2647Z" fill="#282828"/>
<path d="M73 66.2647H71V68.2353H73V66.2647Z" fill="#282828"/>
<path d="M75 66.2647H73V68.2353H75V66.2647Z" fill="#282828"/>
<path d="M77 66.2647H75V68.2353H77V66.2647Z" fill="#282828"/>
<path d="M79 66.2647H77V68.2353H79V66.2647Z" fill="#282828"/>
<path d="M81 66.2647H79V68.2353H81V66.2647Z" fill="#282828"/>
<path d="M83 66.2647H81V68.2353H83V66.2647Z" fill="#282828"/>
<path d="M85 66.2647H83V68.2353H85V66.2647Z" fill="#282828"/>
<path d="M87 66.2647H85V68.2353H87V66.2647Z" fill="#282828"/>
<path d="M89 66.2647H87V68.2353H89V66.2647Z" fill="#282828"/>
<path d="M91 66.2647H89V68.2353H91V66.2647Z" fill="#282828"/>
<path d="M93 66.2647H91V68.2353H93V66.2647Z" fill="#282828"/>
<path d="M95 66.2647H93V68.2353H95V66.2647Z" fill="#282828"/>
<path d="M7 68.2353H5V70.2059H7V68.2353Z" fill="#ACACAC"/>
<path d="M9 68.2353H7V70.2059H9V68.2353Z" fill="white"/>
<path d="M11 68.2353H9V70.2059H11V68.2353Z" fill="#ACACAC"/>
<path d="M13 68.2353H11V70.2059H13V68.2353Z" fill="#ACACAC"/>
<path d="M15 68.2353H13V70.2059H15V68.2353Z" fill="#ACACAC"/>
<path d="M17 68.2353H15V70.2059H17V68.2353Z" fill="#ACACAC"/>
<path d="M19 68.2353H17V70.2059H19V68.2353Z" fill="#ACACAC"/>
<path d="M21 68.2353H19V70.2059H21V68.2353Z" fill="#ACACAC"/>
<path d="M23 68.2353H21V70.2059H23V68.2353Z" fill="#ACACAC"/>
<path d="M25 68.2353H23V70.2059H25V68.2353Z" fill="#ACACAC"/>
<path d="M27 68.2353H25V70.2059H27V68.2353Z" fill="#ACACAC"/>
<path d="M29 68.2353H27V70.2059H29V68.2353Z" fill="#ACACAC"/>
<path d="M31 68.2353H29V70.2059H31V68.2353Z" fill="#ACACAC"/>
<path d="M33 68.2353H31V70.2059H33V68.2353Z" fill="#ACACAC"/>
<path d="M35 68.2353H33V70.2059H35V68.2353Z" fill="white"/>
<path d="M37 68.2353H35V70.2059H37V68.2353Z" fill="white"/>
<path d="M39 68.2353H37V70.2059H39V68.2353Z" fill="#E6E6E6"/>
<path d="M41 68.2353H39V70.2059H41V68.2353Z" fill="#E6E6E6"/>
<path d="M43 68.2353H41V70.2059H43V68.2353Z" fill="#E6E6E6"/>
<path d="M45 68.2353H43V70.2059H45V68.2353Z" fill="#E6E6E6"/>
<path d="M47 68.2353H45V70.2059H47V68.2353Z" fill="#E6E6E6"/>
<path d="M49 68.2353H47V70.2059H49V68.2353Z" fill="#E6E6E6"/>
<path d="M51 68.2353H49V70.2059H51V68.2353Z" fill="#E6E6E6"/>
<path d="M53 68.2353H51V70.2059H53V68.2353Z" fill="#ACACAC"/>
<path d="M55 68.2353H53V70.2059H55V68.2353Z" fill="#E6E6E6"/>
<path d="M57 68.2353H55V70.2059H57V68.2353Z" fill="#ACACAC"/>
<path d="M59 68.2353H57V70.2059H59V68.2353Z" fill="#ACACAC"/>
<path d="M61 68.2353H59V70.2059H61V68.2353Z" fill="#747474"/>
<path d="M63 68.2353H61V70.2059H63V68.2353Z" fill="#747474"/>
<path d="M65 68.2353H63V70.2059H65V68.2353Z" fill="#747474"/>
<path d="M67 68.2353H65V70.2059H67V68.2353Z" fill="#747474"/>
<path d="M69 68.2353H67V70.2059H69V68.2353Z" fill="#282828"/>
<path d="M71 68.2353H69V70.2059H71V68.2353Z" fill="#282828"/>
<path d="M73 68.2353H71V70.2059H73V68.2353Z" fill="#282828"/>
<path d="M75 68.2353H73V70.2059H75V68.2353Z" fill="#282828"/>
<path d="M77 68.2353H75V70.2059H77V68.2353Z" fill="#282828"/>
<path d="M79 68.2353H77V70.2059H79V68.2353Z" fill="#282828"/>
<path d="M81 68.2353H79V70.2059H81V68.2353Z" fill="#282828"/>
<path d="M83 68.2353H81V70.2059H83V68.2353Z" fill="#282828"/>
<path d="M85 68.2353H83V70.2059H85V68.2353Z" fill="#282828"/>
<path d="M87 68.2353H85V70.2059H87V68.2353Z" fill="#282828"/>
<path d="M89 68.2353H87V70.2059H89V68.2353Z" fill="#282828"/>
<path d="M91 68.2353H89V70.2059H91V68.2353Z" fill="#282828"/>
<path d="M93 68.2353H91V70.2059H93V68.2353Z" fill="#282828"/>
<path d="M7 70.2059H5V72.1765H7V70.2059Z" fill="#ACACAC"/>
<path d="M9 70.2059H7V72.1765H9V70.2059Z" fill="#ACACAC"/>
<path d="M11 70.2059H9V72.1765H11V70.2059Z" fill="#ACACAC"/>
<path d="M13 70.2059H11V72.1765H13V70.2059Z" fill="#ACACAC"/>
<path d="M15 70.2059H13V72.1765H15V70.2059Z" fill="#ACACAC"/>
<path d="M17 70.2059H15V72.1765H17V70.2059Z" fill="#ACACAC"/>
<path d="M19 70.2059H17V72.1765H19V70.2059Z" fill="#ACACAC"/>
<path d="M21 70.2059H19V72.1765H21V70.2059Z" fill="#ACACAC"/>
<path d="M23 70.2059H21V72.1765H23V70.2059Z" fill="#282828"/>
<path d="M25 70.2059H23V72.1765H25V70.2059Z" fill="#282828"/>
<path d="M27 70.2059H25V72.1765H27V70.2059Z" fill="#282828"/>
<path d="M29 70.2059H27V72.1765H29V70.2059Z" fill="#282828"/>
<path d="M31 70.2059H29V72.1765H31V70.2059Z" fill="#ACACAC"/>
<path d="M33 70.2059H31V72.1765H33V70.2059Z" fill="#ACACAC"/>
<path d="M35 70.2059H33V72.1765H35V70.2059Z" fill="#ACACAC"/>
<path d="M37 70.2059H35V72.1765H37V70.2059Z" fill="#ACACAC"/>
<path d="M39 70.2059H37V72.1765H39V70.2059Z" fill="white"/>
<path d="M41 70.2059H39V72.1765H41V70.2059Z" fill="#E6E6E6"/>
<path d="M43 70.2059H41V72.1765H43V70.2059Z" fill="#E6E6E6"/>
<path d="M45 70.2059H43V72.1765H45V70.2059Z" fill="#E6E6E6"/>
<path d="M47 70.2059H45V72.1765H47V70.2059Z" fill="#E6E6E6"/>
<path d="M49 70.2059H47V72.1765H49V70.2059Z" fill="#E6E6E6"/>
<path d="M51 70.2059H49V72.1765H51V70.2059Z" fill="#ACACAC"/>
<path d="M53 70.2059H51V72.1765H53V70.2059Z" fill="#E6E6E6"/>
<path d="M55 70.2059H53V72.1765H55V70.2059Z" fill="#ACACAC"/>
<path d="M57 70.2059H55V72.1765H57V70.2059Z" fill="#ACACAC"/>
<path d="M59 70.2059H57V72.1765H59V70.2059Z" fill="#747474"/>
<path d="M61 70.2059H59V72.1765H61V70.2059Z" fill="#747474"/>
<path d="M63 70.2059H61V72.1765H63V70.2059Z" fill="#747474"/>
<path d="M65 70.2059H63V72.1765H65V70.2059Z" fill="#747474"/>
<path d="M67 70.2059H65V72.1765H67V70.2059Z" fill="#282828"/>
<path d="M69 70.2059H67V72.1765H69V70.2059Z" fill="#282828"/>
<path d="M71 70.2059H69V72.1765H71V70.2059Z" fill="#282828"/>
<path d="M73 70.2059H71V72.1765H73V70.2059Z" fill="#282828"/>
<path d="M75 70.2059H73V72.1765H75V70.2059Z" fill="#282828"/>
<path d="M77 70.2059H75V72.1765H77V70.2059Z" fill="#282828"/>
<path d="M79 70.2059H77V72.1765H79V70.2059Z" fill="#282828"/>
<path d="M81 70.2059H79V72.1765H81V70.2059Z" fill="#282828"/>
<path d="M83 70.2059H81V72.1765H83V70.2059Z" fill="#282828"/>
<path d="M85 70.2059H83V72.1765H85V70.2059Z" fill="#282828"/>
<path d="M87 70.2059H85V72.1765H87V70.2059Z" fill="#282828"/>
<path d="M89 70.2059H87V72.1765H89V70.2059Z" fill="#282828"/>
<path d="M91 70.2059H89V72.1765H91V70.2059Z" fill="#282828"/>
<path d="M9 72.1765H7V74.1471H9V72.1765Z" fill="#ACACAC"/>
<path d="M11 72.1765H9V74.1471H11V72.1765Z" fill="#ACACAC"/>
<path d="M13 72.1765H11V74.1471H13V72.1765Z" fill="#ACACAC"/>
<path d="M15 72.1765H13V74.1471H15V72.1765Z" fill="#ACACAC"/>
<path d="M17 72.1765H15V74.1471H17V72.1765Z" fill="#ACACAC"/>
<path d="M19 72.1765H17V74.1471H19V72.1765Z" fill="#282828"/>
<path d="M21 72.1765H19V74.1471H21V72.1765Z" fill="#282828"/>
<path d="M23 72.1765H21V74.1471H23V72.1765Z" fill="#282828"/>
<path d="M25 72.1765H23V74.1471H25V72.1765Z" fill="#282828"/>
<path d="M27 72.1765H25V74.1471H27V72.1765Z" fill="#282828"/>
<path d="M29 72.1765H27V74.1471H29V72.1765Z" fill="#282828"/>
<path d="M31 72.1765H29V74.1471H31V72.1765Z" fill="#282828"/>
<path d="M33 72.1765H31V74.1471H33V72.1765Z" fill="#282828"/>
<path d="M35 72.1765H33V74.1471H35V72.1765Z" fill="#ACACAC"/>
<path d="M37 72.1765H35V74.1471H37V72.1765Z" fill="#ACACAC"/>
<path d="M39 72.1765H37V74.1471H39V72.1765Z" fill="#ACACAC"/>
<path d="M41 72.1765H39V74.1471H41V72.1765Z" fill="white"/>
<path d="M43 72.1765H41V74.1471H43V72.1765Z" fill="#E6E6E6"/>
<path d="M45 72.1765H43V74.1471H45V72.1765Z" fill="#E6E6E6"/>
<path d="M47 72.1765H45V74.1471H47V72.1765Z" fill="#E6E6E6"/>
<path d="M49 72.1765H47V74.1471H49V72.1765Z" fill="#ACACAC"/>
<path d="M51 72.1765H49V74.1471H51V72.1765Z" fill="#E6E6E6"/>
<path d="M53 72.1765H51V74.1471H53V72.1765Z" fill="#ACACAC"/>
<path d="M55 72.1765H53V74.1471H55V72.1765Z" fill="#ACACAC"/>
<path d="M57 72.1765H55V74.1471H57V72.1765Z" fill="#747474"/>
<path d="M59 72.1765H57V74.1471H59V72.1765Z" fill="#747474"/>
<path d="M61 72.1765H59V74.1471H61V72.1765Z" fill="#747474"/>
<path d="M63 72.1765H61V74.1471H63V72.1765Z" fill="#747474"/>
<path d="M65 72.1765H63V74.1471H65V72.1765Z" fill="#282828"/>
<path d="M67 72.1765H65V74.1471H67V72.1765Z" fill="#282828"/>
<path d="M69 72.1765H67V74.1471H69V72.1765Z" fill="#282828"/>
<path d="M71 72.1765H69V74.1471H71V72.1765Z" fill="#282828"/>
<path d="M73 72.1765H71V74.1471H73V72.1765Z" fill="#282828"/>
<path d="M75 72.1765H73V74.1471H75V72.1765Z" fill="#282828"/>
<path d="M77 72.1765H75V74.1471H77V72.1765Z" fill="#282828"/>
<path d="M79 72.1765H77V74.1471H79V72.1765Z" fill="#282828"/>
<path d="M81 72.1765H79V74.1471H81V72.1765Z" fill="#282828"/>
<path d="M83 72.1765H81V74.1471H83V72.1765Z" fill="#282828"/>
<path d="M85 72.1765H83V74.1471H85V72.1765Z" fill="#282828"/>
<path d="M87 72.1765H85V74.1471H87V72.1765Z" fill="#282828"/>
<path d="M11 74.1471H9V76.1176H11V74.1471Z" fill="#282828"/>
<path d="M13 74.1471H11V76.1176H13V74.1471Z" fill="#282828"/>
<path d="M15 74.1471H13V76.1176H15V74.1471Z" fill="#282828"/>
<path d="M17 74.1471H15V76.1176H17V74.1471Z" fill="#282828"/>
<path d="M19 74.1471H17V76.1176H19V74.1471Z" fill="#282828"/>
<path d="M21 74.1471H19V76.1176H21V74.1471Z" fill="#282828"/>
<path d="M23 74.1471H21V76.1176H23V74.1471Z" fill="#282828"/>
<path d="M25 74.1471H23V76.1176H25V74.1471Z" fill="#282828"/>
<path d="M27 74.1471H25V76.1176H27V74.1471Z" fill="#282828"/>
<path d="M29 74.1471H27V76.1176H29V74.1471Z" fill="#282828"/>
<path d="M31 74.1471H29V76.1176H31V74.1471Z" fill="#282828"/>
<path d="M33 74.1471H31V76.1176H33V74.1471Z" fill="#282828"/>
<path d="M35 74.1471H33V76.1176H35V74.1471Z" fill="#282828"/>
<path d="M37 74.1471H35V76.1176H37V74.1471Z" fill="#ACACAC"/>
<path d="M39 74.1471H37V76.1176H39V74.1471Z" fill="#ACACAC"/>
<path d="M41 74.1471H39V76.1176H41V74.1471Z" fill="#ACACAC"/>
<path d="M43 74.1471H41V76.1176H43V74.1471Z" fill="white"/>
<path d="M45 74.1471H43V76.1176H45V74.1471Z" fill="#ACACAC"/>
<path d="M47 74.1471H45V76.1176H47V74.1471Z" fill="#ACACAC"/>
<path d="M49 74.1471H47V76.1176H49V74.1471Z" fill="#E6E6E6"/>
<path d="M51 74.1471H49V76.1176H51V74.1471Z" fill="#ACACAC"/>
<path d="M53 74.1471H51V76.1176H53V74.1471Z" fill="#ACACAC"/>
<path d="M55 74.1471H53V76.1176H55V74.1471Z" fill="#747474"/>
<path d="M57 74.1471H55V76.1176H57V74.1471Z" fill="#747474"/>
<path d="M59 74.1471H57V76.1176H59V74.1471Z" fill="#747474"/>
<path d="M61 74.1471H59V76.1176H61V74.1471Z" fill="#282828"/>
<path d="M63 74.1471H61V76.1176H63V74.1471Z" fill="#282828"/>
<path d="M65 74.1471H63V76.1176H65V74.1471Z" fill="#282828"/>
<path d="M67 74.1471H65V76.1176H67V74.1471Z" fill="#282828"/>
<path d="M69 74.1471H67V76.1176H69V74.1471Z" fill="#282828"/>
<path d="M71 74.1471H69V76.1176H71V74.1471Z" fill="#282828"/>
<path d="M73 74.1471H71V76.1176H73V74.1471Z" fill="#282828"/>
<path d="M75 74.1471H73V76.1176H75V74.1471Z" fill="#282828"/>
<path d="M77 74.1471H75V76.1176H77V74.1471Z" fill="#282828"/>
<path d="M79 74.1471H77V76.1176H79V74.1471Z" fill="#282828"/>
<path d="M9 76.1176H7V78.0882H9V76.1176Z" fill="#282828"/>
<path d="M11 76.1176H9V78.0882H11V76.1176Z" fill="#282828"/>
<path d="M13 76.1176H11V78.0882H13V76.1176Z" fill="#282828"/>
<path d="M15 76.1176H13V78.0882H15V76.1176Z" fill="#282828"/>
<path d="M17 76.1176H15V78.0882H17V76.1176Z" fill="#282828"/>
<path d="M19 76.1176H17V78.0882H19V76.1176Z" fill="#282828"/>
<path d="M21 76.1176H19V78.0882H21V76.1176Z" fill="#282828"/>
<path d="M23 76.1176H21V78.0882H23V76.1176Z" fill="#282828"/>
<path d="M25 76.1176H23V78.0882H25V76.1176Z" fill="#282828"/>
<path d="M27 76.1176H25V78.0882H27V76.1176Z" fill="#282828"/>
<path d="M29 76.1176H27V78.0882H29V76.1176Z" fill="#282828"/>
<path d="M31 76.1176H29V78.0882H31V76.1176Z" fill="#282828"/>
<path d="M33 76.1176H31V78.0882H33V76.1176Z" fill="#282828"/>
<path d="M35 76.1176H33V78.0882H35V76.1176Z" fill="#282828"/>
<path d="M37 76.1176H35V78.0882H37V76.1176Z" fill="#282828"/>
<path d="M39 76.1176H37V78.0882H39V76.1176Z" fill="#282828"/>
<path d="M41 76.1176H39V78.0882H41V76.1176Z" fill="#ACACAC"/>
<path d="M43 76.1176H41V78.0882H43V76.1176Z" fill="#ACACAC"/>
<path d="M45 76.1176H43V78.0882H45V76.1176Z" fill="#ACACAC"/>
<path d="M47 76.1176H45V78.0882H47V76.1176Z" fill="#ACACAC"/>
<path d="M49 76.1176H47V78.0882H49V76.1176Z" fill="#ACACAC"/>
<path d="M51 76.1176H49V78.0882H51V76.1176Z" fill="#ACACAC"/>
<path d="M53 76.1176H51V78.0882H53V76.1176Z" fill="#747474"/>
<path d="M55 76.1176H53V78.0882H55V76.1176Z" fill="#747474"/>
<path d="M57 76.1176H55V78.0882H57V76.1176Z" fill="#747474"/>
<path d="M59 76.1176H57V78.0882H59V76.1176Z" fill="#282828"/>
<path d="M61 76.1176H59V78.0882H61V76.1176Z" fill="#282828"/>
<path d="M63 76.1176H61V78.0882H63V76.1176Z" fill="#282828"/>
<path d="M65 76.1176H63V78.0882H65V76.1176Z" fill="#282828"/>
<path d="M67 76.1176H65V78.0882H67V76.1176Z" fill="#282828"/>
<path d="M69 76.1176H67V78.0882H69V76.1176Z" fill="#282828"/>
<path d="M71 76.1176H69V78.0882H71V76.1176Z" fill="#282828"/>
<path d="M73 76.1176H71V78.0882H73V76.1176Z" fill="#282828"/>
<path d="M15 78.0882H13V80.0588H15V78.0882Z" fill="#282828"/>
<path d="M17 78.0882H15V80.0588H17V78.0882Z" fill="#282828"/>
<path d="M19 78.0882H17V80.0588H19V78.0882Z" fill="#282828"/>
<path d="M21 78.0882H19V80.0588H21V78.0882Z" fill="#282828"/>
<path d="M23 78.0882H21V80.0588H23V78.0882Z" fill="#282828"/>
<path d="M25 78.0882H23V80.0588H25V78.0882Z" fill="#282828"/>
<path d="M27 78.0882H25V80.0588H27V78.0882Z" fill="#282828"/>
<path d="M29 78.0882H27V80.0588H29V78.0882Z" fill="#282828"/>
<path d="M31 78.0882H29V80.0588H31V78.0882Z" fill="#282828"/>
<path d="M33 78.0882H31V80.0588H33V78.0882Z" fill="#282828"/>
<path d="M35 78.0882H33V80.0588H35V78.0882Z" fill="#282828"/>
<path d="M37 78.0882H35V80.0588H37V78.0882Z" fill="#282828"/>
<path d="M39 78.0882H37V80.0588H39V78.0882Z" fill="#282828"/>
<path d="M41 78.0882H39V80.0588H41V78.0882Z" fill="#282828"/>
<path d="M43 78.0882H41V80.0588H43V78.0882Z" fill="#282828"/>
<path d="M45 78.0882H43V80.0588H45V78.0882Z" fill="#ACACAC"/>
<path d="M47 78.0882H45V80.0588H47V78.0882Z" fill="#ACACAC"/>
<path d="M49 78.0882H47V80.0588H49V78.0882Z" fill="#747474"/>
<path d="M51 78.0882H49V80.0588H51V78.0882Z" fill="#747474"/>
<path d="M53 78.0882H51V80.0588H53V78.0882Z" fill="#747474"/>
<path d="M55 78.0882H53V80.0588H55V78.0882Z" fill="#747474"/>
<path d="M57 78.0882H55V80.0588H57V78.0882Z" fill="#282828"/>
<path d="M59 78.0882H57V80.0588H59V78.0882Z" fill="#282828"/>
<path d="M61 78.0882H59V80.0588H61V78.0882Z" fill="#282828"/>
<path d="M63 78.0882H61V80.0588H63V78.0882Z" fill="#282828"/>
<path d="M65 78.0882H63V80.0588H65V78.0882Z" fill="#282828"/>
<path d="M67 78.0882H65V80.0588H67V78.0882Z" fill="#282828"/>
<path d="M21 80.0588H19V82.0294H21V80.0588Z" fill="#282828"/>
<path d="M23 80.0588H21V82.0294H23V80.0588Z" fill="#282828"/>
<path d="M25 80.0588H23V82.0294H25V80.0588Z" fill="#282828"/>
<path d="M27 80.0588H25V82.0294H27V80.0588Z" fill="#282828"/>
<path d="M29 80.0588H27V82.0294H29V80.0588Z" fill="#282828"/>
<path d="M31 80.0588H29V82.0294H31V80.0588Z" fill="#282828"/>
<path d="M33 80.0588H31V82.0294H33V80.0588Z" fill="#282828"/>
<path d="M35 80.0588H33V82.0294H35V80.0588Z" fill="#282828"/>
<path d="M37 80.0588H35V82.0294H37V80.0588Z" fill="#282828"/>
<path d="M39 80.0588H37V82.0294H39V80.0588Z" fill="#282828"/>
<path d="M41 80.0588H39V82.0294H41V80.0588Z" fill="#282828"/>
<path d="M43 80.0588H41V82.0294H43V80.0588Z" fill="#282828"/>
<path d="M45 80.0588H43V82.0294H45V80.0588Z" fill="#282828"/>
<path d="M47 80.0588H45V82.0294H47V80.0588Z" fill="#282828"/>
<path d="M49 80.0588H47V82.0294H49V80.0588Z" fill="#282828"/>
<path d="M51 80.0588H49V82.0294H51V80.0588Z" fill="#282828"/>
<path d="M53 80.0588H51V82.0294H53V80.0588Z" fill="#282828"/>
<path d="M55 80.0588H53V82.0294H55V80.0588Z" fill="#282828"/>
<path d="M57 80.0588H55V82.0294H57V80.0588Z" fill="#282828"/>
<path d="M59 80.0588H57V82.0294H59V80.0588Z" fill="#282828"/>
<path d="M61 80.0588H59V82.0294H61V80.0588Z" fill="#282828"/>
<path d="M31 82.0294H29V84H31V82.0294Z" fill="#282828"/>
<path d="M33 82.0294H31V84H33V82.0294Z" fill="#282828"/>
<path d="M35 82.0294H33V84H35V82.0294Z" fill="#282828"/>
<path d="M37 82.0294H35V84H37V82.0294Z" fill="#282828"/>
<path d="M39 82.0294H37V84H39V82.0294Z" fill="#282828"/>
<path d="M41 82.0294H39V84H41V82.0294Z" fill="#282828"/>
<path d="M43 82.0294H41V84H43V82.0294Z" fill="#282828"/>
<path d="M45 82.0294H43V84H45V82.0294Z" fill="#282828"/>
<path d="M47 82.0294H45V84H47V82.0294Z" fill="#282828"/>
<path d="M49 82.0294H47V84H49V82.0294Z" fill="#282828"/>
<path d="M51 82.0294H49V84H51V82.0294Z" fill="#282828"/>
</svg>
