<svg width="248" height="48" viewBox="0 0 248 48" fill="none" xmlns="http://www.w3.org/2000/svg">
<path d="M83.0713 37.7061H71.8442V3H83.4207C93.6462 3 99.8654 9.56854 99.8654 20.3065C99.8654 31.091 93.6695 37.7061 83.0713 37.7061ZM77.0152 33.2106H82.7452C90.8278 33.2106 94.6711 28.389 94.6711 20.3065C94.6711 12.2705 90.8278 7.49549 83.0946 7.49549H77.0152V33.2106Z" fill="#E6E6E6"/>
<path d="M103.57 37.7061V13.109H108.275V17.0921H108.368C109.277 14.4134 111.187 12.8062 114.308 12.8062C115.053 12.8062 115.705 12.8761 116.101 12.9227V17.5114C115.729 17.4415 114.657 17.2784 113.516 17.2784C110.744 17.2784 108.485 19.1651 108.485 23.1715V37.7061H103.57Z" fill="#E6E6E6"/>
<path d="M119.666 47.4425V43.2964H122.321C123.859 43.2964 124.767 42.4578 125.512 40.4547L126.631 37.5431L117.127 13.109H122.391L127.306 26.5955C127.958 28.4356 128.564 30.2757 129.169 32.1159C129.775 30.2757 130.404 28.4356 131.056 26.5955L135.901 13.109H141.095L129.915 42.0153C128.541 45.579 126.118 47.4425 122.787 47.4425H119.666Z" fill="#E6E6E6"/>
<path d="M152.137 38.2884C146.5 38.2884 142.214 35.5632 141.865 30.2292H146.71C146.989 32.8845 148.853 34.3753 152.044 34.3753C155.165 34.3753 157.098 32.9544 157.098 30.9978C157.098 29.3207 155.677 28.3425 153.558 27.8766L149.482 26.9682C144.846 25.9433 142.424 23.5907 142.424 19.9338C142.424 15.5781 146.197 12.5733 151.834 12.5733C157.378 12.5733 161.338 15.6479 161.477 20.6093H156.772C156.726 18.2101 154.816 16.4632 151.904 16.4632C149.109 16.4632 147.339 17.9539 147.339 19.8406C147.339 21.4944 148.666 22.496 150.879 23.0084L155.072 23.9401C159.87 25.0116 162.06 27.1545 162.06 30.7183C162.06 35.4001 157.867 38.2884 152.137 38.2884Z" fill="#E6E6E6"/>
<path d="M174.918 38.1953C168.513 38.1953 164.25 33.0243 164.25 25.4076C164.25 17.8142 168.536 12.6199 174.895 12.6199C178.086 12.6199 180.858 13.9476 182.442 16.6728H182.488V3H187.403V37.7061H182.581V33.956H182.535C180.881 36.821 178.133 38.1953 174.918 38.1953ZM175.92 33.956C180.112 33.956 182.814 30.5786 182.814 25.4076C182.814 20.2366 180.112 16.8359 175.92 16.8359C171.96 16.8359 169.235 19.8406 169.235 25.4076C169.235 30.9512 171.96 33.956 175.92 33.956Z" fill="#E6E6E6"/>
<path d="M199.493 38.1021C194.601 38.1021 190.968 35.5865 190.968 30.6717C190.968 25.0582 195.673 23.847 200.681 23.2646C205.293 22.7056 206.83 22.7522 206.83 20.9587V20.749C206.83 18.3732 204.99 16.6495 201.869 16.6495C198.724 16.6495 196.581 18.3499 196.395 20.6093H191.573C191.806 15.9274 195.789 12.6199 201.939 12.6199C207.995 12.6199 211.698 15.8343 211.698 20.8422V37.7061H206.853V34.2122H206.76C205.735 36.1921 203.732 38.1021 199.493 38.1021ZM200.494 34.1423C204.827 34.1423 206.853 31.5336 206.853 28.5055V25.6172C206.178 26.1529 203.569 26.5489 200.96 26.9216C198.282 27.3176 195.859 28.2726 195.859 30.7649C195.859 32.8845 197.629 34.1423 200.494 34.1423Z" fill="#E6E6E6"/>
<path d="M221.203 3V37.7061H216.288V3H221.203Z" fill="#E6E6E6"/>
<path d="M236.32 38.2651C229.03 38.2651 224.604 32.8845 224.604 25.4542C224.604 17.9539 229.356 12.55 236.064 12.55C243.029 12.55 247.548 17.8142 247.548 25.4076V26.7353H229.449C229.612 31.1609 232.081 34.1656 236.39 34.1656C239.605 34.1656 241.748 32.5584 242.446 30.2292H247.175C246.266 34.9809 241.887 38.2651 236.32 38.2651ZM229.496 23.0084H242.749C242.353 19.0953 239.838 16.6495 236.111 16.6495C232.407 16.6495 229.915 19.0953 229.496 23.0084Z" fill="#E6E6E6"/>
<path d="M34.6667 0H33.3333V1.32353H34.6667V0Z" fill="#ACACAC"/>
<path d="M36 0H34.6667V1.32353H36V0Z" fill="#ACACAC"/>
<path d="M37.3333 0H36V1.32353H37.3333V0Z" fill="#ACACAC"/>
<path d="M30.6667 1.32353H29.3333V2.64706H30.6667V1.32353Z" fill="#ACACAC"/>
<path d="M32 1.32353H30.6667V2.64706H32V1.32353Z" fill="#ACACAC"/>
<path d="M33.3333 1.32353H32V2.64706H33.3333V1.32353Z" fill="#ACACAC"/>
<path d="M34.6667 1.32353H33.3333V2.64706H34.6667V1.32353Z" fill="#ACACAC"/>
<path d="M36 1.32353H34.6667V2.64706H36V1.32353Z" fill="#ACACAC"/>
<path d="M37.3333 1.32353H36V2.64706H37.3333V1.32353Z" fill="#ACACAC"/>
<path d="M38.6667 1.32353H37.3333V2.64706H38.6667V1.32353Z" fill="#ACACAC"/>
<path d="M40 1.32353H38.6667V2.64706H40V1.32353Z" fill="#ACACAC"/>
<path d="M26.6667 2.64706H25.3333V3.97059H26.6667V2.64706Z" fill="#ACACAC"/>
<path d="M28 2.64706H26.6667V3.97059H28V2.64706Z" fill="#ACACAC"/>
<path d="M29.3333 2.64706H28V3.97059H29.3333V2.64706Z" fill="#ACACAC"/>
<path d="M30.6667 2.64706H29.3333V3.97059H30.6667V2.64706Z" fill="#E6E6E6"/>
<path d="M32 2.64706H30.6667V3.97059H32V2.64706Z" fill="#E6E6E6"/>
<path d="M33.3333 2.64706H32V3.97059H33.3333V2.64706Z" fill="#E6E6E6"/>
<path d="M34.6667 2.64706H33.3333V3.97059H34.6667V2.64706Z" fill="#E6E6E6"/>
<path d="M36 2.64706H34.6667V3.97059H36V2.64706Z" fill="#E6E6E6"/>
<path d="M37.3333 2.64706H36V3.97059H37.3333V2.64706Z" fill="#E6E6E6"/>
<path d="M38.6667 2.64706H37.3333V3.97059H38.6667V2.64706Z" fill="#ACACAC"/>
<path d="M40 2.64706H38.6667V3.97059H40V2.64706Z" fill="#ACACAC"/>
<path d="M41.3333 2.64706H40V3.97059H41.3333V2.64706Z" fill="#ACACAC"/>
<path d="M42.6667 2.64706H41.3333V3.97059H42.6667V2.64706Z" fill="#ACACAC"/>
<path d="M44 2.64706H42.6667V3.97059H44V2.64706Z" fill="#ACACAC"/>
<path d="M45.3333 2.64706H44V3.97059H45.3333V2.64706Z" fill="#ACACAC"/>
<path d="M24 3.97059H22.6667V5.29412H24V3.97059Z" fill="#ACACAC"/>
<path d="M25.3333 3.97059H24V5.29412H25.3333V3.97059Z" fill="#ACACAC"/>
<path d="M26.6667 3.97059H25.3333V5.29412H26.6667V3.97059Z" fill="white"/>
<path d="M28 3.97059H26.6667V5.29412H28V3.97059Z" fill="white"/>
<path d="M29.3333 3.97059H28V5.29412H29.3333V3.97059Z" fill="#E6E6E6"/>
<path d="M30.6667 3.97059H29.3333V5.29412H30.6667V3.97059Z" fill="#E6E6E6"/>
<path d="M32 3.97059H30.6667V5.29412H32V3.97059Z" fill="#E6E6E6"/>
<path d="M33.3333 3.97059H32V5.29412H33.3333V3.97059Z" fill="#E6E6E6"/>
<path d="M34.6667 3.97059H33.3333V5.29412H34.6667V3.97059Z" fill="#E6E6E6"/>
<path d="M36 3.97059H34.6667V5.29412H36V3.97059Z" fill="#E6E6E6"/>
<path d="M37.3333 3.97059H36V5.29412H37.3333V3.97059Z" fill="#E6E6E6"/>
<path d="M38.6667 3.97059H37.3333V5.29412H38.6667V3.97059Z" fill="#E6E6E6"/>
<path d="M40 3.97059H38.6667V5.29412H40V3.97059Z" fill="#E6E6E6"/>
<path d="M41.3333 3.97059H40V5.29412H41.3333V3.97059Z" fill="#ACACAC"/>
<path d="M42.6667 3.97059H41.3333V5.29412H42.6667V3.97059Z" fill="#E6E6E6"/>
<path d="M44 3.97059H42.6667V5.29412H44V3.97059Z" fill="#ACACAC"/>
<path d="M45.3333 3.97059H44V5.29412H45.3333V3.97059Z" fill="#ACACAC"/>
<path d="M46.6667 3.97059H45.3333V5.29412H46.6667V3.97059Z" fill="#ACACAC"/>
<path d="M48 3.97059H46.6667V5.29412H48V3.97059Z" fill="#ACACAC"/>
<path d="M21.3333 5.29412H20V6.61765H21.3333V5.29412Z" fill="#ACACAC"/>
<path d="M22.6667 5.29412H21.3333V6.61765H22.6667V5.29412Z" fill="#ACACAC"/>
<path d="M24 5.29412H22.6667V6.61765H24V5.29412Z" fill="white"/>
<path d="M25.3333 5.29412H24V6.61765H25.3333V5.29412Z" fill="white"/>
<path d="M26.6667 5.29412H25.3333V6.61765H26.6667V5.29412Z" fill="#E6E6E6"/>
<path d="M28 5.29412H26.6667V6.61765H28V5.29412Z" fill="#E6E6E6"/>
<path d="M29.3333 5.29412H28V6.61765H29.3333V5.29412Z" fill="#E6E6E6"/>
<path d="M30.6667 5.29412H29.3333V6.61765H30.6667V5.29412Z" fill="#E6E6E6"/>
<path d="M32 5.29412H30.6667V6.61765H32V5.29412Z" fill="#E6E6E6"/>
<path d="M33.3333 5.29412H32V6.61765H33.3333V5.29412Z" fill="#E6E6E6"/>
<path d="M34.6667 5.29412H33.3333V6.61765H34.6667V5.29412Z" fill="#E6E6E6"/>
<path d="M36 5.29412H34.6667V6.61765H36V5.29412Z" fill="#E6E6E6"/>
<path d="M37.3333 5.29412H36V6.61765H37.3333V5.29412Z" fill="#E6E6E6"/>
<path d="M38.6667 5.29412H37.3333V6.61765H38.6667V5.29412Z" fill="#E6E6E6"/>
<path d="M40 5.29412H38.6667V6.61765H40V5.29412Z" fill="#E6E6E6"/>
<path d="M41.3333 5.29412H40V6.61765H41.3333V5.29412Z" fill="#E6E6E6"/>
<path d="M42.6667 5.29412H41.3333V6.61765H42.6667V5.29412Z" fill="#ACACAC"/>
<path d="M44 5.29412H42.6667V6.61765H44V5.29412Z" fill="#E6E6E6"/>
<path d="M45.3333 5.29412H44V6.61765H45.3333V5.29412Z" fill="#ACACAC"/>
<path d="M46.6667 5.29412H45.3333V6.61765H46.6667V5.29412Z" fill="#ACACAC"/>
<path d="M48 5.29412H46.6667V6.61765H48V5.29412Z" fill="#ACACAC"/>
<path d="M49.3333 5.29412H48V6.61765H49.3333V5.29412Z" fill="#747474"/>
<path d="M20 6.61765H18.6667V7.94118H20V6.61765Z" fill="#ACACAC"/>
<path d="M21.3333 6.61765H20V7.94118H21.3333V6.61765Z" fill="white"/>
<path d="M22.6667 6.61765H21.3333V7.94118H22.6667V6.61765Z" fill="white"/>
<path d="M24 6.61765H22.6667V7.94118H24V6.61765Z" fill="#E6E6E6"/>
<path d="M25.3333 6.61765H24V7.94118H25.3333V6.61765Z" fill="#E6E6E6"/>
<path d="M26.6667 6.61765H25.3333V7.94118H26.6667V6.61765Z" fill="#ACACAC"/>
<path d="M28 6.61765H26.6667V7.94118H28V6.61765Z" fill="#E6E6E6"/>
<path d="M29.3333 6.61765H28V7.94118H29.3333V6.61765Z" fill="#E6E6E6"/>
<path d="M30.6667 6.61765H29.3333V7.94118H30.6667V6.61765Z" fill="#E6E6E6"/>
<path d="M32 6.61765H30.6667V7.94118H32V6.61765Z" fill="#E6E6E6"/>
<path d="M33.3333 6.61765H32V7.94118H33.3333V6.61765Z" fill="#E6E6E6"/>
<path d="M34.6667 6.61765H33.3333V7.94118H34.6667V6.61765Z" fill="#E6E6E6"/>
<path d="M36 6.61765H34.6667V7.94118H36V6.61765Z" fill="#E6E6E6"/>
<path d="M37.3333 6.61765H36V7.94118H37.3333V6.61765Z" fill="#E6E6E6"/>
<path d="M38.6667 6.61765H37.3333V7.94118H38.6667V6.61765Z" fill="#E6E6E6"/>
<path d="M40 6.61765H38.6667V7.94118H40V6.61765Z" fill="#E6E6E6"/>
<path d="M41.3333 6.61765H40V7.94118H41.3333V6.61765Z" fill="#E6E6E6"/>
<path d="M42.6667 6.61765H41.3333V7.94118H42.6667V6.61765Z" fill="#ACACAC"/>
<path d="M44 6.61765H42.6667V7.94118H44V6.61765Z" fill="#E6E6E6"/>
<path d="M45.3333 6.61765H44V7.94118H45.3333V6.61765Z" fill="#ACACAC"/>
<path d="M46.6667 6.61765H45.3333V7.94118H46.6667V6.61765Z" fill="#ACACAC"/>
<path d="M48 6.61765H46.6667V7.94118H48V6.61765Z" fill="#ACACAC"/>
<path d="M49.3333 6.61765H48V7.94118H49.3333V6.61765Z" fill="#747474"/>
<path d="M50.6667 6.61765H49.3333V7.94118H50.6667V6.61765Z" fill="#747474"/>
<path d="M18.6667 7.94118H17.3333V9.26471H18.6667V7.94118Z" fill="#ACACAC"/>
<path d="M20 7.94118H18.6667V9.26471H20V7.94118Z" fill="white"/>
<path d="M21.3333 7.94118H20V9.26471H21.3333V7.94118Z" fill="#E6E6E6"/>
<path d="M22.6667 7.94118H21.3333V9.26471H22.6667V7.94118Z" fill="#E6E6E6"/>
<path d="M24 7.94118H22.6667V9.26471H24V7.94118Z" fill="#E6E6E6"/>
<path d="M25.3333 7.94118H24V9.26471H25.3333V7.94118Z" fill="#ACACAC"/>
<path d="M26.6667 7.94118H25.3333V9.26471H26.6667V7.94118Z" fill="#E6E6E6"/>
<path d="M28 7.94118H26.6667V9.26471H28V7.94118Z" fill="#E6E6E6"/>
<path d="M29.3333 7.94118H28V9.26471H29.3333V7.94118Z" fill="#E6E6E6"/>
<path d="M30.6667 7.94118H29.3333V9.26471H30.6667V7.94118Z" fill="#E6E6E6"/>
<path d="M32 7.94118H30.6667V9.26471H32V7.94118Z" fill="#E6E6E6"/>
<path d="M33.3333 7.94118H32V9.26471H33.3333V7.94118Z" fill="#E6E6E6"/>
<path d="M34.6667 7.94118H33.3333V9.26471H34.6667V7.94118Z" fill="#E6E6E6"/>
<path d="M36 7.94118H34.6667V9.26471H36V7.94118Z" fill="#E6E6E6"/>
<path d="M37.3333 7.94118H36V9.26471H37.3333V7.94118Z" fill="#E6E6E6"/>
<path d="M38.6667 7.94118H37.3333V9.26471H38.6667V7.94118Z" fill="#E6E6E6"/>
<path d="M40 7.94118H38.6667V9.26471H40V7.94118Z" fill="#E6E6E6"/>
<path d="M41.3333 7.94118H40V9.26471H41.3333V7.94118Z" fill="#E6E6E6"/>
<path d="M42.6667 7.94118H41.3333V9.26471H42.6667V7.94118Z" fill="#E6E6E6"/>
<path d="M44 7.94118H42.6667V9.26471H44V7.94118Z" fill="#ACACAC"/>
<path d="M45.3333 7.94118H44V9.26471H45.3333V7.94118Z" fill="#E6E6E6"/>
<path d="M46.6667 7.94118H45.3333V9.26471H46.6667V7.94118Z" fill="#ACACAC"/>
<path d="M48 7.94118H46.6667V9.26471H48V7.94118Z" fill="#ACACAC"/>
<path d="M49.3333 7.94118H48V9.26471H49.3333V7.94118Z" fill="#747474"/>
<path d="M50.6667 7.94118H49.3333V9.26471H50.6667V7.94118Z" fill="#747474"/>
<path d="M52 7.94118H50.6667V9.26471H52V7.94118Z" fill="#747474"/>
<path d="M17.3333 9.26471H16V10.5882H17.3333V9.26471Z" fill="#ACACAC"/>
<path d="M18.6667 9.26471H17.3333V10.5882H18.6667V9.26471Z" fill="white"/>
<path d="M20 9.26471H18.6667V10.5882H20V9.26471Z" fill="#E6E6E6"/>
<path d="M21.3333 9.26471H20V10.5882H21.3333V9.26471Z" fill="#E6E6E6"/>
<path d="M22.6667 9.26471H21.3333V10.5882H22.6667V9.26471Z" fill="#E6E6E6"/>
<path d="M24 9.26471H22.6667V10.5882H24V9.26471Z" fill="#E6E6E6"/>
<path d="M25.3333 9.26471H24V10.5882H25.3333V9.26471Z" fill="#ACACAC"/>
<path d="M26.6667 9.26471H25.3333V10.5882H26.6667V9.26471Z" fill="#E6E6E6"/>
<path d="M28 9.26471H26.6667V10.5882H28V9.26471Z" fill="#E6E6E6"/>
<path d="M29.3333 9.26471H28V10.5882H29.3333V9.26471Z" fill="#E6E6E6"/>
<path d="M30.6667 9.26471H29.3333V10.5882H30.6667V9.26471Z" fill="#E6E6E6"/>
<path d="M32 9.26471H30.6667V10.5882H32V9.26471Z" fill="#E6E6E6"/>
<path d="M33.3333 9.26471H32V10.5882H33.3333V9.26471Z" fill="#E6E6E6"/>
<path d="M34.6667 9.26471H33.3333V10.5882H34.6667V9.26471Z" fill="#E6E6E6"/>
<path d="M36 9.26471H34.6667V10.5882H36V9.26471Z" fill="#E6E6E6"/>
<path d="M37.3333 9.26471H36V10.5882H37.3333V9.26471Z" fill="#E6E6E6"/>
<path d="M38.6667 9.26471H37.3333V10.5882H38.6667V9.26471Z" fill="#E6E6E6"/>
<path d="M40 9.26471H38.6667V10.5882H40V9.26471Z" fill="#E6E6E6"/>
<path d="M41.3333 9.26471H40V10.5882H41.3333V9.26471Z" fill="#E6E6E6"/>
<path d="M42.6667 9.26471H41.3333V10.5882H42.6667V9.26471Z" fill="#E6E6E6"/>
<path d="M44 9.26471H42.6667V10.5882H44V9.26471Z" fill="#ACACAC"/>
<path d="M45.3333 9.26471H44V10.5882H45.3333V9.26471Z" fill="#E6E6E6"/>
<path d="M46.6667 9.26471H45.3333V10.5882H46.6667V9.26471Z" fill="#ACACAC"/>
<path d="M48 9.26471H46.6667V10.5882H48V9.26471Z" fill="#ACACAC"/>
<path d="M49.3333 9.26471H48V10.5882H49.3333V9.26471Z" fill="#747474"/>
<path d="M50.6667 9.26471H49.3333V10.5882H50.6667V9.26471Z" fill="#747474"/>
<path d="M52 9.26471H50.6667V10.5882H52V9.26471Z" fill="#747474"/>
<path d="M53.3333 9.26471H52V10.5882H53.3333V9.26471Z" fill="#747474"/>
<path d="M17.3333 10.5882H16V11.9118H17.3333V10.5882Z" fill="#ACACAC"/>
<path d="M18.6667 10.5882H17.3333V11.9118H18.6667V10.5882Z" fill="white"/>
<path d="M20 10.5882H18.6667V11.9118H20V10.5882Z" fill="#E6E6E6"/>
<path d="M21.3333 10.5882H20V11.9118H21.3333V10.5882Z" fill="#E6E6E6"/>
<path d="M22.6667 10.5882H21.3333V11.9118H22.6667V10.5882Z" fill="#E6E6E6"/>
<path d="M24 10.5882H22.6667V11.9118H24V10.5882Z" fill="#ACACAC"/>
<path d="M25.3333 10.5882H24V11.9118H25.3333V10.5882Z" fill="#E6E6E6"/>
<path d="M26.6667 10.5882H25.3333V11.9118H26.6667V10.5882Z" fill="#E6E6E6"/>
<path d="M28 10.5882H26.6667V11.9118H28V10.5882Z" fill="#E6E6E6"/>
<path d="M29.3333 10.5882H28V11.9118H29.3333V10.5882Z" fill="#E6E6E6"/>
<path d="M30.6667 10.5882H29.3333V11.9118H30.6667V10.5882Z" fill="#E6E6E6"/>
<path d="M32 10.5882H30.6667V11.9118H32V10.5882Z" fill="#E6E6E6"/>
<path d="M33.3333 10.5882H32V11.9118H33.3333V10.5882Z" fill="#E6E6E6"/>
<path d="M34.6667 10.5882H33.3333V11.9118H34.6667V10.5882Z" fill="#E6E6E6"/>
<path d="M36 10.5882H34.6667V11.9118H36V10.5882Z" fill="#E6E6E6"/>
<path d="M37.3333 10.5882H36V11.9118H37.3333V10.5882Z" fill="#E6E6E6"/>
<path d="M38.6667 10.5882H37.3333V11.9118H38.6667V10.5882Z" fill="#E6E6E6"/>
<path d="M40 10.5882H38.6667V11.9118H40V10.5882Z" fill="#E6E6E6"/>
<path d="M41.3333 10.5882H40V11.9118H41.3333V10.5882Z" fill="#E6E6E6"/>
<path d="M42.6667 10.5882H41.3333V11.9118H42.6667V10.5882Z" fill="#E6E6E6"/>
<path d="M44 10.5882H42.6667V11.9118H44V10.5882Z" fill="#ACACAC"/>
<path d="M45.3333 10.5882H44V11.9118H45.3333V10.5882Z" fill="#E6E6E6"/>
<path d="M46.6667 10.5882H45.3333V11.9118H46.6667V10.5882Z" fill="#ACACAC"/>
<path d="M48 10.5882H46.6667V11.9118H48V10.5882Z" fill="#ACACAC"/>
<path d="M49.3333 10.5882H48V11.9118H49.3333V10.5882Z" fill="#ACACAC"/>
<path d="M50.6667 10.5882H49.3333V11.9118H50.6667V10.5882Z" fill="#747474"/>
<path d="M52 10.5882H50.6667V11.9118H52V10.5882Z" fill="#747474"/>
<path d="M53.3333 10.5882H52V11.9118H53.3333V10.5882Z" fill="#747474"/>
<path d="M16 11.9118H14.6667V13.2353H16V11.9118Z" fill="#ACACAC"/>
<path d="M17.3333 11.9118H16V13.2353H17.3333V11.9118Z" fill="white"/>
<path d="M18.6667 11.9118H17.3333V13.2353H18.6667V11.9118Z" fill="#E6E6E6"/>
<path d="M20 11.9118H18.6667V13.2353H20V11.9118Z" fill="#E6E6E6"/>
<path d="M21.3333 11.9118H20V13.2353H21.3333V11.9118Z" fill="#E6E6E6"/>
<path d="M22.6667 11.9118H21.3333V13.2353H22.6667V11.9118Z" fill="#E6E6E6"/>
<path d="M24 11.9118H22.6667V13.2353H24V11.9118Z" fill="#ACACAC"/>
<path d="M25.3333 11.9118H24V13.2353H25.3333V11.9118Z" fill="#E6E6E6"/>
<path d="M26.6667 11.9118H25.3333V13.2353H26.6667V11.9118Z" fill="#E6E6E6"/>
<path d="M28 11.9118H26.6667V13.2353H28V11.9118Z" fill="#E6E6E6"/>
<path d="M29.3333 11.9118H28V13.2353H29.3333V11.9118Z" fill="#E6E6E6"/>
<path d="M30.6667 11.9118H29.3333V13.2353H30.6667V11.9118Z" fill="#E6E6E6"/>
<path d="M32 11.9118H30.6667V13.2353H32V11.9118Z" fill="#E6E6E6"/>
<path d="M33.3333 11.9118H32V13.2353H33.3333V11.9118Z" fill="#E6E6E6"/>
<path d="M34.6667 11.9118H33.3333V13.2353H34.6667V11.9118Z" fill="#E6E6E6"/>
<path d="M36 11.9118H34.6667V13.2353H36V11.9118Z" fill="#E6E6E6"/>
<path d="M37.3333 11.9118H36V13.2353H37.3333V11.9118Z" fill="#E6E6E6"/>
<path d="M38.6667 11.9118H37.3333V13.2353H38.6667V11.9118Z" fill="#E6E6E6"/>
<path d="M40 11.9118H38.6667V13.2353H40V11.9118Z" fill="#E6E6E6"/>
<path d="M41.3333 11.9118H40V13.2353H41.3333V11.9118Z" fill="#E6E6E6"/>
<path d="M42.6667 11.9118H41.3333V13.2353H42.6667V11.9118Z" fill="#E6E6E6"/>
<path d="M44 11.9118H42.6667V13.2353H44V11.9118Z" fill="#ACACAC"/>
<path d="M45.3333 11.9118H44V13.2353H45.3333V11.9118Z" fill="#E6E6E6"/>
<path d="M46.6667 11.9118H45.3333V13.2353H46.6667V11.9118Z" fill="#ACACAC"/>
<path d="M48 11.9118H46.6667V13.2353H48V11.9118Z" fill="#ACACAC"/>
<path d="M49.3333 11.9118H48V13.2353H49.3333V11.9118Z" fill="#ACACAC"/>
<path d="M50.6667 11.9118H49.3333V13.2353H50.6667V11.9118Z" fill="#747474"/>
<path d="M52 11.9118H50.6667V13.2353H52V11.9118Z" fill="#747474"/>
<path d="M53.3333 11.9118H52V13.2353H53.3333V11.9118Z" fill="#747474"/>
<path d="M54.6667 11.9118H53.3333V13.2353H54.6667V11.9118Z" fill="#747474"/>
<path d="M16 13.2353H14.6667V14.5588H16V13.2353Z" fill="#ACACAC"/>
<path d="M17.3333 13.2353H16V14.5588H17.3333V13.2353Z" fill="white"/>
<path d="M18.6667 13.2353H17.3333V14.5588H18.6667V13.2353Z" fill="#E6E6E6"/>
<path d="M20 13.2353H18.6667V14.5588H20V13.2353Z" fill="#E6E6E6"/>
<path d="M21.3333 13.2353H20V14.5588H21.3333V13.2353Z" fill="#E6E6E6"/>
<path d="M22.6667 13.2353H21.3333V14.5588H22.6667V13.2353Z" fill="#E6E6E6"/>
<path d="M24 13.2353H22.6667V14.5588H24V13.2353Z" fill="#ACACAC"/>
<path d="M25.3333 13.2353H24V14.5588H25.3333V13.2353Z" fill="#E6E6E6"/>
<path d="M26.6667 13.2353H25.3333V14.5588H26.6667V13.2353Z" fill="#E6E6E6"/>
<path d="M28 13.2353H26.6667V14.5588H28V13.2353Z" fill="#E6E6E6"/>
<path d="M29.3333 13.2353H28V14.5588H29.3333V13.2353Z" fill="#E6E6E6"/>
<path d="M30.6667 13.2353H29.3333V14.5588H30.6667V13.2353Z" fill="#E6E6E6"/>
<path d="M32 13.2353H30.6667V14.5588H32V13.2353Z" fill="#E6E6E6"/>
<path d="M33.3333 13.2353H32V14.5588H33.3333V13.2353Z" fill="#E6E6E6"/>
<path d="M34.6667 13.2353H33.3333V14.5588H34.6667V13.2353Z" fill="#E6E6E6"/>
<path d="M36 13.2353H34.6667V14.5588H36V13.2353Z" fill="#E6E6E6"/>
<path d="M37.3333 13.2353H36V14.5588H37.3333V13.2353Z" fill="#E6E6E6"/>
<path d="M38.6667 13.2353H37.3333V14.5588H38.6667V13.2353Z" fill="#E6E6E6"/>
<path d="M40 13.2353H38.6667V14.5588H40V13.2353Z" fill="#E6E6E6"/>
<path d="M41.3333 13.2353H40V14.5588H41.3333V13.2353Z" fill="#E6E6E6"/>
<path d="M42.6667 13.2353H41.3333V14.5588H42.6667V13.2353Z" fill="#E6E6E6"/>
<path d="M44 13.2353H42.6667V14.5588H44V13.2353Z" fill="#ACACAC"/>
<path d="M45.3333 13.2353H44V14.5588H45.3333V13.2353Z" fill="#E6E6E6"/>
<path d="M46.6667 13.2353H45.3333V14.5588H46.6667V13.2353Z" fill="#ACACAC"/>
<path d="M48 13.2353H46.6667V14.5588H48V13.2353Z" fill="#ACACAC"/>
<path d="M49.3333 13.2353H48V14.5588H49.3333V13.2353Z" fill="#ACACAC"/>
<path d="M50.6667 13.2353H49.3333V14.5588H50.6667V13.2353Z" fill="#747474"/>
<path d="M52 13.2353H50.6667V14.5588H52V13.2353Z" fill="#747474"/>
<path d="M53.3333 13.2353H52V14.5588H53.3333V13.2353Z" fill="#747474"/>
<path d="M54.6667 13.2353H53.3333V14.5588H54.6667V13.2353Z" fill="#747474"/>
<path d="M14.6667 14.5588H13.3333V15.8824H14.6667V14.5588Z" fill="#ACACAC"/>
<path d="M16 14.5588H14.6667V15.8824H16V14.5588Z" fill="#ACACAC"/>
<path d="M17.3333 14.5588H16V15.8824H17.3333V14.5588Z" fill="#E6E6E6"/>
<path d="M18.6667 14.5588H17.3333V15.8824H18.6667V14.5588Z" fill="#E6E6E6"/>
<path d="M20 14.5588H18.6667V15.8824H20V14.5588Z" fill="#E6E6E6"/>
<path d="M21.3333 14.5588H20V15.8824H21.3333V14.5588Z" fill="#E6E6E6"/>
<path d="M22.6667 14.5588H21.3333V15.8824H22.6667V14.5588Z" fill="#E6E6E6"/>
<path d="M24 14.5588H22.6667V15.8824H24V14.5588Z" fill="#E6E6E6"/>
<path d="M25.3333 14.5588H24V15.8824H25.3333V14.5588Z" fill="#E6E6E6"/>
<path d="M26.6667 14.5588H25.3333V15.8824H26.6667V14.5588Z" fill="#E6E6E6"/>
<path d="M28 14.5588H26.6667V15.8824H28V14.5588Z" fill="#E6E6E6"/>
<path d="M29.3333 14.5588H28V15.8824H29.3333V14.5588Z" fill="#E6E6E6"/>
<path d="M30.6667 14.5588H29.3333V15.8824H30.6667V14.5588Z" fill="#E6E6E6"/>
<path d="M32 14.5588H30.6667V15.8824H32V14.5588Z" fill="#E6E6E6"/>
<path d="M33.3333 14.5588H32V15.8824H33.3333V14.5588Z" fill="#E6E6E6"/>
<path d="M34.6667 14.5588H33.3333V15.8824H34.6667V14.5588Z" fill="#E6E6E6"/>
<path d="M36 14.5588H34.6667V15.8824H36V14.5588Z" fill="#E6E6E6"/>
<path d="M37.3333 14.5588H36V15.8824H37.3333V14.5588Z" fill="#E6E6E6"/>
<path d="M38.6667 14.5588H37.3333V15.8824H38.6667V14.5588Z" fill="#E6E6E6"/>
<path d="M40 14.5588H38.6667V15.8824H40V14.5588Z" fill="#E6E6E6"/>
<path d="M41.3333 14.5588H40V15.8824H41.3333V14.5588Z" fill="#E6E6E6"/>
<path d="M42.6667 14.5588H41.3333V15.8824H42.6667V14.5588Z" fill="#E6E6E6"/>
<path d="M44 14.5588H42.6667V15.8824H44V14.5588Z" fill="#ACACAC"/>
<path d="M45.3333 14.5588H44V15.8824H45.3333V14.5588Z" fill="#ACACAC"/>
<path d="M46.6667 14.5588H45.3333V15.8824H46.6667V14.5588Z" fill="#ACACAC"/>
<path d="M48 14.5588H46.6667V15.8824H48V14.5588Z" fill="#ACACAC"/>
<path d="M49.3333 14.5588H48V15.8824H49.3333V14.5588Z" fill="#ACACAC"/>
<path d="M50.6667 14.5588H49.3333V15.8824H50.6667V14.5588Z" fill="#ACACAC"/>
<path d="M52 14.5588H50.6667V15.8824H52V14.5588Z" fill="#747474"/>
<path d="M53.3333 14.5588H52V15.8824H53.3333V14.5588Z" fill="#747474"/>
<path d="M54.6667 14.5588H53.3333V15.8824H54.6667V14.5588Z" fill="#747474"/>
<path d="M56 14.5588H54.6667V15.8824H56V14.5588Z" fill="#747474"/>
<path d="M14.6667 15.8824H13.3333V17.2059H14.6667V15.8824Z" fill="#ACACAC"/>
<path d="M16 15.8824H14.6667V17.2059H16V15.8824Z" fill="#E6E6E6"/>
<path d="M17.3333 15.8824H16V17.2059H17.3333V15.8824Z" fill="#E6E6E6"/>
<path d="M18.6667 15.8824H17.3333V17.2059H18.6667V15.8824Z" fill="#E6E6E6"/>
<path d="M20 15.8824H18.6667V17.2059H20V15.8824Z" fill="#E6E6E6"/>
<path d="M21.3333 15.8824H20V17.2059H21.3333V15.8824Z" fill="#E6E6E6"/>
<path d="M22.6667 15.8824H21.3333V17.2059H22.6667V15.8824Z" fill="#E6E6E6"/>
<path d="M24 15.8824H22.6667V17.2059H24V15.8824Z" fill="#E6E6E6"/>
<path d="M25.3333 15.8824H24V17.2059H25.3333V15.8824Z" fill="#E6E6E6"/>
<path d="M26.6667 15.8824H25.3333V17.2059H26.6667V15.8824Z" fill="#E6E6E6"/>
<path d="M28 15.8824H26.6667V17.2059H28V15.8824Z" fill="#E6E6E6"/>
<path d="M29.3333 15.8824H28V17.2059H29.3333V15.8824Z" fill="#E6E6E6"/>
<path d="M30.6667 15.8824H29.3333V17.2059H30.6667V15.8824Z" fill="#E6E6E6"/>
<path d="M32 15.8824H30.6667V17.2059H32V15.8824Z" fill="#E6E6E6"/>
<path d="M33.3333 15.8824H32V17.2059H33.3333V15.8824Z" fill="#E6E6E6"/>
<path d="M34.6667 15.8824H33.3333V17.2059H34.6667V15.8824Z" fill="#E6E6E6"/>
<path d="M36 15.8824H34.6667V17.2059H36V15.8824Z" fill="#E6E6E6"/>
<path d="M37.3333 15.8824H36V17.2059H37.3333V15.8824Z" fill="#E6E6E6"/>
<path d="M38.6667 15.8824H37.3333V17.2059H38.6667V15.8824Z" fill="#E6E6E6"/>
<path d="M40 15.8824H38.6667V17.2059H40V15.8824Z" fill="#E6E6E6"/>
<path d="M41.3333 15.8824H40V17.2059H41.3333V15.8824Z" fill="#E6E6E6"/>
<path d="M42.6667 15.8824H41.3333V17.2059H42.6667V15.8824Z" fill="#E6E6E6"/>
<path d="M44 15.8824H42.6667V17.2059H44V15.8824Z" fill="#ACACAC"/>
<path d="M45.3333 15.8824H44V17.2059H45.3333V15.8824Z" fill="#ACACAC"/>
<path d="M46.6667 15.8824H45.3333V17.2059H46.6667V15.8824Z" fill="#ACACAC"/>
<path d="M48 15.8824H46.6667V17.2059H48V15.8824Z" fill="#ACACAC"/>
<path d="M49.3333 15.8824H48V17.2059H49.3333V15.8824Z" fill="#ACACAC"/>
<path d="M50.6667 15.8824H49.3333V17.2059H50.6667V15.8824Z" fill="#ACACAC"/>
<path d="M52 15.8824H50.6667V17.2059H52V15.8824Z" fill="#747474"/>
<path d="M53.3333 15.8824H52V17.2059H53.3333V15.8824Z" fill="#747474"/>
<path d="M54.6667 15.8824H53.3333V17.2059H54.6667V15.8824Z" fill="#747474"/>
<path d="M56 15.8824H54.6667V17.2059H56V15.8824Z" fill="#747474"/>
<path d="M14.6667 17.2059H13.3333V18.5294H14.6667V17.2059Z" fill="#ACACAC"/>
<path d="M16 17.2059H14.6667V18.5294H16V17.2059Z" fill="#E6E6E6"/>
<path d="M17.3333 17.2059H16V18.5294H17.3333V17.2059Z" fill="#E6E6E6"/>
<path d="M18.6667 17.2059H17.3333V18.5294H18.6667V17.2059Z" fill="#E6E6E6"/>
<path d="M20 17.2059H18.6667V18.5294H20V17.2059Z" fill="#E6E6E6"/>
<path d="M21.3333 17.2059H20V18.5294H21.3333V17.2059Z" fill="#E6E6E6"/>
<path d="M22.6667 17.2059H21.3333V18.5294H22.6667V17.2059Z" fill="#ACACAC"/>
<path d="M24 17.2059H22.6667V18.5294H24V17.2059Z" fill="#E6E6E6"/>
<path d="M25.3333 17.2059H24V18.5294H25.3333V17.2059Z" fill="#E6E6E6"/>
<path d="M26.6667 17.2059H25.3333V18.5294H26.6667V17.2059Z" fill="#E6E6E6"/>
<path d="M28 17.2059H26.6667V18.5294H28V17.2059Z" fill="#E6E6E6"/>
<path d="M29.3333 17.2059H28V18.5294H29.3333V17.2059Z" fill="#E6E6E6"/>
<path d="M30.6667 17.2059H29.3333V18.5294H30.6667V17.2059Z" fill="#E6E6E6"/>
<path d="M32 17.2059H30.6667V18.5294H32V17.2059Z" fill="#E6E6E6"/>
<path d="M33.3333 17.2059H32V18.5294H33.3333V17.2059Z" fill="#E6E6E6"/>
<path d="M34.6667 17.2059H33.3333V18.5294H34.6667V17.2059Z" fill="#E6E6E6"/>
<path d="M36 17.2059H34.6667V18.5294H36V17.2059Z" fill="#E6E6E6"/>
<path d="M37.3333 17.2059H36V18.5294H37.3333V17.2059Z" fill="#E6E6E6"/>
<path d="M38.6667 17.2059H37.3333V18.5294H38.6667V17.2059Z" fill="#E6E6E6"/>
<path d="M40 17.2059H38.6667V18.5294H40V17.2059Z" fill="#E6E6E6"/>
<path d="M41.3333 17.2059H40V18.5294H41.3333V17.2059Z" fill="#E6E6E6"/>
<path d="M42.6667 17.2059H41.3333V18.5294H42.6667V17.2059Z" fill="#ACACAC"/>
<path d="M44 17.2059H42.6667V18.5294H44V17.2059Z" fill="#ACACAC"/>
<path d="M45.3333 17.2059H44V18.5294H45.3333V17.2059Z" fill="#ACACAC"/>
<path d="M46.6667 17.2059H45.3333V18.5294H46.6667V17.2059Z" fill="#ACACAC"/>
<path d="M48 17.2059H46.6667V18.5294H48V17.2059Z" fill="#ACACAC"/>
<path d="M49.3333 17.2059H48V18.5294H49.3333V17.2059Z" fill="#ACACAC"/>
<path d="M50.6667 17.2059H49.3333V18.5294H50.6667V17.2059Z" fill="#ACACAC"/>
<path d="M52 17.2059H50.6667V18.5294H52V17.2059Z" fill="#747474"/>
<path d="M53.3333 17.2059H52V18.5294H53.3333V17.2059Z" fill="#747474"/>
<path d="M54.6667 17.2059H53.3333V18.5294H54.6667V17.2059Z" fill="#747474"/>
<path d="M56 17.2059H54.6667V18.5294H56V17.2059Z" fill="#747474"/>
<path d="M14.6667 18.5294H13.3333V19.8529H14.6667V18.5294Z" fill="#ACACAC"/>
<path d="M16 18.5294H14.6667V19.8529H16V18.5294Z" fill="#E6E6E6"/>
<path d="M17.3333 18.5294H16V19.8529H17.3333V18.5294Z" fill="#E6E6E6"/>
<path d="M18.6667 18.5294H17.3333V19.8529H18.6667V18.5294Z" fill="#E6E6E6"/>
<path d="M20 18.5294H18.6667V19.8529H20V18.5294Z" fill="#E6E6E6"/>
<path d="M21.3333 18.5294H20V19.8529H21.3333V18.5294Z" fill="#E6E6E6"/>
<path d="M22.6667 18.5294H21.3333V19.8529H22.6667V18.5294Z" fill="#ACACAC"/>
<path d="M24 18.5294H22.6667V19.8529H24V18.5294Z" fill="#E6E6E6"/>
<path d="M25.3333 18.5294H24V19.8529H25.3333V18.5294Z" fill="#E6E6E6"/>
<path d="M26.6667 18.5294H25.3333V19.8529H26.6667V18.5294Z" fill="#E6E6E6"/>
<path d="M28 18.5294H26.6667V19.8529H28V18.5294Z" fill="#E6E6E6"/>
<path d="M29.3333 18.5294H28V19.8529H29.3333V18.5294Z" fill="#E6E6E6"/>
<path d="M30.6667 18.5294H29.3333V19.8529H30.6667V18.5294Z" fill="#E6E6E6"/>
<path d="M32 18.5294H30.6667V19.8529H32V18.5294Z" fill="#E6E6E6"/>
<path d="M33.3333 18.5294H32V19.8529H33.3333V18.5294Z" fill="#E6E6E6"/>
<path d="M34.6667 18.5294H33.3333V19.8529H34.6667V18.5294Z" fill="#E6E6E6"/>
<path d="M36 18.5294H34.6667V19.8529H36V18.5294Z" fill="#E6E6E6"/>
<path d="M37.3333 18.5294H36V19.8529H37.3333V18.5294Z" fill="#E6E6E6"/>
<path d="M38.6667 18.5294H37.3333V19.8529H38.6667V18.5294Z" fill="#E6E6E6"/>
<path d="M40 18.5294H38.6667V19.8529H40V18.5294Z" fill="#E6E6E6"/>
<path d="M41.3333 18.5294H40V19.8529H41.3333V18.5294Z" fill="#E6E6E6"/>
<path d="M42.6667 18.5294H41.3333V19.8529H42.6667V18.5294Z" fill="#ACACAC"/>
<path d="M44 18.5294H42.6667V19.8529H44V18.5294Z" fill="#ACACAC"/>
<path d="M45.3333 18.5294H44V19.8529H45.3333V18.5294Z" fill="#ACACAC"/>
<path d="M46.6667 18.5294H45.3333V19.8529H46.6667V18.5294Z" fill="#ACACAC"/>
<path d="M48 18.5294H46.6667V19.8529H48V18.5294Z" fill="#ACACAC"/>
<path d="M49.3333 18.5294H48V19.8529H49.3333V18.5294Z" fill="#ACACAC"/>
<path d="M50.6667 18.5294H49.3333V19.8529H50.6667V18.5294Z" fill="#ACACAC"/>
<path d="M52 18.5294H50.6667V19.8529H52V18.5294Z" fill="#747474"/>
<path d="M53.3333 18.5294H52V19.8529H53.3333V18.5294Z" fill="#747474"/>
<path d="M54.6667 18.5294H53.3333V19.8529H54.6667V18.5294Z" fill="#747474"/>
<path d="M56 18.5294H54.6667V19.8529H56V18.5294Z" fill="#747474"/>
<path d="M14.6667 19.8529H13.3333V21.1765H14.6667V19.8529Z" fill="#ACACAC"/>
<path d="M16 19.8529H14.6667V21.1765H16V19.8529Z" fill="#E6E6E6"/>
<path d="M17.3333 19.8529H16V21.1765H17.3333V19.8529Z" fill="#E6E6E6"/>
<path d="M18.6667 19.8529H17.3333V21.1765H18.6667V19.8529Z" fill="#E6E6E6"/>
<path d="M20 19.8529H18.6667V21.1765H20V19.8529Z" fill="#E6E6E6"/>
<path d="M21.3333 19.8529H20V21.1765H21.3333V19.8529Z" fill="#E6E6E6"/>
<path d="M22.6667 19.8529H21.3333V21.1765H22.6667V19.8529Z" fill="#ACACAC"/>
<path d="M24 19.8529H22.6667V21.1765H24V19.8529Z" fill="#E6E6E6"/>
<path d="M25.3333 19.8529H24V21.1765H25.3333V19.8529Z" fill="#E6E6E6"/>
<path d="M26.6667 19.8529H25.3333V21.1765H26.6667V19.8529Z" fill="#E6E6E6"/>
<path d="M28 19.8529H26.6667V21.1765H28V19.8529Z" fill="#E6E6E6"/>
<path d="M29.3333 19.8529H28V21.1765H29.3333V19.8529Z" fill="#E6E6E6"/>
<path d="M30.6667 19.8529H29.3333V21.1765H30.6667V19.8529Z" fill="#E6E6E6"/>
<path d="M32 19.8529H30.6667V21.1765H32V19.8529Z" fill="#E6E6E6"/>
<path d="M33.3333 19.8529H32V21.1765H33.3333V19.8529Z" fill="#E6E6E6"/>
<path d="M34.6667 19.8529H33.3333V21.1765H34.6667V19.8529Z" fill="#E6E6E6"/>
<path d="M36 19.8529H34.6667V21.1765H36V19.8529Z" fill="#E6E6E6"/>
<path d="M37.3333 19.8529H36V21.1765H37.3333V19.8529Z" fill="#E6E6E6"/>
<path d="M38.6667 19.8529H37.3333V21.1765H38.6667V19.8529Z" fill="#E6E6E6"/>
<path d="M40 19.8529H38.6667V21.1765H40V19.8529Z" fill="#E6E6E6"/>
<path d="M41.3333 19.8529H40V21.1765H41.3333V19.8529Z" fill="#ACACAC"/>
<path d="M42.6667 19.8529H41.3333V21.1765H42.6667V19.8529Z" fill="#E6E6E6"/>
<path d="M44 19.8529H42.6667V21.1765H44V19.8529Z" fill="#ACACAC"/>
<path d="M45.3333 19.8529H44V21.1765H45.3333V19.8529Z" fill="#ACACAC"/>
<path d="M46.6667 19.8529H45.3333V21.1765H46.6667V19.8529Z" fill="#ACACAC"/>
<path d="M48 19.8529H46.6667V21.1765H48V19.8529Z" fill="#ACACAC"/>
<path d="M49.3333 19.8529H48V21.1765H49.3333V19.8529Z" fill="#747474"/>
<path d="M50.6667 19.8529H49.3333V21.1765H50.6667V19.8529Z" fill="#ACACAC"/>
<path d="M52 19.8529H50.6667V21.1765H52V19.8529Z" fill="#747474"/>
<path d="M53.3333 19.8529H52V21.1765H53.3333V19.8529Z" fill="#747474"/>
<path d="M54.6667 19.8529H53.3333V21.1765H54.6667V19.8529Z" fill="#747474"/>
<path d="M56 19.8529H54.6667V21.1765H56V19.8529Z" fill="#747474"/>
<path d="M14.6667 21.1765H13.3333V22.5H14.6667V21.1765Z" fill="#ACACAC"/>
<path d="M16 21.1765H14.6667V22.5H16V21.1765Z" fill="#E6E6E6"/>
<path d="M17.3333 21.1765H16V22.5H17.3333V21.1765Z" fill="#E6E6E6"/>
<path d="M18.6667 21.1765H17.3333V22.5H18.6667V21.1765Z" fill="#E6E6E6"/>
<path d="M20 21.1765H18.6667V22.5H20V21.1765Z" fill="#ACACAC"/>
<path d="M21.3333 21.1765H20V22.5H21.3333V21.1765Z" fill="#ACACAC"/>
<path d="M22.6667 21.1765H21.3333V22.5H22.6667V21.1765Z" fill="#ACACAC"/>
<path d="M24 21.1765H22.6667V22.5H24V21.1765Z" fill="#ACACAC"/>
<path d="M25.3333 21.1765H24V22.5H25.3333V21.1765Z" fill="#ACACAC"/>
<path d="M26.6667 21.1765H25.3333V22.5H26.6667V21.1765Z" fill="#E6E6E6"/>
<path d="M28 21.1765H26.6667V22.5H28V21.1765Z" fill="#E6E6E6"/>
<path d="M29.3333 21.1765H28V22.5H29.3333V21.1765Z" fill="#E6E6E6"/>
<path d="M30.6667 21.1765H29.3333V22.5H30.6667V21.1765Z" fill="#E6E6E6"/>
<path d="M32 21.1765H30.6667V22.5H32V21.1765Z" fill="#E6E6E6"/>
<path d="M33.3333 21.1765H32V22.5H33.3333V21.1765Z" fill="#E6E6E6"/>
<path d="M34.6667 21.1765H33.3333V22.5H34.6667V21.1765Z" fill="#E6E6E6"/>
<path d="M36 21.1765H34.6667V22.5H36V21.1765Z" fill="#E6E6E6"/>
<path d="M37.3333 21.1765H36V22.5H37.3333V21.1765Z" fill="#E6E6E6"/>
<path d="M38.6667 21.1765H37.3333V22.5H38.6667V21.1765Z" fill="#E6E6E6"/>
<path d="M40 21.1765H38.6667V22.5H40V21.1765Z" fill="#ACACAC"/>
<path d="M41.3333 21.1765H40V22.5H41.3333V21.1765Z" fill="#E6E6E6"/>
<path d="M42.6667 21.1765H41.3333V22.5H42.6667V21.1765Z" fill="#ACACAC"/>
<path d="M44 21.1765H42.6667V22.5H44V21.1765Z" fill="#ACACAC"/>
<path d="M45.3333 21.1765H44V22.5H45.3333V21.1765Z" fill="#ACACAC"/>
<path d="M46.6667 21.1765H45.3333V22.5H46.6667V21.1765Z" fill="#ACACAC"/>
<path d="M48 21.1765H46.6667V22.5H48V21.1765Z" fill="#ACACAC"/>
<path d="M49.3333 21.1765H48V22.5H49.3333V21.1765Z" fill="#747474"/>
<path d="M50.6667 21.1765H49.3333V22.5H50.6667V21.1765Z" fill="#ACACAC"/>
<path d="M52 21.1765H50.6667V22.5H52V21.1765Z" fill="#747474"/>
<path d="M53.3333 21.1765H52V22.5H53.3333V21.1765Z" fill="#747474"/>
<path d="M54.6667 21.1765H53.3333V22.5H54.6667V21.1765Z" fill="#747474"/>
<path d="M56 21.1765H54.6667V22.5H56V21.1765Z" fill="#747474"/>
<path d="M14.6667 22.5H13.3333V23.8235H14.6667V22.5Z" fill="#ACACAC"/>
<path d="M16 22.5H14.6667V23.8235H16V22.5Z" fill="#ACACAC"/>
<path d="M17.3333 22.5H16V23.8235H17.3333V22.5Z" fill="#ACACAC"/>
<path d="M18.6667 22.5H17.3333V23.8235H18.6667V22.5Z" fill="#ACACAC"/>
<path d="M20 22.5H18.6667V23.8235H20V22.5Z" fill="#ACACAC"/>
<path d="M21.3333 22.5H20V23.8235H21.3333V22.5Z" fill="#ACACAC"/>
<path d="M22.6667 22.5H21.3333V23.8235H22.6667V22.5Z" fill="#ACACAC"/>
<path d="M24 22.5H22.6667V23.8235H24V22.5Z" fill="#ACACAC"/>
<path d="M25.3333 22.5H24V23.8235H25.3333V22.5Z" fill="#ACACAC"/>
<path d="M26.6667 22.5H25.3333V23.8235H26.6667V22.5Z" fill="#ACACAC"/>
<path d="M28 22.5H26.6667V23.8235H28V22.5Z" fill="#ACACAC"/>
<path d="M29.3333 22.5H28V23.8235H29.3333V22.5Z" fill="#ACACAC"/>
<path d="M30.6667 22.5H29.3333V23.8235H30.6667V22.5Z" fill="#ACACAC"/>
<path d="M32 22.5H30.6667V23.8235H32V22.5Z" fill="#E6E6E6"/>
<path d="M33.3333 22.5H32V23.8235H33.3333V22.5Z" fill="#E6E6E6"/>
<path d="M34.6667 22.5H33.3333V23.8235H34.6667V22.5Z" fill="#E6E6E6"/>
<path d="M36 22.5H34.6667V23.8235H36V22.5Z" fill="#E6E6E6"/>
<path d="M37.3333 22.5H36V23.8235H37.3333V22.5Z" fill="#E6E6E6"/>
<path d="M38.6667 22.5H37.3333V23.8235H38.6667V22.5Z" fill="#ACACAC"/>
<path d="M40 22.5H38.6667V23.8235H40V22.5Z" fill="#E6E6E6"/>
<path d="M41.3333 22.5H40V23.8235H41.3333V22.5Z" fill="#ACACAC"/>
<path d="M42.6667 22.5H41.3333V23.8235H42.6667V22.5Z" fill="#ACACAC"/>
<path d="M44 22.5H42.6667V23.8235H44V22.5Z" fill="#ACACAC"/>
<path d="M45.3333 22.5H44V23.8235H45.3333V22.5Z" fill="#ACACAC"/>
<path d="M46.6667 22.5H45.3333V23.8235H46.6667V22.5Z" fill="#ACACAC"/>
<path d="M48 22.5H46.6667V23.8235H48V22.5Z" fill="#747474"/>
<path d="M49.3333 22.5H48V23.8235H49.3333V22.5Z" fill="#ACACAC"/>
<path d="M50.6667 22.5H49.3333V23.8235H50.6667V22.5Z" fill="#747474"/>
<path d="M52 22.5H50.6667V23.8235H52V22.5Z" fill="#747474"/>
<path d="M53.3333 22.5H52V23.8235H53.3333V22.5Z" fill="#747474"/>
<path d="M54.6667 22.5H53.3333V23.8235H54.6667V22.5Z" fill="#747474"/>
<path d="M56 22.5H54.6667V23.8235H56V22.5Z" fill="#747474"/>
<path d="M13.3333 23.8235H12V25.1471H13.3333V23.8235Z" fill="#ACACAC"/>
<path d="M14.6667 23.8235H13.3333V25.1471H14.6667V23.8235Z" fill="white"/>
<path d="M16 23.8235H14.6667V25.1471H16V23.8235Z" fill="white"/>
<path d="M17.3333 23.8235H16V25.1471H17.3333V23.8235Z" fill="#E6E6E6"/>
<path d="M18.6667 23.8235H17.3333V25.1471H18.6667V23.8235Z" fill="#E6E6E6"/>
<path d="M20 23.8235H18.6667V25.1471H20V23.8235Z" fill="#E6E6E6"/>
<path d="M21.3333 23.8235H20V25.1471H21.3333V23.8235Z" fill="#E6E6E6"/>
<path d="M22.6667 23.8235H21.3333V25.1471H22.6667V23.8235Z" fill="#E6E6E6"/>
<path d="M24 23.8235H22.6667V25.1471H24V23.8235Z" fill="#E6E6E6"/>
<path d="M25.3333 23.8235H24V25.1471H25.3333V23.8235Z" fill="#E6E6E6"/>
<path d="M26.6667 23.8235H25.3333V25.1471H26.6667V23.8235Z" fill="#E6E6E6"/>
<path d="M28 23.8235H26.6667V25.1471H28V23.8235Z" fill="#ACACAC"/>
<path d="M29.3333 23.8235H28V25.1471H29.3333V23.8235Z" fill="#ACACAC"/>
<path d="M30.6667 23.8235H29.3333V25.1471H30.6667V23.8235Z" fill="#ACACAC"/>
<path d="M32 23.8235H30.6667V25.1471H32V23.8235Z" fill="#ACACAC"/>
<path d="M33.3333 23.8235H32V25.1471H33.3333V23.8235Z" fill="#ACACAC"/>
<path d="M34.6667 23.8235H33.3333V25.1471H34.6667V23.8235Z" fill="#E6E6E6"/>
<path d="M36 23.8235H34.6667V25.1471H36V23.8235Z" fill="#E6E6E6"/>
<path d="M37.3333 23.8235H36V25.1471H37.3333V23.8235Z" fill="#ACACAC"/>
<path d="M38.6667 23.8235H37.3333V25.1471H38.6667V23.8235Z" fill="#ACACAC"/>
<path d="M40 23.8235H38.6667V25.1471H40V23.8235Z" fill="#ACACAC"/>
<path d="M41.3333 23.8235H40V25.1471H41.3333V23.8235Z" fill="#ACACAC"/>
<path d="M42.6667 23.8235H41.3333V25.1471H42.6667V23.8235Z" fill="#ACACAC"/>
<path d="M44 23.8235H42.6667V25.1471H44V23.8235Z" fill="#ACACAC"/>
<path d="M45.3333 23.8235H44V25.1471H45.3333V23.8235Z" fill="#ACACAC"/>
<path d="M46.6667 23.8235H45.3333V25.1471H46.6667V23.8235Z" fill="#ACACAC"/>
<path d="M48 23.8235H46.6667V25.1471H48V23.8235Z" fill="#747474"/>
<path d="M49.3333 23.8235H48V25.1471H49.3333V23.8235Z" fill="#ACACAC"/>
<path d="M50.6667 23.8235H49.3333V25.1471H50.6667V23.8235Z" fill="#747474"/>
<path d="M52 23.8235H50.6667V25.1471H52V23.8235Z" fill="#747474"/>
<path d="M53.3333 23.8235H52V25.1471H53.3333V23.8235Z" fill="#747474"/>
<path d="M54.6667 23.8235H53.3333V25.1471H54.6667V23.8235Z" fill="#747474"/>
<path d="M56 23.8235H54.6667V25.1471H56V23.8235Z" fill="#747474"/>
<path d="M12 25.1471H10.6667V26.4706H12V25.1471Z" fill="#ACACAC"/>
<path d="M13.3333 25.1471H12V26.4706H13.3333V25.1471Z" fill="white"/>
<path d="M14.6667 25.1471H13.3333V26.4706H14.6667V25.1471Z" fill="white"/>
<path d="M16 25.1471H14.6667V26.4706H16V25.1471Z" fill="#E6E6E6"/>
<path d="M17.3333 25.1471H16V26.4706H17.3333V25.1471Z" fill="#E6E6E6"/>
<path d="M18.6667 25.1471H17.3333V26.4706H18.6667V25.1471Z" fill="#E6E6E6"/>
<path d="M20 25.1471H18.6667V26.4706H20V25.1471Z" fill="#E6E6E6"/>
<path d="M21.3333 25.1471H20V26.4706H21.3333V25.1471Z" fill="#E6E6E6"/>
<path d="M22.6667 25.1471H21.3333V26.4706H22.6667V25.1471Z" fill="#E6E6E6"/>
<path d="M24 25.1471H22.6667V26.4706H24V25.1471Z" fill="#E6E6E6"/>
<path d="M25.3333 25.1471H24V26.4706H25.3333V25.1471Z" fill="#E6E6E6"/>
<path d="M26.6667 25.1471H25.3333V26.4706H26.6667V25.1471Z" fill="#E6E6E6"/>
<path d="M28 25.1471H26.6667V26.4706H28V25.1471Z" fill="#E6E6E6"/>
<path d="M29.3333 25.1471H28V26.4706H29.3333V25.1471Z" fill="#E6E6E6"/>
<path d="M30.6667 25.1471H29.3333V26.4706H30.6667V25.1471Z" fill="#E6E6E6"/>
<path d="M32 25.1471H30.6667V26.4706H32V25.1471Z" fill="#E6E6E6"/>
<path d="M33.3333 25.1471H32V26.4706H33.3333V25.1471Z" fill="#ACACAC"/>
<path d="M34.6667 25.1471H33.3333V26.4706H34.6667V25.1471Z" fill="#ACACAC"/>
<path d="M36 25.1471H34.6667V26.4706H36V25.1471Z" fill="#ACACAC"/>
<path d="M37.3333 25.1471H36V26.4706H37.3333V25.1471Z" fill="#747474"/>
<path d="M38.6667 25.1471H37.3333V26.4706H38.6667V25.1471Z" fill="#747474"/>
<path d="M40 25.1471H38.6667V26.4706H40V25.1471Z" fill="#747474"/>
<path d="M41.3333 25.1471H40V26.4706H41.3333V25.1471Z" fill="#ACACAC"/>
<path d="M42.6667 25.1471H41.3333V26.4706H42.6667V25.1471Z" fill="#ACACAC"/>
<path d="M44 25.1471H42.6667V26.4706H44V25.1471Z" fill="#ACACAC"/>
<path d="M45.3333 25.1471H44V26.4706H45.3333V25.1471Z" fill="#ACACAC"/>
<path d="M46.6667 25.1471H45.3333V26.4706H46.6667V25.1471Z" fill="#ACACAC"/>
<path d="M48 25.1471H46.6667V26.4706H48V25.1471Z" fill="#ACACAC"/>
<path d="M49.3333 25.1471H48V26.4706H49.3333V25.1471Z" fill="#747474"/>
<path d="M50.6667 25.1471H49.3333V26.4706H50.6667V25.1471Z" fill="#747474"/>
<path d="M52 25.1471H50.6667V26.4706H52V25.1471Z" fill="#747474"/>
<path d="M53.3333 25.1471H52V26.4706H53.3333V25.1471Z" fill="#747474"/>
<path d="M54.6667 25.1471H53.3333V26.4706H54.6667V25.1471Z" fill="#747474"/>
<path d="M56 25.1471H54.6667V26.4706H56V25.1471Z" fill="#747474"/>
<path d="M9.33333 26.4706H8V27.7941H9.33333V26.4706Z" fill="#ACACAC"/>
<path d="M10.6667 26.4706H9.33333V27.7941H10.6667V26.4706Z" fill="#ACACAC"/>
<path d="M12 26.4706H10.6667V27.7941H12V26.4706Z" fill="white"/>
<path d="M13.3333 26.4706H12V27.7941H13.3333V26.4706Z" fill="#E6E6E6"/>
<path d="M14.6667 26.4706H13.3333V27.7941H14.6667V26.4706Z" fill="#E6E6E6"/>
<path d="M16 26.4706H14.6667V27.7941H16V26.4706Z" fill="#E6E6E6"/>
<path d="M17.3333 26.4706H16V27.7941H17.3333V26.4706Z" fill="#E6E6E6"/>
<path d="M18.6667 26.4706H17.3333V27.7941H18.6667V26.4706Z" fill="#E6E6E6"/>
<path d="M20 26.4706H18.6667V27.7941H20V26.4706Z" fill="#E6E6E6"/>
<path d="M21.3333 26.4706H20V27.7941H21.3333V26.4706Z" fill="#E6E6E6"/>
<path d="M22.6667 26.4706H21.3333V27.7941H22.6667V26.4706Z" fill="#E6E6E6"/>
<path d="M24 26.4706H22.6667V27.7941H24V26.4706Z" fill="#E6E6E6"/>
<path d="M25.3333 26.4706H24V27.7941H25.3333V26.4706Z" fill="#E6E6E6"/>
<path d="M26.6667 26.4706H25.3333V27.7941H26.6667V26.4706Z" fill="#E6E6E6"/>
<path d="M28 26.4706H26.6667V27.7941H28V26.4706Z" fill="#E6E6E6"/>
<path d="M29.3333 26.4706H28V27.7941H29.3333V26.4706Z" fill="#E6E6E6"/>
<path d="M30.6667 26.4706H29.3333V27.7941H30.6667V26.4706Z" fill="#E6E6E6"/>
<path d="M32 26.4706H30.6667V27.7941H32V26.4706Z" fill="#E6E6E6"/>
<path d="M33.3333 26.4706H32V27.7941H33.3333V26.4706Z" fill="#E6E6E6"/>
<path d="M34.6667 26.4706H33.3333V27.7941H34.6667V26.4706Z" fill="#E6E6E6"/>
<path d="M36 26.4706H34.6667V27.7941H36V26.4706Z" fill="#ACACAC"/>
<path d="M37.3333 26.4706H36V27.7941H37.3333V26.4706Z" fill="#ACACAC"/>
<path d="M38.6667 26.4706H37.3333V27.7941H38.6667V26.4706Z" fill="#ACACAC"/>
<path d="M40 26.4706H38.6667V27.7941H40V26.4706Z" fill="#747474"/>
<path d="M41.3333 26.4706H40V27.7941H41.3333V26.4706Z" fill="#747474"/>
<path d="M42.6667 26.4706H41.3333V27.7941H42.6667V26.4706Z" fill="#747474"/>
<path d="M44 26.4706H42.6667V27.7941H44V26.4706Z" fill="#747474"/>
<path d="M45.3333 26.4706H44V27.7941H45.3333V26.4706Z" fill="#ACACAC"/>
<path d="M46.6667 26.4706H45.3333V27.7941H46.6667V26.4706Z" fill="#747474"/>
<path d="M48 26.4706H46.6667V27.7941H48V26.4706Z" fill="#747474"/>
<path d="M49.3333 26.4706H48V27.7941H49.3333V26.4706Z" fill="#747474"/>
<path d="M50.6667 26.4706H49.3333V27.7941H50.6667V26.4706Z" fill="#747474"/>
<path d="M52 26.4706H50.6667V27.7941H52V26.4706Z" fill="#747474"/>
<path d="M53.3333 26.4706H52V27.7941H53.3333V26.4706Z" fill="#747474"/>
<path d="M54.6667 26.4706H53.3333V27.7941H54.6667V26.4706Z" fill="#747474"/>
<path d="M56 26.4706H54.6667V27.7941H56V26.4706Z" fill="#747474"/>
<path d="M8 27.7941H6.66667V29.1176H8V27.7941Z" fill="#ACACAC"/>
<path d="M9.33333 27.7941H8V29.1176H9.33333V27.7941Z" fill="white"/>
<path d="M10.6667 27.7941H9.33333V29.1176H10.6667V27.7941Z" fill="white"/>
<path d="M12 27.7941H10.6667V29.1176H12V27.7941Z" fill="#E6E6E6"/>
<path d="M13.3333 27.7941H12V29.1176H13.3333V27.7941Z" fill="#E6E6E6"/>
<path d="M14.6667 27.7941H13.3333V29.1176H14.6667V27.7941Z" fill="#E6E6E6"/>
<path d="M16 27.7941H14.6667V29.1176H16V27.7941Z" fill="#E6E6E6"/>
<path d="M17.3333 27.7941H16V29.1176H17.3333V27.7941Z" fill="#E6E6E6"/>
<path d="M18.6667 27.7941H17.3333V29.1176H18.6667V27.7941Z" fill="#E6E6E6"/>
<path d="M20 27.7941H18.6667V29.1176H20V27.7941Z" fill="#E6E6E6"/>
<path d="M21.3333 27.7941H20V29.1176H21.3333V27.7941Z" fill="#E6E6E6"/>
<path d="M22.6667 27.7941H21.3333V29.1176H22.6667V27.7941Z" fill="#E6E6E6"/>
<path d="M24 27.7941H22.6667V29.1176H24V27.7941Z" fill="#E6E6E6"/>
<path d="M25.3333 27.7941H24V29.1176H25.3333V27.7941Z" fill="#E6E6E6"/>
<path d="M26.6667 27.7941H25.3333V29.1176H26.6667V27.7941Z" fill="#E6E6E6"/>
<path d="M28 27.7941H26.6667V29.1176H28V27.7941Z" fill="#E6E6E6"/>
<path d="M29.3333 27.7941H28V29.1176H29.3333V27.7941Z" fill="#E6E6E6"/>
<path d="M30.6667 27.7941H29.3333V29.1176H30.6667V27.7941Z" fill="#E6E6E6"/>
<path d="M32 27.7941H30.6667V29.1176H32V27.7941Z" fill="#E6E6E6"/>
<path d="M33.3333 27.7941H32V29.1176H33.3333V27.7941Z" fill="#E6E6E6"/>
<path d="M34.6667 27.7941H33.3333V29.1176H34.6667V27.7941Z" fill="#E6E6E6"/>
<path d="M36 27.7941H34.6667V29.1176H36V27.7941Z" fill="#E6E6E6"/>
<path d="M37.3333 27.7941H36V29.1176H37.3333V27.7941Z" fill="#ACACAC"/>
<path d="M38.6667 27.7941H37.3333V29.1176H38.6667V27.7941Z" fill="#ACACAC"/>
<path d="M40 27.7941H38.6667V29.1176H40V27.7941Z" fill="#ACACAC"/>
<path d="M41.3333 27.7941H40V29.1176H41.3333V27.7941Z" fill="#ACACAC"/>
<path d="M42.6667 27.7941H41.3333V29.1176H42.6667V27.7941Z" fill="#ACACAC"/>
<path d="M44 27.7941H42.6667V29.1176H44V27.7941Z" fill="#747474"/>
<path d="M45.3333 27.7941H44V29.1176H45.3333V27.7941Z" fill="#747474"/>
<path d="M46.6667 27.7941H45.3333V29.1176H46.6667V27.7941Z" fill="#747474"/>
<path d="M48 27.7941H46.6667V29.1176H48V27.7941Z" fill="#747474"/>
<path d="M49.3333 27.7941H48V29.1176H49.3333V27.7941Z" fill="#747474"/>
<path d="M50.6667 27.7941H49.3333V29.1176H50.6667V27.7941Z" fill="#747474"/>
<path d="M52 27.7941H50.6667V29.1176H52V27.7941Z" fill="#747474"/>
<path d="M53.3333 27.7941H52V29.1176H53.3333V27.7941Z" fill="#747474"/>
<path d="M54.6667 27.7941H53.3333V29.1176H54.6667V27.7941Z" fill="#747474"/>
<path d="M56 27.7941H54.6667V29.1176H56V27.7941Z" fill="#747474"/>
<path d="M57.3333 27.7941H56V29.1176H57.3333V27.7941Z" fill="#282828"/>
<path d="M6.66667 29.1176H5.33333V30.4412H6.66667V29.1176Z" fill="#ACACAC"/>
<path d="M8 29.1176H6.66667V30.4412H8V29.1176Z" fill="white"/>
<path d="M9.33333 29.1176H8V30.4412H9.33333V29.1176Z" fill="white"/>
<path d="M10.6667 29.1176H9.33333V30.4412H10.6667V29.1176Z" fill="#E6E6E6"/>
<path d="M12 29.1176H10.6667V30.4412H12V29.1176Z" fill="#E6E6E6"/>
<path d="M13.3333 29.1176H12V30.4412H13.3333V29.1176Z" fill="#E6E6E6"/>
<path d="M14.6667 29.1176H13.3333V30.4412H14.6667V29.1176Z" fill="#E6E6E6"/>
<path d="M16 29.1176H14.6667V30.4412H16V29.1176Z" fill="#E6E6E6"/>
<path d="M17.3333 29.1176H16V30.4412H17.3333V29.1176Z" fill="#E6E6E6"/>
<path d="M18.6667 29.1176H17.3333V30.4412H18.6667V29.1176Z" fill="#E6E6E6"/>
<path d="M20 29.1176H18.6667V30.4412H20V29.1176Z" fill="#E6E6E6"/>
<path d="M21.3333 29.1176H20V30.4412H21.3333V29.1176Z" fill="#E6E6E6"/>
<path d="M22.6667 29.1176H21.3333V30.4412H22.6667V29.1176Z" fill="#E6E6E6"/>
<path d="M24 29.1176H22.6667V30.4412H24V29.1176Z" fill="#E6E6E6"/>
<path d="M25.3333 29.1176H24V30.4412H25.3333V29.1176Z" fill="#E6E6E6"/>
<path d="M26.6667 29.1176H25.3333V30.4412H26.6667V29.1176Z" fill="#E6E6E6"/>
<path d="M28 29.1176H26.6667V30.4412H28V29.1176Z" fill="#E6E6E6"/>
<path d="M29.3333 29.1176H28V30.4412H29.3333V29.1176Z" fill="#E6E6E6"/>
<path d="M30.6667 29.1176H29.3333V30.4412H30.6667V29.1176Z" fill="#E6E6E6"/>
<path d="M32 29.1176H30.6667V30.4412H32V29.1176Z" fill="#E6E6E6"/>
<path d="M33.3333 29.1176H32V30.4412H33.3333V29.1176Z" fill="#E6E6E6"/>
<path d="M34.6667 29.1176H33.3333V30.4412H34.6667V29.1176Z" fill="#E6E6E6"/>
<path d="M36 29.1176H34.6667V30.4412H36V29.1176Z" fill="#E6E6E6"/>
<path d="M37.3333 29.1176H36V30.4412H37.3333V29.1176Z" fill="#ACACAC"/>
<path d="M38.6667 29.1176H37.3333V30.4412H38.6667V29.1176Z" fill="#ACACAC"/>
<path d="M40 29.1176H38.6667V30.4412H40V29.1176Z" fill="#ACACAC"/>
<path d="M41.3333 29.1176H40V30.4412H41.3333V29.1176Z" fill="#ACACAC"/>
<path d="M42.6667 29.1176H41.3333V30.4412H42.6667V29.1176Z" fill="#ACACAC"/>
<path d="M44 29.1176H42.6667V30.4412H44V29.1176Z" fill="#747474"/>
<path d="M45.3333 29.1176H44V30.4412H45.3333V29.1176Z" fill="#747474"/>
<path d="M46.6667 29.1176H45.3333V30.4412H46.6667V29.1176Z" fill="#747474"/>
<path d="M48 29.1176H46.6667V30.4412H48V29.1176Z" fill="#747474"/>
<path d="M49.3333 29.1176H48V30.4412H49.3333V29.1176Z" fill="#747474"/>
<path d="M50.6667 29.1176H49.3333V30.4412H50.6667V29.1176Z" fill="#747474"/>
<path d="M52 29.1176H50.6667V30.4412H52V29.1176Z" fill="#747474"/>
<path d="M53.3333 29.1176H52V30.4412H53.3333V29.1176Z" fill="#747474"/>
<path d="M54.6667 29.1176H53.3333V30.4412H54.6667V29.1176Z" fill="#747474"/>
<path d="M56 29.1176H54.6667V30.4412H56V29.1176Z" fill="#282828"/>
<path d="M57.3333 29.1176H56V30.4412H57.3333V29.1176Z" fill="#282828"/>
<path d="M58.6667 29.1176H57.3333V30.4412H58.6667V29.1176Z" fill="#282828"/>
<path d="M5.33333 30.4412H4V31.7647H5.33333V30.4412Z" fill="#ACACAC"/>
<path d="M6.66667 30.4412H5.33333V31.7647H6.66667V30.4412Z" fill="white"/>
<path d="M8 30.4412H6.66667V31.7647H8V30.4412Z" fill="white"/>
<path d="M9.33333 30.4412H8V31.7647H9.33333V30.4412Z" fill="white"/>
<path d="M10.6667 30.4412H9.33333V31.7647H10.6667V30.4412Z" fill="white"/>
<path d="M12 30.4412H10.6667V31.7647H12V30.4412Z" fill="white"/>
<path d="M13.3333 30.4412H12V31.7647H13.3333V30.4412Z" fill="white"/>
<path d="M14.6667 30.4412H13.3333V31.7647H14.6667V30.4412Z" fill="white"/>
<path d="M16 30.4412H14.6667V31.7647H16V30.4412Z" fill="#E6E6E6"/>
<path d="M17.3333 30.4412H16V31.7647H17.3333V30.4412Z" fill="#E6E6E6"/>
<path d="M18.6667 30.4412H17.3333V31.7647H18.6667V30.4412Z" fill="#E6E6E6"/>
<path d="M20 30.4412H18.6667V31.7647H20V30.4412Z" fill="#E6E6E6"/>
<path d="M21.3333 30.4412H20V31.7647H21.3333V30.4412Z" fill="#E6E6E6"/>
<path d="M22.6667 30.4412H21.3333V31.7647H22.6667V30.4412Z" fill="#E6E6E6"/>
<path d="M24 30.4412H22.6667V31.7647H24V30.4412Z" fill="#E6E6E6"/>
<path d="M25.3333 30.4412H24V31.7647H25.3333V30.4412Z" fill="#E6E6E6"/>
<path d="M26.6667 30.4412H25.3333V31.7647H26.6667V30.4412Z" fill="#E6E6E6"/>
<path d="M28 30.4412H26.6667V31.7647H28V30.4412Z" fill="#E6E6E6"/>
<path d="M29.3333 30.4412H28V31.7647H29.3333V30.4412Z" fill="#E6E6E6"/>
<path d="M30.6667 30.4412H29.3333V31.7647H30.6667V30.4412Z" fill="#E6E6E6"/>
<path d="M32 30.4412H30.6667V31.7647H32V30.4412Z" fill="#E6E6E6"/>
<path d="M33.3333 30.4412H32V31.7647H33.3333V30.4412Z" fill="#E6E6E6"/>
<path d="M34.6667 30.4412H33.3333V31.7647H34.6667V30.4412Z" fill="#E6E6E6"/>
<path d="M36 30.4412H34.6667V31.7647H36V30.4412Z" fill="#ACACAC"/>
<path d="M37.3333 30.4412H36V31.7647H37.3333V30.4412Z" fill="#ACACAC"/>
<path d="M38.6667 30.4412H37.3333V31.7647H38.6667V30.4412Z" fill="#ACACAC"/>
<path d="M40 30.4412H38.6667V31.7647H40V30.4412Z" fill="#ACACAC"/>
<path d="M41.3333 30.4412H40V31.7647H41.3333V30.4412Z" fill="#ACACAC"/>
<path d="M42.6667 30.4412H41.3333V31.7647H42.6667V30.4412Z" fill="#747474"/>
<path d="M44 30.4412H42.6667V31.7647H44V30.4412Z" fill="#747474"/>
<path d="M45.3333 30.4412H44V31.7647H45.3333V30.4412Z" fill="#747474"/>
<path d="M46.6667 30.4412H45.3333V31.7647H46.6667V30.4412Z" fill="#747474"/>
<path d="M48 30.4412H46.6667V31.7647H48V30.4412Z" fill="#282828"/>
<path d="M49.3333 30.4412H48V31.7647H49.3333V30.4412Z" fill="#282828"/>
<path d="M50.6667 30.4412H49.3333V31.7647H50.6667V30.4412Z" fill="#282828"/>
<path d="M52 30.4412H50.6667V31.7647H52V30.4412Z" fill="#282828"/>
<path d="M53.3333 30.4412H52V31.7647H53.3333V30.4412Z" fill="#282828"/>
<path d="M54.6667 30.4412H53.3333V31.7647H54.6667V30.4412Z" fill="#282828"/>
<path d="M56 30.4412H54.6667V31.7647H56V30.4412Z" fill="#282828"/>
<path d="M57.3333 30.4412H56V31.7647H57.3333V30.4412Z" fill="#282828"/>
<path d="M58.6667 30.4412H57.3333V31.7647H58.6667V30.4412Z" fill="#282828"/>
<path d="M60 30.4412H58.6667V31.7647H60V30.4412Z" fill="#282828"/>
<path d="M4 31.7647H2.66667V33.0882H4V31.7647Z" fill="#ACACAC"/>
<path d="M5.33333 31.7647H4V33.0882H5.33333V31.7647Z" fill="white"/>
<path d="M6.66667 31.7647H5.33333V33.0882H6.66667V31.7647Z" fill="white"/>
<path d="M8 31.7647H6.66667V33.0882H8V31.7647Z" fill="#ACACAC"/>
<path d="M9.33333 31.7647H8V33.0882H9.33333V31.7647Z" fill="#ACACAC"/>
<path d="M10.6667 31.7647H9.33333V33.0882H10.6667V31.7647Z" fill="#ACACAC"/>
<path d="M12 31.7647H10.6667V33.0882H12V31.7647Z" fill="#ACACAC"/>
<path d="M13.3333 31.7647H12V33.0882H13.3333V31.7647Z" fill="#ACACAC"/>
<path d="M14.6667 31.7647H13.3333V33.0882H14.6667V31.7647Z" fill="white"/>
<path d="M16 31.7647H14.6667V33.0882H16V31.7647Z" fill="white"/>
<path d="M17.3333 31.7647H16V33.0882H17.3333V31.7647Z" fill="white"/>
<path d="M18.6667 31.7647H17.3333V33.0882H18.6667V31.7647Z" fill="#E6E6E6"/>
<path d="M20 31.7647H18.6667V33.0882H20V31.7647Z" fill="#E6E6E6"/>
<path d="M21.3333 31.7647H20V33.0882H21.3333V31.7647Z" fill="#E6E6E6"/>
<path d="M22.6667 31.7647H21.3333V33.0882H22.6667V31.7647Z" fill="#E6E6E6"/>
<path d="M24 31.7647H22.6667V33.0882H24V31.7647Z" fill="#E6E6E6"/>
<path d="M25.3333 31.7647H24V33.0882H25.3333V31.7647Z" fill="#E6E6E6"/>
<path d="M26.6667 31.7647H25.3333V33.0882H26.6667V31.7647Z" fill="#E6E6E6"/>
<path d="M28 31.7647H26.6667V33.0882H28V31.7647Z" fill="#E6E6E6"/>
<path d="M29.3333 31.7647H28V33.0882H29.3333V31.7647Z" fill="#E6E6E6"/>
<path d="M30.6667 31.7647H29.3333V33.0882H30.6667V31.7647Z" fill="#E6E6E6"/>
<path d="M32 31.7647H30.6667V33.0882H32V31.7647Z" fill="#E6E6E6"/>
<path d="M33.3333 31.7647H32V33.0882H33.3333V31.7647Z" fill="#E6E6E6"/>
<path d="M34.6667 31.7647H33.3333V33.0882H34.6667V31.7647Z" fill="#ACACAC"/>
<path d="M36 31.7647H34.6667V33.0882H36V31.7647Z" fill="#ACACAC"/>
<path d="M37.3333 31.7647H36V33.0882H37.3333V31.7647Z" fill="#ACACAC"/>
<path d="M38.6667 31.7647H37.3333V33.0882H38.6667V31.7647Z" fill="#ACACAC"/>
<path d="M40 31.7647H38.6667V33.0882H40V31.7647Z" fill="#ACACAC"/>
<path d="M41.3333 31.7647H40V33.0882H41.3333V31.7647Z" fill="#747474"/>
<path d="M42.6667 31.7647H41.3333V33.0882H42.6667V31.7647Z" fill="#747474"/>
<path d="M44 31.7647H42.6667V33.0882H44V31.7647Z" fill="#747474"/>
<path d="M45.3333 31.7647H44V33.0882H45.3333V31.7647Z" fill="#747474"/>
<path d="M46.6667 31.7647H45.3333V33.0882H46.6667V31.7647Z" fill="#282828"/>
<path d="M48 31.7647H46.6667V33.0882H48V31.7647Z" fill="#282828"/>
<path d="M49.3333 31.7647H48V33.0882H49.3333V31.7647Z" fill="#282828"/>
<path d="M50.6667 31.7647H49.3333V33.0882H50.6667V31.7647Z" fill="#282828"/>
<path d="M52 31.7647H50.6667V33.0882H52V31.7647Z" fill="#282828"/>
<path d="M53.3333 31.7647H52V33.0882H53.3333V31.7647Z" fill="#282828"/>
<path d="M54.6667 31.7647H53.3333V33.0882H54.6667V31.7647Z" fill="#282828"/>
<path d="M56 31.7647H54.6667V33.0882H56V31.7647Z" fill="#282828"/>
<path d="M57.3333 31.7647H56V33.0882H57.3333V31.7647Z" fill="#282828"/>
<path d="M58.6667 31.7647H57.3333V33.0882H58.6667V31.7647Z" fill="#282828"/>
<path d="M60 31.7647H58.6667V33.0882H60V31.7647Z" fill="#282828"/>
<path d="M2.66667 33.0882L1.33333 33.0882V34.4118H2.66667V33.0882Z" fill="#ACACAC"/>
<path d="M4 33.0882H2.66667V34.4118H4V33.0882Z" fill="white"/>
<path d="M5.33333 33.0882H4V34.4118H5.33333V33.0882Z" fill="#ACACAC"/>
<path d="M6.66667 33.0882H5.33333V34.4118H6.66667V33.0882Z" fill="#ACACAC"/>
<path d="M8 33.0882H6.66667V34.4118H8V33.0882Z" fill="#ACACAC"/>
<path d="M9.33333 33.0882H8V34.4118H9.33333V33.0882Z" fill="#ACACAC"/>
<path d="M10.6667 33.0882H9.33333V34.4118H10.6667V33.0882Z" fill="#ACACAC"/>
<path d="M12 33.0882H10.6667V34.4118H12V33.0882Z" fill="#ACACAC"/>
<path d="M13.3333 33.0882H12V34.4118H13.3333V33.0882Z" fill="#ACACAC"/>
<path d="M14.6667 33.0882H13.3333V34.4118H14.6667V33.0882Z" fill="#ACACAC"/>
<path d="M16 33.0882H14.6667V34.4118H16V33.0882Z" fill="#ACACAC"/>
<path d="M17.3333 33.0882H16V34.4118H17.3333V33.0882Z" fill="white"/>
<path d="M18.6667 33.0882H17.3333V34.4118H18.6667V33.0882Z" fill="white"/>
<path d="M20 33.0882H18.6667V34.4118H20V33.0882Z" fill="white"/>
<path d="M21.3333 33.0882H20V34.4118H21.3333V33.0882Z" fill="#E6E6E6"/>
<path d="M22.6667 33.0882H21.3333V34.4118H22.6667V33.0882Z" fill="#E6E6E6"/>
<path d="M24 33.0882H22.6667V34.4118H24V33.0882Z" fill="#E6E6E6"/>
<path d="M25.3333 33.0882H24V34.4118H25.3333V33.0882Z" fill="#E6E6E6"/>
<path d="M26.6667 33.0882H25.3333V34.4118H26.6667V33.0882Z" fill="#E6E6E6"/>
<path d="M28 33.0882H26.6667V34.4118H28V33.0882Z" fill="#E6E6E6"/>
<path d="M29.3333 33.0882H28V34.4118H29.3333V33.0882Z" fill="#E6E6E6"/>
<path d="M30.6667 33.0882H29.3333V34.4118H30.6667V33.0882Z" fill="#E6E6E6"/>
<path d="M32 33.0882H30.6667V34.4118H32V33.0882Z" fill="#E6E6E6"/>
<path d="M33.3333 33.0882H32V34.4118H33.3333V33.0882Z" fill="#ACACAC"/>
<path d="M34.6667 33.0882H33.3333V34.4118H34.6667V33.0882Z" fill="#E6E6E6"/>
<path d="M36 33.0882H34.6667V34.4118H36V33.0882Z" fill="#ACACAC"/>
<path d="M37.3333 33.0882H36V34.4118H37.3333V33.0882Z" fill="#ACACAC"/>
<path d="M38.6667 33.0882H37.3333V34.4118H38.6667V33.0882Z" fill="#747474"/>
<path d="M40 33.0882H38.6667V34.4118H40V33.0882Z" fill="#747474"/>
<path d="M41.3333 33.0882H40V34.4118H41.3333V33.0882Z" fill="#747474"/>
<path d="M42.6667 33.0882H41.3333V34.4118H42.6667V33.0882Z" fill="#747474"/>
<path d="M44 33.0882H42.6667V34.4118H44V33.0882Z" fill="#282828"/>
<path d="M45.3333 33.0882H44V34.4118H45.3333V33.0882Z" fill="#282828"/>
<path d="M46.6667 33.0882H45.3333V34.4118H46.6667V33.0882Z" fill="#282828"/>
<path d="M48 33.0882H46.6667V34.4118H48V33.0882Z" fill="#282828"/>
<path d="M49.3333 33.0882H48V34.4118H49.3333V33.0882Z" fill="#282828"/>
<path d="M50.6667 33.0882H49.3333V34.4118H50.6667V33.0882Z" fill="#282828"/>
<path d="M52 33.0882H50.6667V34.4118H52V33.0882Z" fill="#282828"/>
<path d="M53.3333 33.0882H52V34.4118H53.3333V33.0882Z" fill="#282828"/>
<path d="M54.6667 33.0882H53.3333V34.4118H54.6667V33.0882Z" fill="#282828"/>
<path d="M56 33.0882H54.6667V34.4118H56V33.0882Z" fill="#282828"/>
<path d="M57.3333 33.0882H56V34.4118H57.3333V33.0882Z" fill="#282828"/>
<path d="M58.6667 33.0882H57.3333V34.4118H58.6667V33.0882Z" fill="#282828"/>
<path d="M60 33.0882H58.6667V34.4118H60V33.0882Z" fill="#282828"/>
<path d="M1.33333 34.4118H0V35.7353H1.33333V34.4118Z" fill="#ACACAC"/>
<path d="M2.66667 34.4118H1.33333V35.7353H2.66667V34.4118Z" fill="white"/>
<path d="M4 34.4118H2.66667V35.7353H4V34.4118Z" fill="#ACACAC"/>
<path d="M5.33333 34.4118H4V35.7353H5.33333V34.4118Z" fill="#ACACAC"/>
<path d="M6.66667 34.4118H5.33333V35.7353H6.66667V34.4118Z" fill="#ACACAC"/>
<path d="M8 34.4118H6.66667V35.7353H8V34.4118Z" fill="#ACACAC"/>
<path d="M9.33333 34.4118H8V35.7353H9.33333V34.4118Z" fill="#ACACAC"/>
<path d="M10.6667 34.4118H9.33333V35.7353H10.6667V34.4118Z" fill="#ACACAC"/>
<path d="M12 34.4118H10.6667V35.7353H12V34.4118Z" fill="#ACACAC"/>
<path d="M13.3333 34.4118H12V35.7353H13.3333V34.4118Z" fill="#ACACAC"/>
<path d="M14.6667 34.4118H13.3333V35.7353H14.6667V34.4118Z" fill="#ACACAC"/>
<path d="M16 34.4118H14.6667V35.7353H16V34.4118Z" fill="#ACACAC"/>
<path d="M17.3333 34.4118H16V35.7353H17.3333V34.4118Z" fill="#ACACAC"/>
<path d="M18.6667 34.4118H17.3333V35.7353H18.6667V34.4118Z" fill="#ACACAC"/>
<path d="M20 34.4118H18.6667V35.7353H20V34.4118Z" fill="white"/>
<path d="M21.3333 34.4118H20V35.7353H21.3333V34.4118Z" fill="white"/>
<path d="M22.6667 34.4118H21.3333V35.7353H22.6667V34.4118Z" fill="#E6E6E6"/>
<path d="M24 34.4118H22.6667V35.7353H24V34.4118Z" fill="#E6E6E6"/>
<path d="M25.3333 34.4118H24V35.7353H25.3333V34.4118Z" fill="#E6E6E6"/>
<path d="M26.6667 34.4118H25.3333V35.7353H26.6667V34.4118Z" fill="#E6E6E6"/>
<path d="M28 34.4118H26.6667V35.7353H28V34.4118Z" fill="#E6E6E6"/>
<path d="M29.3333 34.4118H28V35.7353H29.3333V34.4118Z" fill="#E6E6E6"/>
<path d="M30.6667 34.4118H29.3333V35.7353H30.6667V34.4118Z" fill="#E6E6E6"/>
<path d="M32 34.4118H30.6667V35.7353H32V34.4118Z" fill="#ACACAC"/>
<path d="M33.3333 34.4118H32V35.7353H33.3333V34.4118Z" fill="#E6E6E6"/>
<path d="M34.6667 34.4118H33.3333V35.7353H34.6667V34.4118Z" fill="#ACACAC"/>
<path d="M36 34.4118H34.6667V35.7353H36V34.4118Z" fill="#ACACAC"/>
<path d="M37.3333 34.4118H36V35.7353H37.3333V34.4118Z" fill="#747474"/>
<path d="M38.6667 34.4118H37.3333V35.7353H38.6667V34.4118Z" fill="#747474"/>
<path d="M40 34.4118H38.6667V35.7353H40V34.4118Z" fill="#747474"/>
<path d="M41.3333 34.4118H40V35.7353H41.3333V34.4118Z" fill="#747474"/>
<path d="M42.6667 34.4118H41.3333V35.7353H42.6667V34.4118Z" fill="#282828"/>
<path d="M44 34.4118H42.6667V35.7353H44V34.4118Z" fill="#282828"/>
<path d="M45.3333 34.4118H44V35.7353H45.3333V34.4118Z" fill="#282828"/>
<path d="M46.6667 34.4118H45.3333V35.7353H46.6667V34.4118Z" fill="#282828"/>
<path d="M48 34.4118H46.6667V35.7353H48V34.4118Z" fill="#282828"/>
<path d="M49.3333 34.4118H48V35.7353H49.3333V34.4118Z" fill="#282828"/>
<path d="M50.6667 34.4118H49.3333V35.7353H50.6667V34.4118Z" fill="#282828"/>
<path d="M52 34.4118H50.6667V35.7353H52V34.4118Z" fill="#282828"/>
<path d="M53.3333 34.4118H52V35.7353H53.3333V34.4118Z" fill="#282828"/>
<path d="M54.6667 34.4118H53.3333V35.7353H54.6667V34.4118Z" fill="#282828"/>
<path d="M56 34.4118H54.6667V35.7353H56V34.4118Z" fill="#282828"/>
<path d="M57.3333 34.4118H56V35.7353H57.3333V34.4118Z" fill="#282828"/>
<path d="M58.6667 34.4118H57.3333V35.7353H58.6667V34.4118Z" fill="#282828"/>
<path d="M1.33333 35.7353H0V37.0588H1.33333V35.7353Z" fill="#ACACAC"/>
<path d="M2.66667 35.7353H1.33333V37.0588H2.66667V35.7353Z" fill="#ACACAC"/>
<path d="M4 35.7353H2.66667V37.0588H4V35.7353Z" fill="#ACACAC"/>
<path d="M5.33333 35.7353H4V37.0588H5.33333V35.7353Z" fill="#ACACAC"/>
<path d="M6.66667 35.7353H5.33333V37.0588H6.66667V35.7353Z" fill="#ACACAC"/>
<path d="M8 35.7353H6.66667V37.0588H8V35.7353Z" fill="#ACACAC"/>
<path d="M9.33333 35.7353H8V37.0588H9.33333V35.7353Z" fill="#ACACAC"/>
<path d="M10.6667 35.7353H9.33333V37.0588H10.6667V35.7353Z" fill="#ACACAC"/>
<path d="M12 35.7353H10.6667V37.0588H12V35.7353Z" fill="#282828"/>
<path d="M13.3333 35.7353H12V37.0588H13.3333V35.7353Z" fill="#282828"/>
<path d="M14.6667 35.7353H13.3333V37.0588H14.6667V35.7353Z" fill="#282828"/>
<path d="M16 35.7353H14.6667V37.0588H16V35.7353Z" fill="#282828"/>
<path d="M17.3333 35.7353H16V37.0588H17.3333V35.7353Z" fill="#ACACAC"/>
<path d="M18.6667 35.7353H17.3333V37.0588H18.6667V35.7353Z" fill="#ACACAC"/>
<path d="M20 35.7353H18.6667V37.0588H20V35.7353Z" fill="#ACACAC"/>
<path d="M21.3333 35.7353H20V37.0588H21.3333V35.7353Z" fill="#ACACAC"/>
<path d="M22.6667 35.7353H21.3333V37.0588H22.6667V35.7353Z" fill="white"/>
<path d="M24 35.7353H22.6667V37.0588H24V35.7353Z" fill="#E6E6E6"/>
<path d="M25.3333 35.7353H24V37.0588H25.3333V35.7353Z" fill="#E6E6E6"/>
<path d="M26.6667 35.7353H25.3333V37.0588H26.6667V35.7353Z" fill="#E6E6E6"/>
<path d="M28 35.7353H26.6667V37.0588H28V35.7353Z" fill="#E6E6E6"/>
<path d="M29.3333 35.7353H28V37.0588H29.3333V35.7353Z" fill="#E6E6E6"/>
<path d="M30.6667 35.7353H29.3333V37.0588H30.6667V35.7353Z" fill="#ACACAC"/>
<path d="M32 35.7353H30.6667V37.0588H32V35.7353Z" fill="#E6E6E6"/>
<path d="M33.3333 35.7353H32V37.0588H33.3333V35.7353Z" fill="#ACACAC"/>
<path d="M34.6667 35.7353H33.3333V37.0588H34.6667V35.7353Z" fill="#ACACAC"/>
<path d="M36 35.7353H34.6667V37.0588H36V35.7353Z" fill="#747474"/>
<path d="M37.3333 35.7353H36V37.0588H37.3333V35.7353Z" fill="#747474"/>
<path d="M38.6667 35.7353H37.3333V37.0588H38.6667V35.7353Z" fill="#747474"/>
<path d="M40 35.7353H38.6667V37.0588H40V35.7353Z" fill="#747474"/>
<path d="M41.3333 35.7353H40V37.0588H41.3333V35.7353Z" fill="#282828"/>
<path d="M42.6667 35.7353H41.3333V37.0588H42.6667V35.7353Z" fill="#282828"/>
<path d="M44 35.7353H42.6667V37.0588H44V35.7353Z" fill="#282828"/>
<path d="M45.3333 35.7353H44V37.0588H45.3333V35.7353Z" fill="#282828"/>
<path d="M46.6667 35.7353H45.3333V37.0588H46.6667V35.7353Z" fill="#282828"/>
<path d="M48 35.7353H46.6667V37.0588H48V35.7353Z" fill="#282828"/>
<path d="M49.3333 35.7353H48V37.0588H49.3333V35.7353Z" fill="#282828"/>
<path d="M50.6667 35.7353H49.3333V37.0588H50.6667V35.7353Z" fill="#282828"/>
<path d="M52 35.7353H50.6667V37.0588H52V35.7353Z" fill="#282828"/>
<path d="M53.3333 35.7353H52V37.0588H53.3333V35.7353Z" fill="#282828"/>
<path d="M54.6667 35.7353H53.3333V37.0588H54.6667V35.7353Z" fill="#282828"/>
<path d="M56 35.7353H54.6667V37.0588H56V35.7353Z" fill="#282828"/>
<path d="M57.3333 35.7353H56V37.0588H57.3333V35.7353Z" fill="#282828"/>
<path d="M2.66667 37.0588H1.33333V38.3824H2.66667V37.0588Z" fill="#ACACAC"/>
<path d="M4 37.0588H2.66667V38.3824H4V37.0588Z" fill="#ACACAC"/>
<path d="M5.33333 37.0588H4V38.3824H5.33333V37.0588Z" fill="#ACACAC"/>
<path d="M6.66667 37.0588H5.33333V38.3824H6.66667V37.0588Z" fill="#ACACAC"/>
<path d="M8 37.0588H6.66667V38.3824H8V37.0588Z" fill="#ACACAC"/>
<path d="M9.33333 37.0588H8V38.3824H9.33333V37.0588Z" fill="#282828"/>
<path d="M10.6667 37.0588H9.33333V38.3824H10.6667V37.0588Z" fill="#282828"/>
<path d="M12 37.0588H10.6667V38.3824H12V37.0588Z" fill="#282828"/>
<path d="M13.3333 37.0588H12V38.3824H13.3333V37.0588Z" fill="#282828"/>
<path d="M14.6667 37.0588H13.3333V38.3824H14.6667V37.0588Z" fill="#282828"/>
<path d="M16 37.0588H14.6667V38.3824H16V37.0588Z" fill="#282828"/>
<path d="M17.3333 37.0588H16V38.3824H17.3333V37.0588Z" fill="#282828"/>
<path d="M18.6667 37.0588H17.3333V38.3824H18.6667V37.0588Z" fill="#282828"/>
<path d="M20 37.0588H18.6667V38.3824H20V37.0588Z" fill="#ACACAC"/>
<path d="M21.3333 37.0588H20V38.3824H21.3333V37.0588Z" fill="#ACACAC"/>
<path d="M22.6667 37.0588H21.3333V38.3824H22.6667V37.0588Z" fill="#ACACAC"/>
<path d="M24 37.0588H22.6667V38.3824H24V37.0588Z" fill="white"/>
<path d="M25.3333 37.0588H24V38.3824H25.3333V37.0588Z" fill="#E6E6E6"/>
<path d="M26.6667 37.0588H25.3333V38.3824H26.6667V37.0588Z" fill="#E6E6E6"/>
<path d="M28 37.0588H26.6667V38.3824H28V37.0588Z" fill="#E6E6E6"/>
<path d="M29.3333 37.0588H28V38.3824H29.3333V37.0588Z" fill="#ACACAC"/>
<path d="M30.6667 37.0588H29.3333V38.3824H30.6667V37.0588Z" fill="#E6E6E6"/>
<path d="M32 37.0588H30.6667V38.3824H32V37.0588Z" fill="#ACACAC"/>
<path d="M33.3333 37.0588H32V38.3824H33.3333V37.0588Z" fill="#ACACAC"/>
<path d="M34.6667 37.0588H33.3333V38.3824H34.6667V37.0588Z" fill="#747474"/>
<path d="M36 37.0588H34.6667V38.3824H36V37.0588Z" fill="#747474"/>
<path d="M37.3333 37.0588H36V38.3824H37.3333V37.0588Z" fill="#747474"/>
<path d="M38.6667 37.0588H37.3333V38.3824H38.6667V37.0588Z" fill="#747474"/>
<path d="M40 37.0588H38.6667V38.3824H40V37.0588Z" fill="#282828"/>
<path d="M41.3333 37.0588H40V38.3824H41.3333V37.0588Z" fill="#282828"/>
<path d="M42.6667 37.0588H41.3333V38.3824H42.6667V37.0588Z" fill="#282828"/>
<path d="M44 37.0588H42.6667V38.3824H44V37.0588Z" fill="#282828"/>
<path d="M45.3333 37.0588H44V38.3824H45.3333V37.0588Z" fill="#282828"/>
<path d="M46.6667 37.0588H45.3333V38.3824H46.6667V37.0588Z" fill="#282828"/>
<path d="M48 37.0588H46.6667V38.3824H48V37.0588Z" fill="#282828"/>
<path d="M49.3333 37.0588H48V38.3824H49.3333V37.0588Z" fill="#282828"/>
<path d="M50.6667 37.0588H49.3333V38.3824H50.6667V37.0588Z" fill="#282828"/>
<path d="M52 37.0588H50.6667V38.3824H52V37.0588Z" fill="#282828"/>
<path d="M53.3333 37.0588H52V38.3824H53.3333V37.0588Z" fill="#282828"/>
<path d="M54.6667 37.0588H53.3333V38.3824H54.6667V37.0588Z" fill="#282828"/>
<path d="M4 38.3824H2.66667V39.7059H4V38.3824Z" fill="#282828"/>
<path d="M5.33333 38.3824H4V39.7059H5.33333V38.3824Z" fill="#282828"/>
<path d="M6.66667 38.3824H5.33333V39.7059H6.66667V38.3824Z" fill="#282828"/>
<path d="M8 38.3824H6.66667V39.7059H8V38.3824Z" fill="#282828"/>
<path d="M9.33333 38.3824H8V39.7059H9.33333V38.3824Z" fill="#282828"/>
<path d="M10.6667 38.3824H9.33333V39.7059H10.6667V38.3824Z" fill="#282828"/>
<path d="M12 38.3824H10.6667V39.7059H12V38.3824Z" fill="#282828"/>
<path d="M13.3333 38.3824H12V39.7059H13.3333V38.3824Z" fill="#282828"/>
<path d="M14.6667 38.3824H13.3333V39.7059H14.6667V38.3824Z" fill="#282828"/>
<path d="M16 38.3824H14.6667V39.7059H16V38.3824Z" fill="#282828"/>
<path d="M17.3333 38.3824H16V39.7059H17.3333V38.3824Z" fill="#282828"/>
<path d="M18.6667 38.3824H17.3333V39.7059H18.6667V38.3824Z" fill="#282828"/>
<path d="M20 38.3824H18.6667V39.7059H20V38.3824Z" fill="#282828"/>
<path d="M21.3333 38.3824H20V39.7059H21.3333V38.3824Z" fill="#ACACAC"/>
<path d="M22.6667 38.3824H21.3333V39.7059H22.6667V38.3824Z" fill="#ACACAC"/>
<path d="M24 38.3824H22.6667V39.7059H24V38.3824Z" fill="#ACACAC"/>
<path d="M25.3333 38.3824H24V39.7059H25.3333V38.3824Z" fill="white"/>
<path d="M26.6667 38.3824H25.3333V39.7059H26.6667V38.3824Z" fill="#ACACAC"/>
<path d="M28 38.3824H26.6667V39.7059H28V38.3824Z" fill="#ACACAC"/>
<path d="M29.3333 38.3824H28V39.7059H29.3333V38.3824Z" fill="#E6E6E6"/>
<path d="M30.6667 38.3824H29.3333V39.7059H30.6667V38.3824Z" fill="#ACACAC"/>
<path d="M32 38.3824H30.6667V39.7059H32V38.3824Z" fill="#ACACAC"/>
<path d="M33.3333 38.3824H32V39.7059H33.3333V38.3824Z" fill="#747474"/>
<path d="M34.6667 38.3824H33.3333V39.7059H34.6667V38.3824Z" fill="#747474"/>
<path d="M36 38.3824H34.6667V39.7059H36V38.3824Z" fill="#747474"/>
<path d="M37.3333 38.3824H36V39.7059H37.3333V38.3824Z" fill="#282828"/>
<path d="M38.6667 38.3824H37.3333V39.7059H38.6667V38.3824Z" fill="#282828"/>
<path d="M40 38.3824H38.6667V39.7059H40V38.3824Z" fill="#282828"/>
<path d="M41.3333 38.3824H40V39.7059H41.3333V38.3824Z" fill="#282828"/>
<path d="M42.6667 38.3824H41.3333V39.7059H42.6667V38.3824Z" fill="#282828"/>
<path d="M44 38.3824H42.6667V39.7059H44V38.3824Z" fill="#282828"/>
<path d="M45.3333 38.3824H44V39.7059H45.3333V38.3824Z" fill="#282828"/>
<path d="M46.6667 38.3824H45.3333V39.7059H46.6667V38.3824Z" fill="#282828"/>
<path d="M48 38.3824H46.6667V39.7059H48V38.3824Z" fill="#282828"/>
<path d="M49.3333 38.3824H48V39.7059H49.3333V38.3824Z" fill="#282828"/>
<path d="M2.66667 39.7059H1.33333V41.0294H2.66667V39.7059Z" fill="#282828"/>
<path d="M4 39.7059H2.66667V41.0294H4V39.7059Z" fill="#282828"/>
<path d="M5.33333 39.7059H4V41.0294H5.33333V39.7059Z" fill="#282828"/>
<path d="M6.66667 39.7059H5.33333V41.0294H6.66667V39.7059Z" fill="#282828"/>
<path d="M8 39.7059H6.66667V41.0294H8V39.7059Z" fill="#282828"/>
<path d="M9.33333 39.7059H8V41.0294H9.33333V39.7059Z" fill="#282828"/>
<path d="M10.6667 39.7059H9.33333V41.0294H10.6667V39.7059Z" fill="#282828"/>
<path d="M12 39.7059H10.6667V41.0294H12V39.7059Z" fill="#282828"/>
<path d="M13.3333 39.7059H12V41.0294H13.3333V39.7059Z" fill="#282828"/>
<path d="M14.6667 39.7059H13.3333V41.0294H14.6667V39.7059Z" fill="#282828"/>
<path d="M16 39.7059H14.6667V41.0294H16V39.7059Z" fill="#282828"/>
<path d="M17.3333 39.7059H16V41.0294H17.3333V39.7059Z" fill="#282828"/>
<path d="M18.6667 39.7059H17.3333V41.0294H18.6667V39.7059Z" fill="#282828"/>
<path d="M20 39.7059H18.6667V41.0294H20V39.7059Z" fill="#282828"/>
<path d="M21.3333 39.7059H20V41.0294H21.3333V39.7059Z" fill="#282828"/>
<path d="M22.6667 39.7059H21.3333V41.0294H22.6667V39.7059Z" fill="#282828"/>
<path d="M24 39.7059H22.6667V41.0294H24V39.7059Z" fill="#ACACAC"/>
<path d="M25.3333 39.7059H24V41.0294H25.3333V39.7059Z" fill="#ACACAC"/>
<path d="M26.6667 39.7059H25.3333V41.0294H26.6667V39.7059Z" fill="#ACACAC"/>
<path d="M28 39.7059H26.6667V41.0294H28V39.7059Z" fill="#ACACAC"/>
<path d="M29.3333 39.7059H28V41.0294H29.3333V39.7059Z" fill="#ACACAC"/>
<path d="M30.6667 39.7059H29.3333V41.0294H30.6667V39.7059Z" fill="#ACACAC"/>
<path d="M32 39.7059H30.6667V41.0294H32V39.7059Z" fill="#747474"/>
<path d="M33.3333 39.7059H32V41.0294H33.3333V39.7059Z" fill="#747474"/>
<path d="M34.6667 39.7059H33.3333V41.0294H34.6667V39.7059Z" fill="#747474"/>
<path d="M36 39.7059H34.6667V41.0294H36V39.7059Z" fill="#282828"/>
<path d="M37.3333 39.7059H36V41.0294H37.3333V39.7059Z" fill="#282828"/>
<path d="M38.6667 39.7059H37.3333V41.0294H38.6667V39.7059Z" fill="#282828"/>
<path d="M40 39.7059H38.6667V41.0294H40V39.7059Z" fill="#282828"/>
<path d="M41.3333 39.7059H40V41.0294H41.3333V39.7059Z" fill="#282828"/>
<path d="M42.6667 39.7059H41.3333V41.0294H42.6667V39.7059Z" fill="#282828"/>
<path d="M44 39.7059H42.6667V41.0294H44V39.7059Z" fill="#282828"/>
<path d="M45.3333 39.7059H44V41.0294H45.3333V39.7059Z" fill="#282828"/>
<path d="M6.66667 41.0294H5.33333V42.3529H6.66667V41.0294Z" fill="#282828"/>
<path d="M8 41.0294H6.66667V42.3529H8V41.0294Z" fill="#282828"/>
<path d="M9.33333 41.0294H8V42.3529H9.33333V41.0294Z" fill="#282828"/>
<path d="M10.6667 41.0294H9.33333V42.3529H10.6667V41.0294Z" fill="#282828"/>
<path d="M12 41.0294H10.6667V42.3529H12V41.0294Z" fill="#282828"/>
<path d="M13.3333 41.0294H12V42.3529H13.3333V41.0294Z" fill="#282828"/>
<path d="M14.6667 41.0294H13.3333V42.3529H14.6667V41.0294Z" fill="#282828"/>
<path d="M16 41.0294H14.6667V42.3529H16V41.0294Z" fill="#282828"/>
<path d="M17.3333 41.0294H16V42.3529H17.3333V41.0294Z" fill="#282828"/>
<path d="M18.6667 41.0294H17.3333V42.3529H18.6667V41.0294Z" fill="#282828"/>
<path d="M20 41.0294H18.6667V42.3529H20V41.0294Z" fill="#282828"/>
<path d="M21.3333 41.0294H20V42.3529H21.3333V41.0294Z" fill="#282828"/>
<path d="M22.6667 41.0294H21.3333V42.3529H22.6667V41.0294Z" fill="#282828"/>
<path d="M24 41.0294H22.6667V42.3529H24V41.0294Z" fill="#282828"/>
<path d="M25.3333 41.0294H24V42.3529H25.3333V41.0294Z" fill="#282828"/>
<path d="M26.6667 41.0294H25.3333V42.3529H26.6667V41.0294Z" fill="#ACACAC"/>
<path d="M28 41.0294H26.6667V42.3529H28V41.0294Z" fill="#ACACAC"/>
<path d="M29.3333 41.0294H28V42.3529H29.3333V41.0294Z" fill="#747474"/>
<path d="M30.6667 41.0294H29.3333V42.3529H30.6667V41.0294Z" fill="#747474"/>
<path d="M32 41.0294H30.6667V42.3529H32V41.0294Z" fill="#747474"/>
<path d="M33.3333 41.0294H32V42.3529H33.3333V41.0294Z" fill="#747474"/>
<path d="M34.6667 41.0294H33.3333V42.3529H34.6667V41.0294Z" fill="#282828"/>
<path d="M36 41.0294H34.6667V42.3529H36V41.0294Z" fill="#282828"/>
<path d="M37.3333 41.0294H36V42.3529H37.3333V41.0294Z" fill="#282828"/>
<path d="M38.6667 41.0294H37.3333V42.3529H38.6667V41.0294Z" fill="#282828"/>
<path d="M40 41.0294H38.6667V42.3529H40V41.0294Z" fill="#282828"/>
<path d="M41.3333 41.0294H40V42.3529H41.3333V41.0294Z" fill="#282828"/>
<path d="M10.6667 42.3529H9.33333V43.6765H10.6667V42.3529Z" fill="#282828"/>
<path d="M12 42.3529H10.6667V43.6765H12V42.3529Z" fill="#282828"/>
<path d="M13.3333 42.3529H12V43.6765H13.3333V42.3529Z" fill="#282828"/>
<path d="M14.6667 42.3529H13.3333V43.6765H14.6667V42.3529Z" fill="#282828"/>
<path d="M16 42.3529H14.6667V43.6765H16V42.3529Z" fill="#282828"/>
<path d="M17.3333 42.3529H16V43.6765H17.3333V42.3529Z" fill="#282828"/>
<path d="M18.6667 42.3529H17.3333V43.6765H18.6667V42.3529Z" fill="#282828"/>
<path d="M20 42.3529H18.6667V43.6765H20V42.3529Z" fill="#282828"/>
<path d="M21.3333 42.3529H20V43.6765H21.3333V42.3529Z" fill="#282828"/>
<path d="M22.6667 42.3529H21.3333V43.6765H22.6667V42.3529Z" fill="#282828"/>
<path d="M24 42.3529H22.6667V43.6765H24V42.3529Z" fill="#282828"/>
<path d="M25.3333 42.3529H24V43.6765H25.3333V42.3529Z" fill="#282828"/>
<path d="M26.6667 42.3529H25.3333V43.6765H26.6667V42.3529Z" fill="#282828"/>
<path d="M28 42.3529H26.6667V43.6765H28V42.3529Z" fill="#282828"/>
<path d="M29.3333 42.3529H28V43.6765H29.3333V42.3529Z" fill="#282828"/>
<path d="M30.6667 42.3529H29.3333V43.6765H30.6667V42.3529Z" fill="#282828"/>
<path d="M32 42.3529H30.6667V43.6765H32V42.3529Z" fill="#282828"/>
<path d="M33.3333 42.3529H32V43.6765H33.3333V42.3529Z" fill="#282828"/>
<path d="M34.6667 42.3529H33.3333V43.6765H34.6667V42.3529Z" fill="#282828"/>
<path d="M36 42.3529H34.6667V43.6765H36V42.3529Z" fill="#282828"/>
<path d="M37.3333 42.3529H36V43.6765H37.3333V42.3529Z" fill="#282828"/>
<path d="M17.3333 43.6765H16V45H17.3333V43.6765Z" fill="#282828"/>
<path d="M18.6667 43.6765H17.3333V45H18.6667V43.6765Z" fill="#282828"/>
<path d="M20 43.6765H18.6667V45H20V43.6765Z" fill="#282828"/>
<path d="M21.3333 43.6765H20V45H21.3333V43.6765Z" fill="#282828"/>
<path d="M22.6667 43.6765H21.3333V45H22.6667V43.6765Z" fill="#282828"/>
<path d="M24 43.6765H22.6667V45H24V43.6765Z" fill="#282828"/>
<path d="M25.3333 43.6765H24V45H25.3333V43.6765Z" fill="#282828"/>
<path d="M26.6667 43.6765H25.3333V45H26.6667V43.6765Z" fill="#282828"/>
<path d="M28 43.6765H26.6667V45H28V43.6765Z" fill="#282828"/>
<path d="M29.3333 43.6765H28V45H29.3333V43.6765Z" fill="#282828"/>
<path d="M30.6667 43.6765H29.3333V45H30.6667V43.6765Z" fill="#282828"/>
</svg>
