<svg width="431" height="48" viewBox="0 0 431 48" fill="none" xmlns="http://www.w3.org/2000/svg">
<path d="M263.599 38.2637H259.3V31.8096H257.144V25.3424H254.988V18.8883H252.832V12.4211H250.675V5.96699H246.39V3.81125H259.3V5.96699H254.988V12.4211H257.144V18.8883H259.3V25.3424H261.456V31.8096H263.599V38.2637ZM272.223 12.4211H270.067V5.96699H265.755V3.81125H276.522V5.96699H272.223V12.4211ZM270.067 18.8883H267.911V12.4211H270.067V18.8883ZM267.911 25.3424H265.755V18.8883H267.911V25.3424ZM265.755 31.8096H263.599V25.3424H265.755V31.8096Z" fill="#E6E6E6"/>
<path d="M291.588 38.2637H280.821V36.1211H278.665V33.9654H276.509V29.6539H274.366V23.1998H276.509V18.8883H278.665V21.0441H291.588V18.8883H289.432V16.7326H280.821V14.5768H291.588V16.7326H293.744V18.8883H295.901V23.1998H278.665V29.6539H280.821V33.9654H282.977V36.1211H291.588V38.2637ZM280.821 18.8883H278.665V16.7326H280.821V18.8883ZM295.901 33.9654H293.744V31.8096H295.901V33.9654ZM293.744 36.1211H291.588V33.9654H293.744V36.1211Z" fill="#E6E6E6"/>
<path d="M307.746 38.2637H299.135V36.1211H301.278V18.8883H299.135V16.7326H301.278V14.5768H303.434V12.4211H305.59V16.7326H307.746V18.8883H305.59V36.1211H307.746V38.2637ZM323.903 38.2637H315.279V36.1211H317.435V18.8883H315.279V16.7326H307.746V14.5768H317.435V16.7326H319.591V18.8883H321.747V36.1211H323.903V38.2637Z" fill="#E6E6E6"/>
<path d="M336.827 38.2637H330.358V36.1211H328.202V16.7326H326.059V14.5768H328.202V12.4211H330.358V10.2785H332.515V14.5768H338.983V16.7326H332.515V36.1211H336.827V38.2637ZM338.983 36.1211H336.827V33.9654H338.983V36.1211Z" fill="#E6E6E6"/>
<path d="M356.218 38.2637H348.685V36.1211H346.529V33.9654H344.373V16.7326H342.23V14.5768H348.685V33.9654H350.841V36.1211H356.218V38.2637ZM366.999 38.2637H360.53V33.9654H358.374V31.8096H360.53V16.7326H358.374V14.5768H364.843V36.1211H366.999V38.2637ZM358.374 36.1211H356.218V33.9654H358.374V36.1211Z" fill="#E6E6E6"/>
<path d="M378.844 38.2637H370.233V36.1211H372.376V18.8883H370.233V16.7326H372.376V14.5768H374.532V12.4211H376.688V16.7326H378.844V18.8883H376.688V36.1211H378.844V38.2637ZM387.455 18.8883H383.156V16.7326H378.844V14.5768H387.455V18.8883Z" fill="#E6E6E6"/>
<path d="M405.756 38.2637H394.988V36.1211H392.832V33.9654H390.676V29.6539H388.533V23.1998H390.676V18.8883H392.832V21.0441H405.756V18.8883H403.6V16.7326H394.988V14.5768H405.756V16.7326H407.912V18.8883H410.068V23.1998H392.832V29.6539H394.988V33.9654H397.144V36.1211H405.756V38.2637ZM394.988 18.8883H392.832V16.7326H394.988V18.8883ZM410.068 33.9654H407.912V31.8096H410.068V33.9654ZM407.912 36.1211H405.756V33.9654H407.912V36.1211Z" fill="#E6E6E6"/>
<path d="M429.446 21.0441H427.29V18.8883H425.147V16.7326H417.601V14.5768H427.29V16.7326H429.446V21.0441ZM426.225 38.2637H415.445V36.1211H413.302V30.7318H415.445V33.9654H417.601V36.1211H424.069V33.9654H426.225V29.6539H424.069V27.4982H419.757V25.3424H415.445V23.1998H413.302V18.8883H415.445V16.7326H417.601V21.0441H419.757V23.1998H424.069V25.3424H428.368V27.4982H430.524V33.9654H428.368V36.1211H426.225V38.2637Z" fill="#E6E6E6"/>
<path d="M83.1203 38.2637H71.8965V3.55762H83.4696C93.6921 3.55762 99.9094 10.1262 99.9094 20.8641C99.9094 31.6486 93.7154 38.2637 83.1203 38.2637ZM77.066 33.7682H82.7943C90.8745 33.7682 94.7167 28.9467 94.7167 20.8641C94.7167 12.8281 90.8745 8.05311 83.1436 8.05311H77.066V33.7682Z" fill="#E6E6E6"/>
<path d="M103.613 38.2637V13.6666H108.317V17.6497H108.41C109.318 14.971 111.227 13.3638 114.348 13.3638C115.093 13.3638 115.745 13.4337 116.141 13.4803V18.069C115.768 17.9991 114.697 17.836 113.556 17.836C110.785 17.836 108.526 19.7227 108.526 23.7291V38.2637H103.613Z" fill="#E6E6E6"/>
<path d="M119.704 48.0001V43.854H122.359C123.896 43.854 124.804 43.0154 125.549 41.0123L126.667 38.1007L117.166 13.6666H122.429L127.342 27.1531C127.994 28.9932 128.6 30.8334 129.205 32.6735C129.81 30.8334 130.439 28.9932 131.091 27.1531L135.935 13.6666H141.127L129.95 42.5729C128.576 46.1367 126.155 48.0001 122.825 48.0001H119.704Z" fill="#E6E6E6"/>
<path d="M152.166 38.8461C146.531 38.8461 142.246 36.1208 141.897 30.7868H146.74C147.02 33.4421 148.883 34.9329 152.073 34.9329C155.193 34.9329 157.126 33.512 157.126 31.5554C157.126 29.8784 155.705 28.9001 153.586 28.4342L149.511 27.5258C144.877 26.5009 142.456 24.1484 142.456 20.4914C142.456 16.1357 146.228 13.1309 151.863 13.1309C157.405 13.1309 161.364 16.2056 161.503 21.1669H156.8C156.753 18.7677 154.844 17.0208 151.933 17.0208C149.139 17.0208 147.369 18.5115 147.369 20.3982C147.369 22.052 148.696 23.0536 150.908 23.566L155.1 24.4978C159.897 25.5692 162.086 27.7121 162.086 31.2759C162.086 35.9578 157.894 38.8461 152.166 38.8461Z" fill="#E6E6E6"/>
<path d="M174.94 38.7529C168.537 38.7529 164.275 33.5819 164.275 25.9652C164.275 18.3718 168.56 13.1775 174.917 13.1775C178.107 13.1775 180.878 14.5052 182.462 17.2304H182.508V3.55762H187.422V38.2637H182.601V34.5136H182.555C180.902 37.3786 178.154 38.7529 174.94 38.7529ZM175.942 34.5136C180.133 34.5136 182.834 31.1362 182.834 25.9652C182.834 20.7942 180.133 17.3935 175.942 17.3935C171.983 17.3935 169.259 20.3982 169.259 25.9652C169.259 31.5089 171.983 34.5136 175.942 34.5136Z" fill="#E6E6E6"/>
<path d="M199.508 38.6597C194.618 38.6597 190.985 36.1441 190.985 31.2293C190.985 25.6158 195.689 24.4046 200.696 23.8223C205.306 23.2632 206.843 23.3098 206.843 21.5163V21.3067C206.843 18.9308 205.003 17.2071 201.883 17.2071C198.74 17.2071 196.597 18.9075 196.411 21.1669H191.591C191.824 16.4851 195.806 13.1775 201.953 13.1775C208.007 13.1775 211.71 16.3919 211.71 21.3998V38.2637H206.866V34.7698H206.773C205.749 36.7497 203.746 38.6597 199.508 38.6597ZM200.509 34.7C204.84 34.7 206.866 32.0912 206.866 29.0631V26.1748C206.191 26.7106 203.583 27.1065 200.975 27.4792C198.297 27.8752 195.875 28.8302 195.875 31.3225C195.875 33.4421 197.645 34.7 200.509 34.7Z" fill="#E6E6E6"/>
<path d="M221.211 3.55762V38.2637H216.298V3.55762H221.211Z" fill="#E6E6E6"/>
<path d="M236.325 38.8228C229.036 38.8228 224.612 33.4421 224.612 26.0118C224.612 18.5115 229.362 13.1076 236.069 13.1076C243.031 13.1076 247.549 18.3718 247.549 25.9652V27.2929H229.456C229.619 31.7185 232.087 34.7232 236.395 34.7232C239.608 34.7232 241.75 33.116 242.449 30.7868H247.176C246.268 35.5385 241.89 38.8228 236.325 38.8228ZM229.502 23.566H242.752C242.356 19.6529 239.841 17.2071 236.115 17.2071C232.413 17.2071 229.921 19.6529 229.502 23.566Z" fill="#E6E6E6"/>
<path d="M34.8336 0H33.4939V1.31647H34.8336V0Z" fill="#ACACAC"/>
<path d="M36.1734 0H34.8336V1.31647H36.1734V0Z" fill="#ACACAC"/>
<path d="M37.5131 0H36.1734V1.31647H37.5131V0Z" fill="#ACACAC"/>
<path d="M30.8143 1.31647H29.4746V2.63294H30.8143V1.31647Z" fill="#ACACAC"/>
<path d="M32.1541 1.31647H30.8143V2.63294H32.1541V1.31647Z" fill="#ACACAC"/>
<path d="M33.4939 1.31647H32.1541V2.63294H33.4939V1.31647Z" fill="#ACACAC"/>
<path d="M34.8336 1.31647H33.4939V2.63294H34.8336V1.31647Z" fill="#ACACAC"/>
<path d="M36.1734 1.31647H34.8336V2.63294H36.1734V1.31647Z" fill="#ACACAC"/>
<path d="M37.5131 1.31647H36.1734V2.63294H37.5131V1.31647Z" fill="#ACACAC"/>
<path d="M38.8529 1.31647H37.5131V2.63294H38.8529V1.31647Z" fill="#ACACAC"/>
<path d="M40.1926 1.31647H38.8529V2.63294H40.1926V1.31647Z" fill="#ACACAC"/>
<path d="M26.7951 2.63294H25.4553V3.94941H26.7951V2.63294Z" fill="#ACACAC"/>
<path d="M28.1348 2.63294H26.7951V3.94941H28.1348V2.63294Z" fill="#ACACAC"/>
<path d="M29.4746 2.63294H28.1348V3.94941H29.4746V2.63294Z" fill="#ACACAC"/>
<path d="M30.8143 2.63294H29.4746V3.94941H30.8143V2.63294Z" fill="#E6E6E6"/>
<path d="M32.1541 2.63294H30.8143V3.94941H32.1541V2.63294Z" fill="#E6E6E6"/>
<path d="M33.4939 2.63294H32.1541V3.94941H33.4939V2.63294Z" fill="#E6E6E6"/>
<path d="M34.8336 2.63294H33.4939V3.94941H34.8336V2.63294Z" fill="#E6E6E6"/>
<path d="M36.1734 2.63294H34.8336V3.94941H36.1734V2.63294Z" fill="#E6E6E6"/>
<path d="M37.5131 2.63294H36.1734V3.94941H37.5131V2.63294Z" fill="#E6E6E6"/>
<path d="M38.8529 2.63294H37.5131V3.94941H38.8529V2.63294Z" fill="#ACACAC"/>
<path d="M40.1926 2.63294H38.8529V3.94941H40.1926V2.63294Z" fill="#ACACAC"/>
<path d="M41.5324 2.63294H40.1926V3.94941H41.5324V2.63294Z" fill="#ACACAC"/>
<path d="M42.8721 2.63294H41.5324V3.94941H42.8721V2.63294Z" fill="#ACACAC"/>
<path d="M44.2119 2.63294H42.8721V3.94941H44.2119V2.63294Z" fill="#ACACAC"/>
<path d="M45.5516 2.63294H44.2119V3.94941H45.5516V2.63294Z" fill="#ACACAC"/>
<path d="M24.1156 3.94941H22.7758V5.26588H24.1156V3.94941Z" fill="#ACACAC"/>
<path d="M25.4553 3.94941H24.1156V5.26588H25.4553V3.94941Z" fill="#ACACAC"/>
<path d="M26.7951 3.94941H25.4553V5.26588H26.7951V3.94941Z" fill="white"/>
<path d="M28.1348 3.94941H26.7951V5.26588H28.1348V3.94941Z" fill="white"/>
<path d="M29.4746 3.94941H28.1348V5.26588H29.4746V3.94941Z" fill="#E6E6E6"/>
<path d="M30.8143 3.94941H29.4746V5.26588H30.8143V3.94941Z" fill="#E6E6E6"/>
<path d="M32.1541 3.94941H30.8143V5.26588H32.1541V3.94941Z" fill="#E6E6E6"/>
<path d="M33.4939 3.94941H32.1541V5.26588H33.4939V3.94941Z" fill="#E6E6E6"/>
<path d="M34.8336 3.94941H33.4939V5.26588H34.8336V3.94941Z" fill="#E6E6E6"/>
<path d="M36.1734 3.94941H34.8336V5.26588H36.1734V3.94941Z" fill="#E6E6E6"/>
<path d="M37.5131 3.94941H36.1734V5.26588H37.5131V3.94941Z" fill="#E6E6E6"/>
<path d="M38.8529 3.94941H37.5131V5.26588H38.8529V3.94941Z" fill="#E6E6E6"/>
<path d="M40.1926 3.94941H38.8529V5.26588H40.1926V3.94941Z" fill="#E6E6E6"/>
<path d="M41.5324 3.94941H40.1926V5.26588H41.5324V3.94941Z" fill="#ACACAC"/>
<path d="M42.8721 3.94941H41.5324V5.26588H42.8721V3.94941Z" fill="#E6E6E6"/>
<path d="M44.2119 3.94941H42.8721V5.26588H44.2119V3.94941Z" fill="#ACACAC"/>
<path d="M45.5516 3.94941H44.2119V5.26588H45.5516V3.94941Z" fill="#ACACAC"/>
<path d="M46.8914 3.94941H45.5516V5.26588H46.8914V3.94941Z" fill="#ACACAC"/>
<path d="M48.2312 3.94941H46.8914V5.26588H48.2312V3.94941Z" fill="#ACACAC"/>
<path d="M21.4361 5.26588H20.0963V6.58235H21.4361V5.26588Z" fill="#ACACAC"/>
<path d="M22.7758 5.26588H21.4361V6.58235H22.7758V5.26588Z" fill="#ACACAC"/>
<path d="M24.1156 5.26588H22.7758V6.58235H24.1156V5.26588Z" fill="white"/>
<path d="M25.4553 5.26588H24.1156V6.58235H25.4553V5.26588Z" fill="white"/>
<path d="M26.7951 5.26588H25.4553V6.58235H26.7951V5.26588Z" fill="#E6E6E6"/>
<path d="M28.1348 5.26588H26.7951V6.58235H28.1348V5.26588Z" fill="#E6E6E6"/>
<path d="M29.4746 5.26588H28.1348V6.58235H29.4746V5.26588Z" fill="#E6E6E6"/>
<path d="M30.8143 5.26588H29.4746V6.58235H30.8143V5.26588Z" fill="#E6E6E6"/>
<path d="M32.1541 5.26588H30.8143V6.58235H32.1541V5.26588Z" fill="#E6E6E6"/>
<path d="M33.4939 5.26588H32.1541V6.58235H33.4939V5.26588Z" fill="#E6E6E6"/>
<path d="M34.8336 5.26588H33.4939V6.58235H34.8336V5.26588Z" fill="#E6E6E6"/>
<path d="M36.1734 5.26588H34.8336V6.58235H36.1734V5.26588Z" fill="#E6E6E6"/>
<path d="M37.5131 5.26588H36.1734V6.58235H37.5131V5.26588Z" fill="#E6E6E6"/>
<path d="M38.8529 5.26588H37.5131V6.58235H38.8529V5.26588Z" fill="#E6E6E6"/>
<path d="M40.1926 5.26588H38.8529V6.58235H40.1926V5.26588Z" fill="#E6E6E6"/>
<path d="M41.5324 5.26588H40.1926V6.58235H41.5324V5.26588Z" fill="#E6E6E6"/>
<path d="M42.8721 5.26588H41.5324V6.58235H42.8721V5.26588Z" fill="#ACACAC"/>
<path d="M44.2119 5.26588H42.8721V6.58235H44.2119V5.26588Z" fill="#E6E6E6"/>
<path d="M45.5516 5.26588H44.2119V6.58235H45.5516V5.26588Z" fill="#ACACAC"/>
<path d="M46.8914 5.26588H45.5516V6.58235H46.8914V5.26588Z" fill="#ACACAC"/>
<path d="M48.2312 5.26588H46.8914V6.58235H48.2312V5.26588Z" fill="#ACACAC"/>
<path d="M49.5709 5.26588H48.2312V6.58235H49.5709V5.26588Z" fill="#747474"/>
<path d="M20.0963 6.58235H18.7566V7.89882H20.0963V6.58235Z" fill="#ACACAC"/>
<path d="M21.4361 6.58235H20.0963V7.89882H21.4361V6.58235Z" fill="white"/>
<path d="M22.7758 6.58235H21.4361V7.89882H22.7758V6.58235Z" fill="white"/>
<path d="M24.1156 6.58235H22.7758V7.89882H24.1156V6.58235Z" fill="#E6E6E6"/>
<path d="M25.4553 6.58235H24.1156V7.89882H25.4553V6.58235Z" fill="#E6E6E6"/>
<path d="M26.7951 6.58235H25.4553V7.89882H26.7951V6.58235Z" fill="#ACACAC"/>
<path d="M28.1348 6.58235H26.7951V7.89882H28.1348V6.58235Z" fill="#E6E6E6"/>
<path d="M29.4746 6.58235H28.1348V7.89882H29.4746V6.58235Z" fill="#E6E6E6"/>
<path d="M30.8143 6.58235H29.4746V7.89882H30.8143V6.58235Z" fill="#E6E6E6"/>
<path d="M32.1541 6.58235H30.8143V7.89882H32.1541V6.58235Z" fill="#E6E6E6"/>
<path d="M33.4939 6.58235H32.1541V7.89882H33.4939V6.58235Z" fill="#E6E6E6"/>
<path d="M34.8336 6.58235H33.4939V7.89882H34.8336V6.58235Z" fill="#E6E6E6"/>
<path d="M36.1734 6.58235H34.8336V7.89882H36.1734V6.58235Z" fill="#E6E6E6"/>
<path d="M37.5131 6.58235H36.1734V7.89882H37.5131V6.58235Z" fill="#E6E6E6"/>
<path d="M38.8529 6.58235H37.5131V7.89882H38.8529V6.58235Z" fill="#E6E6E6"/>
<path d="M40.1926 6.58235H38.8529V7.89882H40.1926V6.58235Z" fill="#E6E6E6"/>
<path d="M41.5324 6.58235H40.1926V7.89882H41.5324V6.58235Z" fill="#E6E6E6"/>
<path d="M42.8721 6.58235H41.5324V7.89882H42.8721V6.58235Z" fill="#ACACAC"/>
<path d="M44.2119 6.58235H42.8721V7.89882H44.2119V6.58235Z" fill="#E6E6E6"/>
<path d="M45.5516 6.58235H44.2119V7.89882H45.5516V6.58235Z" fill="#ACACAC"/>
<path d="M46.8914 6.58235H45.5516V7.89882H46.8914V6.58235Z" fill="#ACACAC"/>
<path d="M48.2312 6.58235H46.8914V7.89882H48.2312V6.58235Z" fill="#ACACAC"/>
<path d="M49.5709 6.58235H48.2312V7.89882H49.5709V6.58235Z" fill="#747474"/>
<path d="M50.9107 6.58235H49.5709V7.89882H50.9107V6.58235Z" fill="#747474"/>
<path d="M18.7566 7.89882H17.4168V9.21529H18.7566V7.89882Z" fill="#ACACAC"/>
<path d="M20.0963 7.89882H18.7566V9.21529H20.0963V7.89882Z" fill="white"/>
<path d="M21.4361 7.89882H20.0963V9.21529H21.4361V7.89882Z" fill="#E6E6E6"/>
<path d="M22.7758 7.89882H21.4361V9.21529H22.7758V7.89882Z" fill="#E6E6E6"/>
<path d="M24.1156 7.89882H22.7758V9.21529H24.1156V7.89882Z" fill="#E6E6E6"/>
<path d="M25.4553 7.89882H24.1156V9.21529H25.4553V7.89882Z" fill="#ACACAC"/>
<path d="M26.7951 7.89882H25.4553V9.21529H26.7951V7.89882Z" fill="#E6E6E6"/>
<path d="M28.1348 7.89882H26.7951V9.21529H28.1348V7.89882Z" fill="#E6E6E6"/>
<path d="M29.4746 7.89882H28.1348V9.21529H29.4746V7.89882Z" fill="#E6E6E6"/>
<path d="M30.8143 7.89882H29.4746V9.21529H30.8143V7.89882Z" fill="#E6E6E6"/>
<path d="M32.1541 7.89882H30.8143V9.21529H32.1541V7.89882Z" fill="#E6E6E6"/>
<path d="M33.4939 7.89882H32.1541V9.21529H33.4939V7.89882Z" fill="#E6E6E6"/>
<path d="M34.8336 7.89882H33.4939V9.21529H34.8336V7.89882Z" fill="#E6E6E6"/>
<path d="M36.1734 7.89882H34.8336V9.21529H36.1734V7.89882Z" fill="#E6E6E6"/>
<path d="M37.5131 7.89882H36.1734V9.21529H37.5131V7.89882Z" fill="#E6E6E6"/>
<path d="M38.8529 7.89882H37.5131V9.21529H38.8529V7.89882Z" fill="#E6E6E6"/>
<path d="M40.1926 7.89882H38.8529V9.21529H40.1926V7.89882Z" fill="#E6E6E6"/>
<path d="M41.5324 7.89882H40.1926V9.21529H41.5324V7.89882Z" fill="#E6E6E6"/>
<path d="M42.8721 7.89882H41.5324V9.21529H42.8721V7.89882Z" fill="#E6E6E6"/>
<path d="M44.2119 7.89882H42.8721V9.21529H44.2119V7.89882Z" fill="#ACACAC"/>
<path d="M45.5516 7.89882H44.2119V9.21529H45.5516V7.89882Z" fill="#E6E6E6"/>
<path d="M46.8914 7.89882H45.5516V9.21529H46.8914V7.89882Z" fill="#ACACAC"/>
<path d="M48.2312 7.89882H46.8914V9.21529H48.2312V7.89882Z" fill="#ACACAC"/>
<path d="M49.5709 7.89882H48.2312V9.21529H49.5709V7.89882Z" fill="#747474"/>
<path d="M50.9107 7.89882H49.5709V9.21529H50.9107V7.89882Z" fill="#747474"/>
<path d="M52.2504 7.89882H50.9107V9.21529H52.2504V7.89882Z" fill="#747474"/>
<path d="M17.4168 9.21529H16.077V10.5318H17.4168V9.21529Z" fill="#ACACAC"/>
<path d="M18.7566 9.21529H17.4168V10.5318H18.7566V9.21529Z" fill="white"/>
<path d="M20.0963 9.21529H18.7566V10.5318H20.0963V9.21529Z" fill="#E6E6E6"/>
<path d="M21.4361 9.21529H20.0963V10.5318H21.4361V9.21529Z" fill="#E6E6E6"/>
<path d="M22.7758 9.21529H21.4361V10.5318H22.7758V9.21529Z" fill="#E6E6E6"/>
<path d="M24.1156 9.21529H22.7758V10.5318H24.1156V9.21529Z" fill="#E6E6E6"/>
<path d="M25.4553 9.21529H24.1156V10.5318H25.4553V9.21529Z" fill="#ACACAC"/>
<path d="M26.7951 9.21529H25.4553V10.5318H26.7951V9.21529Z" fill="#E6E6E6"/>
<path d="M28.1348 9.21529H26.7951V10.5318H28.1348V9.21529Z" fill="#E6E6E6"/>
<path d="M29.4746 9.21529H28.1348V10.5318H29.4746V9.21529Z" fill="#E6E6E6"/>
<path d="M30.8143 9.21529H29.4746V10.5318H30.8143V9.21529Z" fill="#E6E6E6"/>
<path d="M32.1541 9.21529H30.8143V10.5318H32.1541V9.21529Z" fill="#E6E6E6"/>
<path d="M33.4939 9.21529H32.1541V10.5318H33.4939V9.21529Z" fill="#E6E6E6"/>
<path d="M34.8336 9.21529H33.4939V10.5318H34.8336V9.21529Z" fill="#E6E6E6"/>
<path d="M36.1734 9.21529H34.8336V10.5318H36.1734V9.21529Z" fill="#E6E6E6"/>
<path d="M37.5131 9.21529H36.1734V10.5318H37.5131V9.21529Z" fill="#E6E6E6"/>
<path d="M38.8529 9.21529H37.5131V10.5318H38.8529V9.21529Z" fill="#E6E6E6"/>
<path d="M40.1926 9.21529H38.8529V10.5318H40.1926V9.21529Z" fill="#E6E6E6"/>
<path d="M41.5324 9.21529H40.1926V10.5318H41.5324V9.21529Z" fill="#E6E6E6"/>
<path d="M42.8721 9.21529H41.5324V10.5318H42.8721V9.21529Z" fill="#E6E6E6"/>
<path d="M44.2119 9.21529H42.8721V10.5318H44.2119V9.21529Z" fill="#ACACAC"/>
<path d="M45.5516 9.21529H44.2119V10.5318H45.5516V9.21529Z" fill="#E6E6E6"/>
<path d="M46.8914 9.21529H45.5516V10.5318H46.8914V9.21529Z" fill="#ACACAC"/>
<path d="M48.2312 9.21529H46.8914V10.5318H48.2312V9.21529Z" fill="#ACACAC"/>
<path d="M49.5709 9.21529H48.2312V10.5318H49.5709V9.21529Z" fill="#747474"/>
<path d="M50.9107 9.21529H49.5709V10.5318H50.9107V9.21529Z" fill="#747474"/>
<path d="M52.2504 9.21529H50.9107V10.5318H52.2504V9.21529Z" fill="#747474"/>
<path d="M53.5902 9.21529H52.2504V10.5318H53.5902V9.21529Z" fill="#747474"/>
<path d="M17.4168 10.5318H16.077V11.8482H17.4168V10.5318Z" fill="#ACACAC"/>
<path d="M18.7566 10.5318H17.4168V11.8482H18.7566V10.5318Z" fill="white"/>
<path d="M20.0963 10.5318H18.7566V11.8482H20.0963V10.5318Z" fill="#E6E6E6"/>
<path d="M21.4361 10.5318H20.0963V11.8482H21.4361V10.5318Z" fill="#E6E6E6"/>
<path d="M22.7758 10.5318H21.4361V11.8482H22.7758V10.5318Z" fill="#E6E6E6"/>
<path d="M24.1156 10.5318H22.7758V11.8482H24.1156V10.5318Z" fill="#ACACAC"/>
<path d="M25.4553 10.5318H24.1156V11.8482H25.4553V10.5318Z" fill="#E6E6E6"/>
<path d="M26.7951 10.5318H25.4553V11.8482H26.7951V10.5318Z" fill="#E6E6E6"/>
<path d="M28.1348 10.5318H26.7951V11.8482H28.1348V10.5318Z" fill="#E6E6E6"/>
<path d="M29.4746 10.5318H28.1348V11.8482H29.4746V10.5318Z" fill="#E6E6E6"/>
<path d="M30.8143 10.5318H29.4746V11.8482H30.8143V10.5318Z" fill="#E6E6E6"/>
<path d="M32.1541 10.5318H30.8143V11.8482H32.1541V10.5318Z" fill="#E6E6E6"/>
<path d="M33.4939 10.5318H32.1541V11.8482H33.4939V10.5318Z" fill="#E6E6E6"/>
<path d="M34.8336 10.5318H33.4939V11.8482H34.8336V10.5318Z" fill="#E6E6E6"/>
<path d="M36.1734 10.5318H34.8336V11.8482H36.1734V10.5318Z" fill="#E6E6E6"/>
<path d="M37.5131 10.5318H36.1734V11.8482H37.5131V10.5318Z" fill="#E6E6E6"/>
<path d="M38.8529 10.5318H37.5131V11.8482H38.8529V10.5318Z" fill="#E6E6E6"/>
<path d="M40.1926 10.5318H38.8529V11.8482H40.1926V10.5318Z" fill="#E6E6E6"/>
<path d="M41.5324 10.5318H40.1926V11.8482H41.5324V10.5318Z" fill="#E6E6E6"/>
<path d="M42.8721 10.5318H41.5324V11.8482H42.8721V10.5318Z" fill="#E6E6E6"/>
<path d="M44.2119 10.5318H42.8721V11.8482H44.2119V10.5318Z" fill="#ACACAC"/>
<path d="M45.5516 10.5318H44.2119V11.8482H45.5516V10.5318Z" fill="#E6E6E6"/>
<path d="M46.8914 10.5318H45.5516V11.8482H46.8914V10.5318Z" fill="#ACACAC"/>
<path d="M48.2312 10.5318H46.8914V11.8482H48.2312V10.5318Z" fill="#ACACAC"/>
<path d="M49.5709 10.5318H48.2312V11.8482H49.5709V10.5318Z" fill="#ACACAC"/>
<path d="M50.9107 10.5318H49.5709V11.8482H50.9107V10.5318Z" fill="#747474"/>
<path d="M52.2504 10.5318H50.9107V11.8482H52.2504V10.5318Z" fill="#747474"/>
<path d="M53.5902 10.5318H52.2504V11.8482H53.5902V10.5318Z" fill="#747474"/>
<path d="M16.077 11.8482H14.7373V13.1647H16.077V11.8482Z" fill="#ACACAC"/>
<path d="M17.4168 11.8482H16.077V13.1647H17.4168V11.8482Z" fill="white"/>
<path d="M18.7566 11.8482H17.4168V13.1647H18.7566V11.8482Z" fill="#E6E6E6"/>
<path d="M20.0963 11.8482H18.7566V13.1647H20.0963V11.8482Z" fill="#E6E6E6"/>
<path d="M21.4361 11.8482H20.0963V13.1647H21.4361V11.8482Z" fill="#E6E6E6"/>
<path d="M22.7758 11.8482H21.4361V13.1647H22.7758V11.8482Z" fill="#E6E6E6"/>
<path d="M24.1156 11.8482H22.7758V13.1647H24.1156V11.8482Z" fill="#ACACAC"/>
<path d="M25.4553 11.8482H24.1156V13.1647H25.4553V11.8482Z" fill="#E6E6E6"/>
<path d="M26.7951 11.8482H25.4553V13.1647H26.7951V11.8482Z" fill="#E6E6E6"/>
<path d="M28.1348 11.8482H26.7951V13.1647H28.1348V11.8482Z" fill="#E6E6E6"/>
<path d="M29.4746 11.8482H28.1348V13.1647H29.4746V11.8482Z" fill="#E6E6E6"/>
<path d="M30.8143 11.8482H29.4746V13.1647H30.8143V11.8482Z" fill="#E6E6E6"/>
<path d="M32.1541 11.8482H30.8143V13.1647H32.1541V11.8482Z" fill="#E6E6E6"/>
<path d="M33.4939 11.8482H32.1541V13.1647H33.4939V11.8482Z" fill="#E6E6E6"/>
<path d="M34.8336 11.8482H33.4939V13.1647H34.8336V11.8482Z" fill="#E6E6E6"/>
<path d="M36.1734 11.8482H34.8336V13.1647H36.1734V11.8482Z" fill="#E6E6E6"/>
<path d="M37.5131 11.8482H36.1734V13.1647H37.5131V11.8482Z" fill="#E6E6E6"/>
<path d="M38.8529 11.8482H37.5131V13.1647H38.8529V11.8482Z" fill="#E6E6E6"/>
<path d="M40.1926 11.8482H38.8529V13.1647H40.1926V11.8482Z" fill="#E6E6E6"/>
<path d="M41.5324 11.8482H40.1926V13.1647H41.5324V11.8482Z" fill="#E6E6E6"/>
<path d="M42.8721 11.8482H41.5324V13.1647H42.8721V11.8482Z" fill="#E6E6E6"/>
<path d="M44.2119 11.8482H42.8721V13.1647H44.2119V11.8482Z" fill="#ACACAC"/>
<path d="M45.5516 11.8482H44.2119V13.1647H45.5516V11.8482Z" fill="#E6E6E6"/>
<path d="M46.8914 11.8482H45.5516V13.1647H46.8914V11.8482Z" fill="#ACACAC"/>
<path d="M48.2312 11.8482H46.8914V13.1647H48.2312V11.8482Z" fill="#ACACAC"/>
<path d="M49.5709 11.8482H48.2312V13.1647H49.5709V11.8482Z" fill="#ACACAC"/>
<path d="M50.9107 11.8482H49.5709V13.1647H50.9107V11.8482Z" fill="#747474"/>
<path d="M52.2504 11.8482H50.9107V13.1647H52.2504V11.8482Z" fill="#747474"/>
<path d="M53.5902 11.8482H52.2504V13.1647H53.5902V11.8482Z" fill="#747474"/>
<path d="M54.9299 11.8482H53.5902V13.1647H54.9299V11.8482Z" fill="#747474"/>
<path d="M16.077 13.1647H14.7373V14.4812H16.077V13.1647Z" fill="#ACACAC"/>
<path d="M17.4168 13.1647H16.077V14.4812H17.4168V13.1647Z" fill="white"/>
<path d="M18.7566 13.1647H17.4168V14.4812H18.7566V13.1647Z" fill="#E6E6E6"/>
<path d="M20.0963 13.1647H18.7566V14.4812H20.0963V13.1647Z" fill="#E6E6E6"/>
<path d="M21.4361 13.1647H20.0963V14.4812H21.4361V13.1647Z" fill="#E6E6E6"/>
<path d="M22.7758 13.1647H21.4361V14.4812H22.7758V13.1647Z" fill="#E6E6E6"/>
<path d="M24.1156 13.1647H22.7758V14.4812H24.1156V13.1647Z" fill="#ACACAC"/>
<path d="M25.4553 13.1647H24.1156V14.4812H25.4553V13.1647Z" fill="#E6E6E6"/>
<path d="M26.7951 13.1647H25.4553V14.4812H26.7951V13.1647Z" fill="#E6E6E6"/>
<path d="M28.1348 13.1647H26.7951V14.4812H28.1348V13.1647Z" fill="#E6E6E6"/>
<path d="M29.4746 13.1647H28.1348V14.4812H29.4746V13.1647Z" fill="#E6E6E6"/>
<path d="M30.8143 13.1647H29.4746V14.4812H30.8143V13.1647Z" fill="#E6E6E6"/>
<path d="M32.1541 13.1647H30.8143V14.4812H32.1541V13.1647Z" fill="#E6E6E6"/>
<path d="M33.4939 13.1647H32.1541V14.4812H33.4939V13.1647Z" fill="#E6E6E6"/>
<path d="M34.8336 13.1647H33.4939V14.4812H34.8336V13.1647Z" fill="#E6E6E6"/>
<path d="M36.1734 13.1647H34.8336V14.4812H36.1734V13.1647Z" fill="#E6E6E6"/>
<path d="M37.5131 13.1647H36.1734V14.4812H37.5131V13.1647Z" fill="#E6E6E6"/>
<path d="M38.8529 13.1647H37.5131V14.4812H38.8529V13.1647Z" fill="#E6E6E6"/>
<path d="M40.1926 13.1647H38.8529V14.4812H40.1926V13.1647Z" fill="#E6E6E6"/>
<path d="M41.5324 13.1647H40.1926V14.4812H41.5324V13.1647Z" fill="#E6E6E6"/>
<path d="M42.8721 13.1647H41.5324V14.4812H42.8721V13.1647Z" fill="#E6E6E6"/>
<path d="M44.2119 13.1647H42.8721V14.4812H44.2119V13.1647Z" fill="#ACACAC"/>
<path d="M45.5516 13.1647H44.2119V14.4812H45.5516V13.1647Z" fill="#E6E6E6"/>
<path d="M46.8914 13.1647H45.5516V14.4812H46.8914V13.1647Z" fill="#ACACAC"/>
<path d="M48.2312 13.1647H46.8914V14.4812H48.2312V13.1647Z" fill="#ACACAC"/>
<path d="M49.5709 13.1647H48.2312V14.4812H49.5709V13.1647Z" fill="#ACACAC"/>
<path d="M50.9107 13.1647H49.5709V14.4812H50.9107V13.1647Z" fill="#747474"/>
<path d="M52.2504 13.1647H50.9107V14.4812H52.2504V13.1647Z" fill="#747474"/>
<path d="M53.5902 13.1647H52.2504V14.4812H53.5902V13.1647Z" fill="#747474"/>
<path d="M54.9299 13.1647H53.5902V14.4812H54.9299V13.1647Z" fill="#747474"/>
<path d="M14.7373 14.4812H13.3975V15.7976H14.7373V14.4812Z" fill="#ACACAC"/>
<path d="M16.077 14.4812H14.7373V15.7976H16.077V14.4812Z" fill="#ACACAC"/>
<path d="M17.4168 14.4812H16.077V15.7976H17.4168V14.4812Z" fill="#E6E6E6"/>
<path d="M18.7566 14.4812H17.4168V15.7976H18.7566V14.4812Z" fill="#E6E6E6"/>
<path d="M20.0963 14.4812H18.7566V15.7976H20.0963V14.4812Z" fill="#E6E6E6"/>
<path d="M21.4361 14.4812H20.0963V15.7976H21.4361V14.4812Z" fill="#E6E6E6"/>
<path d="M22.7758 14.4812H21.4361V15.7976H22.7758V14.4812Z" fill="#E6E6E6"/>
<path d="M24.1156 14.4812H22.7758V15.7976H24.1156V14.4812Z" fill="#E6E6E6"/>
<path d="M25.4553 14.4812H24.1156V15.7976H25.4553V14.4812Z" fill="#E6E6E6"/>
<path d="M26.7951 14.4812H25.4553V15.7976H26.7951V14.4812Z" fill="#E6E6E6"/>
<path d="M28.1348 14.4812H26.7951V15.7976H28.1348V14.4812Z" fill="#E6E6E6"/>
<path d="M29.4746 14.4812H28.1348V15.7976H29.4746V14.4812Z" fill="#E6E6E6"/>
<path d="M30.8143 14.4812H29.4746V15.7976H30.8143V14.4812Z" fill="#E6E6E6"/>
<path d="M32.1541 14.4812H30.8143V15.7976H32.1541V14.4812Z" fill="#E6E6E6"/>
<path d="M33.4939 14.4812H32.1541V15.7976H33.4939V14.4812Z" fill="#E6E6E6"/>
<path d="M34.8336 14.4812H33.4939V15.7976H34.8336V14.4812Z" fill="#E6E6E6"/>
<path d="M36.1734 14.4812H34.8336V15.7976H36.1734V14.4812Z" fill="#E6E6E6"/>
<path d="M37.5131 14.4812H36.1734V15.7976H37.5131V14.4812Z" fill="#E6E6E6"/>
<path d="M38.8529 14.4812H37.5131V15.7976H38.8529V14.4812Z" fill="#E6E6E6"/>
<path d="M40.1926 14.4812H38.8529V15.7976H40.1926V14.4812Z" fill="#E6E6E6"/>
<path d="M41.5324 14.4812H40.1926V15.7976H41.5324V14.4812Z" fill="#E6E6E6"/>
<path d="M42.8721 14.4812H41.5324V15.7976H42.8721V14.4812Z" fill="#E6E6E6"/>
<path d="M44.2119 14.4812H42.8721V15.7976H44.2119V14.4812Z" fill="#ACACAC"/>
<path d="M45.5516 14.4812H44.2119V15.7976H45.5516V14.4812Z" fill="#ACACAC"/>
<path d="M46.8914 14.4812H45.5516V15.7976H46.8914V14.4812Z" fill="#ACACAC"/>
<path d="M48.2312 14.4812H46.8914V15.7976H48.2312V14.4812Z" fill="#ACACAC"/>
<path d="M49.5709 14.4812H48.2312V15.7976H49.5709V14.4812Z" fill="#ACACAC"/>
<path d="M50.9107 14.4812H49.5709V15.7976H50.9107V14.4812Z" fill="#ACACAC"/>
<path d="M52.2504 14.4812H50.9107V15.7976H52.2504V14.4812Z" fill="#747474"/>
<path d="M53.5902 14.4812H52.2504V15.7976H53.5902V14.4812Z" fill="#747474"/>
<path d="M54.9299 14.4812H53.5902V15.7976H54.9299V14.4812Z" fill="#747474"/>
<path d="M56.2697 14.4812H54.9299V15.7976H56.2697V14.4812Z" fill="#747474"/>
<path d="M14.7373 15.7976H13.3975V17.1141H14.7373V15.7976Z" fill="#ACACAC"/>
<path d="M16.077 15.7976H14.7373V17.1141H16.077V15.7976Z" fill="#E6E6E6"/>
<path d="M17.4168 15.7976H16.077V17.1141H17.4168V15.7976Z" fill="#E6E6E6"/>
<path d="M18.7566 15.7976H17.4168V17.1141H18.7566V15.7976Z" fill="#E6E6E6"/>
<path d="M20.0963 15.7976H18.7566V17.1141H20.0963V15.7976Z" fill="#E6E6E6"/>
<path d="M21.4361 15.7976H20.0963V17.1141H21.4361V15.7976Z" fill="#E6E6E6"/>
<path d="M22.7758 15.7976H21.4361V17.1141H22.7758V15.7976Z" fill="#E6E6E6"/>
<path d="M24.1156 15.7976H22.7758V17.1141H24.1156V15.7976Z" fill="#E6E6E6"/>
<path d="M25.4553 15.7976H24.1156V17.1141H25.4553V15.7976Z" fill="#E6E6E6"/>
<path d="M26.7951 15.7976H25.4553V17.1141H26.7951V15.7976Z" fill="#E6E6E6"/>
<path d="M28.1348 15.7976H26.7951V17.1141H28.1348V15.7976Z" fill="#E6E6E6"/>
<path d="M29.4746 15.7976H28.1348V17.1141H29.4746V15.7976Z" fill="#E6E6E6"/>
<path d="M30.8143 15.7976H29.4746V17.1141H30.8143V15.7976Z" fill="#E6E6E6"/>
<path d="M32.1541 15.7976H30.8143V17.1141H32.1541V15.7976Z" fill="#E6E6E6"/>
<path d="M33.4939 15.7976H32.1541V17.1141H33.4939V15.7976Z" fill="#E6E6E6"/>
<path d="M34.8336 15.7976H33.4939V17.1141H34.8336V15.7976Z" fill="#E6E6E6"/>
<path d="M36.1734 15.7976H34.8336V17.1141H36.1734V15.7976Z" fill="#E6E6E6"/>
<path d="M37.5131 15.7976H36.1734V17.1141H37.5131V15.7976Z" fill="#E6E6E6"/>
<path d="M38.8529 15.7976H37.5131V17.1141H38.8529V15.7976Z" fill="#E6E6E6"/>
<path d="M40.1926 15.7976H38.8529V17.1141H40.1926V15.7976Z" fill="#E6E6E6"/>
<path d="M41.5324 15.7976H40.1926V17.1141H41.5324V15.7976Z" fill="#E6E6E6"/>
<path d="M42.8721 15.7976H41.5324V17.1141H42.8721V15.7976Z" fill="#E6E6E6"/>
<path d="M44.2119 15.7976H42.8721V17.1141H44.2119V15.7976Z" fill="#ACACAC"/>
<path d="M45.5516 15.7976H44.2119V17.1141H45.5516V15.7976Z" fill="#ACACAC"/>
<path d="M46.8914 15.7976H45.5516V17.1141H46.8914V15.7976Z" fill="#ACACAC"/>
<path d="M48.2312 15.7976H46.8914V17.1141H48.2312V15.7976Z" fill="#ACACAC"/>
<path d="M49.5709 15.7976H48.2312V17.1141H49.5709V15.7976Z" fill="#ACACAC"/>
<path d="M50.9107 15.7976H49.5709V17.1141H50.9107V15.7976Z" fill="#ACACAC"/>
<path d="M52.2504 15.7976H50.9107V17.1141H52.2504V15.7976Z" fill="#747474"/>
<path d="M53.5902 15.7976H52.2504V17.1141H53.5902V15.7976Z" fill="#747474"/>
<path d="M54.9299 15.7976H53.5902V17.1141H54.9299V15.7976Z" fill="#747474"/>
<path d="M56.2697 15.7976H54.9299V17.1141H56.2697V15.7976Z" fill="#747474"/>
<path d="M14.7373 17.1141H13.3975V18.4306H14.7373V17.1141Z" fill="#ACACAC"/>
<path d="M16.077 17.1141H14.7373V18.4306H16.077V17.1141Z" fill="#E6E6E6"/>
<path d="M17.4168 17.1141H16.077V18.4306H17.4168V17.1141Z" fill="#E6E6E6"/>
<path d="M18.7566 17.1141H17.4168V18.4306H18.7566V17.1141Z" fill="#E6E6E6"/>
<path d="M20.0963 17.1141H18.7566V18.4306H20.0963V17.1141Z" fill="#E6E6E6"/>
<path d="M21.4361 17.1141H20.0963V18.4306H21.4361V17.1141Z" fill="#E6E6E6"/>
<path d="M22.7758 17.1141H21.4361V18.4306H22.7758V17.1141Z" fill="#ACACAC"/>
<path d="M24.1156 17.1141H22.7758V18.4306H24.1156V17.1141Z" fill="#E6E6E6"/>
<path d="M25.4553 17.1141H24.1156V18.4306H25.4553V17.1141Z" fill="#E6E6E6"/>
<path d="M26.7951 17.1141H25.4553V18.4306H26.7951V17.1141Z" fill="#E6E6E6"/>
<path d="M28.1348 17.1141H26.7951V18.4306H28.1348V17.1141Z" fill="#E6E6E6"/>
<path d="M29.4746 17.1141H28.1348V18.4306H29.4746V17.1141Z" fill="#E6E6E6"/>
<path d="M30.8143 17.1141H29.4746V18.4306H30.8143V17.1141Z" fill="#E6E6E6"/>
<path d="M32.1541 17.1141H30.8143V18.4306H32.1541V17.1141Z" fill="#E6E6E6"/>
<path d="M33.4939 17.1141H32.1541V18.4306H33.4939V17.1141Z" fill="#E6E6E6"/>
<path d="M34.8336 17.1141H33.4939V18.4306H34.8336V17.1141Z" fill="#E6E6E6"/>
<path d="M36.1734 17.1141H34.8336V18.4306H36.1734V17.1141Z" fill="#E6E6E6"/>
<path d="M37.5131 17.1141H36.1734V18.4306H37.5131V17.1141Z" fill="#E6E6E6"/>
<path d="M38.8529 17.1141H37.5131V18.4306H38.8529V17.1141Z" fill="#E6E6E6"/>
<path d="M40.1926 17.1141H38.8529V18.4306H40.1926V17.1141Z" fill="#E6E6E6"/>
<path d="M41.5324 17.1141H40.1926V18.4306H41.5324V17.1141Z" fill="#E6E6E6"/>
<path d="M42.8721 17.1141H41.5324V18.4306H42.8721V17.1141Z" fill="#ACACAC"/>
<path d="M44.2119 17.1141H42.8721V18.4306H44.2119V17.1141Z" fill="#ACACAC"/>
<path d="M45.5516 17.1141H44.2119V18.4306H45.5516V17.1141Z" fill="#ACACAC"/>
<path d="M46.8914 17.1141H45.5516V18.4306H46.8914V17.1141Z" fill="#ACACAC"/>
<path d="M48.2312 17.1141H46.8914V18.4306H48.2312V17.1141Z" fill="#ACACAC"/>
<path d="M49.5709 17.1141H48.2312V18.4306H49.5709V17.1141Z" fill="#ACACAC"/>
<path d="M50.9107 17.1141H49.5709V18.4306H50.9107V17.1141Z" fill="#ACACAC"/>
<path d="M52.2504 17.1141H50.9107V18.4306H52.2504V17.1141Z" fill="#747474"/>
<path d="M53.5902 17.1141H52.2504V18.4306H53.5902V17.1141Z" fill="#747474"/>
<path d="M54.9299 17.1141H53.5902V18.4306H54.9299V17.1141Z" fill="#747474"/>
<path d="M56.2697 17.1141H54.9299V18.4306H56.2697V17.1141Z" fill="#747474"/>
<path d="M14.7373 18.4306H13.3975V19.747H14.7373V18.4306Z" fill="#ACACAC"/>
<path d="M16.077 18.4306H14.7373V19.747H16.077V18.4306Z" fill="#E6E6E6"/>
<path d="M17.4168 18.4306H16.077V19.747H17.4168V18.4306Z" fill="#E6E6E6"/>
<path d="M18.7566 18.4306H17.4168V19.747H18.7566V18.4306Z" fill="#E6E6E6"/>
<path d="M20.0963 18.4306H18.7566V19.747H20.0963V18.4306Z" fill="#E6E6E6"/>
<path d="M21.4361 18.4306H20.0963V19.747H21.4361V18.4306Z" fill="#E6E6E6"/>
<path d="M22.7758 18.4306H21.4361V19.747H22.7758V18.4306Z" fill="#ACACAC"/>
<path d="M24.1156 18.4306H22.7758V19.747H24.1156V18.4306Z" fill="#E6E6E6"/>
<path d="M25.4553 18.4306H24.1156V19.747H25.4553V18.4306Z" fill="#E6E6E6"/>
<path d="M26.7951 18.4306H25.4553V19.747H26.7951V18.4306Z" fill="#E6E6E6"/>
<path d="M28.1348 18.4306H26.7951V19.747H28.1348V18.4306Z" fill="#E6E6E6"/>
<path d="M29.4746 18.4306H28.1348V19.747H29.4746V18.4306Z" fill="#E6E6E6"/>
<path d="M30.8143 18.4306H29.4746V19.747H30.8143V18.4306Z" fill="#E6E6E6"/>
<path d="M32.1541 18.4306H30.8143V19.747H32.1541V18.4306Z" fill="#E6E6E6"/>
<path d="M33.4939 18.4306H32.1541V19.747H33.4939V18.4306Z" fill="#E6E6E6"/>
<path d="M34.8336 18.4306H33.4939V19.747H34.8336V18.4306Z" fill="#E6E6E6"/>
<path d="M36.1734 18.4306H34.8336V19.747H36.1734V18.4306Z" fill="#E6E6E6"/>
<path d="M37.5131 18.4306H36.1734V19.747H37.5131V18.4306Z" fill="#E6E6E6"/>
<path d="M38.8529 18.4306H37.5131V19.747H38.8529V18.4306Z" fill="#E6E6E6"/>
<path d="M40.1926 18.4306H38.8529V19.747H40.1926V18.4306Z" fill="#E6E6E6"/>
<path d="M41.5324 18.4306H40.1926V19.747H41.5324V18.4306Z" fill="#E6E6E6"/>
<path d="M42.8721 18.4306H41.5324V19.747H42.8721V18.4306Z" fill="#ACACAC"/>
<path d="M44.2119 18.4306H42.8721V19.747H44.2119V18.4306Z" fill="#ACACAC"/>
<path d="M45.5516 18.4306H44.2119V19.747H45.5516V18.4306Z" fill="#ACACAC"/>
<path d="M46.8914 18.4306H45.5516V19.747H46.8914V18.4306Z" fill="#ACACAC"/>
<path d="M48.2312 18.4306H46.8914V19.747H48.2312V18.4306Z" fill="#ACACAC"/>
<path d="M49.5709 18.4306H48.2312V19.747H49.5709V18.4306Z" fill="#ACACAC"/>
<path d="M50.9107 18.4306H49.5709V19.747H50.9107V18.4306Z" fill="#ACACAC"/>
<path d="M52.2504 18.4306H50.9107V19.747H52.2504V18.4306Z" fill="#747474"/>
<path d="M53.5902 18.4306H52.2504V19.747H53.5902V18.4306Z" fill="#747474"/>
<path d="M54.9299 18.4306H53.5902V19.747H54.9299V18.4306Z" fill="#747474"/>
<path d="M56.2697 18.4306H54.9299V19.747H56.2697V18.4306Z" fill="#747474"/>
<path d="M14.7373 19.747H13.3975V21.0635H14.7373V19.747Z" fill="#ACACAC"/>
<path d="M16.077 19.747H14.7373V21.0635H16.077V19.747Z" fill="#E6E6E6"/>
<path d="M17.4168 19.747H16.077V21.0635H17.4168V19.747Z" fill="#E6E6E6"/>
<path d="M18.7566 19.747H17.4168V21.0635H18.7566V19.747Z" fill="#E6E6E6"/>
<path d="M20.0963 19.747H18.7566V21.0635H20.0963V19.747Z" fill="#E6E6E6"/>
<path d="M21.4361 19.747H20.0963V21.0635H21.4361V19.747Z" fill="#E6E6E6"/>
<path d="M22.7758 19.747H21.4361V21.0635H22.7758V19.747Z" fill="#ACACAC"/>
<path d="M24.1156 19.747H22.7758V21.0635H24.1156V19.747Z" fill="#E6E6E6"/>
<path d="M25.4553 19.747H24.1156V21.0635H25.4553V19.747Z" fill="#E6E6E6"/>
<path d="M26.7951 19.747H25.4553V21.0635H26.7951V19.747Z" fill="#E6E6E6"/>
<path d="M28.1348 19.747H26.7951V21.0635H28.1348V19.747Z" fill="#E6E6E6"/>
<path d="M29.4746 19.747H28.1348V21.0635H29.4746V19.747Z" fill="#E6E6E6"/>
<path d="M30.8143 19.747H29.4746V21.0635H30.8143V19.747Z" fill="#E6E6E6"/>
<path d="M32.1541 19.747H30.8143V21.0635H32.1541V19.747Z" fill="#E6E6E6"/>
<path d="M33.4939 19.747H32.1541V21.0635H33.4939V19.747Z" fill="#E6E6E6"/>
<path d="M34.8336 19.747H33.4939V21.0635H34.8336V19.747Z" fill="#E6E6E6"/>
<path d="M36.1734 19.747H34.8336V21.0635H36.1734V19.747Z" fill="#E6E6E6"/>
<path d="M37.5131 19.747H36.1734V21.0635H37.5131V19.747Z" fill="#E6E6E6"/>
<path d="M38.8529 19.747H37.5131V21.0635H38.8529V19.747Z" fill="#E6E6E6"/>
<path d="M40.1926 19.747H38.8529V21.0635H40.1926V19.747Z" fill="#E6E6E6"/>
<path d="M41.5324 19.747H40.1926V21.0635H41.5324V19.747Z" fill="#ACACAC"/>
<path d="M42.8721 19.747H41.5324V21.0635H42.8721V19.747Z" fill="#E6E6E6"/>
<path d="M44.2119 19.747H42.8721V21.0635H44.2119V19.747Z" fill="#ACACAC"/>
<path d="M45.5516 19.747H44.2119V21.0635H45.5516V19.747Z" fill="#ACACAC"/>
<path d="M46.8914 19.747H45.5516V21.0635H46.8914V19.747Z" fill="#ACACAC"/>
<path d="M48.2312 19.747H46.8914V21.0635H48.2312V19.747Z" fill="#ACACAC"/>
<path d="M49.5709 19.747H48.2312V21.0635H49.5709V19.747Z" fill="#747474"/>
<path d="M50.9107 19.747H49.5709V21.0635H50.9107V19.747Z" fill="#ACACAC"/>
<path d="M52.2504 19.747H50.9107V21.0635H52.2504V19.747Z" fill="#747474"/>
<path d="M53.5902 19.747H52.2504V21.0635H53.5902V19.747Z" fill="#747474"/>
<path d="M54.9299 19.747H53.5902V21.0635H54.9299V19.747Z" fill="#747474"/>
<path d="M56.2697 19.747H54.9299V21.0635H56.2697V19.747Z" fill="#747474"/>
<path d="M14.7373 21.0635H13.3975V22.38H14.7373V21.0635Z" fill="#ACACAC"/>
<path d="M16.077 21.0635H14.7373V22.38H16.077V21.0635Z" fill="#E6E6E6"/>
<path d="M17.4168 21.0635H16.077V22.38H17.4168V21.0635Z" fill="#E6E6E6"/>
<path d="M18.7566 21.0635H17.4168V22.38H18.7566V21.0635Z" fill="#E6E6E6"/>
<path d="M20.0963 21.0635H18.7566V22.38H20.0963V21.0635Z" fill="#ACACAC"/>
<path d="M21.4361 21.0635H20.0963V22.38H21.4361V21.0635Z" fill="#ACACAC"/>
<path d="M22.7758 21.0635H21.4361V22.38H22.7758V21.0635Z" fill="#ACACAC"/>
<path d="M24.1156 21.0635H22.7758V22.38H24.1156V21.0635Z" fill="#ACACAC"/>
<path d="M25.4553 21.0635H24.1156V22.38H25.4553V21.0635Z" fill="#ACACAC"/>
<path d="M26.7951 21.0635H25.4553V22.38H26.7951V21.0635Z" fill="#E6E6E6"/>
<path d="M28.1348 21.0635H26.7951V22.38H28.1348V21.0635Z" fill="#E6E6E6"/>
<path d="M29.4746 21.0635H28.1348V22.38H29.4746V21.0635Z" fill="#E6E6E6"/>
<path d="M30.8143 21.0635H29.4746V22.38H30.8143V21.0635Z" fill="#E6E6E6"/>
<path d="M32.1541 21.0635H30.8143V22.38H32.1541V21.0635Z" fill="#E6E6E6"/>
<path d="M33.4939 21.0635H32.1541V22.38H33.4939V21.0635Z" fill="#E6E6E6"/>
<path d="M34.8336 21.0635H33.4939V22.38H34.8336V21.0635Z" fill="#E6E6E6"/>
<path d="M36.1734 21.0635H34.8336V22.38H36.1734V21.0635Z" fill="#E6E6E6"/>
<path d="M37.5131 21.0635H36.1734V22.38H37.5131V21.0635Z" fill="#E6E6E6"/>
<path d="M38.8529 21.0635H37.5131V22.38H38.8529V21.0635Z" fill="#E6E6E6"/>
<path d="M40.1926 21.0635H38.8529V22.38H40.1926V21.0635Z" fill="#ACACAC"/>
<path d="M41.5324 21.0635H40.1926V22.38H41.5324V21.0635Z" fill="#E6E6E6"/>
<path d="M42.8721 21.0635H41.5324V22.38H42.8721V21.0635Z" fill="#ACACAC"/>
<path d="M44.2119 21.0635H42.8721V22.38H44.2119V21.0635Z" fill="#ACACAC"/>
<path d="M45.5516 21.0635H44.2119V22.38H45.5516V21.0635Z" fill="#ACACAC"/>
<path d="M46.8914 21.0635H45.5516V22.38H46.8914V21.0635Z" fill="#ACACAC"/>
<path d="M48.2312 21.0635H46.8914V22.38H48.2312V21.0635Z" fill="#ACACAC"/>
<path d="M49.5709 21.0635H48.2312V22.38H49.5709V21.0635Z" fill="#747474"/>
<path d="M50.9107 21.0635H49.5709V22.38H50.9107V21.0635Z" fill="#ACACAC"/>
<path d="M52.2504 21.0635H50.9107V22.38H52.2504V21.0635Z" fill="#747474"/>
<path d="M53.5902 21.0635H52.2504V22.38H53.5902V21.0635Z" fill="#747474"/>
<path d="M54.9299 21.0635H53.5902V22.38H54.9299V21.0635Z" fill="#747474"/>
<path d="M56.2697 21.0635H54.9299V22.38H56.2697V21.0635Z" fill="#747474"/>
<path d="M14.7373 22.38H13.3975V23.6965H14.7373V22.38Z" fill="#ACACAC"/>
<path d="M16.077 22.38H14.7373V23.6965H16.077V22.38Z" fill="#ACACAC"/>
<path d="M17.4168 22.38H16.077V23.6965H17.4168V22.38Z" fill="#ACACAC"/>
<path d="M18.7566 22.38H17.4168V23.6965H18.7566V22.38Z" fill="#ACACAC"/>
<path d="M20.0963 22.38H18.7566V23.6965H20.0963V22.38Z" fill="#ACACAC"/>
<path d="M21.4361 22.38H20.0963V23.6965H21.4361V22.38Z" fill="#ACACAC"/>
<path d="M22.7758 22.38H21.4361V23.6965H22.7758V22.38Z" fill="#ACACAC"/>
<path d="M24.1156 22.38H22.7758V23.6965H24.1156V22.38Z" fill="#ACACAC"/>
<path d="M25.4553 22.38H24.1156V23.6965H25.4553V22.38Z" fill="#ACACAC"/>
<path d="M26.7951 22.38H25.4553V23.6965H26.7951V22.38Z" fill="#ACACAC"/>
<path d="M28.1348 22.38H26.7951V23.6965H28.1348V22.38Z" fill="#ACACAC"/>
<path d="M29.4746 22.38H28.1348V23.6965H29.4746V22.38Z" fill="#ACACAC"/>
<path d="M30.8143 22.38H29.4746V23.6965H30.8143V22.38Z" fill="#ACACAC"/>
<path d="M32.1541 22.38H30.8143V23.6965H32.1541V22.38Z" fill="#E6E6E6"/>
<path d="M33.4939 22.38H32.1541V23.6965H33.4939V22.38Z" fill="#E6E6E6"/>
<path d="M34.8336 22.38H33.4939V23.6965H34.8336V22.38Z" fill="#E6E6E6"/>
<path d="M36.1734 22.38H34.8336V23.6965H36.1734V22.38Z" fill="#E6E6E6"/>
<path d="M37.5131 22.38H36.1734V23.6965H37.5131V22.38Z" fill="#E6E6E6"/>
<path d="M38.8529 22.38H37.5131V23.6965H38.8529V22.38Z" fill="#ACACAC"/>
<path d="M40.1926 22.38H38.8529V23.6965H40.1926V22.38Z" fill="#E6E6E6"/>
<path d="M41.5324 22.38H40.1926V23.6965H41.5324V22.38Z" fill="#ACACAC"/>
<path d="M42.8721 22.38H41.5324V23.6965H42.8721V22.38Z" fill="#ACACAC"/>
<path d="M44.2119 22.38H42.8721V23.6965H44.2119V22.38Z" fill="#ACACAC"/>
<path d="M45.5516 22.38H44.2119V23.6965H45.5516V22.38Z" fill="#ACACAC"/>
<path d="M46.8914 22.38H45.5516V23.6965H46.8914V22.38Z" fill="#ACACAC"/>
<path d="M48.2312 22.38H46.8914V23.6965H48.2312V22.38Z" fill="#747474"/>
<path d="M49.5709 22.38H48.2312V23.6965H49.5709V22.38Z" fill="#ACACAC"/>
<path d="M50.9107 22.38H49.5709V23.6965H50.9107V22.38Z" fill="#747474"/>
<path d="M52.2504 22.38H50.9107V23.6965H52.2504V22.38Z" fill="#747474"/>
<path d="M53.5902 22.38H52.2504V23.6965H53.5902V22.38Z" fill="#747474"/>
<path d="M54.9299 22.38H53.5902V23.6965H54.9299V22.38Z" fill="#747474"/>
<path d="M56.2697 22.38H54.9299V23.6965H56.2697V22.38Z" fill="#747474"/>
<path d="M13.3975 23.6965H12.0578V25.0129H13.3975V23.6965Z" fill="#ACACAC"/>
<path d="M14.7373 23.6965H13.3975V25.0129H14.7373V23.6965Z" fill="white"/>
<path d="M16.077 23.6965H14.7373V25.0129H16.077V23.6965Z" fill="white"/>
<path d="M17.4168 23.6965H16.077V25.0129H17.4168V23.6965Z" fill="#E6E6E6"/>
<path d="M18.7566 23.6965H17.4168V25.0129H18.7566V23.6965Z" fill="#E6E6E6"/>
<path d="M20.0963 23.6965H18.7566V25.0129H20.0963V23.6965Z" fill="#E6E6E6"/>
<path d="M21.4361 23.6965H20.0963V25.0129H21.4361V23.6965Z" fill="#E6E6E6"/>
<path d="M22.7758 23.6965H21.4361V25.0129H22.7758V23.6965Z" fill="#E6E6E6"/>
<path d="M24.1156 23.6965H22.7758V25.0129H24.1156V23.6965Z" fill="#E6E6E6"/>
<path d="M25.4553 23.6965H24.1156V25.0129H25.4553V23.6965Z" fill="#E6E6E6"/>
<path d="M26.7951 23.6965H25.4553V25.0129H26.7951V23.6965Z" fill="#E6E6E6"/>
<path d="M28.1348 23.6965H26.7951V25.0129H28.1348V23.6965Z" fill="#ACACAC"/>
<path d="M29.4746 23.6965H28.1348V25.0129H29.4746V23.6965Z" fill="#ACACAC"/>
<path d="M30.8143 23.6965H29.4746V25.0129H30.8143V23.6965Z" fill="#ACACAC"/>
<path d="M32.1541 23.6965H30.8143V25.0129H32.1541V23.6965Z" fill="#ACACAC"/>
<path d="M33.4939 23.6965H32.1541V25.0129H33.4939V23.6965Z" fill="#ACACAC"/>
<path d="M34.8336 23.6965H33.4939V25.0129H34.8336V23.6965Z" fill="#E6E6E6"/>
<path d="M36.1734 23.6965H34.8336V25.0129H36.1734V23.6965Z" fill="#E6E6E6"/>
<path d="M37.5131 23.6965H36.1734V25.0129H37.5131V23.6965Z" fill="#ACACAC"/>
<path d="M38.8529 23.6965H37.5131V25.0129H38.8529V23.6965Z" fill="#ACACAC"/>
<path d="M40.1926 23.6965H38.8529V25.0129H40.1926V23.6965Z" fill="#ACACAC"/>
<path d="M41.5324 23.6965H40.1926V25.0129H41.5324V23.6965Z" fill="#ACACAC"/>
<path d="M42.8721 23.6965H41.5324V25.0129H42.8721V23.6965Z" fill="#ACACAC"/>
<path d="M44.2119 23.6965H42.8721V25.0129H44.2119V23.6965Z" fill="#ACACAC"/>
<path d="M45.5516 23.6965H44.2119V25.0129H45.5516V23.6965Z" fill="#ACACAC"/>
<path d="M46.8914 23.6965H45.5516V25.0129H46.8914V23.6965Z" fill="#ACACAC"/>
<path d="M48.2312 23.6965H46.8914V25.0129H48.2312V23.6965Z" fill="#747474"/>
<path d="M49.5709 23.6965H48.2312V25.0129H49.5709V23.6965Z" fill="#ACACAC"/>
<path d="M50.9107 23.6965H49.5709V25.0129H50.9107V23.6965Z" fill="#747474"/>
<path d="M52.2504 23.6965H50.9107V25.0129H52.2504V23.6965Z" fill="#747474"/>
<path d="M53.5902 23.6965H52.2504V25.0129H53.5902V23.6965Z" fill="#747474"/>
<path d="M54.9299 23.6965H53.5902V25.0129H54.9299V23.6965Z" fill="#747474"/>
<path d="M56.2697 23.6965H54.9299V25.0129H56.2697V23.6965Z" fill="#747474"/>
<path d="M12.0578 25.0129H10.718V26.3294H12.0578V25.0129Z" fill="#ACACAC"/>
<path d="M13.3975 25.0129H12.0578V26.3294H13.3975V25.0129Z" fill="white"/>
<path d="M14.7373 25.0129H13.3975V26.3294H14.7373V25.0129Z" fill="white"/>
<path d="M16.077 25.0129H14.7373V26.3294H16.077V25.0129Z" fill="#E6E6E6"/>
<path d="M17.4168 25.0129H16.077V26.3294H17.4168V25.0129Z" fill="#E6E6E6"/>
<path d="M18.7566 25.0129H17.4168V26.3294H18.7566V25.0129Z" fill="#E6E6E6"/>
<path d="M20.0963 25.0129H18.7566V26.3294H20.0963V25.0129Z" fill="#E6E6E6"/>
<path d="M21.4361 25.0129H20.0963V26.3294H21.4361V25.0129Z" fill="#E6E6E6"/>
<path d="M22.7758 25.0129H21.4361V26.3294H22.7758V25.0129Z" fill="#E6E6E6"/>
<path d="M24.1156 25.0129H22.7758V26.3294H24.1156V25.0129Z" fill="#E6E6E6"/>
<path d="M25.4553 25.0129H24.1156V26.3294H25.4553V25.0129Z" fill="#E6E6E6"/>
<path d="M26.7951 25.0129H25.4553V26.3294H26.7951V25.0129Z" fill="#E6E6E6"/>
<path d="M28.1348 25.0129H26.7951V26.3294H28.1348V25.0129Z" fill="#E6E6E6"/>
<path d="M29.4746 25.0129H28.1348V26.3294H29.4746V25.0129Z" fill="#E6E6E6"/>
<path d="M30.8143 25.0129H29.4746V26.3294H30.8143V25.0129Z" fill="#E6E6E6"/>
<path d="M32.1541 25.0129H30.8143V26.3294H32.1541V25.0129Z" fill="#E6E6E6"/>
<path d="M33.4939 25.0129H32.1541V26.3294H33.4939V25.0129Z" fill="#ACACAC"/>
<path d="M34.8336 25.0129H33.4939V26.3294H34.8336V25.0129Z" fill="#ACACAC"/>
<path d="M36.1734 25.0129H34.8336V26.3294H36.1734V25.0129Z" fill="#ACACAC"/>
<path d="M37.5131 25.0129H36.1734V26.3294H37.5131V25.0129Z" fill="#747474"/>
<path d="M38.8529 25.0129H37.5131V26.3294H38.8529V25.0129Z" fill="#747474"/>
<path d="M40.1926 25.0129H38.8529V26.3294H40.1926V25.0129Z" fill="#747474"/>
<path d="M41.5324 25.0129H40.1926V26.3294H41.5324V25.0129Z" fill="#ACACAC"/>
<path d="M42.8721 25.0129H41.5324V26.3294H42.8721V25.0129Z" fill="#ACACAC"/>
<path d="M44.2119 25.0129H42.8721V26.3294H44.2119V25.0129Z" fill="#ACACAC"/>
<path d="M45.5516 25.0129H44.2119V26.3294H45.5516V25.0129Z" fill="#ACACAC"/>
<path d="M46.8914 25.0129H45.5516V26.3294H46.8914V25.0129Z" fill="#ACACAC"/>
<path d="M48.2312 25.0129H46.8914V26.3294H48.2312V25.0129Z" fill="#ACACAC"/>
<path d="M49.5709 25.0129H48.2312V26.3294H49.5709V25.0129Z" fill="#747474"/>
<path d="M50.9107 25.0129H49.5709V26.3294H50.9107V25.0129Z" fill="#747474"/>
<path d="M52.2504 25.0129H50.9107V26.3294H52.2504V25.0129Z" fill="#747474"/>
<path d="M53.5902 25.0129H52.2504V26.3294H53.5902V25.0129Z" fill="#747474"/>
<path d="M54.9299 25.0129H53.5902V26.3294H54.9299V25.0129Z" fill="#747474"/>
<path d="M56.2697 25.0129H54.9299V26.3294H56.2697V25.0129Z" fill="#747474"/>
<path d="M9.37828 26.3294H8.03852V27.6459H9.37828V26.3294Z" fill="#ACACAC"/>
<path d="M10.718 26.3294H9.37828V27.6459H10.718V26.3294Z" fill="#ACACAC"/>
<path d="M12.0578 26.3294H10.718V27.6459H12.0578V26.3294Z" fill="white"/>
<path d="M13.3975 26.3294H12.0578V27.6459H13.3975V26.3294Z" fill="#E6E6E6"/>
<path d="M14.7373 26.3294H13.3975V27.6459H14.7373V26.3294Z" fill="#E6E6E6"/>
<path d="M16.077 26.3294H14.7373V27.6459H16.077V26.3294Z" fill="#E6E6E6"/>
<path d="M17.4168 26.3294H16.077V27.6459H17.4168V26.3294Z" fill="#E6E6E6"/>
<path d="M18.7566 26.3294H17.4168V27.6459H18.7566V26.3294Z" fill="#E6E6E6"/>
<path d="M20.0963 26.3294H18.7566V27.6459H20.0963V26.3294Z" fill="#E6E6E6"/>
<path d="M21.4361 26.3294H20.0963V27.6459H21.4361V26.3294Z" fill="#E6E6E6"/>
<path d="M22.7758 26.3294H21.4361V27.6459H22.7758V26.3294Z" fill="#E6E6E6"/>
<path d="M24.1156 26.3294H22.7758V27.6459H24.1156V26.3294Z" fill="#E6E6E6"/>
<path d="M25.4553 26.3294H24.1156V27.6459H25.4553V26.3294Z" fill="#E6E6E6"/>
<path d="M26.7951 26.3294H25.4553V27.6459H26.7951V26.3294Z" fill="#E6E6E6"/>
<path d="M28.1348 26.3294H26.7951V27.6459H28.1348V26.3294Z" fill="#E6E6E6"/>
<path d="M29.4746 26.3294H28.1348V27.6459H29.4746V26.3294Z" fill="#E6E6E6"/>
<path d="M30.8143 26.3294H29.4746V27.6459H30.8143V26.3294Z" fill="#E6E6E6"/>
<path d="M32.1541 26.3294H30.8143V27.6459H32.1541V26.3294Z" fill="#E6E6E6"/>
<path d="M33.4939 26.3294H32.1541V27.6459H33.4939V26.3294Z" fill="#E6E6E6"/>
<path d="M34.8336 26.3294H33.4939V27.6459H34.8336V26.3294Z" fill="#E6E6E6"/>
<path d="M36.1734 26.3294H34.8336V27.6459H36.1734V26.3294Z" fill="#ACACAC"/>
<path d="M37.5131 26.3294H36.1734V27.6459H37.5131V26.3294Z" fill="#ACACAC"/>
<path d="M38.8529 26.3294H37.5131V27.6459H38.8529V26.3294Z" fill="#ACACAC"/>
<path d="M40.1926 26.3294H38.8529V27.6459H40.1926V26.3294Z" fill="#747474"/>
<path d="M41.5324 26.3294H40.1926V27.6459H41.5324V26.3294Z" fill="#747474"/>
<path d="M42.8721 26.3294H41.5324V27.6459H42.8721V26.3294Z" fill="#747474"/>
<path d="M44.2119 26.3294H42.8721V27.6459H44.2119V26.3294Z" fill="#747474"/>
<path d="M45.5516 26.3294H44.2119V27.6459H45.5516V26.3294Z" fill="#ACACAC"/>
<path d="M46.8914 26.3294H45.5516V27.6459H46.8914V26.3294Z" fill="#747474"/>
<path d="M48.2312 26.3294H46.8914V27.6459H48.2312V26.3294Z" fill="#747474"/>
<path d="M49.5709 26.3294H48.2312V27.6459H49.5709V26.3294Z" fill="#747474"/>
<path d="M50.9107 26.3294H49.5709V27.6459H50.9107V26.3294Z" fill="#747474"/>
<path d="M52.2504 26.3294H50.9107V27.6459H52.2504V26.3294Z" fill="#747474"/>
<path d="M53.5902 26.3294H52.2504V27.6459H53.5902V26.3294Z" fill="#747474"/>
<path d="M54.9299 26.3294H53.5902V27.6459H54.9299V26.3294Z" fill="#747474"/>
<path d="M56.2697 26.3294H54.9299V27.6459H56.2697V26.3294Z" fill="#747474"/>
<path d="M8.03852 27.6459H6.69877V28.9623H8.03852V27.6459Z" fill="#ACACAC"/>
<path d="M9.37828 27.6459H8.03852V28.9623H9.37828V27.6459Z" fill="white"/>
<path d="M10.718 27.6459H9.37828V28.9623H10.718V27.6459Z" fill="white"/>
<path d="M12.0578 27.6459H10.718V28.9623H12.0578V27.6459Z" fill="#E6E6E6"/>
<path d="M13.3975 27.6459H12.0578V28.9623H13.3975V27.6459Z" fill="#E6E6E6"/>
<path d="M14.7373 27.6459H13.3975V28.9623H14.7373V27.6459Z" fill="#E6E6E6"/>
<path d="M16.077 27.6459H14.7373V28.9623H16.077V27.6459Z" fill="#E6E6E6"/>
<path d="M17.4168 27.6459H16.077V28.9623H17.4168V27.6459Z" fill="#E6E6E6"/>
<path d="M18.7566 27.6459H17.4168V28.9623H18.7566V27.6459Z" fill="#E6E6E6"/>
<path d="M20.0963 27.6459H18.7566V28.9623H20.0963V27.6459Z" fill="#E6E6E6"/>
<path d="M21.4361 27.6459H20.0963V28.9623H21.4361V27.6459Z" fill="#E6E6E6"/>
<path d="M22.7758 27.6459H21.4361V28.9623H22.7758V27.6459Z" fill="#E6E6E6"/>
<path d="M24.1156 27.6459H22.7758V28.9623H24.1156V27.6459Z" fill="#E6E6E6"/>
<path d="M25.4553 27.6459H24.1156V28.9623H25.4553V27.6459Z" fill="#E6E6E6"/>
<path d="M26.7951 27.6459H25.4553V28.9623H26.7951V27.6459Z" fill="#E6E6E6"/>
<path d="M28.1348 27.6459H26.7951V28.9623H28.1348V27.6459Z" fill="#E6E6E6"/>
<path d="M29.4746 27.6459H28.1348V28.9623H29.4746V27.6459Z" fill="#E6E6E6"/>
<path d="M30.8143 27.6459H29.4746V28.9623H30.8143V27.6459Z" fill="#E6E6E6"/>
<path d="M32.1541 27.6459H30.8143V28.9623H32.1541V27.6459Z" fill="#E6E6E6"/>
<path d="M33.4939 27.6459H32.1541V28.9623H33.4939V27.6459Z" fill="#E6E6E6"/>
<path d="M34.8336 27.6459H33.4939V28.9623H34.8336V27.6459Z" fill="#E6E6E6"/>
<path d="M36.1734 27.6459H34.8336V28.9623H36.1734V27.6459Z" fill="#E6E6E6"/>
<path d="M37.5131 27.6459H36.1734V28.9623H37.5131V27.6459Z" fill="#ACACAC"/>
<path d="M38.8529 27.6459H37.5131V28.9623H38.8529V27.6459Z" fill="#ACACAC"/>
<path d="M40.1926 27.6459H38.8529V28.9623H40.1926V27.6459Z" fill="#ACACAC"/>
<path d="M41.5324 27.6459H40.1926V28.9623H41.5324V27.6459Z" fill="#ACACAC"/>
<path d="M42.8721 27.6459H41.5324V28.9623H42.8721V27.6459Z" fill="#ACACAC"/>
<path d="M44.2119 27.6459H42.8721V28.9623H44.2119V27.6459Z" fill="#747474"/>
<path d="M45.5516 27.6459H44.2119V28.9623H45.5516V27.6459Z" fill="#747474"/>
<path d="M46.8914 27.6459H45.5516V28.9623H46.8914V27.6459Z" fill="#747474"/>
<path d="M48.2312 27.6459H46.8914V28.9623H48.2312V27.6459Z" fill="#747474"/>
<path d="M49.5709 27.6459H48.2312V28.9623H49.5709V27.6459Z" fill="#747474"/>
<path d="M50.9107 27.6459H49.5709V28.9623H50.9107V27.6459Z" fill="#747474"/>
<path d="M52.2504 27.6459H50.9107V28.9623H52.2504V27.6459Z" fill="#747474"/>
<path d="M53.5902 27.6459H52.2504V28.9623H53.5902V27.6459Z" fill="#747474"/>
<path d="M54.9299 27.6459H53.5902V28.9623H54.9299V27.6459Z" fill="#747474"/>
<path d="M56.2697 27.6459H54.9299V28.9623H56.2697V27.6459Z" fill="#747474"/>
<path d="M57.6094 27.6459H56.2697V28.9623H57.6094V27.6459Z" fill="#282828"/>
<path d="M6.69877 28.9623H5.35902V30.2788H6.69877V28.9623Z" fill="#ACACAC"/>
<path d="M8.03852 28.9623H6.69877V30.2788H8.03852V28.9623Z" fill="white"/>
<path d="M9.37828 28.9623H8.03852V30.2788H9.37828V28.9623Z" fill="white"/>
<path d="M10.718 28.9623H9.37828V30.2788H10.718V28.9623Z" fill="#E6E6E6"/>
<path d="M12.0578 28.9623H10.718V30.2788H12.0578V28.9623Z" fill="#E6E6E6"/>
<path d="M13.3975 28.9623H12.0578V30.2788H13.3975V28.9623Z" fill="#E6E6E6"/>
<path d="M14.7373 28.9623H13.3975V30.2788H14.7373V28.9623Z" fill="#E6E6E6"/>
<path d="M16.077 28.9623H14.7373V30.2788H16.077V28.9623Z" fill="#E6E6E6"/>
<path d="M17.4168 28.9623H16.077V30.2788H17.4168V28.9623Z" fill="#E6E6E6"/>
<path d="M18.7566 28.9623H17.4168V30.2788H18.7566V28.9623Z" fill="#E6E6E6"/>
<path d="M20.0963 28.9623H18.7566V30.2788H20.0963V28.9623Z" fill="#E6E6E6"/>
<path d="M21.4361 28.9623H20.0963V30.2788H21.4361V28.9623Z" fill="#E6E6E6"/>
<path d="M22.7758 28.9623H21.4361V30.2788H22.7758V28.9623Z" fill="#E6E6E6"/>
<path d="M24.1156 28.9623H22.7758V30.2788H24.1156V28.9623Z" fill="#E6E6E6"/>
<path d="M25.4553 28.9623H24.1156V30.2788H25.4553V28.9623Z" fill="#E6E6E6"/>
<path d="M26.7951 28.9623H25.4553V30.2788H26.7951V28.9623Z" fill="#E6E6E6"/>
<path d="M28.1348 28.9623H26.7951V30.2788H28.1348V28.9623Z" fill="#E6E6E6"/>
<path d="M29.4746 28.9623H28.1348V30.2788H29.4746V28.9623Z" fill="#E6E6E6"/>
<path d="M30.8143 28.9623H29.4746V30.2788H30.8143V28.9623Z" fill="#E6E6E6"/>
<path d="M32.1541 28.9623H30.8143V30.2788H32.1541V28.9623Z" fill="#E6E6E6"/>
<path d="M33.4939 28.9623H32.1541V30.2788H33.4939V28.9623Z" fill="#E6E6E6"/>
<path d="M34.8336 28.9623H33.4939V30.2788H34.8336V28.9623Z" fill="#E6E6E6"/>
<path d="M36.1734 28.9623H34.8336V30.2788H36.1734V28.9623Z" fill="#E6E6E6"/>
<path d="M37.5131 28.9623H36.1734V30.2788H37.5131V28.9623Z" fill="#ACACAC"/>
<path d="M38.8529 28.9623H37.5131V30.2788H38.8529V28.9623Z" fill="#ACACAC"/>
<path d="M40.1926 28.9623H38.8529V30.2788H40.1926V28.9623Z" fill="#ACACAC"/>
<path d="M41.5324 28.9623H40.1926V30.2788H41.5324V28.9623Z" fill="#ACACAC"/>
<path d="M42.8721 28.9623H41.5324V30.2788H42.8721V28.9623Z" fill="#ACACAC"/>
<path d="M44.2119 28.9623H42.8721V30.2788H44.2119V28.9623Z" fill="#747474"/>
<path d="M45.5516 28.9623H44.2119V30.2788H45.5516V28.9623Z" fill="#747474"/>
<path d="M46.8914 28.9623H45.5516V30.2788H46.8914V28.9623Z" fill="#747474"/>
<path d="M48.2312 28.9623H46.8914V30.2788H48.2312V28.9623Z" fill="#747474"/>
<path d="M49.5709 28.9623H48.2312V30.2788H49.5709V28.9623Z" fill="#747474"/>
<path d="M50.9107 28.9623H49.5709V30.2788H50.9107V28.9623Z" fill="#747474"/>
<path d="M52.2504 28.9623H50.9107V30.2788H52.2504V28.9623Z" fill="#747474"/>
<path d="M53.5902 28.9623H52.2504V30.2788H53.5902V28.9623Z" fill="#747474"/>
<path d="M54.9299 28.9623H53.5902V30.2788H54.9299V28.9623Z" fill="#747474"/>
<path d="M56.2697 28.9623H54.9299V30.2788H56.2697V28.9623Z" fill="#282828"/>
<path d="M57.6094 28.9623H56.2697V30.2788H57.6094V28.9623Z" fill="#282828"/>
<path d="M58.9492 28.9623H57.6094V30.2788H58.9492V28.9623Z" fill="#282828"/>
<path d="M5.35902 30.2788H4.01926V31.5953H5.35902V30.2788Z" fill="#ACACAC"/>
<path d="M6.69877 30.2788H5.35902V31.5953H6.69877V30.2788Z" fill="white"/>
<path d="M8.03852 30.2788H6.69877V31.5953H8.03852V30.2788Z" fill="white"/>
<path d="M9.37828 30.2788H8.03852V31.5953H9.37828V30.2788Z" fill="white"/>
<path d="M10.718 30.2788H9.37828V31.5953H10.718V30.2788Z" fill="white"/>
<path d="M12.0578 30.2788H10.718V31.5953H12.0578V30.2788Z" fill="white"/>
<path d="M13.3975 30.2788H12.0578V31.5953H13.3975V30.2788Z" fill="white"/>
<path d="M14.7373 30.2788H13.3975V31.5953H14.7373V30.2788Z" fill="white"/>
<path d="M16.077 30.2788H14.7373V31.5953H16.077V30.2788Z" fill="#E6E6E6"/>
<path d="M17.4168 30.2788H16.077V31.5953H17.4168V30.2788Z" fill="#E6E6E6"/>
<path d="M18.7566 30.2788H17.4168V31.5953H18.7566V30.2788Z" fill="#E6E6E6"/>
<path d="M20.0963 30.2788H18.7566V31.5953H20.0963V30.2788Z" fill="#E6E6E6"/>
<path d="M21.4361 30.2788H20.0963V31.5953H21.4361V30.2788Z" fill="#E6E6E6"/>
<path d="M22.7758 30.2788H21.4361V31.5953H22.7758V30.2788Z" fill="#E6E6E6"/>
<path d="M24.1156 30.2788H22.7758V31.5953H24.1156V30.2788Z" fill="#E6E6E6"/>
<path d="M25.4553 30.2788H24.1156V31.5953H25.4553V30.2788Z" fill="#E6E6E6"/>
<path d="M26.7951 30.2788H25.4553V31.5953H26.7951V30.2788Z" fill="#E6E6E6"/>
<path d="M28.1348 30.2788H26.7951V31.5953H28.1348V30.2788Z" fill="#E6E6E6"/>
<path d="M29.4746 30.2788H28.1348V31.5953H29.4746V30.2788Z" fill="#E6E6E6"/>
<path d="M30.8143 30.2788H29.4746V31.5953H30.8143V30.2788Z" fill="#E6E6E6"/>
<path d="M32.1541 30.2788H30.8143V31.5953H32.1541V30.2788Z" fill="#E6E6E6"/>
<path d="M33.4939 30.2788H32.1541V31.5953H33.4939V30.2788Z" fill="#E6E6E6"/>
<path d="M34.8336 30.2788H33.4939V31.5953H34.8336V30.2788Z" fill="#E6E6E6"/>
<path d="M36.1734 30.2788H34.8336V31.5953H36.1734V30.2788Z" fill="#ACACAC"/>
<path d="M37.5131 30.2788H36.1734V31.5953H37.5131V30.2788Z" fill="#ACACAC"/>
<path d="M38.8529 30.2788H37.5131V31.5953H38.8529V30.2788Z" fill="#ACACAC"/>
<path d="M40.1926 30.2788H38.8529V31.5953H40.1926V30.2788Z" fill="#ACACAC"/>
<path d="M41.5324 30.2788H40.1926V31.5953H41.5324V30.2788Z" fill="#ACACAC"/>
<path d="M42.8721 30.2788H41.5324V31.5953H42.8721V30.2788Z" fill="#747474"/>
<path d="M44.2119 30.2788H42.8721V31.5953H44.2119V30.2788Z" fill="#747474"/>
<path d="M45.5516 30.2788H44.2119V31.5953H45.5516V30.2788Z" fill="#747474"/>
<path d="M46.8914 30.2788H45.5516V31.5953H46.8914V30.2788Z" fill="#747474"/>
<path d="M48.2312 30.2788H46.8914V31.5953H48.2312V30.2788Z" fill="#282828"/>
<path d="M49.5709 30.2788H48.2312V31.5953H49.5709V30.2788Z" fill="#282828"/>
<path d="M50.9107 30.2788H49.5709V31.5953H50.9107V30.2788Z" fill="#282828"/>
<path d="M52.2504 30.2788H50.9107V31.5953H52.2504V30.2788Z" fill="#282828"/>
<path d="M53.5902 30.2788H52.2504V31.5953H53.5902V30.2788Z" fill="#282828"/>
<path d="M54.9299 30.2788H53.5902V31.5953H54.9299V30.2788Z" fill="#282828"/>
<path d="M56.2697 30.2788H54.9299V31.5953H56.2697V30.2788Z" fill="#282828"/>
<path d="M57.6094 30.2788H56.2697V31.5953H57.6094V30.2788Z" fill="#282828"/>
<path d="M58.9492 30.2788H57.6094V31.5953H58.9492V30.2788Z" fill="#282828"/>
<path d="M60.2889 30.2788H58.9492V31.5953H60.2889V30.2788Z" fill="#282828"/>
<path d="M4.01926 31.5953H2.67951V32.9117H4.01926V31.5953Z" fill="#ACACAC"/>
<path d="M5.35902 31.5953H4.01926V32.9117H5.35902V31.5953Z" fill="white"/>
<path d="M6.69877 31.5953H5.35902V32.9117H6.69877V31.5953Z" fill="white"/>
<path d="M8.03852 31.5953H6.69877V32.9117H8.03852V31.5953Z" fill="#ACACAC"/>
<path d="M9.37828 31.5953H8.03852V32.9117H9.37828V31.5953Z" fill="#ACACAC"/>
<path d="M10.718 31.5953H9.37828V32.9117H10.718V31.5953Z" fill="#ACACAC"/>
<path d="M12.0578 31.5953H10.718V32.9117H12.0578V31.5953Z" fill="#ACACAC"/>
<path d="M13.3975 31.5953H12.0578V32.9117H13.3975V31.5953Z" fill="#ACACAC"/>
<path d="M14.7373 31.5953H13.3975V32.9117H14.7373V31.5953Z" fill="white"/>
<path d="M16.077 31.5953H14.7373V32.9117H16.077V31.5953Z" fill="white"/>
<path d="M17.4168 31.5953H16.077V32.9117H17.4168V31.5953Z" fill="white"/>
<path d="M18.7566 31.5953H17.4168V32.9117H18.7566V31.5953Z" fill="#E6E6E6"/>
<path d="M20.0963 31.5953H18.7566V32.9117H20.0963V31.5953Z" fill="#E6E6E6"/>
<path d="M21.4361 31.5953H20.0963V32.9117H21.4361V31.5953Z" fill="#E6E6E6"/>
<path d="M22.7758 31.5953H21.4361V32.9117H22.7758V31.5953Z" fill="#E6E6E6"/>
<path d="M24.1156 31.5953H22.7758V32.9117H24.1156V31.5953Z" fill="#E6E6E6"/>
<path d="M25.4553 31.5953H24.1156V32.9117H25.4553V31.5953Z" fill="#E6E6E6"/>
<path d="M26.7951 31.5953H25.4553V32.9117H26.7951V31.5953Z" fill="#E6E6E6"/>
<path d="M28.1348 31.5953H26.7951V32.9117H28.1348V31.5953Z" fill="#E6E6E6"/>
<path d="M29.4746 31.5953H28.1348V32.9117H29.4746V31.5953Z" fill="#E6E6E6"/>
<path d="M30.8143 31.5953H29.4746V32.9117H30.8143V31.5953Z" fill="#E6E6E6"/>
<path d="M32.1541 31.5953H30.8143V32.9117H32.1541V31.5953Z" fill="#E6E6E6"/>
<path d="M33.4939 31.5953H32.1541V32.9117H33.4939V31.5953Z" fill="#E6E6E6"/>
<path d="M34.8336 31.5953H33.4939V32.9117H34.8336V31.5953Z" fill="#ACACAC"/>
<path d="M36.1734 31.5953H34.8336V32.9117H36.1734V31.5953Z" fill="#ACACAC"/>
<path d="M37.5131 31.5953H36.1734V32.9117H37.5131V31.5953Z" fill="#ACACAC"/>
<path d="M38.8529 31.5953H37.5131V32.9117H38.8529V31.5953Z" fill="#ACACAC"/>
<path d="M40.1926 31.5953H38.8529V32.9117H40.1926V31.5953Z" fill="#ACACAC"/>
<path d="M41.5324 31.5953H40.1926V32.9117H41.5324V31.5953Z" fill="#747474"/>
<path d="M42.8721 31.5953H41.5324V32.9117H42.8721V31.5953Z" fill="#747474"/>
<path d="M44.2119 31.5953H42.8721V32.9117H44.2119V31.5953Z" fill="#747474"/>
<path d="M45.5516 31.5953H44.2119V32.9117H45.5516V31.5953Z" fill="#747474"/>
<path d="M46.8914 31.5953H45.5516V32.9117H46.8914V31.5953Z" fill="#282828"/>
<path d="M48.2312 31.5953H46.8914V32.9117H48.2312V31.5953Z" fill="#282828"/>
<path d="M49.5709 31.5953H48.2312V32.9117H49.5709V31.5953Z" fill="#282828"/>
<path d="M50.9107 31.5953H49.5709V32.9117H50.9107V31.5953Z" fill="#282828"/>
<path d="M52.2504 31.5953H50.9107V32.9117H52.2504V31.5953Z" fill="#282828"/>
<path d="M53.5902 31.5953H52.2504V32.9117H53.5902V31.5953Z" fill="#282828"/>
<path d="M54.9299 31.5953H53.5902V32.9117H54.9299V31.5953Z" fill="#282828"/>
<path d="M56.2697 31.5953H54.9299V32.9117H56.2697V31.5953Z" fill="#282828"/>
<path d="M57.6094 31.5953H56.2697V32.9117H57.6094V31.5953Z" fill="#282828"/>
<path d="M58.9492 31.5953H57.6094V32.9117H58.9492V31.5953Z" fill="#282828"/>
<path d="M60.2889 31.5953H58.9492V32.9117H60.2889V31.5953Z" fill="#282828"/>
<path d="M2.67951 32.9117L1.33975 32.9117V34.2282H2.67951V32.9117Z" fill="#ACACAC"/>
<path d="M4.01926 32.9117H2.67951V34.2282H4.01926V32.9117Z" fill="white"/>
<path d="M5.35902 32.9117H4.01926V34.2282H5.35902V32.9117Z" fill="#ACACAC"/>
<path d="M6.69877 32.9117H5.35902V34.2282H6.69877V32.9117Z" fill="#ACACAC"/>
<path d="M8.03852 32.9117H6.69877V34.2282H8.03852V32.9117Z" fill="#ACACAC"/>
<path d="M9.37828 32.9117H8.03852V34.2282H9.37828V32.9117Z" fill="#ACACAC"/>
<path d="M10.718 32.9117H9.37828V34.2282H10.718V32.9117Z" fill="#ACACAC"/>
<path d="M12.0578 32.9117H10.718V34.2282H12.0578V32.9117Z" fill="#ACACAC"/>
<path d="M13.3975 32.9117H12.0578V34.2282H13.3975V32.9117Z" fill="#ACACAC"/>
<path d="M14.7373 32.9117H13.3975V34.2282H14.7373V32.9117Z" fill="#ACACAC"/>
<path d="M16.077 32.9117H14.7373V34.2282H16.077V32.9117Z" fill="#ACACAC"/>
<path d="M17.4168 32.9117H16.077V34.2282H17.4168V32.9117Z" fill="white"/>
<path d="M18.7566 32.9117H17.4168V34.2282H18.7566V32.9117Z" fill="white"/>
<path d="M20.0963 32.9117H18.7566V34.2282H20.0963V32.9117Z" fill="white"/>
<path d="M21.4361 32.9117H20.0963V34.2282H21.4361V32.9117Z" fill="#E6E6E6"/>
<path d="M22.7758 32.9117H21.4361V34.2282H22.7758V32.9117Z" fill="#E6E6E6"/>
<path d="M24.1156 32.9117H22.7758V34.2282H24.1156V32.9117Z" fill="#E6E6E6"/>
<path d="M25.4553 32.9117H24.1156V34.2282H25.4553V32.9117Z" fill="#E6E6E6"/>
<path d="M26.7951 32.9117H25.4553V34.2282H26.7951V32.9117Z" fill="#E6E6E6"/>
<path d="M28.1348 32.9117H26.7951V34.2282H28.1348V32.9117Z" fill="#E6E6E6"/>
<path d="M29.4746 32.9117H28.1348V34.2282H29.4746V32.9117Z" fill="#E6E6E6"/>
<path d="M30.8143 32.9117H29.4746V34.2282H30.8143V32.9117Z" fill="#E6E6E6"/>
<path d="M32.1541 32.9117H30.8143V34.2282H32.1541V32.9117Z" fill="#E6E6E6"/>
<path d="M33.4939 32.9117H32.1541V34.2282H33.4939V32.9117Z" fill="#ACACAC"/>
<path d="M34.8336 32.9117H33.4939V34.2282H34.8336V32.9117Z" fill="#E6E6E6"/>
<path d="M36.1734 32.9117H34.8336V34.2282H36.1734V32.9117Z" fill="#ACACAC"/>
<path d="M37.5131 32.9117H36.1734V34.2282H37.5131V32.9117Z" fill="#ACACAC"/>
<path d="M38.8529 32.9117H37.5131V34.2282H38.8529V32.9117Z" fill="#747474"/>
<path d="M40.1926 32.9117H38.8529V34.2282H40.1926V32.9117Z" fill="#747474"/>
<path d="M41.5324 32.9117H40.1926V34.2282H41.5324V32.9117Z" fill="#747474"/>
<path d="M42.8721 32.9117H41.5324V34.2282H42.8721V32.9117Z" fill="#747474"/>
<path d="M44.2119 32.9117H42.8721V34.2282H44.2119V32.9117Z" fill="#282828"/>
<path d="M45.5516 32.9117H44.2119V34.2282H45.5516V32.9117Z" fill="#282828"/>
<path d="M46.8914 32.9117H45.5516V34.2282H46.8914V32.9117Z" fill="#282828"/>
<path d="M48.2312 32.9117H46.8914V34.2282H48.2312V32.9117Z" fill="#282828"/>
<path d="M49.5709 32.9117H48.2312V34.2282H49.5709V32.9117Z" fill="#282828"/>
<path d="M50.9107 32.9117H49.5709V34.2282H50.9107V32.9117Z" fill="#282828"/>
<path d="M52.2504 32.9117H50.9107V34.2282H52.2504V32.9117Z" fill="#282828"/>
<path d="M53.5902 32.9117H52.2504V34.2282H53.5902V32.9117Z" fill="#282828"/>
<path d="M54.9299 32.9117H53.5902V34.2282H54.9299V32.9117Z" fill="#282828"/>
<path d="M56.2697 32.9117H54.9299V34.2282H56.2697V32.9117Z" fill="#282828"/>
<path d="M57.6094 32.9117H56.2697V34.2282H57.6094V32.9117Z" fill="#282828"/>
<path d="M58.9492 32.9117H57.6094V34.2282H58.9492V32.9117Z" fill="#282828"/>
<path d="M60.2889 32.9117H58.9492V34.2282H60.2889V32.9117Z" fill="#282828"/>
<path d="M1.33975 34.2282H0V35.5447H1.33975V34.2282Z" fill="#ACACAC"/>
<path d="M2.67951 34.2282H1.33975V35.5447H2.67951V34.2282Z" fill="white"/>
<path d="M4.01926 34.2282H2.67951V35.5447H4.01926V34.2282Z" fill="#ACACAC"/>
<path d="M5.35902 34.2282H4.01926V35.5447H5.35902V34.2282Z" fill="#ACACAC"/>
<path d="M6.69877 34.2282H5.35902V35.5447H6.69877V34.2282Z" fill="#ACACAC"/>
<path d="M8.03852 34.2282H6.69877V35.5447H8.03852V34.2282Z" fill="#ACACAC"/>
<path d="M9.37828 34.2282H8.03852V35.5447H9.37828V34.2282Z" fill="#ACACAC"/>
<path d="M10.718 34.2282H9.37828V35.5447H10.718V34.2282Z" fill="#ACACAC"/>
<path d="M12.0578 34.2282H10.718V35.5447H12.0578V34.2282Z" fill="#ACACAC"/>
<path d="M13.3975 34.2282H12.0578V35.5447H13.3975V34.2282Z" fill="#ACACAC"/>
<path d="M14.7373 34.2282H13.3975V35.5447H14.7373V34.2282Z" fill="#ACACAC"/>
<path d="M16.077 34.2282H14.7373V35.5447H16.077V34.2282Z" fill="#ACACAC"/>
<path d="M17.4168 34.2282H16.077V35.5447H17.4168V34.2282Z" fill="#ACACAC"/>
<path d="M18.7566 34.2282H17.4168V35.5447H18.7566V34.2282Z" fill="#ACACAC"/>
<path d="M20.0963 34.2282H18.7566V35.5447H20.0963V34.2282Z" fill="white"/>
<path d="M21.4361 34.2282H20.0963V35.5447H21.4361V34.2282Z" fill="white"/>
<path d="M22.7758 34.2282H21.4361V35.5447H22.7758V34.2282Z" fill="#E6E6E6"/>
<path d="M24.1156 34.2282H22.7758V35.5447H24.1156V34.2282Z" fill="#E6E6E6"/>
<path d="M25.4553 34.2282H24.1156V35.5447H25.4553V34.2282Z" fill="#E6E6E6"/>
<path d="M26.7951 34.2282H25.4553V35.5447H26.7951V34.2282Z" fill="#E6E6E6"/>
<path d="M28.1348 34.2282H26.7951V35.5447H28.1348V34.2282Z" fill="#E6E6E6"/>
<path d="M29.4746 34.2282H28.1348V35.5447H29.4746V34.2282Z" fill="#E6E6E6"/>
<path d="M30.8143 34.2282H29.4746V35.5447H30.8143V34.2282Z" fill="#E6E6E6"/>
<path d="M32.1541 34.2282H30.8143V35.5447H32.1541V34.2282Z" fill="#ACACAC"/>
<path d="M33.4939 34.2282H32.1541V35.5447H33.4939V34.2282Z" fill="#E6E6E6"/>
<path d="M34.8336 34.2282H33.4939V35.5447H34.8336V34.2282Z" fill="#ACACAC"/>
<path d="M36.1734 34.2282H34.8336V35.5447H36.1734V34.2282Z" fill="#ACACAC"/>
<path d="M37.5131 34.2282H36.1734V35.5447H37.5131V34.2282Z" fill="#747474"/>
<path d="M38.8529 34.2282H37.5131V35.5447H38.8529V34.2282Z" fill="#747474"/>
<path d="M40.1926 34.2282H38.8529V35.5447H40.1926V34.2282Z" fill="#747474"/>
<path d="M41.5324 34.2282H40.1926V35.5447H41.5324V34.2282Z" fill="#747474"/>
<path d="M42.8721 34.2282H41.5324V35.5447H42.8721V34.2282Z" fill="#282828"/>
<path d="M44.2119 34.2282H42.8721V35.5447H44.2119V34.2282Z" fill="#282828"/>
<path d="M45.5516 34.2282H44.2119V35.5447H45.5516V34.2282Z" fill="#282828"/>
<path d="M46.8914 34.2282H45.5516V35.5447H46.8914V34.2282Z" fill="#282828"/>
<path d="M48.2312 34.2282H46.8914V35.5447H48.2312V34.2282Z" fill="#282828"/>
<path d="M49.5709 34.2282H48.2312V35.5447H49.5709V34.2282Z" fill="#282828"/>
<path d="M50.9107 34.2282H49.5709V35.5447H50.9107V34.2282Z" fill="#282828"/>
<path d="M52.2504 34.2282H50.9107V35.5447H52.2504V34.2282Z" fill="#282828"/>
<path d="M53.5902 34.2282H52.2504V35.5447H53.5902V34.2282Z" fill="#282828"/>
<path d="M54.9299 34.2282H53.5902V35.5447H54.9299V34.2282Z" fill="#282828"/>
<path d="M56.2697 34.2282H54.9299V35.5447H56.2697V34.2282Z" fill="#282828"/>
<path d="M57.6094 34.2282H56.2697V35.5447H57.6094V34.2282Z" fill="#282828"/>
<path d="M58.9492 34.2282H57.6094V35.5447H58.9492V34.2282Z" fill="#282828"/>
<path d="M1.33975 35.5447H0V36.8612H1.33975V35.5447Z" fill="#ACACAC"/>
<path d="M2.67951 35.5447H1.33975V36.8612H2.67951V35.5447Z" fill="#ACACAC"/>
<path d="M4.01926 35.5447H2.67951V36.8612H4.01926V35.5447Z" fill="#ACACAC"/>
<path d="M5.35902 35.5447H4.01926V36.8612H5.35902V35.5447Z" fill="#ACACAC"/>
<path d="M6.69877 35.5447H5.35902V36.8612H6.69877V35.5447Z" fill="#ACACAC"/>
<path d="M8.03852 35.5447H6.69877V36.8612H8.03852V35.5447Z" fill="#ACACAC"/>
<path d="M9.37828 35.5447H8.03852V36.8612H9.37828V35.5447Z" fill="#ACACAC"/>
<path d="M10.718 35.5447H9.37828V36.8612H10.718V35.5447Z" fill="#ACACAC"/>
<path d="M12.0578 35.5447H10.718V36.8612H12.0578V35.5447Z" fill="#282828"/>
<path d="M13.3975 35.5447H12.0578V36.8612H13.3975V35.5447Z" fill="#282828"/>
<path d="M14.7373 35.5447H13.3975V36.8612H14.7373V35.5447Z" fill="#282828"/>
<path d="M16.077 35.5447H14.7373V36.8612H16.077V35.5447Z" fill="#282828"/>
<path d="M17.4168 35.5447H16.077V36.8612H17.4168V35.5447Z" fill="#ACACAC"/>
<path d="M18.7566 35.5447H17.4168V36.8612H18.7566V35.5447Z" fill="#ACACAC"/>
<path d="M20.0963 35.5447H18.7566V36.8612H20.0963V35.5447Z" fill="#ACACAC"/>
<path d="M21.4361 35.5447H20.0963V36.8612H21.4361V35.5447Z" fill="#ACACAC"/>
<path d="M22.7758 35.5447H21.4361V36.8612H22.7758V35.5447Z" fill="white"/>
<path d="M24.1156 35.5447H22.7758V36.8612H24.1156V35.5447Z" fill="#E6E6E6"/>
<path d="M25.4553 35.5447H24.1156V36.8612H25.4553V35.5447Z" fill="#E6E6E6"/>
<path d="M26.7951 35.5447H25.4553V36.8612H26.7951V35.5447Z" fill="#E6E6E6"/>
<path d="M28.1348 35.5447H26.7951V36.8612H28.1348V35.5447Z" fill="#E6E6E6"/>
<path d="M29.4746 35.5447H28.1348V36.8612H29.4746V35.5447Z" fill="#E6E6E6"/>
<path d="M30.8143 35.5447H29.4746V36.8612H30.8143V35.5447Z" fill="#ACACAC"/>
<path d="M32.1541 35.5447H30.8143V36.8612H32.1541V35.5447Z" fill="#E6E6E6"/>
<path d="M33.4939 35.5447H32.1541V36.8612H33.4939V35.5447Z" fill="#ACACAC"/>
<path d="M34.8336 35.5447H33.4939V36.8612H34.8336V35.5447Z" fill="#ACACAC"/>
<path d="M36.1734 35.5447H34.8336V36.8612H36.1734V35.5447Z" fill="#747474"/>
<path d="M37.5131 35.5447H36.1734V36.8612H37.5131V35.5447Z" fill="#747474"/>
<path d="M38.8529 35.5447H37.5131V36.8612H38.8529V35.5447Z" fill="#747474"/>
<path d="M40.1926 35.5447H38.8529V36.8612H40.1926V35.5447Z" fill="#747474"/>
<path d="M41.5324 35.5447H40.1926V36.8612H41.5324V35.5447Z" fill="#282828"/>
<path d="M42.8721 35.5447H41.5324V36.8612H42.8721V35.5447Z" fill="#282828"/>
<path d="M44.2119 35.5447H42.8721V36.8612H44.2119V35.5447Z" fill="#282828"/>
<path d="M45.5516 35.5447H44.2119V36.8612H45.5516V35.5447Z" fill="#282828"/>
<path d="M46.8914 35.5447H45.5516V36.8612H46.8914V35.5447Z" fill="#282828"/>
<path d="M48.2312 35.5447H46.8914V36.8612H48.2312V35.5447Z" fill="#282828"/>
<path d="M49.5709 35.5447H48.2312V36.8612H49.5709V35.5447Z" fill="#282828"/>
<path d="M50.9107 35.5447H49.5709V36.8612H50.9107V35.5447Z" fill="#282828"/>
<path d="M52.2504 35.5447H50.9107V36.8612H52.2504V35.5447Z" fill="#282828"/>
<path d="M53.5902 35.5447H52.2504V36.8612H53.5902V35.5447Z" fill="#282828"/>
<path d="M54.9299 35.5447H53.5902V36.8612H54.9299V35.5447Z" fill="#282828"/>
<path d="M56.2697 35.5447H54.9299V36.8612H56.2697V35.5447Z" fill="#282828"/>
<path d="M57.6094 35.5447H56.2697V36.8612H57.6094V35.5447Z" fill="#282828"/>
<path d="M2.67951 36.8612H1.33975V38.1776H2.67951V36.8612Z" fill="#ACACAC"/>
<path d="M4.01926 36.8612H2.67951V38.1776H4.01926V36.8612Z" fill="#ACACAC"/>
<path d="M5.35902 36.8612H4.01926V38.1776H5.35902V36.8612Z" fill="#ACACAC"/>
<path d="M6.69877 36.8612H5.35902V38.1776H6.69877V36.8612Z" fill="#ACACAC"/>
<path d="M8.03852 36.8612H6.69877V38.1776H8.03852V36.8612Z" fill="#ACACAC"/>
<path d="M9.37828 36.8612H8.03852V38.1776H9.37828V36.8612Z" fill="#282828"/>
<path d="M10.718 36.8612H9.37828V38.1776H10.718V36.8612Z" fill="#282828"/>
<path d="M12.0578 36.8612H10.718V38.1776H12.0578V36.8612Z" fill="#282828"/>
<path d="M13.3975 36.8612H12.0578V38.1776H13.3975V36.8612Z" fill="#282828"/>
<path d="M14.7373 36.8612H13.3975V38.1776H14.7373V36.8612Z" fill="#282828"/>
<path d="M16.077 36.8612H14.7373V38.1776H16.077V36.8612Z" fill="#282828"/>
<path d="M17.4168 36.8612H16.077V38.1776H17.4168V36.8612Z" fill="#282828"/>
<path d="M18.7566 36.8612H17.4168V38.1776H18.7566V36.8612Z" fill="#282828"/>
<path d="M20.0963 36.8612H18.7566V38.1776H20.0963V36.8612Z" fill="#ACACAC"/>
<path d="M21.4361 36.8612H20.0963V38.1776H21.4361V36.8612Z" fill="#ACACAC"/>
<path d="M22.7758 36.8612H21.4361V38.1776H22.7758V36.8612Z" fill="#ACACAC"/>
<path d="M24.1156 36.8612H22.7758V38.1776H24.1156V36.8612Z" fill="white"/>
<path d="M25.4553 36.8612H24.1156V38.1776H25.4553V36.8612Z" fill="#E6E6E6"/>
<path d="M26.7951 36.8612H25.4553V38.1776H26.7951V36.8612Z" fill="#E6E6E6"/>
<path d="M28.1348 36.8612H26.7951V38.1776H28.1348V36.8612Z" fill="#E6E6E6"/>
<path d="M29.4746 36.8612H28.1348V38.1776H29.4746V36.8612Z" fill="#ACACAC"/>
<path d="M30.8143 36.8612H29.4746V38.1776H30.8143V36.8612Z" fill="#E6E6E6"/>
<path d="M32.1541 36.8612H30.8143V38.1776H32.1541V36.8612Z" fill="#ACACAC"/>
<path d="M33.4939 36.8612H32.1541V38.1776H33.4939V36.8612Z" fill="#ACACAC"/>
<path d="M34.8336 36.8612H33.4939V38.1776H34.8336V36.8612Z" fill="#747474"/>
<path d="M36.1734 36.8612H34.8336V38.1776H36.1734V36.8612Z" fill="#747474"/>
<path d="M37.5131 36.8612H36.1734V38.1776H37.5131V36.8612Z" fill="#747474"/>
<path d="M38.8529 36.8612H37.5131V38.1776H38.8529V36.8612Z" fill="#747474"/>
<path d="M40.1926 36.8612H38.8529V38.1776H40.1926V36.8612Z" fill="#282828"/>
<path d="M41.5324 36.8612H40.1926V38.1776H41.5324V36.8612Z" fill="#282828"/>
<path d="M42.8721 36.8612H41.5324V38.1776H42.8721V36.8612Z" fill="#282828"/>
<path d="M44.2119 36.8612H42.8721V38.1776H44.2119V36.8612Z" fill="#282828"/>
<path d="M45.5516 36.8612H44.2119V38.1776H45.5516V36.8612Z" fill="#282828"/>
<path d="M46.8914 36.8612H45.5516V38.1776H46.8914V36.8612Z" fill="#282828"/>
<path d="M48.2312 36.8612H46.8914V38.1776H48.2312V36.8612Z" fill="#282828"/>
<path d="M49.5709 36.8612H48.2312V38.1776H49.5709V36.8612Z" fill="#282828"/>
<path d="M50.9107 36.8612H49.5709V38.1776H50.9107V36.8612Z" fill="#282828"/>
<path d="M52.2504 36.8612H50.9107V38.1776H52.2504V36.8612Z" fill="#282828"/>
<path d="M53.5902 36.8612H52.2504V38.1776H53.5902V36.8612Z" fill="#282828"/>
<path d="M54.9299 36.8612H53.5902V38.1776H54.9299V36.8612Z" fill="#282828"/>
<path d="M4.01926 38.1776H2.67951V39.4941H4.01926V38.1776Z" fill="#282828"/>
<path d="M5.35902 38.1776H4.01926V39.4941H5.35902V38.1776Z" fill="#282828"/>
<path d="M6.69877 38.1776H5.35902V39.4941H6.69877V38.1776Z" fill="#282828"/>
<path d="M8.03852 38.1776H6.69877V39.4941H8.03852V38.1776Z" fill="#282828"/>
<path d="M9.37828 38.1776H8.03852V39.4941H9.37828V38.1776Z" fill="#282828"/>
<path d="M10.718 38.1776H9.37828V39.4941H10.718V38.1776Z" fill="#282828"/>
<path d="M12.0578 38.1776H10.718V39.4941H12.0578V38.1776Z" fill="#282828"/>
<path d="M13.3975 38.1776H12.0578V39.4941H13.3975V38.1776Z" fill="#282828"/>
<path d="M14.7373 38.1776H13.3975V39.4941H14.7373V38.1776Z" fill="#282828"/>
<path d="M16.077 38.1776H14.7373V39.4941H16.077V38.1776Z" fill="#282828"/>
<path d="M17.4168 38.1776H16.077V39.4941H17.4168V38.1776Z" fill="#282828"/>
<path d="M18.7566 38.1776H17.4168V39.4941H18.7566V38.1776Z" fill="#282828"/>
<path d="M20.0963 38.1776H18.7566V39.4941H20.0963V38.1776Z" fill="#282828"/>
<path d="M21.4361 38.1776H20.0963V39.4941H21.4361V38.1776Z" fill="#ACACAC"/>
<path d="M22.7758 38.1776H21.4361V39.4941H22.7758V38.1776Z" fill="#ACACAC"/>
<path d="M24.1156 38.1776H22.7758V39.4941H24.1156V38.1776Z" fill="#ACACAC"/>
<path d="M25.4553 38.1776H24.1156V39.4941H25.4553V38.1776Z" fill="white"/>
<path d="M26.7951 38.1776H25.4553V39.4941H26.7951V38.1776Z" fill="#ACACAC"/>
<path d="M28.1348 38.1776H26.7951V39.4941H28.1348V38.1776Z" fill="#ACACAC"/>
<path d="M29.4746 38.1776H28.1348V39.4941H29.4746V38.1776Z" fill="#E6E6E6"/>
<path d="M30.8143 38.1776H29.4746V39.4941H30.8143V38.1776Z" fill="#ACACAC"/>
<path d="M32.1541 38.1776H30.8143V39.4941H32.1541V38.1776Z" fill="#ACACAC"/>
<path d="M33.4939 38.1776H32.1541V39.4941H33.4939V38.1776Z" fill="#747474"/>
<path d="M34.8336 38.1776H33.4939V39.4941H34.8336V38.1776Z" fill="#747474"/>
<path d="M36.1734 38.1776H34.8336V39.4941H36.1734V38.1776Z" fill="#747474"/>
<path d="M37.5131 38.1776H36.1734V39.4941H37.5131V38.1776Z" fill="#282828"/>
<path d="M38.8529 38.1776H37.5131V39.4941H38.8529V38.1776Z" fill="#282828"/>
<path d="M40.1926 38.1776H38.8529V39.4941H40.1926V38.1776Z" fill="#282828"/>
<path d="M41.5324 38.1776H40.1926V39.4941H41.5324V38.1776Z" fill="#282828"/>
<path d="M42.8721 38.1776H41.5324V39.4941H42.8721V38.1776Z" fill="#282828"/>
<path d="M44.2119 38.1776H42.8721V39.4941H44.2119V38.1776Z" fill="#282828"/>
<path d="M45.5516 38.1776H44.2119V39.4941H45.5516V38.1776Z" fill="#282828"/>
<path d="M46.8914 38.1776H45.5516V39.4941H46.8914V38.1776Z" fill="#282828"/>
<path d="M48.2312 38.1776H46.8914V39.4941H48.2312V38.1776Z" fill="#282828"/>
<path d="M49.5709 38.1776H48.2312V39.4941H49.5709V38.1776Z" fill="#282828"/>
<path d="M2.67951 39.4941H1.33975V40.8106H2.67951V39.4941Z" fill="#282828"/>
<path d="M4.01926 39.4941H2.67951V40.8106H4.01926V39.4941Z" fill="#282828"/>
<path d="M5.35902 39.4941H4.01926V40.8106H5.35902V39.4941Z" fill="#282828"/>
<path d="M6.69877 39.4941H5.35902V40.8106H6.69877V39.4941Z" fill="#282828"/>
<path d="M8.03852 39.4941H6.69877V40.8106H8.03852V39.4941Z" fill="#282828"/>
<path d="M9.37828 39.4941H8.03852V40.8106H9.37828V39.4941Z" fill="#282828"/>
<path d="M10.718 39.4941H9.37828V40.8106H10.718V39.4941Z" fill="#282828"/>
<path d="M12.0578 39.4941H10.718V40.8106H12.0578V39.4941Z" fill="#282828"/>
<path d="M13.3975 39.4941H12.0578V40.8106H13.3975V39.4941Z" fill="#282828"/>
<path d="M14.7373 39.4941H13.3975V40.8106H14.7373V39.4941Z" fill="#282828"/>
<path d="M16.077 39.4941H14.7373V40.8106H16.077V39.4941Z" fill="#282828"/>
<path d="M17.4168 39.4941H16.077V40.8106H17.4168V39.4941Z" fill="#282828"/>
<path d="M18.7566 39.4941H17.4168V40.8106H18.7566V39.4941Z" fill="#282828"/>
<path d="M20.0963 39.4941H18.7566V40.8106H20.0963V39.4941Z" fill="#282828"/>
<path d="M21.4361 39.4941H20.0963V40.8106H21.4361V39.4941Z" fill="#282828"/>
<path d="M22.7758 39.4941H21.4361V40.8106H22.7758V39.4941Z" fill="#282828"/>
<path d="M24.1156 39.4941H22.7758V40.8106H24.1156V39.4941Z" fill="#ACACAC"/>
<path d="M25.4553 39.4941H24.1156V40.8106H25.4553V39.4941Z" fill="#ACACAC"/>
<path d="M26.7951 39.4941H25.4553V40.8106H26.7951V39.4941Z" fill="#ACACAC"/>
<path d="M28.1348 39.4941H26.7951V40.8106H28.1348V39.4941Z" fill="#ACACAC"/>
<path d="M29.4746 39.4941H28.1348V40.8106H29.4746V39.4941Z" fill="#ACACAC"/>
<path d="M30.8143 39.4941H29.4746V40.8106H30.8143V39.4941Z" fill="#ACACAC"/>
<path d="M32.1541 39.4941H30.8143V40.8106H32.1541V39.4941Z" fill="#747474"/>
<path d="M33.4939 39.4941H32.1541V40.8106H33.4939V39.4941Z" fill="#747474"/>
<path d="M34.8336 39.4941H33.4939V40.8106H34.8336V39.4941Z" fill="#747474"/>
<path d="M36.1734 39.4941H34.8336V40.8106H36.1734V39.4941Z" fill="#282828"/>
<path d="M37.5131 39.4941H36.1734V40.8106H37.5131V39.4941Z" fill="#282828"/>
<path d="M38.8529 39.4941H37.5131V40.8106H38.8529V39.4941Z" fill="#282828"/>
<path d="M40.1926 39.4941H38.8529V40.8106H40.1926V39.4941Z" fill="#282828"/>
<path d="M41.5324 39.4941H40.1926V40.8106H41.5324V39.4941Z" fill="#282828"/>
<path d="M42.8721 39.4941H41.5324V40.8106H42.8721V39.4941Z" fill="#282828"/>
<path d="M44.2119 39.4941H42.8721V40.8106H44.2119V39.4941Z" fill="#282828"/>
<path d="M45.5516 39.4941H44.2119V40.8106H45.5516V39.4941Z" fill="#282828"/>
<path d="M6.69877 40.8106H5.35902V42.127H6.69877V40.8106Z" fill="#282828"/>
<path d="M8.03852 40.8106H6.69877V42.127H8.03852V40.8106Z" fill="#282828"/>
<path d="M9.37828 40.8106H8.03852V42.127H9.37828V40.8106Z" fill="#282828"/>
<path d="M10.718 40.8106H9.37828V42.127H10.718V40.8106Z" fill="#282828"/>
<path d="M12.0578 40.8106H10.718V42.127H12.0578V40.8106Z" fill="#282828"/>
<path d="M13.3975 40.8106H12.0578V42.127H13.3975V40.8106Z" fill="#282828"/>
<path d="M14.7373 40.8106H13.3975V42.127H14.7373V40.8106Z" fill="#282828"/>
<path d="M16.077 40.8106H14.7373V42.127H16.077V40.8106Z" fill="#282828"/>
<path d="M17.4168 40.8106H16.077V42.127H17.4168V40.8106Z" fill="#282828"/>
<path d="M18.7566 40.8106H17.4168V42.127H18.7566V40.8106Z" fill="#282828"/>
<path d="M20.0963 40.8106H18.7566V42.127H20.0963V40.8106Z" fill="#282828"/>
<path d="M21.4361 40.8106H20.0963V42.127H21.4361V40.8106Z" fill="#282828"/>
<path d="M22.7758 40.8106H21.4361V42.127H22.7758V40.8106Z" fill="#282828"/>
<path d="M24.1156 40.8106H22.7758V42.127H24.1156V40.8106Z" fill="#282828"/>
<path d="M25.4553 40.8106H24.1156V42.127H25.4553V40.8106Z" fill="#282828"/>
<path d="M26.7951 40.8106H25.4553V42.127H26.7951V40.8106Z" fill="#ACACAC"/>
<path d="M28.1348 40.8106H26.7951V42.127H28.1348V40.8106Z" fill="#ACACAC"/>
<path d="M29.4746 40.8106H28.1348V42.127H29.4746V40.8106Z" fill="#747474"/>
<path d="M30.8143 40.8106H29.4746V42.127H30.8143V40.8106Z" fill="#747474"/>
<path d="M32.1541 40.8106H30.8143V42.127H32.1541V40.8106Z" fill="#747474"/>
<path d="M33.4939 40.8106H32.1541V42.127H33.4939V40.8106Z" fill="#747474"/>
<path d="M34.8336 40.8106H33.4939V42.127H34.8336V40.8106Z" fill="#282828"/>
<path d="M36.1734 40.8106H34.8336V42.127H36.1734V40.8106Z" fill="#282828"/>
<path d="M37.5131 40.8106H36.1734V42.127H37.5131V40.8106Z" fill="#282828"/>
<path d="M38.8529 40.8106H37.5131V42.127H38.8529V40.8106Z" fill="#282828"/>
<path d="M40.1926 40.8106H38.8529V42.127H40.1926V40.8106Z" fill="#282828"/>
<path d="M41.5324 40.8106H40.1926V42.127H41.5324V40.8106Z" fill="#282828"/>
<path d="M10.718 42.127H9.37828V43.4435H10.718V42.127Z" fill="#282828"/>
<path d="M12.0578 42.127H10.718V43.4435H12.0578V42.127Z" fill="#282828"/>
<path d="M13.3975 42.127H12.0578V43.4435H13.3975V42.127Z" fill="#282828"/>
<path d="M14.7373 42.127H13.3975V43.4435H14.7373V42.127Z" fill="#282828"/>
<path d="M16.077 42.127H14.7373V43.4435H16.077V42.127Z" fill="#282828"/>
<path d="M17.4168 42.127H16.077V43.4435H17.4168V42.127Z" fill="#282828"/>
<path d="M18.7566 42.127H17.4168V43.4435H18.7566V42.127Z" fill="#282828"/>
<path d="M20.0963 42.127H18.7566V43.4435H20.0963V42.127Z" fill="#282828"/>
<path d="M21.4361 42.127H20.0963V43.4435H21.4361V42.127Z" fill="#282828"/>
<path d="M22.7758 42.127H21.4361V43.4435H22.7758V42.127Z" fill="#282828"/>
<path d="M24.1156 42.127H22.7758V43.4435H24.1156V42.127Z" fill="#282828"/>
<path d="M25.4553 42.127H24.1156V43.4435H25.4553V42.127Z" fill="#282828"/>
<path d="M26.7951 42.127H25.4553V43.4435H26.7951V42.127Z" fill="#282828"/>
<path d="M28.1348 42.127H26.7951V43.4435H28.1348V42.127Z" fill="#282828"/>
<path d="M29.4746 42.127H28.1348V43.4435H29.4746V42.127Z" fill="#282828"/>
<path d="M30.8143 42.127H29.4746V43.4435H30.8143V42.127Z" fill="#282828"/>
<path d="M32.1541 42.127H30.8143V43.4435H32.1541V42.127Z" fill="#282828"/>
<path d="M33.4939 42.127H32.1541V43.4435H33.4939V42.127Z" fill="#282828"/>
<path d="M34.8336 42.127H33.4939V43.4435H34.8336V42.127Z" fill="#282828"/>
<path d="M36.1734 42.127H34.8336V43.4435H36.1734V42.127Z" fill="#282828"/>
<path d="M37.5131 42.127H36.1734V43.4435H37.5131V42.127Z" fill="#282828"/>
<path d="M17.4168 43.4435H16.077V44.76H17.4168V43.4435Z" fill="#282828"/>
<path d="M18.7566 43.4435H17.4168V44.76H18.7566V43.4435Z" fill="#282828"/>
<path d="M20.0963 43.4435H18.7566V44.76H20.0963V43.4435Z" fill="#282828"/>
<path d="M21.4361 43.4435H20.0963V44.76H21.4361V43.4435Z" fill="#282828"/>
<path d="M22.7758 43.4435H21.4361V44.76H22.7758V43.4435Z" fill="#282828"/>
<path d="M24.1156 43.4435H22.7758V44.76H24.1156V43.4435Z" fill="#282828"/>
<path d="M25.4553 43.4435H24.1156V44.76H25.4553V43.4435Z" fill="#282828"/>
<path d="M26.7951 43.4435H25.4553V44.76H26.7951V43.4435Z" fill="#282828"/>
<path d="M28.1348 43.4435H26.7951V44.76H28.1348V43.4435Z" fill="#282828"/>
<path d="M29.4746 43.4435H28.1348V44.76H29.4746V43.4435Z" fill="#282828"/>
<path d="M30.8143 43.4435H29.4746V44.76H30.8143V43.4435Z" fill="#282828"/>
</svg>
